<svg width="328" height="328" viewBox="0 0 328 328" fill="none" xmlns="http://www.w3.org/2000/svg">
<g clip-path="url(#clip0_36_486)">
<path d="M52.7019 233.171L39.3702 244.145C39.3702 244.145 37.8676 239.628 37.8676 224.137C37.8676 208.656 37.4272 199.194 38.0825 195.113C38.7134 191.021 38.9435 185.216 38.9435 185.216C38.9435 185.216 42.1697 181.345 44.0915 177.258C46.0345 173.171 49.0398 166.29 49.0398 166.29L53.3419 167.368L52.7003 233.172L52.7019 233.171ZM315.734 221.997C312.949 217.476 305.842 208.44 305.842 208.44L325.42 204.999L302.836 190.375L305.2 175.751L291.212 184.57C291.212 184.57 289.067 176.831 286.484 169.945C283.904 163.062 271.869 146.931 271.869 146.931L223.464 71.0088L134.639 73.3725C134.639 73.3725 57.4292 74.0232 55.2804 74.0232C53.1225 74.0232 52.0603 75.5304 52.0603 77.4582C52.0603 79.3921 51.6199 108.434 51.6199 108.434C51.6199 108.434 46.0345 112.942 40.8713 116.609C35.7081 120.26 29.4782 130.372 22.1555 143.489C14.8481 156.61 3.23396 190.808 2.37292 215.109C1.51188 239.41 -2.57082 274.259 13.126 287.8C28.8229 301.353 52.7019 291.251 60.0093 288.447C67.3167 285.656 79.3667 274.467 79.3667 274.467C79.3667 274.467 177.24 275.54 197.018 275.974C216.796 276.4 214.873 275.328 219.381 271.026C223.904 266.729 221.539 243.93 221.539 243.93C221.539 243.93 226.687 257.688 228.631 264.139C230.57 270.595 234.651 290.813 235.718 295.332C236.815 299.844 241.963 319.206 263.699 322.213C285.407 325.223 294.872 297.266 298.313 275.76C301.759 254.249 299.816 228.66 299.816 228.66L320.475 232.307C320.475 232.307 318.532 226.502 315.732 221.994L315.734 221.997Z" fill="white"/>
<path d="M63.5568 160.533C62.8375 163.264 61.1337 165.295 58.6817 166.665C57.5615 167.296 56.2738 167.727 54.9617 167.928C53.7775 168.124 52.569 168.13 51.4123 167.924C48.657 167.444 46.269 165.771 45.4811 162.628C44.8502 160.147 45.638 157.23 47.5079 155.462C48.3248 154.699 49.4464 154.199 50.5726 154.365C50.7433 154.39 50.9201 154.438 51.0954 154.493C52.2216 154.856 52.9896 155.786 53.5185 156.832C53.8949 157.605 53.4148 158.599 52.6711 158.917C52.1576 159.128 51.6638 159.054 51.2569 158.789C50.9933 158.623 50.757 158.369 50.5864 158.075C50.5132 157.937 50.248 157.619 50.248 157.619C50.0865 157.57 49.9539 157.634 49.9112 157.648C49.3428 158.044 48.9374 158.759 48.6875 159.591C48.1053 161.578 48.9953 163.658 50.7189 164.426C50.9338 164.519 51.1548 164.608 51.3895 164.676C52.4959 164.999 53.7349 164.99 54.9327 164.716C57.208 164.198 59.3232 162.733 60.1249 160.752C60.8106 159.019 61.0453 157.194 60.6781 155.446C60.4342 154.275 59.5137 152.885 58.6664 152.108C57.3848 150.924 55.9248 150.037 54.349 149.313C53.1939 148.765 51.9701 148.31 50.7418 147.894C50.2465 147.713 49.7527 147.542 49.2392 147.37C45.9459 146.264 42.4895 145.398 39.4111 143.734C38.6522 143.333 38.1676 142.574 38.5211 141.698C38.7954 140.97 39.8028 140.406 40.5617 140.808C43.6996 142.463 47.1696 143.373 50.5711 144.473C51.7354 144.845 52.8769 145.241 53.997 145.697C54.0564 145.721 54.1143 145.746 54.1585 145.77C57.9227 147.312 62.0191 149.607 63.4669 153.635C64.2639 155.891 64.1664 158.25 63.5553 160.531L63.5568 160.533Z" fill="#161616"/>
<path d="M66.3853 153.929C66.0774 154.409 65.7589 154.87 65.4069 155.299C64.1252 156.924 61.629 155.054 62.8375 153.376C63.1758 152.898 63.5568 152.373 63.8448 151.889C63.9622 151.694 64.0597 151.508 64.1481 151.331C64.3096 151.017 64.4559 150.694 64.5885 150.353C64.6617 150.147 64.75 149.937 64.808 149.722C64.808 149.717 64.8659 149.525 64.8811 149.447C64.9344 149.168 64.9939 148.89 65.0228 148.605C65.0381 148.487 65.0381 147.974 65.0518 147.949C65.0366 147.666 65.0122 147.387 64.9482 147.113C64.9344 146.985 64.9101 146.863 64.8796 146.75C64.8643 146.686 64.8064 146.54 64.8064 146.511C64.6891 146.256 64.6007 146.002 64.4834 145.756C64.4254 145.663 64.3813 145.561 64.3218 145.468C63.9606 144.911 63.6513 144.508 63.3038 144.132C62.9518 143.745 63.1423 143.935 62.746 143.583C62.5601 143.402 62.3407 143.236 62.1486 143.074C62.0755 143.025 62.0161 142.981 61.9627 142.932C61.5375 142.618 61.1169 142.32 60.6612 142.032C59.6539 141.395 58.6344 140.892 57.3923 140.363C56.0375 139.785 54.6507 139.296 53.2517 138.876C48.4848 137.426 43.32 136.555 38.2407 136.424C37.4086 136.399 36.7822 135.483 36.8706 134.7C36.988 133.79 37.7606 133.334 38.6079 133.33C41.4364 133.301 44.2954 133.658 47.0797 134.142C51.9838 134.999 57.339 136.271 61.728 138.889C62.5449 139.369 63.3343 139.907 64.078 140.496C64.9344 141.186 65.6385 141.87 66.2512 142.629C67.2402 143.868 67.9595 145.302 68.1896 146.918C68.5569 149.385 67.7096 151.851 66.3837 153.931L66.3853 153.929Z" fill="#161616"/>
<path d="M69.258 133.589C69.287 136.398 68.5433 139.706 66.9523 142.056C66.7465 142.35 66.5118 142.536 66.2528 142.629C65.157 143.036 63.7565 141.875 64.1817 140.578C65.0976 138.028 66.2223 135.659 65.9586 132.987C65.695 130.652 64.5581 129.125 62.2981 128.504C61.1871 128.196 59.9786 128.132 58.8432 128.008C57.4381 127.856 56.0392 127.738 54.6539 127.646C51.6791 127.46 48.7028 127.391 45.7417 127.67C44.3564 127.792 42.9422 127.969 41.5859 128.345C41.1012 128.487 40.6075 128.664 40.1427 128.868C39.6718 129.069 39.2085 129.348 38.9875 129.48C37.2944 130.503 35.6058 128.398 37.078 127.028C38.2286 125.981 39.8775 125.497 41.3359 125.12C43.058 124.669 44.8502 124.474 46.6317 124.361C50.0195 124.156 53.4301 124.278 56.7981 124.547C59.7012 124.787 62.9259 124.855 65.4954 126.368C67.7127 127.67 68.8633 129.967 69.1712 132.423C69.2291 132.81 69.2443 133.197 69.2595 133.587L69.258 133.589Z" fill="#161616"/>
<path d="M61.2755 134.269C61.1186 133.946 60.8991 133.696 60.5898 133.52C60.3017 133.363 59.9482 133.266 59.6114 133.33C59.235 133.403 58.8433 133.589 58.6086 133.912C58.476 134.029 58.345 134.127 58.1971 134.22C57.7476 134.474 57.2675 134.669 56.7677 134.822C56.6838 134.842 56.597 134.866 56.4933 134.886C56.0971 134.965 55.7207 135.16 55.4708 135.498C55.2361 135.802 55.1081 136.271 55.1812 136.658C55.2498 137.054 55.4403 137.451 55.7938 137.687C56.1261 137.917 56.5375 138.059 56.9444 137.981C57.7613 137.829 58.5796 137.57 59.3233 137.189C59.686 136.998 60.067 136.788 60.4008 136.538C60.5913 136.391 60.7681 136.21 60.9296 136.024C61.0911 135.854 61.1795 135.657 61.2923 135.447C61.4538 135.139 61.4249 134.575 61.2771 134.272L61.2755 134.269Z" fill="#161616"/>
<path d="M85.7428 273.481C85.4044 273.818 85.0433 274.141 84.676 274.46C83.786 275.243 82.8365 275.978 81.8612 276.677C79.1745 278.596 76.2576 280.245 73.4276 281.92C68.9639 284.558 64.7501 287.548 60.1097 289.907C50.4538 294.806 39.5971 297.077 28.8059 295.707C19.5554 294.523 10.0748 290.499 5.52275 281.885C2.75218 276.653 1.65645 270.388 0.999622 264.574C0.300122 258.417 0.255927 252.23 0.0943865 246.044C-0.282033 231.982 0.461662 218.018 2.22337 204.074C3.09965 197.227 4.22586 190.413 5.9327 183.718C7.57706 177.223 9.75023 170.851 12.0849 164.582C14.4059 158.399 16.9159 152.282 19.5691 146.242C21.7576 141.279 24.2386 136.434 27.1112 131.829C32.6707 122.91 39.9049 115.021 48.8034 109.349C49.3169 109.026 49.8259 108.703 50.3502 108.404C51.4124 107.749 52.5081 107.131 53.6145 106.554C54.4359 106.113 55.268 105.693 56.0955 105.292C58.7091 104.009 61.2008 102.486 63.8723 101.337C66.4707 100.226 69.3738 99.414 72.1871 100.036C73.7933 100.388 75.4377 101.26 76.1662 102.654C76.4892 103.265 76.6355 103.966 76.5334 104.768C76.1372 107.802 73.0634 109.349 70.465 110.099C67.4445 110.984 64.8065 112.81 62.2082 114.542C61.8759 114.777 61.5087 114.998 61.1551 115.228C58.6497 116.877 55.8593 118.683 53.8081 120.964C52.6377 122.246 51.7035 123.68 51.1792 125.331C50.9887 125.884 50.626 126.187 50.1856 126.28C49.163 126.519 47.8219 125.541 48.2471 124.185C48.7119 122.726 49.4709 121.42 50.405 120.215C51.0177 119.407 51.7172 118.643 52.4456 117.924C52.9013 117.474 53.3798 117.037 53.8599 116.618C55.3183 115.374 56.8804 114.268 58.4699 113.201C59.4193 112.564 60.384 111.92 61.3425 111.287C62.8894 110.259 64.4651 109.276 66.1141 108.408C67.3957 107.747 68.6987 107.322 70.0688 106.901C71.2925 106.525 72.5315 105.981 73.1716 104.797C73.5236 104.179 73.3621 103.954 72.8089 103.617C71.9768 103.122 70.8704 102.991 69.9209 103.024C69.7746 103.029 69.6268 103.039 69.4653 103.053C66.8715 103.264 64.4194 104.547 62.231 105.696C59.7988 106.959 57.3559 108.183 54.9388 109.465C54.5426 109.679 54.1357 109.896 53.7395 110.126C52.6194 110.752 51.5221 111.418 50.4462 112.122C47.6467 113.924 44.9736 115.969 42.4926 118.201C35.0968 124.858 29.4688 133.252 25.0935 142.125C22.4647 147.425 20.2183 152.927 18.0162 158.404C15.6373 164.301 13.4504 170.263 11.5256 176.327C9.52316 182.592 7.95195 188.93 6.85622 195.421C5.76506 201.885 5.03051 208.411 4.43312 214.935C3.25357 227.959 3.34196 240.958 3.9104 254.013C4.18928 260.014 4.59618 266.047 5.96622 271.916C7.06196 276.595 8.68193 281.255 12.1535 284.705C18.1046 290.643 27.6202 292.497 35.8725 292.365C46.714 292.188 56.7478 288.121 65.7773 282.326C68.8267 280.368 71.9189 278.553 74.9988 276.663C75.4789 276.369 75.9482 276.077 76.4283 275.778C77.6124 275.024 78.8072 274.26 79.9471 273.434C81.8703 273.449 83.8088 273.463 85.7367 273.483L85.7428 273.481Z" fill="#161616"/>
<path d="M47.4638 165.054C46.2934 168.896 45.1291 172.685 43.1708 176.213C41.336 179.501 38.7955 182.836 35.0801 183.996C34.2328 184.255 33.896 185.366 34.2145 186.115C34.5817 186.981 35.5022 187.236 36.3343 186.972C40.5785 185.655 43.6265 181.911 45.7417 178.186C47.8997 174.393 49.6522 170.106 50.5133 165.809C50.8607 164.067 47.9728 163.328 47.4638 165.056V165.054Z" fill="#161616"/>
<path d="M42.2701 254.144C38.8244 246.087 39.2207 236.813 39.2649 228.227C39.3228 218.937 38.5654 209.649 38.8397 200.358C39.0012 195.111 39.6123 189.997 40.7827 184.887C41.1744 183.154 38.2423 182.415 37.7333 184.128C34.9627 193.359 35.3986 203.466 35.7064 212.981C35.8481 217.636 36.0386 222.285 36.0097 226.946C35.9944 231.551 35.9213 236.161 36.2154 240.762C36.5233 245.745 37.2822 250.796 39.2496 255.416C40.0817 257.359 43.1022 256.082 42.2701 254.144Z" fill="#161616"/>
<path d="M54.8307 229.783C54.8307 231.153 54.8154 232.529 54.8017 233.899C53.5338 234.922 52.2765 235.955 51.0086 236.993C47.3922 239.994 43.7743 242.999 39.8196 245.564C38.0732 246.695 36.0417 244.125 37.8232 242.975C40.7264 241.08 43.4817 238.947 46.1639 236.745C47.8189 235.404 49.4343 234.038 51.0832 232.712C52.3116 231.714 53.5643 230.734 54.8322 229.785L54.8307 229.783Z" fill="#161616"/>
<path d="M53.5183 156.833C53.8947 157.605 53.4147 158.599 52.671 158.917C52.1574 159.128 51.6637 159.054 51.2568 158.789C51.2126 157.355 51.1531 155.921 51.0952 154.492C52.2214 154.854 52.9895 155.784 53.5183 156.831V156.833Z" fill="#161616"/>
<path d="M50.5729 84.3314C50.675 81.9814 50.803 79.2703 49.7987 77.0727C49.3583 76.1126 49.9008 75.3354 50.6552 75.0657C51.3699 74.7959 52.266 74.9773 52.7003 75.849C53.1072 76.6811 53.3709 77.5909 53.5477 78.5068C53.5766 78.7262 53.6056 78.9472 53.6513 79.1682C53.9256 81.2332 53.9393 83.324 53.8524 85.4027C53.8128 86.4558 53.7351 87.5028 53.6619 88.5604C53.476 91.017 53.2703 93.4798 53.2992 95.9211C53.3434 99.4598 53.4897 103.008 53.6178 106.552C53.6818 107.747 53.726 108.936 53.7503 110.126C52.6302 110.752 51.533 111.418 50.457 112.122C50.4281 110.883 50.3991 109.641 50.3534 108.402C50.2955 106.836 50.2361 105.28 50.1782 103.724C50.0654 100.048 49.8597 96.328 50.0319 92.6431C50.0898 91.2822 50.1934 89.9167 50.3108 88.5512C50.3991 87.5043 50.4723 86.4558 50.5317 85.4043C50.547 85.0477 50.5607 84.6849 50.5759 84.3329L50.5729 84.3314Z" fill="#161616"/>
<path d="M55.7069 275.728C55.5743 275.712 55.4433 275.699 55.3107 275.668C54.6691 275.551 54.0732 275.281 53.5642 274.896C50.8333 272.771 50.5148 268.387 50.309 265.22C50.021 260.781 50.2069 256.308 50.4995 251.868C50.7876 246.916 50.9354 241.957 51.0085 236.995C51.0527 235.561 51.0665 234.136 51.0817 232.712C51.1259 226.75 51.1259 220.78 51.199 214.813C51.3697 199.191 51.4871 183.548 51.4139 167.924C51.4048 166.999 51.4048 166.078 51.4048 165.158C51.4048 164.992 51.4048 164.839 51.3895 164.678C52.4959 165.001 53.7349 164.992 54.9328 164.717C54.9617 165.789 54.9617 166.856 54.9617 167.928C54.9769 168.183 54.9769 168.437 54.9769 168.692C54.9769 185.117 54.919 201.553 54.8886 217.989C54.8886 221.92 54.8733 225.854 54.8306 229.785C54.8306 231.155 54.8154 232.531 54.8017 233.901C54.788 236.705 54.7575 239.505 54.7438 242.304C54.6996 246.004 54.4405 249.665 54.2348 253.356C54.0001 257.678 53.8233 261.721 54.2348 265.93C54.3369 266.846 54.4405 267.76 54.6264 268.672C54.6996 269.044 54.788 269.42 54.8764 269.787C54.9053 269.88 54.9648 270.081 54.9785 270.135C55.0364 270.292 55.0821 270.443 55.1553 270.589C55.2101 270.775 55.297 270.952 55.3701 271.127C55.3854 271.176 55.4433 271.255 55.4738 271.323C55.5911 271.485 55.7237 271.642 55.8258 271.797C57.1227 272.032 57.6317 272.693 57.749 273.446C57.9106 274.566 57.1669 275.869 55.7084 275.728H55.7069Z" fill="#161616"/>
<path d="M215.734 74.552C213.835 73.7398 211.706 73.598 209.666 73.5828C207.36 73.5676 205.069 73.7291 202.765 73.8861C197.312 74.2488 191.811 74.0522 186.34 74.0522C173.942 74.0522 161.554 73.9105 149.172 73.4898C136.901 73.0738 124.636 72.516 112.366 72.1335C99.9827 71.751 87.5959 72.5145 75.2121 72.5145C69.3784 72.5145 63.5142 72.6715 57.6759 72.3575C55.9827 72.2646 54.0595 72.1762 52.5127 72.9945C50.53 74.0415 50.0743 76.1613 50.4858 78.237C50.8622 80.1938 53.9117 79.7777 53.5642 77.792C53.5063 77.4095 53.4469 77.0376 53.4758 76.6566C53.4758 76.6704 53.5048 76.4219 53.52 76.3336C53.5353 76.2848 53.5642 76.2116 53.5932 76.1522C53.6374 76.0791 53.7501 75.9556 53.7349 75.9663C53.8233 75.8977 54.3963 75.663 54.3811 75.6676C55.7801 75.3201 57.2248 75.5304 58.6832 75.6325C60.9295 75.7895 63.1759 75.7255 65.4237 75.7255C68.4442 75.7255 71.4632 75.7255 74.4684 75.7255C86.4895 75.7255 98.4953 75.0062 110.501 75.3095C122.374 75.6081 134.264 76.1995 146.137 76.6216C158.159 77.0529 170.164 77.3013 182.185 77.2921C185.465 77.2876 188.749 77.2876 192.048 77.2921C195.069 77.2921 198.112 77.3851 201.147 77.2388C203.541 77.1214 205.92 76.8868 208.327 76.8334C210.368 76.7847 212.63 76.7648 214.553 77.5878C216.481 78.4153 217.675 75.3796 215.737 74.5536L215.734 74.552Z" fill="#161616"/>
<path d="M214.477 75.5014C214.667 75.0123 215.167 74.6206 215.69 74.5276C215.955 74.4697 216.228 74.488 216.493 74.6206C217.458 75.1052 218.29 75.7361 218.945 76.617C220.501 78.7368 220.957 81.4236 221.03 84.1545C221.059 85.2213 221.03 86.3125 220.957 87.3594C220.912 88.1961 220.868 89.0144 220.81 89.8023C220.649 92.3717 220.649 94.932 220.605 97.5106C220.547 101.333 220.419 105.155 220.359 108.978C220.198 116.531 220.286 124.092 220.286 131.644C220.286 138.37 220.315 145.089 220.516 151.809C220.536 152.686 220.58 153.567 220.605 154.443C220.605 154.682 220.62 154.932 220.62 155.167C219.934 155.001 219.219 154.897 218.491 154.883C218.3 156.915 219.146 158.833 220.272 160.555C220.458 160.839 220.649 161.118 220.841 161.403C220.899 163.35 220.958 165.298 221.002 167.247C219.92 165.563 218.639 164.012 217.532 162.334C217.415 158.775 217.269 155.217 217.18 151.654C217.165 151.043 217.136 150.43 217.122 149.815C216.946 142.39 216.961 134.954 216.976 127.525C216.99 120.169 216.961 112.808 217.182 105.45C217.343 99.6167 217.388 93.7921 217.704 87.9675C217.72 87.7374 217.733 87.5118 217.749 87.2817C217.793 86.2104 217.822 85.1375 217.778 84.0661C217.749 83.2188 217.674 82.373 217.532 81.5348C217.386 80.6296 217.15 79.7289 216.715 78.9258C216.437 78.4305 216.04 77.9657 215.604 77.6624C215.531 77.5984 215.443 77.5542 215.355 77.5055C214.611 77.1245 214.146 76.3457 214.478 75.4984L214.477 75.5014Z" fill="#161616"/>
<path d="M223.462 245.334C223.462 245.867 223.462 246.396 223.453 246.929C223.453 250.154 223.418 253.385 223.335 256.616C223.233 260.506 222.807 264.29 222.459 268.141C222.165 271.308 221.406 273.78 218.299 275.36C215.528 276.761 212.303 276.81 209.214 276.83C159.702 277.153 110.602 276.296 61.0895 276.619C58.9742 276.639 55.7647 277.217 55.6611 275.112C55.5438 272.846 54.9464 272.273 57.2232 272.322C69.7242 272.543 85.9286 272.611 98.4495 272.84C122.751 273.285 147.056 273.74 171.356 274.185C180.792 274.356 190.189 273.231 199.612 273.393C206.165 273.51 214.931 275.194 217.281 271.058C219.013 268.029 219.689 263.032 219.821 259.718C220.036 254.388 220.095 249.029 220.066 243.685C220.051 241.682 220.037 239.695 219.978 237.699C219.777 227.557 219.102 217.436 218.578 207.305C220.604 213.145 220.897 219.531 221.118 225.728C221.216 229.021 221.216 232.325 221.554 235.609C221.818 238.139 222.224 240.876 223.437 243.162C223.453 243.886 223.462 244.611 223.462 245.335V245.334Z" fill="#161616"/>
<path d="M227.622 212.096C227.651 212.957 227.202 213.765 226.268 213.902C225.48 214.019 224.501 213.413 224.457 212.556C224.329 209.13 223.233 205.836 221.746 202.757C221.281 201.739 220.752 200.755 220.199 199.792C219.558 198.652 218.873 197.501 218.143 196.39C217.703 195.715 217.238 195.049 216.754 194.412C216.539 194.133 216.289 193.863 216.039 193.609C215.985 193.54 215.926 193.476 215.853 193.408C215.574 193.144 215.373 192.952 215.153 192.766C214.321 192.032 213.445 191.332 212.553 190.686C211.624 190.015 210.571 189.34 209.725 188.924C209.216 188.67 208.702 188.44 208.163 188.263C207.698 188.106 207.758 188.13 207.14 188.048C207.096 188.039 206.954 188.048 206.91 188.048C206.47 188.331 206.342 188.699 206.308 188.699C206.279 188.913 206.255 189.13 206.24 189.345C206.24 189.462 206.255 189.624 206.279 189.717C206.352 189.962 206.47 190.201 206.602 190.427C207.273 191.651 208.384 192.746 209.378 193.755C211.766 196.178 213.998 198.626 215.824 201.518C216.988 203.358 217.895 205.292 218.579 207.283C220.606 213.142 220.899 219.528 221.12 225.725C221.217 229.018 221.217 232.322 221.556 235.606C221.819 238.136 222.226 240.873 223.439 243.159C223.669 243.599 223.934 244.016 224.227 244.407C224.986 245.425 224.34 246.556 223.454 246.928C222.852 247.173 222.138 247.089 221.629 246.419C221.002 245.571 220.473 244.646 220.067 243.683C218.887 240.997 218.462 237.967 218.212 235.108C217.88 231.031 217.924 226.924 217.703 222.842C217.444 218.28 217.238 213.6 215.853 209.216C214.541 205.135 212.192 201.576 209.378 198.38C207.346 196.081 204.575 194.171 203.362 191.259C202.36 188.88 203.265 185.518 206.005 184.872C208.295 184.334 210.703 185.66 212.598 186.791C214.55 187.961 216.376 189.395 218.011 190.991C218.128 191.099 218.245 191.21 218.358 191.329C219.146 192.117 219.759 193.002 220.374 193.932C220.751 194.496 221.129 195.067 221.481 195.636C222.313 196.957 223.101 198.303 223.829 199.683C225.841 203.501 227.476 207.734 227.622 212.096Z" fill="#161616"/>
<path d="M229.36 188.127C227.255 183.741 224.515 179.536 221.118 176.037C218.172 173.003 214.304 169.885 209.856 169.836C207.654 169.807 205.432 170.62 204.399 172.669C203.317 174.814 204.12 177.266 205.304 179.178C206.822 181.659 209.024 183.609 211.109 185.605C213.18 187.592 214.813 189.682 215.984 192.319C216.84 194.267 219.615 193.019 218.969 191.058C217.495 186.51 213.59 183.682 210.453 180.344C209.137 178.95 207.315 177.055 207.229 175.019C207.2 174.491 207.302 174.168 207.64 173.8C207.669 173.79 207.899 173.585 207.899 173.585C208.545 173.262 208.877 173.194 209.333 173.16C212.832 172.877 216.141 175.647 218.433 177.962C221.467 181.016 223.963 184.639 225.915 188.452C227.845 192.185 229.414 196.244 229.547 200.482C229.605 202.244 232.61 202.215 232.654 200.433C232.772 196.19 231.181 191.902 229.36 188.129V188.127Z" fill="#161616"/>
<path d="M238.229 190.305C238.068 190.006 237.995 189.854 237.921 189.692C237.764 189.305 237.632 188.913 237.501 188.513C237.222 187.607 237.021 186.678 236.786 185.757C236.286 183.799 235.777 181.885 234.843 180.09C232.772 176.115 230.238 171.955 226.924 168.876C224.922 167.002 222.49 165.513 220.024 164.329C217.733 163.222 214.905 162.156 212.32 162.631C208.635 163.302 207.768 166.85 208.135 170.114C208.37 172.136 211.449 171.676 211.258 169.664C211.185 168.979 211.17 168.314 211.273 167.633C211.289 167.52 211.302 167.407 211.331 167.301C211.42 167.002 211.449 166.909 211.493 166.821C211.517 166.741 211.551 166.668 211.581 166.595C211.65 166.507 211.855 166.272 211.884 166.232C211.973 166.164 212.061 166.091 212.148 166.027C212.192 166.022 212.48 165.874 212.553 165.85C212.73 165.81 212.886 165.786 213.038 165.766C213.489 165.713 213.562 165.717 214.189 165.79C214.874 165.868 215.167 165.943 215.676 166.094C216.915 166.456 218.113 166.974 219.248 167.557C221.127 168.521 223.262 169.936 224.955 171.511C225.053 171.613 225.117 171.673 225.17 171.731C225.434 172.019 225.684 172.313 225.945 172.616C226.761 173.585 227.52 174.599 228.264 175.632C229.619 177.555 230.862 179.562 231.925 181.662C232.815 183.435 233.25 185.338 233.75 187.257C234.157 188.877 234.48 191.017 235.66 192.298C237.065 193.834 239.424 192.044 238.229 190.302V190.305Z" fill="#161616"/>
<path d="M242.766 189.528C242.797 190.364 242.355 191.163 241.449 191.289C240.651 191.397 239.746 190.805 239.672 189.963C239.482 186.9 238.9 183.865 238.126 180.89C236.519 174.664 234.038 168.404 230.363 163.099C228.659 160.618 226.775 158.439 224.283 156.781C223.172 156.042 221.915 155.479 220.618 155.17C219.932 155.004 219.218 154.9 218.489 154.886C218.299 156.918 219.145 158.836 220.271 160.559C220.457 160.842 220.647 161.121 220.839 161.406C222.209 163.353 223.683 165.204 224.838 167.308C225.259 168.091 224.721 169.138 223.948 169.457C223.087 169.829 222.226 169.364 221.804 168.587C221.554 168.131 221.29 167.686 221.001 167.25C219.919 165.566 218.637 164.015 217.531 162.337C217.325 162.023 217.134 161.706 216.944 161.383C215.338 158.647 214.771 155.789 215.603 152.699C215.751 152.166 216.377 151.721 216.9 151.677C216.988 151.668 217.075 151.657 217.179 151.657C218.314 151.56 219.425 151.622 220.516 151.814C222.674 152.19 224.706 153.091 226.54 154.379C232.115 158.285 235.674 164.848 238.199 171.001C239.555 174.289 240.651 177.686 241.478 181.143C242.149 183.884 242.678 186.702 242.765 189.532L242.766 189.528Z" fill="#161616"/>
<path d="M268.555 265.503C265.77 260.203 263.186 254.804 260.754 249.337C259.457 246.396 258.184 243.435 256.945 240.474C256.319 238.971 255.688 237.459 255.075 235.951C252.887 230.615 250.744 225.262 248.541 219.937C246.558 215.13 244.528 210.324 243.143 205.298C241.773 200.354 241.102 195.215 239.394 190.351C238.738 188.472 241.582 187.237 242.266 189.142C244.225 194.564 244.88 200.311 246.588 205.808C248.144 210.84 250.264 215.68 252.261 220.54C253.748 224.148 255.193 227.775 256.665 231.391C257.174 232.683 257.703 233.98 258.241 235.273C258.285 235.41 258.358 235.551 258.417 235.689C262.416 245.379 266.63 254.973 271.514 264.257C272.464 266.083 269.503 267.326 268.553 265.505L268.555 265.503Z" fill="#161616"/>
<path d="M300.663 224.268C298.916 212.634 296.713 200.96 293.688 189.587C290.672 178.192 286.659 167.054 280.649 156.868C277.776 151.992 274.565 147.387 270.307 143.629C266.122 139.938 261.114 136.997 255.761 135.357C250.788 133.83 245.742 133.717 240.608 134.301C235.474 134.878 230.291 136.009 225.509 137.99C223.408 138.862 221.368 139.933 219.557 141.308C217.835 142.625 219.905 145.278 221.628 143.97C225.245 141.219 229.856 139.79 234.247 138.812C238.711 137.813 243.482 137.094 248.092 137.382C258.508 138.033 268.18 144.577 274.073 152.975C280.533 162.182 285.041 172.612 288.384 183.311C291.737 194.069 293.895 205.16 295.853 216.246C296.915 222.256 297.924 228.262 298.418 234.355C298.932 240.689 299.015 247.051 298.683 253.394C298.345 259.414 297.548 265.391 296.829 271.377C296.143 277.118 295.39 282.869 294.131 288.521C291.825 298.932 287.685 309.386 278.904 315.969C274.92 318.95 270.206 320.996 265.218 321.334C260.374 321.662 255.793 320.086 251.896 317.286C247.755 314.33 244.387 310.346 241.789 306.004C238.945 301.272 237.341 295.942 236.146 290.586C234.8 284.571 233.953 278.459 232.554 272.453C231.14 266.271 228.951 260.319 227.087 254.26C226.211 251.405 225.438 248.514 224.87 245.582C224.489 243.61 221.424 244.031 221.776 246.027C222.867 252.474 225.144 258.65 227.087 264.876C228.997 271.008 230.225 277.244 231.361 283.558C232.496 289.818 233.682 296.185 236.074 302.112C238.026 306.934 240.943 311.456 244.488 315.249C248.066 319.077 252.471 322.463 257.576 323.906C262.754 325.369 268.24 324.914 273.242 323.006C278.332 321.063 282.796 317.701 286.399 313.658C290.147 309.464 292.717 304.378 294.626 299.122C298.727 287.805 299.688 275.702 301.135 263.848C302.742 250.707 302.638 237.365 300.666 224.266L300.663 224.268Z" fill="#161616"/>
<path d="M258.419 235.687C258.198 237.336 257.646 238.962 256.945 240.474C256.799 240.788 256.651 241.091 256.489 241.39C253.999 246.259 250.279 250.802 245.756 253.935C240.445 257.6 233.119 260.782 226.629 258.565C225.826 258.286 225.434 257.288 225.743 256.524C226.076 255.652 226.952 255.422 227.784 255.628C231.024 256.431 234.317 255.912 237.397 254.743C242.237 252.893 246.413 249.794 249.693 245.786C251.297 243.819 252.786 241.69 253.868 239.38C254.377 238.293 254.833 237.138 255.077 235.954C255.267 235.044 255.327 234.119 255.194 233.194C255.033 232.112 255.82 231.466 256.666 231.392C257.175 232.685 257.704 233.982 258.242 235.274C258.286 235.411 258.359 235.553 258.419 235.69V235.687Z" fill="#161616"/>
<path d="M243.392 107.858C240.984 104.519 236.696 103.12 232.712 103.884C228.47 104.701 223.712 107.799 223.335 112.488C223.16 114.475 226.194 114.837 226.429 112.84C226.748 109.884 229.855 107.945 232.493 107.232C235.253 106.488 238.459 107.041 240.373 109.302C242.591 111.92 242.885 115.85 241.788 119.008C240.661 122.325 238.42 124.959 235.645 126.908C234.082 127.999 232.395 128.9 230.599 129.512C229.184 129.997 227.505 130.34 226.062 129.816C224.079 129.101 222.866 132.146 224.853 132.885C228.817 134.352 233.252 132.332 236.58 130.242C240.154 128.005 243.129 124.721 244.662 120.766C246.282 116.617 246.047 111.54 243.394 107.86L243.392 107.858Z" fill="#161616"/>
<path d="M234.392 121.284C234.392 121.284 234.142 121.22 234.113 121.216C234.015 121.191 233.907 121.161 233.81 121.137C233.516 121.059 233.228 120.98 232.949 120.897C232.367 120.731 231.813 120.554 231.24 120.364C230.873 120.242 230.526 120.105 230.163 119.972C230.833 119.317 231.504 118.666 232.159 117.99C233.354 116.757 234.436 115.416 235.107 113.825C235.43 113.061 235.003 112.043 234.217 111.773C233.369 111.484 232.528 111.857 232.161 112.669C232.088 112.84 231.999 113.002 231.926 113.168C231.868 113.252 231.824 113.329 231.78 113.407C231.565 113.735 231.344 114.053 231.094 114.361C230.614 114.987 230.091 115.574 229.532 116.138C229.459 116.207 229.273 116.403 229.244 116.428C229.098 116.574 228.95 116.722 228.804 116.863C228.514 117.147 228.206 117.43 227.914 117.72C227.287 118.331 226.661 118.953 226.079 119.599C225.32 120.411 225.917 121.655 226.778 122.051C229.098 123.118 231.55 123.89 234.041 124.479C234.858 124.669 235.765 123.857 235.823 123.064C235.881 122.11 235.285 121.489 234.393 121.283L234.392 121.284Z" fill="#161616"/>
<path d="M297.413 152.178C297.118 155.423 296.273 158.669 294.496 161.433C292.641 164.321 289.753 166.156 286.44 166.944C285.524 167.159 284.59 166.333 284.473 165.472C283.919 165.335 283.406 165.071 283.116 164.6C282.955 164.355 282.793 164.111 282.661 163.852C278.985 157.895 276.053 151.41 271.184 146.296C270.626 145.709 270.67 144.793 271.037 144.103C267.797 141.474 264.077 139.369 260.402 137.681C256.535 135.899 252.629 135.131 248.38 134.935C243.975 134.729 239.526 135.096 235.136 134.733C233.139 134.572 232.438 131.846 233.996 130.661C237.103 128.282 240.77 126.614 242.458 122.854C244.123 119.139 244.632 114.823 245.013 110.78C243.76 108.983 241.934 107.814 240.02 106.58C237.847 105.201 235.85 104.216 233.237 104.778C231.984 105.037 230.776 105.586 229.62 106.124C228.935 106.452 228.25 106.79 227.58 107.118C227.085 107.368 226.445 107.554 226.004 107.896C224.898 108.802 223.483 107.989 223.176 106.752C222.138 102.474 220.201 98.4905 219.803 94.0466C219.44 89.9837 219.646 85.8782 219.367 81.8016C219.265 80.4163 219.148 79.2169 218.579 78.0816C218.389 77.7188 218.212 77.4887 217.732 77.1702C217.717 77.1702 217.369 77.0041 217.267 76.9645C217.046 76.8761 216.796 76.8075 216.552 76.745C216.479 76.7359 216.17 76.6719 216.126 76.6566C215.964 76.6323 215.807 76.6018 215.646 76.5774C215.307 76.5241 214.975 76.4799 214.623 76.4311C213.879 76.3473 213.12 76.2848 212.377 76.2406C211.065 76.1614 209.739 76.0791 208.427 76.0013C204.295 75.7621 200.155 76.2452 196.038 75.9038C193.983 75.7331 191.971 75.346 189.91 75.2089C187.839 75.0671 185.77 75.0473 183.699 75.0382C167.024 74.9452 150.348 73.7322 133.678 74.4454C133.003 75.532 130.991 75.1601 130.756 73.7108C130.378 73.0647 130.394 72.1884 130.947 71.719C131.152 70.6476 131.491 69.59 131.925 68.5918C133.384 65.2437 135.659 62.2735 138.112 59.5913C140.662 56.7918 143.481 54.2361 146.473 51.9013C149.913 49.2039 153.619 46.7915 157.602 44.981C161.655 43.1309 165.859 41.6481 170.146 40.4579C178.662 38.1095 187.448 37.1692 196.288 37.1829C200.444 37.192 204.647 37.2804 208.745 38.0302C210.801 38.4021 212.848 38.9156 214.785 39.6791C216.61 40.3893 218.357 41.29 220.125 42.1358C223.624 43.8243 227.114 45.6348 230.222 47.9802C233.531 50.4566 236.012 53.5259 238.333 56.9121C243.1 63.9056 247.475 71.5072 249.374 79.828C250.819 86.1951 251.532 93.9095 257.954 97.3064C263.42 100.203 269.984 100.018 275.819 101.858C278.712 102.768 281.511 104.208 283.583 106.475C285.579 108.663 286.896 111.516 287.694 114.349C289.011 118.985 289.432 124.951 287.014 129.413C289.608 130.075 291.914 131.509 293.578 133.726C295.473 136.276 296.466 139.385 296.99 142.487C297.528 145.663 297.705 148.972 297.416 152.178H297.413Z" fill="#161616"/>
<path d="M246.309 141.175C243.74 138.219 240.314 136.315 237.161 134.074C233.602 131.529 230.657 127.78 228.919 123.772C227.211 119.881 227.319 115.612 226.848 111.447C226.804 106.997 224.763 103.014 222.135 99.4415C221.331 98.3396 219.82 98.7709 219.276 99.8484C217.875 102.668 218.386 106.074 218.751 109.079C219.202 112.74 219.128 116.426 219.216 120.106C219.289 123.435 219.628 126.679 219.378 130.008C219.128 133.341 218.692 136.664 218.575 140.017C218.457 143.297 218.648 146.614 219.73 149.728C218.957 150.502 219.172 152.195 220.601 152.469C222.485 152.832 224.262 154.036 225.751 155.245C227.577 156.727 229.168 158.484 230.64 160.319C232.158 162.209 233.543 164.221 234.771 166.319C235.28 167.185 235.745 168.072 236.185 168.972C236.621 169.853 236.909 171.057 237.566 171.796C237.61 171.845 237.655 171.894 237.719 171.943C237.729 172.985 237.63 174.027 237.338 175.05C237.147 175.749 237.264 176.484 237.876 176.944C238.42 177.345 239.349 177.414 239.858 176.929C240.984 175.858 242.31 175.01 243.406 173.919C244.718 172.622 245.535 171.091 245.814 169.254C246.206 166.572 245.477 163.85 243.51 162.166C245.928 159.451 248.232 156.558 249.124 152.975C250.191 148.815 249.109 144.42 246.309 141.175Z" fill="#161616"/>
<path d="M265.888 61.3377C263.612 67.1913 258.649 71.3807 253.079 74.005C247.378 76.6963 240.637 77.9352 234.465 76.2315C231.49 75.4192 228.758 73.7352 226.746 71.3853C225.361 69.7653 224.411 67.8466 223.099 66.1779C221.729 64.4314 219.917 62.9867 218.184 61.606C216.374 60.1582 214.465 58.8171 212.683 57.3236C210.844 55.7768 209.125 54.1035 207.431 52.3951C205.84 50.7843 204.28 49.1262 202.704 47.5108C201.217 45.9884 199.816 44.4034 199.043 42.3857C198.955 42.1358 198.911 41.9057 198.926 41.6908C198.49 41.3037 198.065 40.9029 197.689 40.4427C193.749 35.598 195.618 28.7843 198.271 23.8314C201.203 18.4229 205.319 13.6163 210.6 10.4007C217.599 6.13362 225.856 4.06712 234.038 5.00741C242.399 5.97208 249.667 10.1752 255.73 15.8687C258.882 18.8389 261.657 22.1383 263.815 25.8979C265.842 29.4274 266.977 33.2739 267.662 37.2621C268.993 45.1319 268.801 53.8246 265.885 61.3377H265.888Z" fill="#161616"/>
<path d="M270.889 33.6046C268.291 27.4722 264.15 21.2955 258.228 17.9672C257.485 17.5512 256.579 17.542 256.026 18.2857C255.546 18.9166 255.601 20.0474 256.334 20.4924C261.057 23.3407 264.416 27.7358 266.823 32.6262C269.477 38.0348 270.978 43.8594 271.199 49.9034C271.296 52.5506 271.037 55.5711 270.411 58.3066C269.902 60.5819 268.747 63.3722 267.459 65.2802C267.127 65.7938 266.749 66.2937 266.353 66.7737C266.151 67.0328 265.917 67.2934 265.697 67.5418C265.595 67.6393 265.507 67.743 265.409 67.8405C265.365 67.8847 265.219 68.031 265.188 68.06C264.688 68.5248 264.166 68.9759 263.626 69.3919C263.391 69.5687 263.161 69.7348 262.927 69.9009C262.78 69.9939 262.633 70.0914 262.486 70.1889C262.442 70.2133 262.095 70.4236 262.066 70.4434C259.731 71.815 257.235 72.5968 254.597 72.8818C251.386 73.2201 248.307 73.2201 245.101 73.0631C243.423 72.9839 241.744 72.8528 240.108 72.5191C239.982 72.4947 239.858 72.4703 239.747 72.4414C239.703 72.4261 239.394 72.3484 239.351 72.3332C239.106 72.2554 238.871 72.1472 238.621 72.0634C237.632 69.9344 234.553 71.271 235.268 73.3268C236.144 75.852 240.27 76.1111 242.443 76.3229C245.889 76.6551 249.374 76.6414 252.814 76.4753C258.809 76.1766 264.472 74.0187 268.539 69.4605C272.538 64.9678 274.26 58.7805 274.506 52.8736C274.771 46.3053 273.459 39.6548 270.889 33.6046Z" fill="#161616"/>
<path d="M304.441 139.888C303.932 136.061 301.891 132.419 298.782 130.095C296.766 128.577 294.509 127.795 292.174 127.638C293.383 125.958 294.215 124.015 294.695 121.842C295.18 119.649 295.454 117.394 295.644 115.157C295.835 112.895 295.879 110.536 295.321 108.314C294.082 103.317 290.132 100.028 285.664 97.82C280.867 95.4517 275.307 94.5755 270.011 95.0647C266.845 95.3527 263.653 95.9851 260.502 95.3923C257.452 94.8193 254.682 93.1749 252.083 91.5656C250.41 90.5126 248.525 92.9601 250.218 94.0558C252.495 95.5295 254.854 96.9727 257.437 97.8733C260.066 98.7892 262.719 98.9843 265.474 98.8029C268.205 98.6216 270.917 98.073 273.672 98.1857C276.051 98.2787 278.488 98.7146 280.764 99.4339C284.748 100.682 289.457 103.085 291.341 107.035C293.131 110.809 292.315 115.385 291.688 119.34C291.4 121.128 290.973 123.144 290.141 124.631C289.108 126.452 287.488 127.632 285.795 128.781C284.16 129.883 285.751 132.51 287.517 131.728C293.439 129.095 299.713 133.441 300.937 139.461C301.289 141.203 301.157 142.891 300.952 144.639C300.702 146.602 300.341 148.55 299.7 150.424C298.691 153.352 296.954 155.7 294.942 157.991C293.933 159.126 292.872 160.228 291.658 161.153C291.076 161.604 290.757 161.814 290.14 162.087C290.067 162.122 289.978 162.147 289.91 162.171C289.852 162.182 289.689 162.22 289.646 162.22C289.558 162.195 289.5 162.176 289.44 162.147C287.429 161.226 286.161 164.446 288.188 165.367C291.237 166.757 294.492 163.439 296.371 161.481C298.75 159.029 300.981 156.307 302.322 153.146C303.243 150.968 303.796 148.623 304.163 146.29C304.482 144.181 304.717 142.012 304.438 139.888H304.441Z" fill="#161616"/>
<path d="M34.449 201.416C34.4337 201.456 34.3758 201.602 34.3316 201.7C34.2783 201.748 34.2036 201.847 34.1701 201.89C33.911 202.032 33.7342 202.111 33.5346 202.173C33.6474 202.138 33.4172 202.202 33.1536 202.247C32.9479 202.286 32.733 202.315 32.512 202.335C31.8857 202.399 31.6068 202.393 31.0383 202.375C28.6747 202.286 26.1052 201.802 23.961 201.239C19.1499 199.971 14.5536 197.535 11.8867 193.164C10.1051 190.261 9.66471 187.012 9.48793 183.679C9.40412 181.902 6.44305 181.937 6.3699 183.727C6.07578 190.942 9.53213 197.608 15.7027 201.376C17.8804 202.708 20.1084 203.623 22.5742 204.28C25.2915 205.014 28.1199 205.641 30.9484 205.705C33.4249 205.767 37.2531 205.342 37.5716 202.19C37.7621 200.409 35.0601 199.63 34.449 201.418V201.416Z" fill="#161616"/>
<path d="M133.4 22.4949C135.427 22.725 137.497 22.9155 139.543 22.7738C136.93 27.53 134.493 32.3808 132.245 37.3154C131.898 35.2108 131.389 33.1352 130.689 31.0794C129.578 27.8547 128.133 24.7549 126.705 21.6582C128.937 21.8883 131.169 22.2449 133.4 22.4949ZM122.632 20.439C125.975 27.8973 129.753 35.2108 129.548 43.6094C129.519 44.4019 129.855 45.141 130.688 45.362C131.446 45.5631 132.279 45.2157 132.582 44.4659C135.675 37.0899 139.146 29.8861 143.041 22.8957C143.202 22.6061 143.218 22.283 143.144 21.9752C143.594 21.5348 143.757 20.7758 143.536 20.2089C143.189 19.3387 142.297 19.0583 141.465 19.2945C138.867 20.0138 135.919 19.5734 133.297 19.2595C130.32 18.912 127.359 18.3832 124.354 18.2765C123.248 18.2369 122.092 19.2366 122.63 20.4406L122.632 20.439Z" fill="#2220FF"/>
<path d="M76.9436 41.6177C79.2783 39.6655 81.104 37.0565 82.5335 34.4276C83.2483 33.1063 83.9036 31.6967 84.4278 30.2382C86.2383 34.9427 89.0683 39.3424 92.8751 42.4985C90.9367 42.0871 88.9936 41.6329 87.0566 41.4211C83.7039 41.0492 80.3314 41.4363 76.9451 41.6162L76.9436 41.6177ZM100.813 43.3504C92.0278 40.4823 86.9972 31.1145 85.5525 22.4858C85.2142 20.4833 82.2242 20.9253 82.4299 22.9415C82.7819 26.4116 81.3387 30.034 79.7477 33.0438C78.1872 35.9561 75.9104 39.1321 72.8762 40.6408C72.3824 40.8862 72.1172 41.287 72.0303 41.7122C70.4241 42.0749 70.2641 44.7327 72.1325 44.8256C77.1052 45.0603 82.0824 43.9935 87.0262 44.5955C91.5188 45.1487 95.8804 46.7092 100.461 46.3862C102.024 46.278 102.283 43.8305 100.813 43.352V43.3504Z" fill="#2220FF"/>
<path d="M92.919 73.118C92.1753 70.3139 90.4425 67.7582 87.579 66.8088C85.0294 65.9569 82.2436 66.4659 80.0811 68.0478C78.7263 69.0551 77.7174 70.4556 77.0316 71.9933C76.6842 72.7675 77.1642 73.7306 77.9216 74.0293C78.7537 74.3524 79.6148 73.912 79.9622 73.1378C80.0354 72.9671 80.1085 72.801 80.1969 72.638C80.2122 72.6181 80.4027 72.3057 80.4179 72.2661C80.6084 71.9766 80.8233 71.6977 81.0442 71.434C81.0732 71.3898 81.3673 71.1018 81.3079 71.146C81.3765 71.0728 81.4649 71.0043 81.538 70.9357C81.7879 70.7254 82.0379 70.5303 82.2969 70.3581C82.3549 70.3246 82.399 70.2895 82.4585 70.2606C82.6779 70.1478 82.8349 70.064 82.9964 69.9969C83.1138 69.9421 83.2311 69.8933 83.3485 69.8491C83.3927 69.8354 83.5938 69.7714 83.667 69.747C83.9306 69.683 84.1806 69.6297 84.4457 69.5946C84.6164 69.5748 84.778 69.5656 84.9395 69.5504C85.4195 69.5855 85.7274 69.6342 86.0307 69.6678C86.2806 69.7363 86.4421 69.7805 86.5839 69.8384C86.7454 69.8963 86.9069 69.971 87.0532 70.0335C87.4495 70.259 87.6948 70.4206 87.9295 70.6065C88.0179 70.6797 88.1048 70.7482 88.1734 70.8275C88.149 70.794 88.408 71.053 88.4385 71.0972C88.658 71.3517 88.85 71.6154 89.0359 71.8851C89.1243 72.0421 89.1685 72.1061 89.1975 72.1686C89.2706 72.3057 89.33 72.4429 89.4032 72.5846C89.4763 72.7751 89.5647 72.9717 89.6333 73.1713C89.6531 73.2293 89.8101 73.7489 89.7659 73.5722C89.9869 74.3997 90.6422 75.055 91.5764 74.9224C92.349 74.8096 93.1369 73.9531 92.9175 73.1165L92.919 73.118Z" fill="#161616"/>
<path d="M327.376 203.755C321.581 200.07 315.532 196.824 309.619 193.321C308.205 192.473 306.775 191.623 305.375 190.722C304.91 190.424 304.454 190.116 304.034 189.768C303.976 189.72 303.697 189.45 303.726 189.494C303.682 189.441 303.609 189.352 303.564 189.299C303.549 189.049 303.584 188.927 303.609 188.795C303.624 188.77 303.726 188.418 303.741 188.369C304.08 187.341 304.456 186.329 304.779 185.291C305.744 182.177 306.952 179.021 307.172 175.746C307.245 174.631 306.105 173.569 304.985 174.117C299.88 176.618 294.991 179.594 290.483 183.064C288.892 184.293 290.806 186.751 292.406 185.532C295.91 182.84 299.66 180.462 303.551 178.386C303.101 180.333 302.415 182.237 301.833 184.137C301.295 185.861 300.096 187.955 300.433 189.814C300.838 192.149 303.756 193.461 305.538 194.557C308.603 196.427 311.71 198.197 314.813 199.979C317.324 201.408 319.819 202.847 322.271 204.345C316.475 205.323 310.48 205.069 304.823 207.012C303.785 207.37 303.639 208.676 304.177 209.473C306.791 213.266 309.884 216.698 312.64 220.383C314.857 223.373 317.088 226.644 318.156 230.266C312.611 229.669 307.257 227.927 301.745 227.066C299.684 226.743 299.322 229.969 301.378 230.292C307.608 231.261 313.691 233.448 320.025 233.645C321.029 233.674 321.992 232.906 321.802 231.819C320.226 222.931 313.31 216.397 308.077 209.383C314.258 207.792 320.852 208.277 327.038 206.505C328.178 206.181 328.32 204.365 327.375 203.758L327.376 203.755Z" fill="#2220FF"/>
<path d="M61.417 115.12L61.4597 126.219L57.8174 126.233L57.7747 115.12H61.417ZM61.5953 164.483C61.609 172.785 61.6075 181.089 61.5755 189.389C61.5435 197.705 61.481 206.008 61.3743 214.292C61.3164 219.573 61.2737 224.844 61.2905 230.106C61.3088 235.337 61.388 240.585 61.577 245.87L61.5862 246.149C61.7995 252.332 62.054 259.668 67.3879 263.115C69.9756 264.781 72.9565 265.766 76.0562 266.357C79.2596 266.968 82.5833 267.166 85.7486 267.254C92.4541 267.442 99.2388 266.948 106.02 266.457L107.275 266.366C113.846 265.865 120.489 265.891 127.135 265.918C129.468 265.927 131.803 265.936 134.138 265.923C141.94 265.872 149.798 265.673 157.655 265.474C161.683 265.372 165.713 265.27 169.792 265.188C172.816 265.124 175.85 265.321 178.918 265.52C183.354 265.808 187.866 266.102 192.166 265.59C196.017 265.129 199.519 263.871 202.37 261.788C205.023 259.848 207.132 257.181 208.451 253.761L208.454 253.763C209.984 249.785 210.735 245.485 211.084 241.106C211.442 236.615 211.381 232.106 211.296 227.767C211.22 224.43 211.069 220.752 210.916 217.017C210.671 211.016 210.42 204.866 210.455 199.272L214.097 199.286C214.062 204.744 214.313 210.883 214.559 216.874C214.71 220.563 214.859 224.198 214.938 227.695C215.027 232.179 215.091 236.835 214.726 241.391C214.354 246.059 213.535 250.69 211.851 255.067V255.075C210.267 259.182 207.727 262.391 204.528 264.729C201.149 267.2 197.054 268.684 192.597 269.217C187.988 269.766 183.299 269.461 178.691 269.161C175.66 268.964 172.663 268.769 169.865 268.829C165.859 268.909 161.801 269.013 157.742 269.115C149.898 269.313 142.053 269.511 134.153 269.563C131.81 269.577 129.47 269.568 127.129 269.559H127.121C120.611 269.533 114.104 269.507 107.547 270.007L106.278 270.098C99.4475 270.593 92.6126 271.09 85.6496 270.895C82.3029 270.801 78.7841 270.592 75.3719 269.94C71.8561 269.269 68.444 268.131 65.4174 266.183C58.4773 261.7 58.1877 253.321 57.9439 246.26L57.9347 245.995C57.7458 240.721 57.6665 235.42 57.6482 230.103C57.6299 224.82 57.6741 219.541 57.732 214.254V214.246C57.8387 205.947 57.9012 197.658 57.9332 189.378V189.371C57.9652 181.074 57.9683 172.775 57.953 164.478H61.5953V164.483ZM210.679 163.789C210.735 152.93 210.787 141.663 210.811 132.64C210.83 125.361 210.831 119.532 210.804 116.536C210.776 113.88 210.717 111.298 210.638 108.697C210.56 106.167 210.458 103.576 210.34 100.85C210.257 98.9172 210.139 96.9666 209.824 95.0753C209.522 93.2664 209.033 91.5092 208.204 89.8755L208.207 89.874C204.313 82.2755 194.604 83.3515 186.592 84.2399L186.272 84.275C183.819 84.5478 181.385 84.5295 178.953 84.5127C176.789 84.4975 174.622 84.4822 172.474 84.688C169.394 84.9836 166.426 85.2275 163.533 85.4332C160.641 85.6389 157.649 85.8218 154.606 85.991C147.292 86.3933 139.577 85.9818 131.948 85.5764C126.791 85.3021 121.673 85.0293 116.863 85.0141V85.0217C115.315 85.0217 114.672 85.0293 114.029 85.037C110.947 85.0735 107.837 85.1101 104.754 84.7855C102.482 84.5462 100.138 84.179 97.823 83.8147L97.218 83.7202V83.7248C93.4157 83.1594 89.5387 83.3515 85.6435 83.545C83.4169 83.6562 81.1828 83.766 78.8679 83.7416C76.2696 83.7142 73.3725 83.734 70.6766 84.2171C68.1346 84.6727 65.7435 85.5444 63.9331 87.2056L63.9193 87.2132C63.104 87.9508 62.4746 88.8133 62.0494 89.7597V89.7674C61.6212 90.7214 61.3926 91.7607 61.3789 92.8488H61.3865C61.3865 98.7984 61.3804 97.0016 61.3835 98.9111L61.3941 104.975H57.7519L57.7412 98.9111C57.7336 92.9616 57.7305 94.7583 57.7305 92.8488L57.7381 92.8351C57.7549 91.2166 58.0902 89.6744 58.7226 88.2678L58.7257 88.2693C59.3551 86.8718 60.2755 85.6039 61.4673 84.5249L61.4642 84.5219C63.8569 82.3273 66.8774 81.1996 70.0365 80.6327C73.0418 80.0947 76.1354 80.0704 78.8999 80.1008C81.0502 80.1237 83.2661 80.014 85.4758 79.9042C89.5616 79.7016 93.6275 79.5004 97.7498 80.113L97.7636 80.1206L98.3838 80.2182C100.612 80.5672 102.867 80.9223 105.129 81.16C108.05 81.4663 111.033 81.4313 113.989 81.3977H113.997C115.262 81.3825 116.527 81.3688 116.866 81.3688V81.3764C121.873 81.3916 126.986 81.6644 132.137 81.9387C139.668 82.3395 147.286 82.7449 154.409 82.3533C157.297 82.1932 160.24 82.0134 163.28 81.7955C166.319 81.5791 169.283 81.3383 172.136 81.064C174.445 80.8415 176.708 80.8582 178.971 80.8735C181.269 80.8902 183.569 80.9055 185.876 80.6495L186.196 80.6144C195.338 79.601 206.416 78.3711 211.457 88.2281L211.465 88.2358C212.482 90.2367 213.071 92.3383 213.428 94.4779C213.772 96.5368 213.897 98.6277 213.987 100.696V100.703C214.102 103.366 214.202 105.953 214.284 108.601C214.364 111.178 214.422 113.777 214.451 116.511C214.479 119.512 214.478 125.352 214.458 132.644C214.434 141.689 214.383 152.956 214.326 163.808L210.683 163.794L210.679 163.789Z" fill="#161616"/>
</g>
<defs>
<clipPath id="clip0_36_486">
<rect width="328" height="328" fill="white"/>
</clipPath>
</defs>
</svg>
