<svg width="328" height="270" viewBox="0 0 328 270" fill="none" xmlns="http://www.w3.org/2000/svg">
<path d="M327.134 77.393C323.022 79.5516 318.526 80.89 313.898 81.3335C313.473 81.3742 313.121 81.2666 312.842 81.0743C312.35 81.1248 311.871 81.1656 311.483 81.2177C309.042 81.5617 306.586 81.8193 304.129 81.9954C299.282 82.3557 294.415 82.4454 289.55 82.3883C279.637 82.2791 269.705 81.7101 259.78 81.4346C243.847 81.0091 227.881 80.8656 211.94 80.8574L197.5 56.6864L176.044 50.9982L163.884 61.6719L162.963 75.9225L156.16 78.081V81.0009C150.09 81.0172 144.022 81.0335 137.952 81.0514C127.787 81.0857 117.601 81.1607 107.437 81.1444C103.162 81.1362 98.5342 80.727 95.1858 77.7729C92.157 75.122 91.1724 71.0576 92.9818 67.3943C94.85 63.5973 98.5016 61.0817 102.002 58.9297C105.741 56.6472 109.722 54.849 113.874 53.4942C117.715 52.2486 121.935 51.127 126.012 51.1107C127.51 51.1107 129.067 51.3683 130.379 51.9715C130.363 49.5619 130.779 47.1376 131.591 44.9041C133.904 38.4969 139.101 33.4038 145.718 31.6545C151.144 30.2247 157.114 31.0121 161.899 33.8717C160.616 28.477 159.959 23.066 161.343 17.5115C162.782 11.7402 166.559 7.02365 171.76 4.16407C177.01 1.28004 183.153 0.342612 189.072 0.0752397C195.896 -0.226369 203.199 0.28392 209.426 3.36033C212.161 4.71675 214.682 6.50684 216.721 8.69798C217.491 7.43612 218.475 6.33077 219.598 5.51072C229.999 -1.98222 243.399 7.24374 251.603 13.8661C256.085 17.4789 260.753 21.5677 262.93 27.0554C264.684 31.4817 264.865 36.6074 267.188 40.7891C269.375 38.6828 272.333 37.628 275.438 37.4763C282.384 37.1323 288.96 41.0321 293.293 46.267C297.344 51.1596 299.604 57.3988 299.532 63.7212C304.69 62.099 310.398 62.2751 315.436 64.282C320.737 66.3982 325.117 70.3712 327.838 75.3731C328.246 76.11 327.838 77.0278 327.13 77.3963L327.134 77.393Z" fill="#A1D2FF"/>
<path d="M161.278 76.4572C161.278 76.4327 161.265 76.4001 161.265 76.374C161.231 76.048 161.198 75.7219 161.172 75.3877C161.252 75.4448 161.337 75.5132 161.416 75.5964C161.64 75.8474 161.597 76.3251 161.278 76.4572Z" fill="#161616"/>
<path d="M162.367 81.7768C162.359 81.7768 162.359 81.7768 162.359 81.7768C162.279 81.842 162.202 81.9023 162.122 81.961C161.941 81.2323 161.811 80.4889 161.688 79.752C161.899 79.7846 162.096 79.8514 162.367 79.9036C163.335 80.1123 163.229 81.5176 162.367 81.7768Z" fill="#161616"/>
<path d="M164.53 67.3323C164.458 67.7252 164.426 68.1181 164.391 68.5273C164.367 68.9381 164.336 69.3392 164.333 69.7566C164.253 69.724 164.165 69.6913 164.08 69.6555C163.1 69.287 162.826 67.6241 164.08 67.3893C164.227 67.3649 164.383 67.3404 164.53 67.3323Z" fill="#161616"/>
<path d="M166.447 89.989C165.585 89.0108 164.781 87.9902 164.113 86.9175C163.759 86.3632 163.447 85.7746 163.187 85.1779C163.187 85.1779 163.187 85.1779 163.187 85.1698C163.602 84.7883 164.432 84.9106 164.667 85.5594C165.159 86.9697 165.567 88.6913 166.447 89.989Z" fill="#161616"/>
<path d="M174.791 96.2783C174.554 96.399 174.328 96.4609 174.096 96.487C173.162 95.9229 172.27 95.2838 171.432 94.6089C170.123 93.5622 168.786 92.403 167.544 91.1477C167.565 91.1575 167.59 91.1738 167.616 91.1917C168.705 91.9531 170.014 92.5237 171.233 93.0601C171.768 93.3014 172.327 93.51 172.9 93.6829C173.636 93.9078 174.456 93.96 175.003 94.5567C175.461 95.0507 175.444 95.9408 174.787 96.2783H174.791Z" fill="#161616"/>
<path d="M177.438 51.9095C176.504 52.5274 175.604 53.1991 174.728 53.892C174.523 54.0599 174.316 54.2278 174.105 54.4039C174.047 53.9279 174.021 53.4502 174.03 52.9562C174.047 51.7432 175.54 50.6412 176.652 51.4498C176.737 51.5346 176.833 51.6096 176.916 51.6846C177.118 51.7009 177.299 51.7856 177.438 51.9095Z" fill="#161616"/>
<path d="M182.94 98.2253C182.254 98.4062 181.556 98.4926 180.827 98.5187C180.566 98.5269 180.318 98.5269 180.058 98.5008C179.64 97.671 179.384 96.8052 179.73 96.0097C179.886 95.6461 180.361 95.5581 180.706 95.62C181.678 95.7765 182.146 96.8998 182.609 97.6709C182.723 97.8617 182.827 98.0427 182.942 98.2253H182.94Z" fill="#161616"/>
<path d="M195.596 85.6196C195.546 85.7321 195.495 85.8609 195.44 85.9734C195.431 85.9913 195.423 85.9995 195.415 86.0174C193.563 88.7857 191.641 91.6061 189.395 94.0891C188.339 95.2499 187.152 96.2786 185.818 97.0497C186.606 94.7657 187.62 92.5501 188.823 90.447C189.706 88.9145 190.64 87.4097 191.548 85.8788C192.155 85.23 192.802 84.6153 193.539 84.0692C194.54 83.316 195.873 84.5534 195.596 85.618V85.6196Z" fill="#161616"/>
<path d="M197.273 80.6976C196.651 80.8248 195.994 80.8574 195.309 80.7808C195.014 80.7482 194.732 80.6373 194.513 80.4563C194.274 80.2558 194.127 79.9705 194.127 79.5955C194.127 79.0086 194.678 78.332 195.309 78.407C195.389 78.4152 195.465 78.4233 195.536 78.4233C196.07 78.4657 196.6 78.407 197.109 78.2636C198.232 77.9619 199.229 77.2446 199.885 76.2403C201 74.5676 200.957 72.3765 200.212 70.5619C199.875 69.7419 199.329 68.6724 198.581 68.1442C197.894 67.66 196.598 68.1523 195.914 68.4458C194.16 69.1892 192.662 71.038 192.914 73.0205C192.965 73.4215 192.565 73.7655 192.22 73.8063C191.786 73.865 191.483 73.6139 191.336 73.2373C191.211 72.8933 191.105 72.5346 191.059 72.1678C190.916 71.2891 190.992 70.3614 191.312 69.5495C191.375 69.3995 191.442 69.2479 191.509 69.1061C192.047 68.061 192.914 67.2345 193.915 66.6149C195.906 65.3857 198.788 64.6667 200.614 66.5236C202.187 68.1295 203.078 70.4625 203.201 72.6797C203.382 76.3186 200.811 79.9901 197.273 80.7009V80.6976Z" fill="#161616"/>
<path d="M197.502 79.1912C197.446 79.7031 197.371 80.2036 197.275 80.696C196.947 82.4241 196.341 84.0528 195.596 85.6179C195.546 85.7304 195.495 85.8592 195.44 85.9717C195.431 85.9896 195.423 85.9978 195.415 86.0157C193.563 88.784 191.641 91.6044 189.395 94.0874C188.339 95.2482 187.152 96.2769 185.818 97.048C186.606 94.764 187.62 92.5484 188.823 90.4453C189.706 88.9128 190.64 87.408 191.548 85.8771C192.613 84.1115 193.64 82.3165 194.515 80.453C194.768 79.933 194.991 79.4064 195.21 78.8798C195.277 78.6956 195.399 78.5456 195.537 78.42C195.987 78.0353 196.677 77.9684 197.111 78.2603C197.371 78.4363 197.536 78.738 197.502 79.1896V79.1912Z" fill="#161616"/>
<path d="M192.604 70.5702C192.604 71.356 191.902 72.2168 191.061 72.1679C191.048 72.1761 191.018 72.1679 191.01 72.1679C187.013 71.7587 183.779 69.8855 181.157 67.0911C180.665 66.5727 180.199 66.02 179.739 65.4429C179.47 65.0924 179.191 64.7337 178.919 64.3734C176.676 61.403 174.523 58.126 174.105 54.4056C174.047 53.9296 174.021 53.4519 174.03 52.9579C174.047 51.745 175.54 50.6429 176.652 51.4515C176.736 51.5363 176.833 51.6113 176.916 51.6863C177.118 51.7026 177.299 51.7873 177.437 51.9112C177.845 52.2634 177.954 52.9237 177.576 53.2758C177.853 54.973 178.207 56.6212 179.027 58.1684C179.945 59.8476 181.06 61.4453 182.186 62.9941C182.564 63.5289 182.973 64.0375 183.397 64.5332C183.948 65.1674 184.537 65.7706 185.177 66.3069C186.814 67.7025 188.746 68.6986 191.008 68.9741C191.181 68.9986 191.357 69.041 191.509 69.1078C192.14 69.3247 192.603 69.8203 192.603 70.5719L192.604 70.5702Z" fill="#161616"/>
<path d="M170.958 85.6961C170.612 85.9472 170.074 85.6879 169.981 85.2983C169.614 83.8424 169.981 82.2529 169.83 80.7628C169.771 80.2019 169.694 79.659 169.574 79.1161C169.372 78.1608 169.086 77.225 168.765 76.2892C168.568 75.712 168.361 75.1333 168.142 74.5659C167.789 73.697 167.41 72.8427 166.944 72.0308C166.284 70.8847 165.489 70.2423 164.331 69.7565C164.251 69.7239 164.163 69.6913 164.078 69.6554C163.099 69.287 162.825 67.624 164.078 67.3893C164.225 67.3648 164.382 67.3404 164.528 67.3322C168.332 66.9882 170.255 71.9395 171.36 74.8088C172.063 76.6397 172.572 78.6482 172.643 80.6209C172.702 82.3703 172.479 84.5973 170.956 85.6961H170.958Z" fill="#161616"/>
<path d="M169.944 77.411C169.683 76.9936 169.443 76.5567 169.116 76.1883C169.099 76.1263 169.086 76.0611 169.078 75.9991C169.065 75.872 169.054 75.7464 169.065 75.6177C169.052 75.5247 169.044 75.4285 169.028 75.3356C168.993 75.1954 168.935 75.0764 168.838 74.9704C168.7 74.7943 168.511 74.6395 168.282 74.5889C168.093 74.5449 167.904 74.5449 167.71 74.5889C167.487 74.6395 167.176 74.8612 167.071 75.078C166.996 75.2606 166.906 75.4448 166.856 75.6372C166.792 75.8394 166.771 76.0481 166.742 76.2584C166.708 76.5991 166.758 76.9464 166.838 77.2773C167.011 77.918 167.373 78.5702 167.886 79.0006C168.142 79.219 168.454 79.4 168.812 79.3837C169.107 79.3706 169.372 79.2859 169.608 79.1033C169.823 78.9353 170.016 78.6973 170.074 78.4234C170.154 78.0827 170.133 77.7159 169.944 77.4126V77.411Z" fill="#161616"/>
<path d="M182.759 75.1465C182.759 74.8694 182.687 74.6118 182.548 74.3754C182.442 74.2156 182.325 74.0705 182.211 73.9303C182.168 73.8814 182.126 73.8341 182.08 73.7917C181.934 73.6515 181.769 73.5325 181.596 73.4217C181.562 73.376 181.537 73.3255 181.492 73.2831C181.484 73.27 181.476 73.2586 181.458 73.2456C181.407 73.195 181.218 73.0467 181.146 73.0059C181.138 72.9994 181.13 72.9945 181.122 72.9896C180.957 72.8804 180.768 72.8217 180.566 72.8119C180.377 72.7679 180.179 72.776 179.977 72.838C179.86 72.8657 179.754 72.913 179.658 72.9717L179.641 72.9733C179.527 73.0239 179.41 73.076 179.288 73.1266C179.182 73.2048 179.081 73.2847 178.976 73.363C178.83 73.4999 178.724 73.6629 178.665 73.8504C178.598 73.9694 178.559 74.095 178.559 74.2319C178.525 74.3656 178.525 74.4993 178.559 74.6346C178.559 74.7699 178.596 74.8971 178.665 75.0161C178.724 75.202 178.83 75.365 178.976 75.5019C179.346 75.872 179.721 76.2437 180.091 76.6187C180.23 76.7622 180.386 76.8665 180.576 76.9268C180.748 77.0198 180.951 77.0638 181.148 77.0556C181.286 77.0393 181.417 77.0198 181.547 77.0018C181.745 76.9578 181.909 76.8665 182.056 76.7361C182.17 76.6692 182.263 76.5779 182.325 76.4671C182.455 76.3236 182.548 76.1524 182.594 75.9584C182.602 75.8867 182.607 75.8117 182.628 75.74C182.653 75.678 182.679 75.6209 182.703 75.5557C182.719 75.4204 182.737 75.2851 182.759 75.1498V75.1465Z" fill="#161616"/>
<path d="M185.177 66.3034C185.092 66.7452 184.757 67.1299 184.217 67.0892C183.855 67.0647 183.51 67.081 183.153 67.0973C182.833 67.1055 182.514 67.0647 182.21 67.0647C181.857 67.0566 181.5 67.0647 181.154 67.0892C180.843 67.0973 180.523 67.1218 180.22 67.156C180.196 67.156 180.161 67.156 180.127 67.1642C180.114 67.1642 180.072 67.1723 179.997 67.1805C179.821 67.2212 179.64 67.2473 179.467 67.2881C179.155 67.3549 178.844 67.4397 178.533 67.5309C178.36 67.5896 178.197 67.6467 178.016 67.707C178.008 67.7152 177.814 67.7901 177.78 67.7983C177.468 67.9336 177.173 68.0738 176.896 68.2678C176.231 68.7096 175.347 68.3672 174.953 67.7478C174.503 67.0549 174.873 66.2513 175.461 65.8079C176.446 65.0547 177.687 64.6195 178.916 64.3684C179.304 64.2934 179.698 64.2348 180.081 64.1842C180.931 64.0831 181.734 64.1435 182.572 64.2934C182.867 64.3521 183.136 64.4287 183.397 64.5282C183.855 64.6961 184.289 64.9211 184.727 65.1884C185.119 65.4215 185.257 65.891 185.177 66.3018V66.3034Z" fill="#161616"/>
<path d="M183.925 83.8881C183.882 83.6973 183.701 83.5832 183.512 83.5751C183.171 83.549 182.801 83.8082 182.532 83.9908C182.368 84.1033 182.36 84.1131 182.179 84.1897C181.942 84.2924 181.763 84.4831 181.564 84.6299C181.556 84.6397 181.556 84.6397 181.556 84.6478C181.54 84.656 181.513 84.6739 181.46 84.7163C181.363 84.7848 181.271 84.8646 181.165 84.9413C181.271 84.863 181.018 85.044 181.026 85.044C180.967 85.0864 180.904 85.1304 180.845 85.1728C180.542 85.3798 180.23 85.5804 179.927 85.7792C179.339 86.1689 178.724 86.4966 178.109 86.8259C177.782 86.9987 177.452 87.1634 177.116 87.3101C177.092 87.3281 176.96 87.3786 177.061 87.3362C176.926 87.3884 176.784 87.4389 176.665 87.509C176.38 87.6655 176.148 87.9247 176.076 88.2459C176.009 88.5329 176.06 88.8948 176.303 89.0937C176.782 89.5176 177.304 89.4393 177.876 89.2502C178.238 89.1279 178.605 88.991 178.957 88.8426C179.697 88.5329 180.418 88.1253 181.086 87.6655C181.751 87.2074 182.374 86.6531 182.92 86.0646C183.064 85.8999 183.248 85.7352 183.359 85.5445C183.489 85.3211 183.489 85.2527 183.604 85.0619C183.793 84.7326 184.029 84.2826 183.923 83.8848L183.925 83.8881Z" fill="#161616"/>
<path d="M197.446 72.8281C197.316 72.5118 197.013 72.4124 196.698 72.4596C196.227 72.5265 195.814 72.6699 195.381 72.8623C195.285 72.9031 195.187 72.9471 195.094 72.9927C195.078 73.0009 195.069 73.0074 195.048 73.0156C195.024 73.0221 195.006 73.0302 194.989 73.0368C194.75 73.1362 194.593 73.2259 194.383 73.3971C194.298 73.4688 194.218 73.5438 194.135 73.6204C193.786 73.9481 193.483 74.3166 193.201 74.7046C193.079 74.8774 192.974 75.0486 192.895 75.2426C192.785 75.4985 192.679 75.6991 192.714 75.9893C192.769 76.3267 192.983 76.6202 193.312 76.7294C193.623 76.8321 194.023 76.7523 194.246 76.5077C194.284 76.4621 194.318 76.4148 194.352 76.3691C194.376 76.3431 194.416 76.3023 194.419 76.2909C194.557 76.1148 194.696 75.9322 194.836 75.7496C194.836 75.7447 194.836 75.7496 194.844 75.7431C194.874 75.7023 194.908 75.6632 194.941 75.6224C195.007 75.5442 195.079 75.4659 195.146 75.3909C195.276 75.2524 195.407 75.1219 195.554 74.9948C195.62 74.9328 195.692 74.8692 195.769 74.8106C195.883 74.716 195.966 74.6051 196.056 74.4861C196.09 74.4568 196.119 74.4258 196.152 74.3948C196.219 74.3345 196.29 74.2725 196.357 74.2122C196.403 74.1812 196.437 74.1519 196.48 74.1177C196.455 74.1372 196.445 74.1421 196.437 74.1535C196.445 74.1405 196.462 74.1291 196.471 74.1209C196.538 74.072 196.618 74.0231 196.687 73.9726C196.851 73.8519 197.014 73.7297 197.187 73.6172C197.456 73.4443 197.578 73.1215 197.448 72.8216L197.446 72.8281Z" fill="#161616"/>
<path d="M196.437 74.1584C196.373 74.212 196.391 74.1909 196.437 74.1584V74.1584Z" fill="#161616"/>
<path d="M194.082 43.9862C193.648 43.7547 193.052 43.7824 192.698 44.1655C192.189 44.7263 191.625 45.2399 191.048 45.7355C191.019 45.6214 190.993 45.5105 190.968 45.3948C190.96 45.266 190.944 45.1372 190.926 45.0084C190.926 45.0068 190.926 45.0035 190.926 45.0019C190.926 44.9203 190.91 44.8405 190.896 44.7622C190.888 44.7361 190.888 44.71 190.88 44.684C190.88 44.684 190.875 44.6856 190.875 44.6872C190.82 44.4899 190.724 44.3073 190.58 44.1557C190.37 43.947 190.024 43.7922 189.731 43.8052C189.041 43.8346 188.591 44.3318 188.536 45.0019C188.511 45.3263 188.591 45.6947 188.642 46.011C188.676 46.2507 188.717 46.4871 188.78 46.7235C188.919 47.2827 189.126 47.8256 189.377 48.3456C189.635 48.8902 190.535 49.1429 191.019 48.7777C191.133 48.6945 191.237 48.6098 191.346 48.5266C191.376 48.5543 191.392 48.5853 191.426 48.6098C191.813 48.9179 192.352 48.8673 192.714 48.5331C193.67 47.6642 194.178 46.4675 194.612 45.2758C194.777 44.8242 194.506 44.2079 194.082 43.9862Z" fill="#161616"/>
<path d="M128.019 257.188C122.082 256.105 116.2 254.548 110.925 251.545C106.273 248.889 101.967 245.014 99.5108 240.177C96.6662 234.544 96.6156 228.09 98.0844 222.049C99.3674 216.79 101.64 211.581 104.929 207.256C107.429 203.976 110.483 201.043 114.236 199.416C115.553 199.365 116.866 199.305 118.191 199.251C118.175 199.518 118.175 199.797 118.191 200.073C118.233 200.81 118.372 201.561 118.435 202.22C118.561 203.69 118.709 205.169 118.893 206.631C119.55 211.98 120.458 217.292 121.443 222.587C123.367 232.961 125.659 243.276 127.455 253.674C127.527 254.038 127.585 254.4 127.644 254.773C127.788 255.56 127.897 256.374 128.019 257.188Z" fill="#161616"/>
<path d="M184.434 261.139C183.285 261.174 182.137 261.2 180.985 261.218C172.263 261.364 163.508 261.459 154.799 260.81C150.419 260.481 146.052 259.9 141.74 259.08C141.378 259.012 140.987 258.96 140.617 258.873C140.617 258.831 140.609 258.777 140.609 258.735C140.558 257.67 140.487 256.606 140.42 255.541C140.314 253.811 140.175 252.09 140.028 250.358C139.57 244.908 138.964 239.482 138.258 234.065C136.701 222.211 134.77 210.375 132.381 198.669C134.409 198.583 136.432 198.496 138.457 198.428C145.879 198.141 153.313 197.908 160.727 197.598C161.203 199.665 161.946 201.63 162.637 203.655C163.513 206.224 164.396 208.783 165.254 211.363C166.928 216.381 168.53 221.435 170.105 226.487C171.67 231.539 173.029 236.652 174.779 241.638C176.482 246.533 178.755 251.188 181.283 255.706C181.653 256.381 182.028 257.038 182.423 257.696C183.07 258.857 183.74 259.998 184.437 261.139H184.434Z" fill="#161616"/>
<path d="M273.441 219.567C272.302 219.886 271.27 220.595 270.256 221.218C268.795 222.128 267.323 223.036 265.872 223.962C265.67 223.848 265.457 223.771 265.241 223.695C265.241 223.695 265.241 223.695 265.233 223.695C265.103 223.651 264.964 223.615 264.826 223.58C264.081 223.424 263.295 224.135 263.508 224.852C261.073 226.427 258.545 227.837 255.708 228.555C252.262 229.437 248.682 229.384 245.145 229.42C237.48 229.479 229.813 229.314 222.156 228.936C217.882 228.719 213.608 228.416 209.345 228.044C207.216 227.862 205.079 227.663 202.95 227.446C200.786 227.221 198.527 226.72 196.357 226.954C194.931 227.11 194.587 228.987 196.021 229.499C197.953 230.191 200.093 230.209 202.13 230.408C204.12 230.607 206.109 230.788 208.107 230.963C212.163 231.3 216.227 231.567 220.296 231.801C228.429 232.25 236.578 232.449 244.727 232.397C247.021 232.381 249.339 232.397 251.639 232.242C251.615 232.518 251.682 232.805 251.892 233.064C253.129 234.665 254.358 236.274 255.594 237.865C256.755 239.382 258.018 240.868 258.934 242.556C259.826 244.207 260.196 246.102 260.558 247.929C260.752 248.907 260.923 249.886 261.063 250.872C260.419 250.456 259.493 250.75 259.081 251.461C258.778 251.961 258.887 252.523 259.207 252.957C256.787 253.166 254.355 253.502 251.949 253.728C247.901 254.126 243.845 254.481 239.778 254.809C231.582 255.474 223.374 256.029 215.166 256.461C208.994 256.79 202.809 257.083 196.624 257.3C196.356 255.077 195.446 253.009 194.495 250.993C193.364 248.614 192.228 246.26 191.129 243.873C188.984 239.201 186.935 234.484 184.979 229.727C180.566 218.972 176.896 207.973 173.109 196.979C173.955 196.943 174.797 196.882 175.643 196.83C179.059 196.613 182.488 196.356 185.887 195.86C188.301 195.506 190.531 194.391 191.423 192.133C193.56 192.582 195.862 192.626 198.023 192.807C200.446 193.015 202.866 193.214 205.289 193.429C210.135 193.837 214.979 194.201 219.833 194.562C229.48 195.308 239.144 195.886 248.791 196.742C254 197.21 259.162 197.945 264.164 199.512C264.387 199.581 264.597 199.615 264.787 199.608C266.44 199.504 266.966 196.77 265.082 196.199C264.459 196 263.828 195.826 263.197 195.653C263.272 194.908 263.362 194.132 263.386 193.361C265.359 195.412 267.186 197.636 268.932 199.815C271.449 202.963 273.715 206.487 274.486 210.502C275.083 213.572 274.848 216.774 273.438 219.57L273.441 219.567Z" fill="#161616"/>
<path d="M183.511 181.591C183.343 182.646 182.801 183.616 181.992 184.404C181.736 184.663 181.441 184.904 181.113 185.121C179.107 186.461 176.599 186.738 174.268 187.086C171.155 187.544 168.025 187.924 164.898 188.217C158.663 188.832 152.406 189.177 146.151 189.507C139.887 189.844 133.622 190.234 127.354 190.475C121.169 190.718 114.973 190.692 108.863 189.549C106.452 189.099 103.654 188.312 102.375 185.992C101.614 184.624 101.508 183.06 102.072 181.743C102.367 181.042 102.849 180.411 103.527 179.909C103.793 179.71 104.078 179.642 104.347 179.66C108.025 175.74 113.111 173.784 118.476 173.101C121.901 172.651 125.372 172.685 128.831 172.711C132.264 172.727 135.692 172.754 139.125 172.815C142.638 172.876 146.151 172.936 149.664 173.049C152.4 173.125 155.142 173.221 157.877 173.37C158.689 173.404 159.501 173.446 160.326 173.5C160.969 173.543 161.638 173.585 162.295 173.639C162.303 173.639 162.303 173.639 162.311 173.639C164.192 173.75 166.077 173.89 167.945 174.071C169.063 174.167 170.167 174.278 171.269 174.4C171.269 174.4 171.269 174.4 171.277 174.4C172.746 174.557 174.226 174.729 175.695 174.938C176.086 174.981 176.477 175.031 176.855 175.093C178.795 175.37 180.776 176.009 182.098 177.403C182.564 177.897 182.957 178.476 183.234 179.159C183.391 179.558 183.482 179.938 183.537 180.328C183.588 180.76 183.58 181.176 183.513 181.591H183.511Z" fill="#161616"/>
<path d="M195.179 176.71C195.069 176.823 194.955 176.926 194.833 177.03C194.593 177.247 194.333 177.454 194.072 177.653C193.563 178.034 193.015 178.372 192.464 178.657C189.763 180.059 186.519 180.533 183.536 180.326C183.241 180.31 182.964 180.284 182.677 180.25C178.722 179.798 174.914 178.155 172.113 175.29C171.818 174.989 171.554 174.677 171.276 174.4C171.267 174.4 171.267 174.4 171.267 174.4C170.703 173.846 170.089 173.44 169.155 173.647C168.737 173.743 168.343 173.89 167.943 174.071C167.321 174.366 166.706 174.712 166.083 174.981C164.931 175.465 163.765 175.794 162.528 175.949C161.514 176.089 160.336 176.277 159.351 175.915C158.089 175.457 157.722 174.428 157.874 173.371C157.975 172.516 158.417 171.632 158.981 170.999C160.668 169.105 163.02 167.54 165.107 166.104C167.068 164.754 169.187 163.006 171.67 164.071C172.979 164.625 174.207 165.412 175.46 166.094C176.722 166.787 177.744 167.599 178.885 168.458C179.604 168.994 179.218 170.378 178.22 170.033C176.924 169.591 175.713 169.235 174.467 168.604C173.272 167.99 172.086 167.307 170.858 166.744C169.698 166.226 168.91 166.901 167.934 167.515C166.895 168.154 165.893 168.839 164.905 169.548C163.946 170.231 163.029 170.941 162.129 171.686C161.783 171.973 160.441 172.881 160.324 173.504C160.303 173.554 160.295 173.606 160.303 173.65C160.337 173.893 161.556 173.753 162.293 173.642C162.301 173.642 162.301 173.642 162.31 173.642C162.504 173.608 162.658 173.582 162.743 173.562C163.765 173.347 164.716 173 165.642 172.525C167.321 171.669 169.163 170.605 171.103 171.27C172.832 171.859 173.879 173.6 175.297 174.655C175.436 174.757 175.558 174.853 175.693 174.941C177.599 176.257 179.805 177.085 182.097 177.406C182.858 177.529 183.627 177.587 184.398 177.587C187.789 177.597 190.743 176.386 193.638 174.716C194.046 174.483 194.471 174.508 194.807 174.672C195.518 175.046 195.88 176.04 195.177 176.715L195.179 176.71Z" fill="#161616"/>
<path d="M176.44 162.574C175.274 161.543 173.965 160.816 172.615 160.047C171.345 159.328 170.032 158.568 168.602 158.195C165.914 157.485 163.255 158.592 161.499 160.678C159.615 162.918 158.643 165.87 157.494 168.516C156.985 169.711 156.094 171.224 156.897 172.506C157.571 173.588 159 173.805 159.944 172.957C160.828 172.162 160.011 171.035 159.069 171.045C159.165 170.88 159.279 170.525 159.33 170.404C159.545 169.92 159.771 169.444 159.995 168.96C160.445 167.973 160.895 166.977 161.354 165.983C162.142 164.295 163.033 162.425 164.652 161.388C166.284 160.332 168.085 160.722 169.772 161.475C171.72 162.341 173.509 163.5 175.587 164.046C176.399 164.271 177.128 163.18 176.441 162.575L176.44 162.574Z" fill="#161616"/>
<path d="M163.705 158.593C162.792 158.87 161.845 158.956 160.919 159.207C160.019 159.449 159.131 159.89 158.29 160.306C156.666 161.118 155.096 162.227 153.867 163.577C152.659 164.899 151.722 166.526 151.334 168.282C151.153 169.121 150.964 170.186 151.203 171.034C151.565 172.323 152.832 172.428 153.929 172.124C154.905 171.847 155.877 171.441 156.747 170.929C157.58 170.445 158.77 169.614 158.956 168.601C159.023 168.177 158.754 167.615 158.229 167.657C157.24 167.752 156.356 168.505 155.494 168.963C155.086 169.18 154.674 169.361 154.232 169.509C154.022 169.578 153.815 169.64 153.609 169.7C153.652 169.397 153.74 169.102 153.798 168.869C153.955 168.29 154.177 167.744 154.464 167.217C155.094 166.082 155.936 165.08 156.904 164.232C157.934 163.33 159.137 162.639 160.337 161.99C160.997 161.645 161.654 161.307 162.293 160.917C162.953 160.529 163.504 160.096 164.199 159.776C164.864 159.463 164.396 158.382 163.703 158.589L163.705 158.593Z" fill="#161616"/>
<path d="M161.155 159.649C159.885 158.064 157.772 158.92 156.232 159.509C154.39 160.21 152.53 160.945 150.843 161.975C149.265 162.944 147.484 164.155 146.749 165.921C146.039 167.616 146.715 169.832 148.575 170.437C149.446 170.724 150.345 170.497 151.17 170.161C151.557 170.005 151.932 169.822 152.32 169.667C152.458 169.615 152.639 169.539 152.761 169.519C152.858 169.493 152.963 169.503 153.056 169.485C153.115 169.477 153.679 169.32 153.36 169.354C154.07 169.286 154.512 168.464 153.966 167.902C153.588 167.52 153.309 167.295 152.763 167.245C152.347 167.21 151.925 167.279 151.526 167.375C150.869 167.53 150.116 168.04 149.527 168.032C149.354 168.022 149.354 168.022 149.283 167.918C149.173 167.753 149.147 167.538 149.173 167.287C149.24 166.733 149.918 166.084 150.419 165.66C151.861 164.441 153.637 163.549 155.35 162.779C156.242 162.373 157.16 162.018 158.068 161.636C158.472 161.472 158.871 161.265 159.297 161.136C159.512 161.067 159.709 161.033 159.911 160.929C159.978 160.953 160.042 160.979 160.092 161.032C160.446 161.283 160.971 161.126 161.224 160.807C161.51 160.435 161.442 159.993 161.157 159.647L161.155 159.649Z" fill="#161616"/>
<path d="M192.254 163.749C188.707 163.914 185.135 163.705 181.648 163.038C179.936 162.709 178.241 162.285 176.57 161.785C175.048 161.327 173.153 160.2 171.556 160.505C170.92 160.624 170.617 161.473 170.959 161.992C171.859 163.412 174.131 163.878 175.654 164.388C177.437 164.976 179.247 165.435 181.089 165.782C184.775 166.465 188.511 166.706 192.254 166.473C193.997 166.362 194.021 163.669 192.254 163.749Z" fill="#161616"/>
<path d="M229.787 155.071C228.853 155.511 227.78 155.72 226.716 155.901C226.085 156.015 225.446 156.11 224.847 156.248C224.587 156.308 224.326 156.351 224.078 156.421C222.795 156.697 221.515 157.001 220.246 157.311C217.111 158.064 214.015 158.896 210.926 159.812C207.838 160.72 204.775 161.68 201.728 162.709C198.649 163.756 195.57 165.106 192.419 165.869C190.976 166.232 190.074 164.207 191.4 163.454C194.202 161.853 197.462 160.833 200.509 159.768C203.597 158.687 206.731 157.684 209.887 156.791C213.047 155.883 216.224 155.069 219.421 154.334C220.329 154.119 221.23 153.92 222.138 153.721C222.777 153.581 223.4 153.452 224.044 153.322C224.35 153.253 224.68 153.175 225.028 153.089C226.362 152.769 227.796 152.37 229.076 152.458C230.338 152.544 231.146 154.439 229.787 155.071Z" fill="#161616"/>
<path d="M256.954 155.141C257.004 158.516 255.801 161.897 254.686 165.039C253.68 167.886 252.464 170.732 250.715 173.217C250.215 173.926 249.672 174.619 249.078 175.258C248.493 175.915 247.849 176.53 247.168 177.092C246.2 177.871 245.145 178.546 243.991 179.074C240.827 180.535 237.393 180.977 233.965 181.341C226.199 182.154 218.428 182.994 210.665 183.859C207.068 184.249 203.08 185.165 199.533 184.04C196.555 183.088 194.333 181.065 192.464 178.659C192.385 178.571 192.308 178.468 192.238 178.383C191.333 177.188 193.046 175.744 194.16 176.401C194.274 176.453 194.375 176.539 194.479 176.652C194.593 176.782 194.703 176.901 194.833 177.032C195.208 177.447 195.603 177.855 196.028 178.235C196.512 178.685 197.034 179.117 197.577 179.515C198.763 180.371 200.068 181.029 201.523 181.28C203.295 181.593 205.163 181.315 206.947 181.124C210.598 180.736 214.258 180.354 217.906 179.956C221.566 179.575 225.218 179.195 228.871 178.779C232.229 178.398 235.67 178.165 238.968 177.385C241.883 176.693 244.408 175.413 246.478 173.231C248.355 171.251 249.675 168.759 250.707 166.249C251.856 163.48 252.878 160.521 253.442 157.589C254.108 154.135 252.95 151.082 251.452 148.045C250.863 146.833 250.265 145.622 249.677 144.411C250.674 143.936 251.617 143.372 252.516 142.741C252.878 143.478 253.245 144.212 253.607 144.949C255.188 148.159 256.915 151.472 256.955 155.141H256.954Z" fill="#161616"/>
<path d="M259.205 133.207C259.045 135.889 257.691 138.147 255.793 139.999C254.782 140.995 253.69 141.919 252.515 142.742C251.615 143.373 250.673 143.937 249.675 144.412C249.175 143.373 248.666 142.336 248.152 141.306C246.268 137.499 244.357 133.701 242.297 129.98C239.191 124.374 235.662 118.932 231.114 114.39C226.907 110.201 221.765 106.812 216.056 105.123C214.129 104.552 212.157 104.189 210.166 104.068C208.134 105.366 206.291 107.037 204.878 108.99C203.132 111.439 202.042 114.174 201.491 117.114C201.377 117.694 201.288 118.275 201.238 118.863C201.672 119.737 202.076 120.629 202.449 121.535C203.391 123.881 204.006 126.356 204.091 128.881C204.179 131.182 203.859 133.926 202.622 135.933C201.482 137.811 199.176 138.045 197.169 138.182C194.981 138.329 192.777 138.01 190.779 137.11C189.004 136.322 187.463 135.026 186.407 133.399C185.249 131.607 184.93 129.436 184.858 127.342C184.791 125.153 184.808 122.929 184.988 120.732C185.013 120.464 185.039 120.195 185.063 119.918C183.523 114.094 183.309 107.961 184.478 102.015C184.798 100.33 185.248 98.6668 185.817 97.0495C187.15 96.2784 188.337 95.2497 189.393 94.0889C191.64 91.6059 193.563 88.7855 195.413 86.0172C195.422 85.9992 195.43 85.9911 195.438 85.9732C195.518 85.8607 195.56 85.74 195.594 85.6194C196.339 84.0527 196.944 82.4256 197.273 80.6975C200.812 79.9883 203.382 76.3152 203.201 72.6763C203.078 70.4607 202.187 68.1261 200.614 66.5202C198.788 64.6633 195.906 65.3823 193.915 66.6115C192.914 67.231 192.047 68.0576 191.509 69.1026C191.358 69.0374 191.181 68.9934 191.009 68.969C188.746 68.6934 186.814 67.6973 185.178 66.3018C185.257 65.8909 185.119 65.423 184.728 65.1883C184.291 64.9209 183.857 64.6959 183.397 64.528C182.972 64.0324 182.564 63.5237 182.186 62.989C181.058 61.4402 179.943 59.8424 179.027 58.1632C178.207 56.6144 177.853 54.9678 177.576 53.2706C177.954 52.9185 177.845 52.2582 177.438 51.9061C177.299 51.7805 177.118 51.6974 176.916 51.6811C176.831 51.6061 176.735 51.5295 176.652 51.4463C175.542 50.636 174.047 51.7398 174.031 52.9527C174.022 53.4467 174.047 53.9244 174.106 54.4005C169.882 57.8209 165.464 61.8102 164.53 67.3305C164.383 67.3386 164.227 67.3631 164.08 67.3876C162.826 67.6223 163.1 69.2852 164.08 69.6537C164.165 69.6879 164.253 69.7205 164.333 69.7548C164.236 72.6812 164.59 75.6924 165.006 78.5715C165.464 81.7832 166.44 84.6216 168.666 87.0443C172.011 90.6962 177.403 96.6583 182.983 94.5291C185.205 93.6895 186.842 91.7428 188.268 89.925C189.357 88.5572 190.363 87.1388 191.55 85.877C190.642 87.4078 189.708 88.9126 188.824 90.4451C187.621 92.5466 186.607 94.7622 185.82 97.0479C184.923 97.5761 183.96 97.9821 182.943 98.225C182.829 98.0424 182.724 97.8614 182.61 97.6707C182.147 96.8995 181.681 95.7763 180.708 95.6198C180.362 95.5594 179.888 95.6458 179.731 96.0094C179.386 96.805 179.643 97.6707 180.059 98.5005C177.922 98.406 175.923 97.6022 174.097 96.4854C174.329 96.4594 174.555 96.3974 174.792 96.2768C175.449 95.9393 175.465 95.0491 175.007 94.5551C174.459 93.9568 173.639 93.9063 172.904 93.6813C172.332 93.5085 171.773 93.2998 171.238 93.0585C170.019 92.5205 168.71 91.9499 167.621 91.1902C167.596 91.1722 167.57 91.1559 167.549 91.1462C167.179 90.7663 166.809 90.3848 166.45 89.987C165.572 88.6893 165.162 86.9677 164.67 85.5574C164.434 84.9086 163.606 84.7863 163.19 85.1678C162.724 84.1293 162.386 83.0663 162.125 81.9593C162.205 81.9006 162.282 81.8403 162.362 81.7751C162.362 81.7751 162.362 81.7751 162.37 81.7751C163.232 81.5159 163.338 80.1105 162.37 79.9019C162.101 79.8513 161.904 79.7829 161.692 79.7502C161.519 78.6465 161.397 77.5428 161.279 76.4554C161.599 76.3217 161.641 75.8456 161.418 75.5946C161.338 75.5114 161.253 75.4429 161.173 75.3859V75.3777C160.82 71.8742 160.559 68.3022 161.511 64.8736C162.453 61.476 164.607 58.6001 167.065 56.1416C169.61 53.5902 172.446 51.1643 175.459 49.1818C178.399 47.2417 181.694 45.8103 185.236 45.5446C186.604 45.4451 188.073 45.5185 189.473 45.8462C190.407 45.1778 191.48 45.6293 192.502 46.0386C194.926 47.0004 196.975 48.6568 198.687 50.6051C202.469 54.8961 204.51 60.1734 206.692 65.3757C208.553 69.8086 210.668 74.2659 214.261 77.5607C215.792 78.9579 217.593 80.0942 219.595 80.6795C222.04 81.3887 224.641 81.348 227.13 81.7653C236.251 83.2994 244.892 88.2898 250.803 95.3948C253.941 99.1657 256.921 103.778 256.781 108.884C256.709 111.411 255.914 113.92 254.253 115.858C253.537 116.698 252.531 117.347 251.908 118.247C251.483 118.87 251.597 119.225 252.022 119.814C253.563 121.941 255.522 123.699 256.962 125.913C258.354 128.034 259.347 130.628 259.205 133.207Z" fill="#161616"/>
<path d="M226.715 155.901C226.085 156.015 225.446 156.11 224.847 156.248C224.586 156.309 224.326 156.351 224.078 156.421C223.409 155.537 222.769 154.629 222.138 153.723C221.784 153.203 221.419 152.684 221.065 152.164C219.311 149.619 217.569 147.06 215.823 144.507C214.119 142.007 212.482 139.463 210.875 136.901C210.058 135.586 209.263 134.272 208.493 132.931C207.897 131.893 206.479 130.214 207.37 129.027C207.716 128.569 208.28 128.396 208.831 128.544C209.597 128.751 209.967 129.599 210.329 130.222C211.141 131.606 211.99 132.982 212.849 134.35C214.481 136.971 216.186 139.541 217.898 142.12C219.681 144.802 221.411 147.528 223.17 150.219C223.793 151.171 224.415 152.132 225.03 153.09C225.61 154.024 226.179 154.951 226.717 155.903L226.715 155.901Z" fill="#161616"/>
<path d="M169.116 103.711C168.788 103.582 168.455 103.436 168.126 103.279C167.331 102.916 166.553 102.483 165.792 101.999C162.334 99.8179 159.354 96.5736 157.946 92.8548C157.773 92.3967 157.626 91.919 157.504 91.443C157.003 89.5143 156.915 87.4634 157.259 85.4923C157.356 84.9641 157.47 84.4538 157.625 83.9419C157.952 82.7991 158.471 81.6611 159.328 80.7986C159.714 80.3976 160.212 80.0373 160.746 79.8465C161.146 79.7047 161.415 79.7047 161.689 79.7536C161.899 79.7862 162.096 79.8531 162.367 79.9052C163.335 80.1139 163.229 81.5193 162.367 81.7785C162.359 81.7785 162.359 81.7785 162.359 81.7785C162.279 81.8437 162.202 81.904 162.122 81.9627C161.672 82.2806 161.188 82.5137 160.869 83.0501C160.326 83.9501 160.107 85.0831 160.001 86.1216C159.77 88.4399 160.161 90.8626 161.23 92.9396C162.194 94.808 163.54 96.4008 165.097 97.7849C166.718 99.2294 168.576 100.39 170.239 101.782C171.098 102.5 170.18 104.155 169.116 103.713V103.711Z" fill="#161616"/>
<path d="M174.79 96.2786C174.554 96.3993 174.327 96.4612 174.096 96.4873C173.465 96.5721 172.842 96.3732 172.211 96.1677C171.442 95.9167 170.689 95.6134 169.944 95.276C168.594 94.663 167.192 93.988 166.013 93.0701C163.783 91.3224 163.089 88.4841 162.963 85.7859C162.947 85.5169 163.038 85.3278 163.187 85.1794C163.187 85.1794 163.187 85.1794 163.187 85.1713C163.602 84.7898 164.432 84.912 164.667 85.5609C165.159 86.9711 165.567 88.6927 166.447 89.9905C166.75 90.4323 167.115 90.8301 167.546 91.1496C167.567 91.1594 167.591 91.1757 167.617 91.1937C168.706 91.955 170.015 92.5256 171.235 93.062C171.769 93.3033 172.329 93.512 172.901 93.6848C173.638 93.9098 174.458 93.9619 175.004 94.5586C175.462 95.0526 175.445 95.9428 174.789 96.2802L174.79 96.2786Z" fill="#161616"/>
<path d="M183.13 105.927C182.327 107.857 181.376 109.717 180.256 111.491C179.66 112.46 179.003 113.41 178.364 114.354C177.775 115.21 177.299 116.188 176.432 116.751C176.277 116.855 176.142 116.915 175.982 116.933C175.966 116.941 175.966 116.941 175.958 116.941C175.18 117.036 174.489 116.196 174.653 115.392C174.746 114.9 175.007 114.44 175.301 113.999C175.578 113.601 175.881 113.221 176.142 112.839C176.701 111.984 177.265 111.142 177.8 110.268C178.742 108.747 179.583 107.155 180.294 105.501C180.903 104.099 181.976 102.342 181.321 100.813C181.018 100.118 180.475 99.3241 180.059 98.5008C179.642 97.671 179.386 96.8052 179.731 96.0097C179.888 95.6461 180.362 95.5581 180.708 95.62C181.679 95.7765 182.147 96.8998 182.61 97.6709C182.724 97.8617 182.829 98.0427 182.943 98.2253C183.347 98.9181 183.746 99.6257 184.015 100.371C184.697 102.247 183.859 104.187 183.132 105.925L183.13 105.927Z" fill="#161616"/>
<path d="M161.278 76.4571C161.244 76.4832 161.206 76.4914 161.172 76.4995C159.692 76.7669 158.463 77.0343 157.494 78.2978C156.43 79.6852 156.48 81.5926 156.775 83.2311C156.914 83.9843 157.079 84.7375 157.259 85.4891C157.478 86.3874 157.718 87.2971 157.954 88.1873C158.119 88.8019 158.291 89.4247 158.665 89.9529C158.921 90.3507 159.46 90.6458 159.666 91.068C159.876 91.518 159.666 91.9076 159.19 92.0625C158.663 92.219 158.04 91.8979 157.641 91.5783C157.599 91.5343 157.545 91.5001 157.502 91.4381C156.603 90.6083 156.215 89.2502 155.887 88.1074C154.974 85.0098 153.686 81.397 155.07 78.2342C155.626 76.9642 156.622 75.8832 157.889 75.2898C158.919 74.8056 160.236 74.6377 161.17 75.373V75.3811C161.25 75.4382 161.335 75.5067 161.415 75.5898C161.638 75.8409 161.596 76.3185 161.276 76.4506L161.278 76.4571Z" fill="#161616"/>
<path d="M175.636 113.974C175.53 113.982 175.439 113.999 175.333 114.017C172.653 113.531 170.196 112.347 168.142 110.528C167.599 110.045 167.078 109.515 166.602 108.953C166.24 108.513 165.601 107.856 165.487 107.293C165.381 106.747 166.144 105.995 166.429 105.58C166.985 104.81 167.64 104.093 168.124 103.278C168.894 101.972 167.174 100.778 166.101 101.719C165.218 102.49 164.528 103.553 163.834 104.497C163.195 105.373 162.58 106.315 162.652 107.448C162.719 108.563 163.392 109.551 164.044 110.425C164.616 111.204 165.239 111.939 165.928 112.606C167.27 113.902 168.853 114.969 170.556 115.73C171.44 116.12 172.35 116.467 173.292 116.708C174.382 116.993 175.799 117.435 176.666 116.457C177.419 115.601 176.986 113.853 175.636 113.976V113.974Z" fill="#161616"/>
<path d="M124.636 131.632C124.49 132.592 124.064 133.363 123.468 133.976C121.815 135.672 118.856 136.252 116.702 136.73C115.654 136.971 114.603 137.17 113.535 137.343C110.578 138.191 107.507 138.763 104.532 139.317C101.082 139.965 97.5937 140.477 94.097 140.84C93.9421 140.909 93.7693 140.962 93.5672 140.979C92.8939 141.023 92.2206 141.047 91.5262 141.081C91.06 141.125 90.584 141.176 90.1079 141.222C89.9612 141.23 89.821 141.212 89.7037 141.187C83.9068 141.489 78.1083 141.636 72.3033 141.636C71.4116 141.636 70.5232 141.636 69.6315 141.628C67.8057 139.118 66.0125 136.591 64.3008 134.022C62.9755 134.064 61.6632 134.092 60.3542 134.195C58.3768 134.351 56.4206 134.723 54.497 135.225C53.5711 135.467 52.6451 135.734 51.7453 136.055C51.0802 136.296 50.4118 136.556 50.2847 137.327C50.0581 138.623 50.8275 140.181 51.4339 141.481C50.4835 141.463 49.5234 141.463 48.5681 141.463C43.9238 141.463 39.2876 141.523 34.6514 141.706C28.328 141.963 22.0046 142.449 15.7399 143.365C10.2951 144.171 3.88367 144.992 0.210914 139.914C-0.0662143 139.533 -0.0743652 138.789 0.210914 138.409C2.47521 135.39 5.30681 132.853 8.61767 131.011C10.4011 130.025 12.2448 129.297 14.1374 128.769C13.4478 127.974 12.9474 126.995 12.7534 125.924C12.1307 122.254 14.3558 119.105 17.1336 116.977C20.1087 114.703 23.5793 112.807 27.045 111.405C29.3468 110.479 31.7106 109.906 34.1183 109.822C32.5827 107.52 31.8932 104.725 32.154 101.851C32.9495 93.2511 41.3758 87.8874 49.0588 85.931C53.532 84.8061 58.3654 84.8061 62.4669 87.126C65.9962 89.1248 68.5343 92.3594 70.5231 95.8205C71.3611 95.1195 72.3913 94.6173 73.4721 94.4021C76.5596 93.7712 80.0987 94.888 82.9336 96.0879C85.8663 97.3253 87.4606 99.5409 87.961 102.665C88.3686 105.165 88.6881 107.701 88.9277 110.228C90.253 109.199 91.8522 108.576 93.6356 108.351C96.8797 107.944 100.023 109.077 102.857 110.557C105.575 111.967 108.811 113.576 110.637 116.139C112.122 118.232 112.122 120.655 111.554 122.991C113.819 122.628 116.249 123.251 118.466 124.203C121.484 125.491 125.231 127.785 124.635 131.635L124.636 131.632Z" fill="#A1D2FF"/>
<path d="M149.805 174.539C149.872 178.528 147.495 181.688 141.706 181.746C132.266 181.842 122.829 181.911 113.4 181.997C111.351 182.015 109.24 182.154 107.127 182.146C105.836 182.146 104.548 182.093 103.286 181.921C102.256 181.808 101.224 181.608 100.215 181.306C96.7185 180.268 94.9644 177.595 93.0881 174.695C90.3152 170.412 87.4722 166.182 84.5819 161.985C79.8235 155.081 74.5972 148.436 69.6333 141.626C67.8075 139.117 66.0143 136.59 64.3027 134.02C63.7142 133.146 63.142 132.271 62.5894 131.389C62.0971 130.637 61.6227 129.874 61.1418 129.107C60.4604 127.98 59.854 126.814 59.3453 125.627C58.8074 124.392 58.4113 123.076 59.135 121.83C60.2077 119.96 62.9431 119.631 65.1683 119.83C68.3487 120.125 71.5341 120.842 74.6509 121.441C77.9113 122.064 81.1553 122.748 84.383 123.49C90.8532 124.953 97.2564 126.588 103.63 128.319C109.773 129.979 115.923 131.65 121.991 133.502C122.483 133.649 122.976 133.805 123.468 133.976C125.639 134.705 127.75 135.603 129.446 136.979C133.8 140.491 137.052 146.039 139.24 150.961C141.835 156.802 144.243 161.966 147.519 167.417C148.938 169.788 149.761 172.297 149.803 174.537L149.805 174.539Z" fill="#161616"/>
<path d="M107.125 182.144C107.167 182.602 106.986 183.086 106.478 183.406C99.6573 187.689 91.4168 188.936 83.4975 189.118C79.8834 189.195 76.2644 189.04 72.6552 188.833C70.9892 188.737 69.1634 188.807 67.8039 187.682C66.5128 186.635 66.0123 184.93 65.414 183.442L56.0439 160.081C54.4871 156.188 52.9303 152.303 51.3653 148.408C50.6122 146.497 49.8427 144.583 49.0814 142.672C48.9168 142.275 48.7407 141.859 48.5679 141.461C48.0756 140.258 47.5915 139.03 47.5328 137.733C47.3518 133.727 52.1771 132.765 55.232 132.134C57.5746 131.66 60.1209 131.286 62.5857 131.389C63.9958 131.449 65.3961 131.658 66.7133 132.082C67.7321 132.419 67.4746 133.776 66.4688 133.872C65.745 133.95 65.013 133.986 64.2974 134.02C62.9721 134.063 61.6598 134.09 60.3508 134.193C58.3734 134.35 56.4172 134.721 54.4936 135.223C53.5676 135.465 52.6417 135.732 51.7419 136.053C51.0768 136.295 50.4084 136.554 50.2812 137.325C50.0546 138.621 50.8241 140.18 51.4305 141.479C51.5772 141.781 51.7076 142.068 51.8217 142.335C54.6827 149.335 57.5469 156.334 60.4046 163.333C61.8554 166.873 63.2997 170.402 64.7457 173.94C66.146 177.367 67.3833 180.923 68.9776 184.254C69.2335 184.8 69.5041 185.326 70.0845 185.551C70.7316 185.811 71.6152 185.724 72.2982 185.758C73.8925 185.845 75.4836 185.923 77.073 185.965C80.3333 186.08 83.6067 186.13 86.8589 185.949C92.5758 185.63 98.1852 184.495 103.279 181.917C103.876 181.64 104.474 181.311 105.042 180.973C106.09 180.367 107.053 181.215 107.12 182.142L107.125 182.144Z" fill="#161616"/>
<path d="M62.9756 173.223C59.5685 174.312 56.1599 175.595 52.5083 175.18C50.6483 174.963 48.8307 174.35 47.0684 173.735C45.4823 173.181 43.9255 172.558 42.4909 171.676C39.8859 170.075 37.708 167.289 38.2998 164.071C38.616 162.367 39.4605 160.816 40.344 159.346C41.1477 158.004 42.0394 156.716 43.1202 155.581C44.3069 154.346 45.691 153.289 47.2983 152.675C48.1101 152.362 48.9774 152.111 49.8528 152.042C50.795 151.964 51.7209 152.128 52.655 152.06C53.8418 151.982 54.2118 150.563 53.2517 149.887C51.6948 148.806 49.3768 149.006 47.626 149.412C45.717 149.853 43.9874 150.865 42.4893 152.094C39.5909 154.483 37.2972 158.082 36.0273 161.586C34.6433 165.367 35.6442 169.26 38.5101 172.064C41.4004 174.911 45.6127 176.381 49.4615 177.393C51.7878 178.006 54.1189 178.181 56.4957 177.808C58.9523 177.436 61.3503 176.596 63.6521 175.678C65.1372 175.082 64.578 172.711 62.974 173.222L62.9756 173.223Z" fill="#161616"/>
<path d="M59.0665 167.365C56.6685 168.163 54.1189 168.309 51.6574 167.67C49.5414 167.124 47.282 166.025 46.1213 164.079C45.0063 162.21 45.8899 160.436 47.5086 159.233C48.4427 158.55 49.5235 157.996 50.6222 157.632C51.8921 157.217 53.1767 156.845 54.4808 157.277C55.5029 157.624 56.08 156.118 55.1997 155.572C52.7855 154.101 50.1479 154.654 47.7401 155.805C45.6584 156.791 43.65 158.358 42.923 160.634C41.2863 165.773 47.0293 169.545 51.2694 170.505C54.0928 171.146 57.076 171.025 59.8017 170.031C61.4416 169.433 60.7684 166.803 59.0649 167.365H59.0665Z" fill="#161616"/>
<path d="M80.0645 139.454C79.4924 139.446 78.974 139.332 78.4018 139.402C77.9013 139.462 77.4041 139.541 76.9037 139.593C75.7723 139.715 74.6198 139.757 73.4787 139.775C71.1606 139.81 68.8376 139.715 66.5326 139.635C64.2014 139.567 61.8833 139.505 59.5652 139.436C57.8275 139.386 55.6235 139.531 54.4286 138.121C54.7986 137.464 54.1254 136.685 53.4146 136.867C53.2679 136.918 53.1114 136.944 52.9484 136.944C52.1366 136.893 51.4764 137.809 51.7111 138.571C52.43 140.854 54.6095 141.961 56.8575 142.265C59.5669 142.618 62.361 142.618 65.0947 142.705C67.7584 142.783 70.4254 142.887 73.0891 142.861C74.3802 142.843 75.6517 142.767 76.9216 142.576C77.5443 142.481 78.1882 142.385 78.7816 142.204C79.5266 141.979 79.9178 141.632 80.5406 141.2C81.2774 140.69 81.041 139.461 80.0645 139.453V139.454Z" fill="#161616"/>
<path d="M191.711 191.152C191.639 191.497 191.546 191.817 191.426 192.13C190.534 194.388 188.304 195.504 185.89 195.857C182.491 196.351 179.061 196.61 175.646 196.827C174.8 196.879 173.959 196.939 173.113 196.975C172.123 197.034 171.148 197.096 170.159 197.148C167.878 197.27 165.594 197.381 163.309 197.477C162.441 197.52 161.589 197.555 160.722 197.599C153.309 197.909 145.874 198.144 138.452 198.429C136.429 198.498 134.404 198.586 132.376 198.671C131.375 198.715 130.361 198.749 129.359 198.783C126.583 198.904 123.797 199.016 121.008 199.138C120.204 199.173 119.4 199.207 118.597 199.235C118.458 199.235 118.319 199.243 118.189 199.251C116.864 199.303 115.551 199.365 114.234 199.416C109.737 199.598 105.231 199.763 100.728 199.927C88.3847 200.351 75.9857 200.482 63.6747 199.329C61.1838 199.096 58.3017 198.957 56.5607 196.89C55.2141 195.297 55.0495 193.039 55.7325 191.119C57.5583 186.023 63.5785 185.028 68.262 186.014C69.1961 186.213 69.2124 187.736 68.262 187.933C65.8216 188.419 62.9737 188.333 60.76 189.568C59.2455 190.416 57.9577 192.32 58.4076 194.13C58.9847 196.457 62.6526 196.259 64.4947 196.422C67.574 196.682 70.6534 196.863 73.7377 196.977C84.9288 197.409 96.1329 197.001 107.311 196.535C118.523 196.069 129.735 195.591 140.94 195.098C152.101 194.605 163.271 194.277 174.42 193.672C177.26 193.507 180.104 193.308 182.936 193.023C184.623 192.85 187.649 192.955 188.472 191.075C189.153 189.518 188.426 187.632 187.243 186.543C185.825 185.243 183.876 184.708 181.989 184.405C181.673 184.345 181.35 184.291 181.03 184.249C179.327 184.016 179.742 181.021 181.446 181.246C182.14 181.34 182.83 181.445 183.508 181.593C185.679 182.041 187.745 182.821 189.432 184.353C190.824 185.633 191.691 187.451 191.809 189.337C191.855 189.943 191.822 190.548 191.708 191.155L191.711 191.152Z" fill="#161616"/>
<path d="M190.838 193.064C175.014 195.997 159.33 200.392 144.588 206.891C137.945 209.825 131.412 213.536 126.384 218.865C121.618 223.918 118.134 230.615 117.865 237.658C117.562 245.177 121.378 253.154 128.282 256.573C129.128 256.997 130.158 255.89 129.354 255.187C124.596 251.035 121.158 245.446 121.107 238.992C121.057 232.511 124.04 226.282 128.349 221.557C133.03 216.426 139.157 212.931 145.408 210.058C152.157 206.953 159.199 204.391 166.268 202.125C174.564 199.452 183.008 197.322 191.591 195.79C193.374 195.47 192.621 192.736 190.838 193.066V193.064Z" fill="white"/>
<path d="M140.581 265.553C140.173 267.525 138.894 269.255 136.791 269.508C134.678 269.749 132.605 268.453 131.325 266.877C129.116 264.152 128.539 260.613 128.017 257.188C127.895 256.374 127.786 255.561 127.642 254.773C127.584 254.4 127.525 254.036 127.453 253.674C125.657 243.275 123.363 232.961 121.441 222.587C120.457 217.292 119.549 211.979 118.892 206.632C118.706 205.171 118.559 203.692 118.434 202.22C118.37 201.563 118.231 200.81 118.189 200.073C118.173 199.797 118.173 199.518 118.189 199.251C118.205 199.044 118.24 198.845 118.295 198.654C118.303 198.612 118.303 198.568 118.319 198.524C118.588 197.658 119.565 196.923 120.448 197.477C120.89 197.764 121.034 198.273 120.924 198.731C120.975 198.791 120.991 198.964 121.009 199.139C121.017 199.32 121.017 199.51 121.034 199.605C121.063 199.872 121.079 200.141 121.113 200.409C121.188 201.075 121.27 201.742 121.34 202.417C121.505 203.749 121.686 205.089 121.857 206.431C122.227 209.167 122.618 211.899 123.068 214.627C123.939 219.946 124.97 225.242 126.033 230.521C127.624 238.446 129.211 246.364 130.678 254.323C130.896 255.458 131.103 256.599 131.322 257.74C131.364 258 131.406 258.259 131.457 258.52C131.76 260.173 132.096 261.92 132.833 263.443C133.455 264.705 134.696 266.463 136.295 266.463C137.705 266.463 137.81 264.289 137.826 263.287C137.86 261.029 137.645 258.736 137.506 256.485C136.892 246.656 135.672 236.897 134.158 227.172C132.689 217.688 130.872 208.257 129.357 198.783C129.323 198.532 129.277 198.281 129.235 198.03C128.94 196.188 131.7 195.348 132.096 197.243C132.192 197.717 132.29 198.195 132.373 198.669C134.763 210.376 136.693 222.212 138.25 234.065C138.957 239.482 139.562 244.908 140.02 250.358C140.167 252.088 140.307 253.81 140.411 255.541C140.478 256.606 140.55 257.67 140.6 258.735C140.6 258.777 140.609 258.829 140.609 258.873C140.723 261.063 141.016 263.381 140.574 265.553H140.581Z" fill="#161616"/>
<path d="M196.29 260.81C195.381 263.58 193.009 265.907 189.921 265.786C187.637 265.701 186.211 264.125 185.104 262.282C184.877 261.903 184.654 261.521 184.436 261.14C183.738 259.997 183.068 258.857 182.421 257.696C182.025 257.039 181.651 256.381 181.281 255.706C178.753 251.188 176.48 246.534 174.777 241.638C173.026 236.652 171.668 231.54 170.103 226.487C168.53 221.435 166.928 216.381 165.252 211.363C164.393 208.784 163.511 206.224 162.635 203.655C161.946 201.63 161.201 199.665 160.725 197.598C160.595 197.026 160.472 196.445 160.397 195.849C160.251 194.88 161.432 194.266 162.021 195.166C162.508 195.919 162.929 196.69 163.312 197.476C164.15 199.215 164.792 201.041 165.475 202.866C166.476 205.539 167.44 208.231 168.374 210.923C170.25 216.304 172.014 221.73 173.688 227.188C175.123 231.915 176.384 236.706 178.039 241.352C179.663 245.921 181.834 250.238 184.224 254.444C184.82 255.507 185.435 256.562 186.05 257.618C186.646 258.639 187.261 259.651 187.867 260.672C187.952 260.81 188.024 260.939 188.107 261.07C188.884 262.238 189.818 263.12 191.343 262.463C192.218 262.09 192.815 261.554 193.198 260.913C193.791 259.927 193.879 258.681 193.69 257.401C193.405 255.497 192.521 253.5 191.838 252.116C187.538 243.289 183.521 234.336 179.881 225.224C176.238 216.122 172.788 206.855 170.209 197.407C170.185 197.321 170.164 197.225 170.164 197.148C169.957 195.521 172.431 194.967 172.995 196.628C173.038 196.74 173.08 196.861 173.117 196.975C176.904 207.97 180.572 218.968 184.987 229.723C186.943 234.482 188.992 239.197 191.137 243.87C192.236 246.258 193.371 248.611 194.504 250.989C195.454 253.006 196.364 255.073 196.633 257.297C196.657 257.488 196.675 257.678 196.691 257.877C196.763 258.844 196.616 259.858 196.295 260.809L196.29 260.81Z" fill="#161616"/>
<path d="M71.0658 198.619C65.5543 217.004 60.2236 235.425 54.2491 253.673C53.2938 256.58 52.2668 262.22 48.3626 262.489C44.5594 262.749 46.4944 256.294 46.8938 254.444C48.8924 245.334 51.4338 236.342 54.5213 227.544C57.9251 217.871 62.5857 208.387 64.3153 198.222C64.5925 196.621 62.3249 195.929 61.8424 197.539C59.0157 206.943 55.0528 215.89 51.7288 225.114C48.3626 234.45 45.6027 244.011 43.4753 253.71C42.688 257.328 41.4425 262.284 45.0859 264.829C48.7538 267.398 53.1927 264.363 54.8669 260.97C55.889 258.911 56.4873 256.653 57.198 254.481C57.9854 252.075 58.7712 249.662 59.5504 247.248C61.1235 242.36 62.6803 237.461 64.2322 232.555C67.6996 221.585 71.1539 210.587 74.1958 199.486C74.7598 197.461 71.6625 196.623 71.0658 198.622V198.619Z" fill="#161616"/>
<path d="M166.321 104.446C165.997 103.753 165.576 103.217 165.012 102.708C164.31 102.068 163.54 101.895 162.598 101.826C160.663 101.696 158.92 102.604 157.453 103.791C155.808 105.107 154.382 106.73 152.926 108.255C151.395 109.856 149.905 111.481 148.437 113.126C142.589 119.665 137.128 126.555 132.066 133.719C130.648 135.726 129.264 137.759 127.906 139.818C127.217 140.873 126.53 141.927 125.857 142.994C125.176 144.066 124.439 145.045 124.351 146.342C124.284 147.294 125.44 147.867 126.203 147.415C127.112 146.869 127.562 146.055 128.105 145.191C128.643 144.335 129.178 143.479 129.726 142.63C130.824 140.934 131.93 139.245 133.074 137.576C135.35 134.245 137.71 130.967 140.159 127.757C145.056 121.335 150.323 115.202 155.882 109.336C157.262 107.864 158.646 106.142 160.438 105.139C161.183 104.715 162.019 104.446 162.878 104.525C163.737 104.593 164.624 104.619 165.244 105.278C165.803 105.883 166.624 105.113 166.324 104.448L166.321 104.446Z" fill="#161616"/>
<path d="M175.203 115.702C174.71 115.599 174.357 115.901 174.306 116.385C174.234 116.966 174.432 117.494 174.471 118.066C174.529 118.819 174.383 119.535 174.184 120.254C173.768 121.778 173.3 123.283 172.784 124.78C171.698 127.92 170.474 131.001 169.106 134.029C166.405 140.017 163.161 145.778 160.919 151.965C160.313 153.635 159.796 155.34 159.418 157.078C159.115 158.42 158.185 160.965 160.107 161.499C160.533 161.614 161.146 161.517 161.428 161.144C161.793 160.696 162.029 160.228 161.835 159.631C161.835 159.613 161.827 159.597 161.819 159.579C161.907 159.131 162.072 158.637 162.16 158.229C162.333 157.425 162.53 156.62 162.753 155.832C163.211 154.24 163.767 152.674 164.39 151.144C165.585 148.167 167.019 145.302 168.411 142.421C171.259 136.521 174.128 130.543 175.975 124.243C176.455 122.592 176.976 120.905 177.011 119.173C177.027 117.893 176.707 115.989 175.201 115.704L175.203 115.702Z" fill="#161616"/>
<path d="M172.802 160.495C170.585 158.886 169.124 156.429 168.464 153.791C168.126 152.466 167.98 151.109 168.027 149.741C168.077 147.855 168.447 145.786 167.556 144.04C167.135 143.192 165.701 143.383 165.498 144.308C165.283 145.328 165.254 146.383 165.137 147.421C165.014 148.374 164.9 149.324 164.876 150.286C164.833 151.964 165.057 153.661 165.541 155.262C166.504 158.472 168.415 161.335 171.246 163.169C171.944 163.627 172.95 163.317 173.362 162.614C173.82 161.835 173.485 160.989 172.803 160.493L172.802 160.495Z" fill="#161616"/>
<path d="M260.629 101.712C259.852 97.6886 257.601 93.9079 254.373 91.3728C252.521 89.912 250.418 88.9078 248.255 88.0078C245.911 87.0296 243.539 86.0873 241.128 85.3162C238.591 84.5026 235.805 83.7592 233.122 83.8799C232.209 83.9239 230.745 83.932 230.227 84.8581C229.836 85.5591 230.357 86.3384 231.136 86.3123C231.36 86.3025 231.591 86.1916 231.722 85.9993C232.062 86.0596 232.555 86.102 232.555 86.102C233.063 86.1362 233.569 86.1802 234.077 86.2243C235.116 86.3107 236.126 86.4835 237.149 86.7182C239.155 87.1764 241.103 87.8692 243.022 88.6127C246.527 89.9626 250.41 91.2766 253.25 93.8297C258.189 98.2772 259.687 105.804 256.494 111.698C255.626 113.291 254.503 114.717 253.145 115.92C251.796 117.124 250.048 117.773 248.732 118.992C248.059 119.615 248.576 120.834 249.486 120.818C251.5 120.766 253.374 119.302 254.841 118.048C256.313 116.794 257.576 115.262 258.561 113.601C260.69 110.019 261.427 105.804 260.631 101.712H260.629Z" fill="#161616"/>
<path d="M265.169 128.111C264.062 125.756 261.728 124.079 259.493 122.867C256.994 121.518 254.495 120.394 252.643 118.265C252.79 117.753 252.441 117.15 251.81 117.122C251.672 117.104 251.546 117.088 251.406 117.07C250.645 116.914 249.622 117.616 249.984 118.488C251.163 121.353 254.027 122.97 256.64 124.33C259.097 125.619 262.282 127.176 263.094 130.085C263.986 133.243 260.843 136.218 258.828 138.217C257.675 139.352 256.451 140.372 255.054 141.194C254.407 141.575 253.742 141.887 253.047 142.172C252.286 142.492 251.432 142.845 250.628 143.036C250.022 143.175 249.968 144.213 250.628 144.316C251.267 144.419 251.743 144.593 252.408 144.515C253.127 144.437 253.864 144.342 254.546 144.083C255.815 143.615 256.986 142.95 258.067 142.136C260.368 140.413 262.488 138.259 264.15 135.915C265.782 133.587 266.423 130.758 265.168 128.111H265.169Z" fill="#161616"/>
<path d="M263.391 193.357C263.367 194.129 263.277 194.906 263.202 195.65C263.147 196.047 263.098 196.437 263.051 196.81C263.03 196.991 262.966 197.174 262.853 197.327C262.386 198.081 261.204 198.48 260.754 197.441C260.397 196.602 260.299 195.798 260.296 194.95C260.288 194.751 260.296 194.552 260.301 194.344V194.318C260.338 193.315 260.511 192.2 260.216 191.214C260.059 190.72 259.782 190.286 259.455 189.888C259.151 189.499 258.798 189.143 258.486 188.78C257.733 187.924 256.98 187.05 256.227 186.176C253.509 183.034 250.811 179.79 247.429 177.315C247.341 177.247 247.248 177.168 247.168 177.09C246.915 176.857 246.743 176.536 246.777 176.184C246.785 176.132 246.798 176.061 246.806 176.001C246.857 175.543 247.046 175.308 247.429 175.057C247.817 174.808 248.363 174.832 248.749 175.057C248.863 175.126 248.968 175.179 249.077 175.256C252.885 177.534 255.717 181.071 258.607 184.384C259.445 185.354 260.286 186.315 261.13 187.283C261.875 188.147 262.611 188.996 262.99 190.085C263.344 191.09 263.432 192.215 263.39 193.356L263.391 193.357Z" fill="#161616"/>
<path d="M118.599 199.233C118.641 199.543 118.535 199.864 118.191 200.071C118.175 199.796 118.175 199.517 118.191 199.249C116.866 199.302 115.553 199.364 114.236 199.414C115.242 198.964 116.298 198.618 117.412 198.385C117.765 198.307 118.069 198.436 118.295 198.653C118.46 198.799 118.561 199.008 118.599 199.233Z" fill="#161616"/>
<path d="M131.326 257.739C131.28 257.739 131.229 257.739 131.182 257.731C130.131 257.566 129.074 257.385 128.018 257.186C127.895 256.373 127.786 255.559 127.643 254.772C127.584 254.398 127.525 254.035 127.454 253.673C128.539 253.906 129.607 254.123 130.68 254.322C130.898 255.456 131.106 256.598 131.324 257.739H131.326Z" fill="#161616"/>
<path d="M140.607 258.735C140.607 258.777 140.615 258.829 140.615 258.873C139.976 258.727 139.386 258.476 139.075 257.853C138.739 257.196 138.814 256.34 139.42 255.87C139.657 255.689 139.95 255.629 140.237 255.655C140.192 255.637 140.157 255.629 140.123 255.621C139.777 255.611 140.165 255.569 140.418 255.543C140.485 256.607 140.557 257.672 140.607 258.737V258.735Z" fill="#161616"/>
<path d="M188.102 261.071C186.883 261.105 185.667 261.131 184.433 261.139C183.735 259.997 183.065 258.857 182.417 257.696C183.629 257.67 184.832 257.646 186.045 257.618C186.642 258.638 187.256 259.651 187.863 260.672C187.948 260.81 188.019 260.939 188.102 261.069V261.071Z" fill="#161616"/>
<path d="M264.661 255.282C262.204 255.931 259.642 256.164 257.118 256.459C254.572 256.762 252.022 256.987 249.478 257.238C244.53 257.714 239.574 258.156 234.614 258.564C221.853 259.592 209.076 260.363 196.29 260.812C195.26 260.856 194.228 260.89 193.193 260.916C193.786 259.93 193.874 258.684 193.685 257.404C194.662 257.388 195.65 257.344 196.626 257.302C202.811 257.085 208.996 256.79 215.167 256.462C223.375 256.03 231.585 255.476 239.78 254.811C243.849 254.483 247.904 254.127 251.951 253.73C254.357 253.505 256.789 253.167 259.208 252.959C259.927 252.898 260.63 252.854 261.337 252.828C262.335 252.778 263.327 252.768 264.323 252.804H264.332C264.816 252.82 265.178 253.081 265.38 253.426C265.75 254.083 265.569 255.044 264.661 255.285V255.282Z" fill="#161616"/>
<path d="M264.792 199.605C264.161 198.834 263.5 198.08 262.852 197.327C262.213 196.592 261.572 195.849 260.941 195.103V195.095C260.715 194.846 260.508 194.601 260.297 194.342V194.316C260.335 193.313 260.508 192.198 260.212 191.212C260.056 190.718 259.779 190.284 259.451 189.886C259.653 189.913 259.838 189.989 260.007 190.138C261.189 191.132 262.317 192.213 263.39 193.356C263.365 194.127 263.276 194.905 263.201 195.648C263.831 195.821 264.462 195.995 265.085 196.194C266.969 196.765 266.445 199.499 264.79 199.603L264.792 199.605Z" fill="#161616"/>
<path d="M268.233 225.398C267.429 226.021 266.57 226.6 265.726 227.154C262.705 229.119 259.549 230.971 255.982 231.69H255.958C255.57 231.776 255.188 231.836 254.792 231.897C253.744 232.061 252.689 232.174 251.641 232.244C249.339 232.399 247.021 232.383 244.729 232.399C236.58 232.451 228.431 232.252 220.298 231.802C216.229 231.569 212.165 231.302 208.109 230.964C206.11 230.79 204.12 230.609 202.131 230.41C200.095 230.211 197.953 230.193 196.023 229.5C194.588 228.99 194.932 227.112 196.359 226.955C198.53 226.722 200.79 227.223 202.951 227.448C205.08 227.664 207.217 227.863 209.346 228.046C213.608 228.418 217.883 228.719 222.158 228.938C229.815 229.318 237.48 229.482 245.146 229.422C248.685 229.386 252.265 229.438 255.71 228.556C258.546 227.839 261.075 226.429 263.51 224.854C263.859 224.621 264.205 224.396 264.54 224.171C264.777 224.024 265.007 223.861 265.235 223.696C265.243 223.696 265.243 223.696 265.243 223.696C265.458 223.773 265.672 223.851 265.874 223.964C266.572 224.285 267.233 224.751 267.872 225.157C267.995 225.237 268.12 225.314 268.234 225.4L268.233 225.398Z" fill="#161616"/>
<path d="M107.652 161.3C106.129 161.965 104.48 161.499 103.189 160.547C101.805 159.518 100.647 158.212 99.705 156.776C99.2632 156.109 98.8133 155.34 98.5851 154.544C98.1351 153.697 97.8319 152.779 97.8238 151.8C97.8156 150.253 98.6829 148.616 100.083 147.899C101.77 147.043 103.378 147.796 104.719 148.92C107.101 150.945 108.889 153.921 109.419 157.017C109.714 158.713 109.385 160.539 107.652 161.3Z" fill="#2220FF"/>
<path d="M264.438 253.699C264.602 255.386 261.838 255.724 261.492 254.096C261.476 254.02 261.458 253.95 261.458 253.881C261.433 253.725 261.415 253.586 261.415 253.439C261.391 253.232 261.365 253.033 261.335 252.825C261.251 252.168 261.163 251.529 261.062 250.87C260.923 249.884 260.75 248.906 260.556 247.927C260.194 246.101 259.824 244.205 258.933 242.554C258.015 240.866 256.753 239.378 255.592 237.863C254.355 236.272 253.128 234.663 251.89 233.062C251.68 232.803 251.613 232.516 251.638 232.24C251.717 231.107 253.439 230.137 254.267 231.228C254.44 231.453 254.616 231.668 254.789 231.893C255.971 233.424 257.174 234.965 258.36 236.505C259.598 238.098 260.939 239.671 261.815 241.515C262.719 243.402 263.161 245.451 263.544 247.503C263.733 248.532 263.914 249.563 264.061 250.591C264.167 251.328 264.258 252.062 264.33 252.799C264.364 253.058 264.397 253.317 264.415 253.576C264.423 253.62 264.436 253.655 264.436 253.697L264.438 253.699Z" fill="#161616"/>
<path d="M268.233 225.398C268.355 225.467 268.468 225.537 268.569 225.613C267.731 226.116 266.881 226.618 266.045 227.128C265.978 227.172 265.915 227.214 265.848 227.249C263.104 228.91 260.395 230.814 257.48 232.154C256.913 232.422 256.261 232.138 255.958 231.688C255.7 231.315 255.689 230.822 256.16 230.433C258.47 228.486 261.142 226.879 263.745 225.276C264.402 224.878 265.049 224.48 265.701 224.065C265.752 224.039 265.815 223.996 265.874 223.962C266.572 224.283 267.234 224.749 267.873 225.155C267.995 225.235 268.12 225.312 268.234 225.398H268.233Z" fill="#161616"/>
<path d="M320.361 259.645C319.877 259.514 319.381 259.351 318.897 259.142C318.897 259.046 318.889 258.935 318.88 258.831C318.805 257.939 319.692 257.196 320.517 257.196C320.757 257.196 320.967 257.246 321.156 257.334C321.156 257.334 321.165 257.334 321.173 257.343C321.215 257.369 321.253 257.395 321.295 257.422C322.343 258.218 321.787 260.026 320.361 259.646V259.645Z" fill="#161616"/>
<path d="M318.665 264.143C316.422 265.121 313.835 264.982 311.442 264.862C311.051 264.844 310.665 264.819 310.281 264.775C310.143 264.775 310.012 264.767 309.874 264.749C301.387 264.056 293.205 261.426 285.195 258.65C280.894 257.163 276.628 255.579 272.271 254.281C269.987 253.606 267.816 253.166 265.418 253.425H265.383C265.097 253.459 264.769 253.51 264.42 253.58C263.512 253.728 262.438 253.919 261.463 253.885C260.579 253.875 259.792 253.66 259.292 253.071C259.267 253.037 259.228 253.003 259.212 252.959C258.892 252.527 258.783 251.964 259.086 251.462C259.499 250.751 260.424 250.458 261.068 250.873C261.127 250.908 261.186 250.95 261.241 251.004C261.359 250.986 261.473 250.978 261.587 250.96C261.843 250.934 262.104 250.89 262.356 250.864C262.928 250.787 263.492 250.683 264.06 250.596H264.068C265.22 250.397 266.37 250.225 267.53 250.216C269.891 250.207 272.233 250.769 274.477 251.462C282.34 253.901 289.989 257.008 297.941 259.17C300.752 259.931 303.586 260.588 306.477 261.022C307.621 261.195 308.778 261.332 309.939 261.428C310.184 261.446 310.482 261.48 310.831 261.515C313.494 261.782 318.866 262.216 318.9 259.142C318.9 259.046 318.892 258.935 318.884 258.831C318.809 257.939 319.696 257.196 320.521 257.196C320.76 257.196 320.97 257.246 321.16 257.334C321.16 257.334 321.168 257.334 321.176 257.343C321.732 257.594 322.076 258.174 322.134 258.831C322.387 261.159 320.724 263.243 318.667 264.143H318.665Z" fill="#161616"/>
<path d="M310.28 264.773C310.141 264.791 310.011 264.783 309.872 264.747C309.51 264.679 309.148 264.472 308.879 264.1C308.118 263.044 307.323 262.015 306.473 261.02C304.597 258.771 302.548 256.668 300.411 254.651C294.726 249.285 288.568 244.372 282.425 239.561C279.266 237.078 276.056 234.665 272.812 232.302C271.21 231.134 269.635 229.938 268.037 228.779C267.364 228.287 266.582 227.785 265.85 227.248C265.804 227.222 265.762 227.188 265.727 227.152C264.974 226.59 264.255 225.993 263.745 225.276C263.711 225.224 263.673 225.173 263.639 225.119C263.58 225.034 263.538 224.946 263.509 224.852C263.294 224.133 264.081 223.424 264.826 223.58C264.964 223.614 265.103 223.649 265.233 223.694C265.242 223.694 265.242 223.694 265.242 223.694C265.457 223.771 265.67 223.849 265.872 223.962C266.57 224.283 267.232 224.749 267.871 225.155C267.993 225.235 268.119 225.312 268.233 225.398C268.355 225.467 268.468 225.537 268.569 225.613C269.322 226.107 270.067 226.626 270.812 227.128C272.672 228.391 274.49 229.679 276.297 231.005C282.818 235.798 289.239 240.772 295.374 246.051C300.919 250.82 306.405 255.657 310.826 261.514C311.083 261.852 311.334 262.18 311.579 262.527C312.366 263.652 311.361 264.725 310.28 264.775V264.773Z" fill="#161616"/>
<path d="M321.156 257.333C320.967 257.244 320.757 257.194 320.517 257.194C319.692 257.194 318.804 257.937 318.88 258.829C318.889 258.932 318.897 259.044 318.897 259.141C318.863 262.212 313.491 261.78 310.827 261.513C306.406 255.655 300.919 250.818 295.375 246.049C289.241 240.772 282.821 235.796 276.299 231.003C274.489 229.677 272.672 228.39 270.813 227.126C270.068 226.624 269.323 226.105 268.57 225.611C268.469 225.533 268.355 225.465 268.234 225.396C268.12 225.31 267.995 225.232 267.873 225.153C267.234 224.747 266.573 224.281 265.874 223.96C267.325 223.034 268.799 222.126 270.258 221.216C271.271 220.593 272.302 219.883 273.443 219.565C273.943 219.424 274.481 219.364 275.045 219.424C276.384 219.565 277.595 220.352 278.739 221.025C279.796 221.64 280.842 222.297 281.853 223.016C283.915 224.434 285.875 226.001 287.769 227.628C291.543 230.907 295.021 234.515 298.481 238.114C301.943 241.722 305.368 245.366 309.099 248.695C310.922 250.322 312.81 251.871 314.808 253.291C316.857 254.735 319.167 255.826 321.158 257.331L321.156 257.333Z" fill="#161616"/>
<path d="M264.791 199.605C264.602 199.613 264.392 199.579 264.169 199.509C259.166 197.942 254.005 197.207 248.796 196.739C239.149 195.883 229.485 195.304 219.838 194.559C214.983 194.196 210.14 193.834 205.294 193.426C202.87 193.211 200.451 193.012 198.028 192.803C195.865 192.622 193.565 192.578 191.428 192.13C191.159 192.078 190.89 192.008 190.624 191.939C189.109 191.532 189.594 189.551 190.97 189.402C191.255 189.368 191.534 189.342 191.816 189.334C194.264 189.187 196.843 189.559 199.275 189.715C202.035 189.896 204.811 190.071 207.581 190.244C217.422 190.884 227.246 191.68 237.074 192.425C244.802 192.996 252.691 193.315 260.297 194.952C260.512 195.003 260.726 195.048 260.944 195.099V195.107C261.706 195.273 262.459 195.454 263.204 195.653C263.835 195.826 264.465 196 265.088 196.199C266.973 196.77 266.448 199.504 264.793 199.608L264.791 199.605Z" fill="#161616"/>
<path d="M254.761 230.355C253.36 229.266 251.243 229.499 249.539 229.403C247.668 229.301 245.8 229.186 243.94 229.074C240.203 228.857 236.464 228.624 232.736 228.381C225.34 227.905 217.943 227.499 210.556 226.997C208.477 226.857 206.407 226.72 204.333 226.573C202.26 226.425 199.982 226.009 197.914 226.28C196.504 226.469 196.003 228.443 197.56 228.901C199.298 229.421 201.288 229.403 203.096 229.54C204.956 229.689 206.824 229.835 208.687 229.982C212.416 230.266 216.15 230.544 219.879 230.812C227.266 231.348 234.667 231.816 242.072 232.206C244.145 232.318 246.215 232.421 248.294 232.525C249.329 232.577 250.367 232.638 251.408 232.673C252.477 232.716 253.571 232.872 254.513 232.276C255.11 231.902 255.413 230.866 254.761 230.354V230.355Z" fill="white"/>
<path d="M201.633 104.368C200.598 105.744 200.076 107.44 199.419 109.023C198.804 110.503 198.19 112 197.567 113.48C196.97 114.89 196.33 116.377 195.334 117.562C194.367 118.723 193.104 119.561 191.834 120.366C189.297 121.976 186.66 123.699 183.538 122.98C180.959 122.391 177.496 121.335 177.223 118.211C177.126 117.148 175.716 116.913 175.35 117.96C174.104 121.604 178.118 123.92 180.925 124.979C182.746 125.662 184.606 126.077 186.554 125.756C188.329 125.463 189.966 124.631 191.496 123.723C193.024 122.799 194.568 121.839 195.93 120.688C197.394 119.442 198.451 117.865 199.228 116.118C199.998 114.378 200.646 112.578 201.328 110.806C202.089 108.858 203.069 106.913 203.313 104.826C203.431 103.824 202.102 103.763 201.631 104.368H201.633Z" fill="#161616"/>
<path d="M196.546 170.585C196.299 167.946 194.947 164.744 192.179 163.914C191.203 163.62 190.345 164.977 191.149 165.679C191.86 166.302 192.541 166.899 193.025 167.721C193.53 168.552 193.824 169.504 193.901 170.473C193.989 171.692 193.876 172.903 193.597 174.09C193.475 174.607 193.374 175.196 193.139 175.691C192.942 176.105 192.525 176.373 192.415 176.876C192.319 177.317 192.474 177.845 192.908 178.07C194.646 178.988 195.588 176.736 195.953 175.448C196.39 173.891 196.698 172.212 196.546 170.587V170.585Z" fill="#161616"/>
</svg>
