<svg width="432" height="432" viewBox="0 0 432 432" fill="none" xmlns="http://www.w3.org/2000/svg">
<g clip-path="url(#clip0_8_799)">
<path d="M275.342 175.917C275.102 178.164 274.794 180.403 274.493 182.657C273.945 187.053 273.456 191.463 273.036 195.874C272.915 197.279 271.33 198.068 270.24 197.039C265.8 192.996 260.57 190.261 254.672 189.164C252.117 188.698 249.502 188.585 246.947 188.788C244.272 189.014 241.349 190.208 238.735 189.232C236.488 188.413 234.842 185.835 235.939 183.536C236.428 182.537 237.217 181.906 238.126 181.319C239.283 180.576 239.644 180.185 239.403 178.787C238.915 176.217 238.554 174.114 239.771 171.679C240.868 169.515 242.815 167.854 244.701 166.464C248.285 163.902 253.943 161.888 254.371 156.831C254.491 154.968 256.926 155.043 257.166 156.831C257.347 157.861 257.226 158.823 256.986 159.717C257.106 159.837 257.286 159.987 257.414 160.183C259.36 163.098 261.975 165.608 265.018 167.441C266.416 168.328 268.001 169.072 269.579 169.628C271.097 170.139 272.743 170.379 274.02 171.424C275.357 172.588 275.538 174.226 275.357 175.924L275.342 175.917Z" fill="black"/>
<path d="M325.085 127.55C324.536 129.3 323.928 131.044 323.319 132.787C319.059 145.688 314.866 158.635 310.914 171.619C307.998 181.057 304.895 190.471 302.641 200.082C302.581 200.127 302.52 200.18 302.46 200.247C301.363 201.742 300.695 203.658 300.086 205.394C299.477 207.04 298.929 208.723 298.44 210.391C297.531 213.344 296.735 216.365 296.126 219.4C295.029 217.499 294.36 215.343 294.24 213.149C294 209.369 295.698 206.566 297.892 203.613C300.139 200.51 301.964 197.279 301.175 193.297C300.386 189.412 297.464 186.271 297.343 182.214C297.163 177.57 299.41 173.332 301.476 169.342C303.542 165.33 305.368 161.265 306.338 156.817C308.224 148.153 307.555 139.249 306.338 130.54C305.549 124.777 304.512 116.88 300.74 111.665C299.222 109.539 297.216 107.856 294.601 106.931C293.444 106.518 292.775 108.269 293.812 108.885C294.36 109.246 294.969 109.644 295.457 110.08C292.842 109.524 290.107 109.328 287.372 109.554C279.588 110.192 273.389 114.904 268.768 120.825C267.551 122.305 266.521 123.883 265.544 125.476C265.304 125.821 265.116 126.16 264.936 126.52C259.946 135.071 255.994 145.696 258.368 155.592C259.526 160.198 261.953 164.661 266.033 167.291C268.219 168.681 270.654 169.538 273.148 169.793C273.028 171.243 272.908 172.716 272.848 174.181C269.444 173.993 266.1 172.791 263.238 170.853C258.068 167.329 254.844 161.61 253.687 155.539C251.501 143.772 256.362 131.359 262.749 121.621C263.418 120.569 264.147 119.54 264.936 118.548C266.153 116.955 267.49 115.467 268.888 114.077C274.298 108.847 280.993 105.278 288.838 105.008C299.906 104.617 310.485 110.283 317.902 118.18C320.637 121.05 323.011 124.221 325.077 127.55H325.085Z" fill="black"/>
<path d="M276.86 169.74C276.8 171.138 276.74 172.535 276.68 173.933C275.403 174.173 274.065 174.256 272.848 174.189C272.908 172.731 273.028 171.251 273.148 169.8C274.366 169.936 275.643 169.921 276.86 169.74Z" fill="black"/>
<path d="M300.762 111.665C299.056 110.981 297.298 110.455 295.472 110.079C294.984 109.651 294.375 109.245 293.827 108.885C292.79 108.269 293.459 106.518 294.616 106.931C297.231 107.848 299.237 109.531 300.755 111.665H300.762Z" fill="black"/>
<path d="M327.7 131.991C327.091 133.809 326.543 135.627 325.934 137.446C325.325 136.289 324.717 135.139 324.108 134.019C323.868 133.614 323.62 133.2 323.319 132.787C323.928 131.044 324.536 129.301 325.085 127.55C326.054 129 326.911 130.488 327.7 131.991Z" fill="black"/>
<path d="M276.86 169.74C276.8 171.138 276.74 172.536 276.68 173.933C276.5 176.901 276.252 179.877 276.071 182.83C275.891 185.557 275.771 188.322 275.523 191.042C275.342 192.312 275.222 193.575 275.095 194.86C274.974 196.205 275.034 197.775 274.426 198.992C273.937 199.886 272.359 200.315 271.931 199.105C271.443 197.798 271.631 196.46 271.691 195.093C271.751 193.725 271.811 192.35 271.811 190.96C271.811 188.232 272.111 185.475 272.299 182.747C272.48 179.899 272.6 177.044 272.848 174.181C272.908 172.723 273.028 171.243 273.148 169.793C274.366 169.928 275.643 169.913 276.86 169.733V169.74Z" fill="black"/>
<path d="M296.261 127.129C296.201 126.227 295.164 126.002 294.435 125.837C293.767 125.679 293.098 125.506 292.369 125.521C291.64 125.528 290.911 125.619 290.243 125.754C288.725 126.032 287.079 126.588 285.922 127.557C285.434 127.91 285.434 128.722 285.742 129.173C286.042 129.631 286.651 129.977 287.2 129.751C287.568 129.609 287.928 129.451 288.236 129.278C288.357 129.24 288.417 129.195 288.477 129.165C288.477 129.165 288.537 129.15 288.537 129.135C288.597 129.12 288.657 129.075 288.717 129.068C288.777 129.03 288.838 129 288.958 128.97C289.506 128.737 290.115 128.557 290.724 128.421C290.904 128.391 291.092 128.361 291.212 128.331C291.272 128.331 291.392 128.309 291.452 128.301C291.753 128.256 292.121 128.218 292.489 128.211C292.61 128.203 293.098 128.136 293.038 128.151C292.918 128.166 293.098 128.136 293.098 128.136C293.218 128.121 293.278 128.113 293.399 128.106C293.699 128.076 294.007 128.083 294.368 128.091C294.668 128.098 294.976 128.143 295.277 128.106C295.765 128.038 296.246 127.677 296.246 127.136L296.261 127.129Z" fill="black"/>
<path d="M271.939 118.405C271.21 117.819 270.421 117.376 269.504 117.263C269.016 117.203 268.595 117.241 268.167 117.376C267.618 117.564 267.378 117.962 267.01 118.36C266.461 118.841 267.009 119.75 267.678 119.532C267.738 119.51 267.798 119.495 267.859 119.487C269.016 119.878 270.293 119.863 270.774 121.321C271.323 123.124 270.286 125.055 269.376 126.558C267.671 129.458 265.056 134.027 268.039 137.04C269.008 137.987 270.353 136.792 269.805 135.672C268.956 133.786 269.437 131.945 270.413 130.217C271.57 128.226 273.028 126.347 273.517 124.048C273.885 122.019 273.577 119.803 271.939 118.398V118.405Z" fill="black"/>
<path d="M274.974 134.733C274.974 134.695 274.914 134.65 274.854 134.613C274.794 134.478 274.734 134.335 274.614 134.23C274.493 134.162 274.433 134.087 274.373 134.012C274.313 133.929 274.253 133.839 274.253 133.741C274.253 133.726 274.193 133.696 274.193 133.681C274.193 133.643 274.193 133.613 274.193 133.583C274.133 133.448 274.073 133.335 273.952 133.238C273.952 133.208 273.952 133.178 273.952 133.155C273.952 133.178 273.952 133.208 273.952 133.23C273.892 133.117 273.832 133.02 273.772 132.937C273.652 132.854 273.532 132.794 273.344 132.802C273.284 132.802 273.163 132.832 273.043 132.885C272.923 132.967 272.803 133.11 272.743 133.268C272.743 133.32 272.743 133.373 272.683 133.426C272.622 133.568 272.562 133.726 272.622 133.906C272.622 133.989 272.622 134.064 272.622 134.139C272.683 134.23 272.683 134.312 272.743 134.395C272.803 134.538 272.863 134.673 272.923 134.801C272.983 134.936 273.103 135.056 273.163 135.176C273.344 135.409 273.592 135.627 273.892 135.695C274.133 135.747 274.381 135.777 274.561 135.755C274.801 135.732 275.049 135.612 275.11 135.387C275.23 135.176 275.17 134.898 274.989 134.733H274.974Z" fill="black"/>
<path d="M279.964 146.455C279.235 147.251 278.386 147.897 277.409 148.408C275.643 149.347 273.517 149.798 271.51 149.475C270.413 149.295 269.076 148.904 268.347 147.98C268.107 147.627 267.798 147.161 267.738 146.718C267.618 146.319 267.558 145.861 267.498 145.425C269.564 144.862 271.631 144.418 273.765 144.238C275.102 144.125 276.379 144.118 277.717 144.148C278.326 144.163 278.934 144.185 279.543 144.23C279.843 144.253 280.64 144.23 280.88 144.478C281.429 144.944 280.332 146.071 279.971 146.447L279.964 146.455ZM281.669 141.751C280.272 141.18 278.446 141.135 276.928 141.127C272.976 141.075 268.903 141.683 265.251 143.209C264.582 143.502 264.034 144.118 264.282 144.907C264.402 145.357 264.77 145.711 265.191 145.846C264.951 146.627 264.951 147.506 265.251 148.386C265.8 149.918 267.197 150.993 268.655 151.594C271.33 152.729 274.674 152.533 277.349 151.451C279.903 150.444 283.007 148.363 283.675 145.538C284.104 143.877 283.247 142.367 281.669 141.751Z" fill="black"/>
<path d="M301.852 122.305C301.363 120.682 299.357 119.916 297.899 119.375C296.382 118.811 294.796 118.435 293.218 118.21C291.64 117.985 289.995 117.887 288.417 117.992C287.508 118.045 286.651 118.18 285.802 118.368C285.434 118.45 285.073 118.533 284.705 118.661C284.464 118.766 284.156 118.871 283.976 119.036C283.856 119.112 283.307 119.577 283.736 119.299C282.699 119.983 283.127 121.388 284.344 121.501C284.953 121.704 285.501 121.606 286.23 121.524C286.899 121.441 287.628 121.381 288.417 121.343C289.814 121.261 291.212 121.298 292.61 121.509C294.067 121.719 295.465 122.095 296.87 122.606C298.207 123.094 299.665 123.996 301.063 123.688C301.671 123.567 302.032 122.861 301.852 122.313V122.305Z" fill="black"/>
<path d="M271.202 126.67C271.202 126.43 271.142 126.234 271.022 126.009C270.962 125.836 270.842 125.663 270.781 125.483C270.781 125.573 270.842 125.671 270.902 125.761C270.781 125.453 270.661 125.19 270.413 124.942C270.353 124.837 270.233 124.732 270.113 124.634C269.872 124.371 269.504 124.138 269.204 123.92C269.023 123.747 268.715 123.59 268.475 123.447C268.294 123.334 268.107 123.229 267.866 123.154C267.806 123.139 267.686 123.109 267.626 123.094C267.257 123.003 267.017 123.079 266.716 123.229C266.596 123.289 266.536 123.349 266.476 123.417C266.356 123.522 266.236 123.65 266.236 123.785C266.115 124.033 266.115 124.281 266.175 124.551C266.236 124.822 266.356 125.047 266.604 125.213C266.784 125.348 266.904 125.483 267.152 125.588C267.212 125.648 267.333 125.716 267.453 125.791C267.633 125.904 267.821 126.032 268.001 126.167C268.122 126.257 268.242 126.355 268.37 126.452C268.43 126.528 268.55 126.595 268.61 126.67C268.67 126.738 268.73 126.798 268.85 126.858C268.971 126.986 269.151 127.038 269.339 127.129C269.219 127.084 269.158 127.046 269.038 127.001C269.219 127.084 269.406 127.211 269.587 127.339C269.827 127.489 270.015 127.557 270.256 127.64C270.744 127.79 271.225 127.384 271.225 126.918C271.225 126.836 271.225 126.753 271.225 126.678L271.202 126.67Z" fill="black"/>
<path d="M306.353 156.816C305.383 161.265 303.557 165.33 301.491 169.342C299.425 173.332 297.171 177.57 297.358 182.214C297.479 186.279 300.402 189.412 301.19 193.297C301.979 197.272 300.154 200.51 297.907 203.613C295.72 206.566 294.015 209.369 294.255 213.149C294.375 215.343 295.044 217.499 296.141 219.4C296.75 220.4 297.479 221.331 298.268 222.128C298.508 222.383 298.636 222.684 298.636 222.977C298.636 223.871 297.666 224.743 296.75 224.141C293.466 221.932 291.34 218.468 290.851 214.539C290.303 210.481 291.46 206.709 293.767 203.403C295.833 200.548 298.756 197.595 297.779 193.793C296.87 189.893 294.187 186.79 293.827 182.71C293.338 178.156 295.104 173.768 297.05 169.778C299.117 165.743 301.183 161.881 302.34 157.485C304.527 148.964 303.918 139.918 302.829 131.277C301.859 123.83 301.551 115.084 295.472 110.087C294.984 109.659 294.375 109.253 293.827 108.893C292.79 108.276 293.459 106.526 294.616 106.939C297.231 107.856 299.237 109.539 300.755 111.673C304.527 116.887 305.556 124.785 306.353 130.548C307.57 139.256 308.239 148.16 306.353 156.824V156.816Z" fill="black"/>
<path d="M352.27 61.2163C348.987 70.1954 345.763 79.2197 342.6 88.2514C342.232 89.2508 341.931 90.2577 341.563 91.2645C341.443 91.6327 341.323 91.9859 341.195 92.3541C336.574 105.534 332.133 118.743 327.692 131.983C327.084 133.801 326.535 135.619 325.926 137.438C324.769 140.992 323.552 144.546 322.402 148.108C319.359 157.47 316.384 166.847 313.401 176.247C310.605 185.196 307.991 194.236 304.647 203.012C304.647 203.027 304.647 203.035 304.647 203.05C304.527 203.403 304.406 203.741 304.219 204.087C303.67 205.544 301.544 205.003 301.844 203.418C302.085 202.298 302.333 201.194 302.633 200.089C304.88 190.471 307.983 181.064 310.906 171.626C314.858 158.635 319.059 145.688 323.312 132.794C323.92 131.051 324.529 129.308 325.077 127.557C326.415 123.597 327.812 119.645 329.15 115.7C331.885 107.63 334.748 99.5675 337.603 91.52C337.904 90.5808 338.272 89.6265 338.572 88.6873C341.976 79.2047 345.448 69.7446 348.912 60.292C349.701 58.2107 353.044 59.1199 352.255 61.2238L352.27 61.2163Z" fill="black"/>
<path d="M369.049 46.955C367.892 42.4766 364.308 38.9676 359.687 38.2313C354.885 37.4573 350.136 39.6965 348.07 44.2124C346.853 46.7821 346.492 49.6525 346.793 52.4702C346.973 54.0481 347.281 55.596 347.762 57.1213C348.25 58.7669 349.039 60.1945 349.828 61.7124C350.557 63.14 352.623 62.1106 352.323 60.6529C352.082 59.5483 351.895 58.4363 351.654 57.3317C351.414 56.1821 351.046 55.055 350.805 53.8828C350.505 52.0494 350.377 50.1033 350.745 48.2624C351.414 45.0765 353.42 42.2512 356.824 41.8229C360.047 41.4247 363.15 42.965 364.728 45.7753C366.246 48.4728 366.494 52.6505 364.668 55.2804C364.3 55.7838 363.939 56.2046 363.391 55.8214C362.482 55.1827 361.685 54.0181 361.017 53.1389C359.499 51.2454 358.342 49.1941 357.064 47.1353C356.636 46.444 355.787 46.1284 354.998 46.459C354.329 46.7596 353.72 47.6312 354.029 48.4051C355.065 50.9148 356.643 53.2441 358.289 55.3706C359.867 57.3017 361.881 60.1419 364.736 59.383C367.11 58.7443 368.388 56.137 368.996 53.9504C369.605 51.6737 369.665 49.2167 369.056 46.9399L369.049 46.955Z" fill="black"/>
<path d="M382.612 67.5806C381.094 74.5912 378.84 81.4664 376.833 88.3567C375.616 92.3616 374.459 96.3666 373.242 100.372C372.813 101.867 372.393 103.362 371.964 104.857C371.536 106.255 371.115 107.645 370.687 109.05C363.451 133.561 356.215 158.064 348.979 182.559C348.371 184.686 347.702 186.804 347.093 188.923C346.545 190.727 345.996 192.508 345.448 194.296C343.013 202.584 340.518 210.864 338.091 219.167C334.868 230.092 331.953 241.213 328.06 251.935C327.572 253.258 327.091 254.565 326.543 255.88C325.994 257.248 324.048 256.744 324.356 255.272C324.724 253.521 325.085 251.77 325.513 250.027C325.513 250.027 325.513 250.012 325.513 250.004C326.851 244.767 328.368 239.59 329.894 234.42C331.96 227.515 334.026 220.617 336.033 213.727C338.527 205.432 340.962 197.129 343.449 188.833C344.358 185.775 345.275 182.724 346.184 179.666C350.076 166.524 353.968 153.39 357.921 140.256C361.573 128.06 365.217 115.858 368.869 103.663L369.357 102.092L370.634 97.8619L374.346 85.3737C376.232 79.1972 377.87 72.9231 380.185 66.8969C380.793 65.379 382.98 65.9501 382.619 67.5806H382.612Z" fill="black"/>
<path d="M394.529 52.1322C392.823 55.2054 390.516 57.9855 388.39 60.8183C387.293 62.3962 386.143 63.9591 384.986 65.522C384.017 66.8294 383.1 68.1519 381.702 69.0461C380.974 69.542 380.057 68.723 380.245 67.9415C381.034 65.0562 383.408 62.524 385.106 60.112C386.872 57.6399 388.63 55.1828 390.396 52.6957C391.673 50.8247 393.011 48.7208 392.831 46.3614C392.71 44.4304 391.433 43.1605 389.607 42.8073C385.895 42.0935 382.131 44.3327 379.696 46.925C378.359 48.3526 377.322 50.0508 376.593 51.8617C376.473 52.2599 376.292 52.7182 376.105 53.2292C375.924 53.9355 375.736 54.732 375.676 55.4759C375.616 56.1972 375.736 56.8659 376.105 57.407C377.262 59.2028 379.997 57.2341 380.966 56.2723C382.364 54.9574 383.213 53.1841 383.461 51.2981C382.552 50.7796 382.672 49.337 383.889 49.2844C384.19 49.2618 384.498 49.2618 384.798 49.2693C385.467 49.2919 386.076 49.8329 386.015 50.5091C385.955 53.6575 384.618 56.8735 382.243 58.9924C380.177 60.8859 376.713 62.1558 374.279 60.112C373.182 59.1802 372.633 57.8954 372.513 56.5353C372.393 55.4834 372.453 54.3863 372.633 53.3569C372.633 53.1691 372.693 52.9812 372.753 52.8009C373.242 50.2386 374.399 47.8567 376.037 45.7829C379.08 41.7629 384.19 38.562 389.419 39.2006C389.66 39.2157 389.848 39.2532 390.028 39.2833C391.245 39.4937 392.342 39.9596 393.312 40.6584C394.348 41.4173 395.198 42.4617 395.686 43.7316C396.783 46.5268 395.926 49.6075 394.529 52.1322Z" fill="black"/>
<path d="M393.312 40.6583C393.312 40.9137 393.251 41.1692 393.191 41.4172C392.951 42.2738 392.034 42.394 391.365 41.8981C390.757 41.4021 390.456 40.5456 390.028 39.8918C389.848 39.6514 389.66 39.426 389.419 39.2081C389.119 38.8775 388.751 38.5694 388.382 38.2989C387.105 37.3296 385.467 36.7134 383.821 36.5481C380.23 36.1799 376.465 37.4799 373.602 39.5913C371.048 41.4773 369.222 44.295 369.162 47.496C369.162 47.6763 369.162 47.8566 369.162 48.0294C369.222 48.5254 369.282 49.0664 369.462 49.6149C369.951 51.2905 371.108 52.9811 372.626 53.3568C373.294 53.5297 374.023 53.462 374.812 53.0337C375.301 52.7632 375.781 52.891 376.09 53.2141C375.909 53.9204 375.721 54.7169 375.661 55.4607C374.872 56.2723 373.655 56.6254 372.498 56.5277C372.07 56.4826 371.769 56.4075 371.401 56.2873C370.364 55.9492 369.515 55.333 368.786 54.5816C368.117 53.8678 367.509 53.0262 367.14 52.1396C365.803 49.2016 365.863 45.7753 367.08 42.8223C367.201 42.5443 367.321 42.2662 367.449 41.9882C369.094 38.7347 372.13 36.3302 375.473 34.9101C379.065 33.3622 383.318 32.6409 387.09 34.031C388.728 34.6471 390.193 35.6314 391.343 36.9313C392.192 37.8781 393.229 39.2832 393.289 40.6432L393.312 40.6583Z" fill="black"/>
<path d="M386.624 33.3094C385.287 30.2963 383.22 28.1924 380.117 26.9151C377.202 25.6978 373.79 25.3672 370.694 26.344C367.531 27.3584 364.916 29.5449 363.09 32.3251C362.241 33.6851 361.573 35.233 361.204 36.8034C360.836 38.3513 360.415 40.4327 361.204 41.8753C361.813 42.9799 363.391 42.6192 363.759 41.5372C364.187 40.3425 363.939 38.9073 364.248 37.645C364.548 36.3676 365.036 35.1729 365.765 34.0683C367.163 31.9118 369.229 30.1686 371.724 29.4322C374.158 28.7184 376.713 28.8612 379.02 29.7478C381.267 30.5894 383.761 32.1974 385.219 34.136C385.828 35.0001 387.045 34.2787 386.617 33.2944L386.624 33.3094Z" fill="black"/>
<path d="M373.978 25.3373C373.798 24.3229 373.37 23.2484 372.581 22.5346C371.731 21.7757 370.755 21.2497 369.665 21.0243C366.93 20.4758 364.067 21.4902 361.64 22.5722C357.38 24.4356 353.615 27.9672 353.007 32.7536C352.826 34.0535 352.826 35.3759 353.127 36.6533C353.427 37.8706 354.096 39.5236 355.253 40.1473C356.35 40.7334 357.628 39.7716 357.32 38.5543C357.199 37.9232 356.771 37.4498 356.471 36.8712C356.29 36.4279 356.17 35.9395 356.102 35.4586C355.922 34.4442 355.982 33.3697 356.223 32.3854C356.771 30.2965 358.169 28.5608 359.874 27.2834C361.76 25.8633 364.007 24.8414 366.261 24.2703C367.479 23.9698 368.756 23.8571 369.973 24.1651C371.01 24.4281 372.22 24.9391 372.708 25.8858C373.137 26.6072 374.166 26.0962 373.986 25.3448L373.978 25.3373Z" fill="black"/>
<path d="M273.877 35.3081C273.817 39.4709 273.269 43.6787 272.908 47.8264C272.48 51.9966 272.179 56.1744 271.811 60.3521C271.691 62.2306 271.57 64.1166 271.383 66.0026C271.323 67.2274 271.202 68.4597 271.142 69.6845C270.293 81.5039 269.624 93.3309 269.196 105.165C269.076 108.133 269.016 111.109 268.896 114.077C268.835 116.324 268.775 118.57 268.775 120.824C267.558 122.305 266.529 123.883 265.552 125.476C265.311 125.821 265.124 126.159 264.943 126.52C264.943 125.971 264.943 125.423 264.943 124.874C264.883 122.771 264.883 120.652 264.943 118.548C265.003 105.691 265.432 92.8425 266.281 80.0086C266.521 75.9586 266.829 71.9161 267.19 67.8586C267.31 66.6939 267.37 65.5292 267.49 64.3571C267.731 62.0202 267.919 59.6909 268.159 57.3541C268.587 53.6196 269.008 49.9002 269.437 46.1733C269.925 42.4389 270.286 38.5992 271.202 34.9399C271.503 33.4221 273.877 33.7753 273.877 35.2931V35.3081Z" fill="black"/>
<path d="M274.306 12.9243C269.684 11.0984 264.635 12.4885 260.931 15.5542C259.045 17.1171 257.407 19.1759 256.43 21.4226C255.461 23.7069 255.032 26.8627 257.527 28.4106C260.142 30.0561 263.185 27.9748 265.371 26.4945C267.558 25.0293 269.932 23.0531 270.421 20.3256C270.721 18.6274 268.415 17.9887 267.866 19.6118C267.197 21.385 266.1 22.6925 264.643 23.8346C263.854 24.4057 263.125 24.9241 262.328 25.4125C261.539 25.8784 260.442 26.6974 259.473 26.4494C257.407 25.9235 259.233 22.5722 259.774 21.5804C260.743 19.9649 261.96 18.5072 263.425 17.3726C266.281 15.2086 269.872 14.352 273.276 15.5392C276.5 16.6738 278.934 19.6418 278.806 23.1809C278.626 28.0199 274.974 31.3936 271.262 33.9935C269.805 35.0304 271.082 37.2846 272.66 36.4355C277.522 33.9409 281.722 29.3949 281.962 23.7444C282.203 18.7627 278.739 14.6751 274.298 12.9168L274.306 12.9243Z" fill="black"/>
<path d="M276.86 6.32704C276.492 3.69715 274.974 1.60827 272.48 0.601404C267.618 -1.40482 262.809 1.85623 260.442 6.10162C259.105 8.461 258.008 11.4741 259.165 14.1115C259.653 15.216 260.683 16.7489 262.08 16.3957C262.569 16.2605 262.929 15.9148 262.929 15.3738C262.929 14.675 262.629 14.3219 262.261 13.7809C260.863 11.7296 262.201 8.97946 263.358 7.15357C264.515 5.35022 266.213 3.67461 268.347 3.1862C270.293 2.75039 272.728 3.43416 273.517 5.40282C274.065 6.68771 274.005 8.16795 273.885 9.52798C273.825 10.3545 273.765 11.1886 273.704 12.0226C273.644 12.9468 273.524 13.8184 274.193 14.5398C274.493 14.8629 275.162 14.9906 275.53 14.7126C276.319 14.1641 276.379 13.4878 276.5 12.6012C276.56 11.8197 276.68 11.0458 276.74 10.2643C276.92 8.9494 276.981 7.63446 276.86 6.31952V6.32704Z" fill="black"/>
<path d="M270.293 9.19713C270.293 9.03934 270.293 8.88155 270.293 8.71624C270.293 8.41568 270.173 8.15269 269.925 7.96484C269.684 7.79202 269.376 7.68683 269.076 7.79202C268.835 7.8897 268.648 7.96484 268.467 8.16021C268.287 8.29546 268.227 8.47579 268.099 8.63359C267.979 8.9116 267.798 9.21967 267.731 9.52023C267.611 9.82079 267.611 10.1514 267.551 10.467C267.551 10.8953 267.611 11.3687 267.919 11.6918C267.979 11.8496 268.039 12.0149 268.099 12.1651C268.279 12.4807 268.708 12.6761 269.068 12.5634C269.436 12.4507 269.677 12.1276 269.677 11.7368C269.677 11.6241 269.677 11.5189 269.737 11.3987C269.797 11.2259 269.857 11.038 269.857 10.8201C269.857 10.745 269.857 10.6699 269.857 10.5947C269.917 10.2265 269.978 9.84333 270.158 9.49018C270.218 9.39249 270.218 9.29481 270.278 9.18962L270.293 9.19713Z" fill="black"/>
<path d="M266.709 1.39802C262.328 -1.27695 256.858 0.586508 253.815 4.32846C250.9 7.93515 248.953 14.0064 251.32 18.357C251.929 19.4616 252.898 20.4684 254.055 21.0245C254.664 21.325 255.333 21.603 256.062 21.5429C256.791 21.4903 257.159 21.2123 257.767 20.8667C258.376 20.521 258.316 19.5367 257.587 19.3714C257.707 19.5217 257.647 19.4916 257.407 19.2812C257.347 19.2061 257.226 19.1535 257.106 19.1084C256.806 18.9807 256.558 18.8454 256.257 18.7327C255.829 18.5599 255.408 18.4021 255.04 18.109C254.191 17.4779 253.702 16.5987 253.462 15.5919C252.853 13.3527 253.462 10.7379 254.431 8.69406C255.468 6.63524 256.986 4.85443 259.052 3.83254C261.179 2.80312 263.673 2.53262 265.92 3.17882C267.017 3.47938 267.626 1.97659 266.709 1.39802Z" fill="black"/>
<path d="M254.544 6.77051V6.81559C254.604 6.81559 254.604 6.77051 254.544 6.77051Z" fill="black"/>
<path d="M255.393 3.14133C250.163 2.27723 245.174 7.01853 243.288 11.5194C241.222 16.4711 242.131 24.1278 248.277 25.6306C249.795 26.0063 251.32 25.8184 252.718 25.1121C253.995 24.4659 255.513 23.0683 255.153 21.5129C254.972 20.7315 254.116 20.5587 253.447 20.8367C252.898 21.0997 252.538 21.7158 252.049 22.1065C251.621 22.4071 251.14 22.61 250.652 22.7152C249.555 22.9481 248.465 22.5499 247.608 21.8436C245.482 20.1379 245.114 17.0947 245.722 14.6076C246.271 12.2858 247.609 10.227 249.314 8.62652C251.14 6.94339 253.447 6.17697 255.701 5.20015C256.55 4.83197 256.37 3.29161 255.4 3.14133H255.393Z" fill="black"/>
<path d="M247 22.2342C244.934 22.7977 243.228 24.5485 240.921 24.3381C240.132 24.2629 239.276 23.9473 238.795 23.3011C238.186 22.4821 238.246 21.34 238.494 20.3857C238.982 18.0113 240.072 15.667 241.109 13.4804C241.597 12.5412 242.018 11.5193 242.754 10.7529C243.423 10.0991 244.46 9.50553 245.369 9.96389C246.647 10.6101 247.616 8.90442 246.466 8.07788C244.46 6.56758 241.845 7.7097 240.448 9.49802C238.87 11.4742 237.893 14.0289 236.984 16.3507C236.135 18.5373 235.158 21.1221 235.947 23.474C236.676 25.7206 238.802 26.9379 241.056 27.1408C243.671 27.3737 246.714 25.9761 248.232 23.8497C248.841 23.0382 247.864 21.9862 247.015 22.2267L247 22.2342Z" fill="black"/>
<path d="M244.633 44.8208C244.145 43.303 243.476 41.8903 243.115 40.3425C242.747 38.8322 242.507 37.2993 242.446 35.7514C242.326 32.1297 242.875 28.5531 244.152 25.1493C244.58 23.9846 242.815 23.2858 242.206 24.3152C238.982 29.853 238.314 36.6681 240.2 42.777C240.628 44.137 241.169 46.2409 242.386 47.0675C242.995 47.4507 243.724 47.5033 244.272 47.0224C244.941 46.4588 244.881 45.5496 244.64 44.8133L244.633 44.8208Z" fill="black"/>
<path d="M244.934 45.5272C244.145 51.8915 243.228 58.2258 242.259 64.5525C242.078 65.8073 241.89 67.0471 241.71 68.2869C240.921 73.1635 240.132 78.0476 239.396 82.9166C235.932 105.203 232.46 127.497 229.177 149.813C227.659 160.288 226.134 170.785 224.736 181.274C224.616 181.95 224.496 182.612 224.435 183.295C223.827 187.654 223.218 192.019 222.67 196.392C221.452 196.317 220.235 196.265 219.018 196.204C219.687 191.178 220.355 186.158 221.024 181.131C221.144 180.32 221.204 179.523 221.325 178.719C224.308 156.381 227.531 134.064 230.935 111.793C233.122 97.967 235.195 84.0963 237.683 70.3082C237.923 68.9557 238.171 67.6032 238.411 66.2506C239.689 59.2176 241.086 52.2071 242.604 45.2191C242.845 43.9267 245.099 44.2122 244.919 45.5272H244.934Z" fill="black"/>
<path d="M364 237.298C363.331 240.026 362.842 242.791 362.963 245.609C363.023 248.366 363.631 251.056 364.3 253.724C365.457 258.781 366.975 263.935 366.427 269.202C365.878 274.222 363.571 278.324 359.431 281.247C355.171 284.306 349.821 286.222 344.839 287.875C342.224 288.769 339.489 289.535 336.754 290.151C335.537 290.422 334.259 290.662 332.982 290.775C334.139 289.949 335.477 288.686 335.356 287.394C335.296 287.183 335.236 286.996 335.176 286.838C335.725 286.718 336.273 286.582 336.754 286.462C342.412 285.11 347.882 283.216 353.112 280.714C357.305 278.693 361.197 276.063 362.414 271.306C363.631 266.723 362.594 261.929 361.445 257.451C360.107 252.304 358.77 247.164 359.379 241.799C359.927 236.63 361.693 231.753 362.842 226.704C363.879 222.03 364.488 216.703 362.234 212.269C360.107 208.114 356.335 205.266 352.811 202.321C350.076 199.976 347.341 197.437 345.455 194.311C346.004 192.515 346.552 190.734 347.101 188.938C347.769 191.313 349.167 193.545 350.873 195.363C354.765 199.503 359.814 202.426 363.398 206.904C366.682 211.022 368.02 215.974 367.659 221.211C367.231 226.749 365.345 231.956 364.007 237.306L364 237.298Z" fill="black"/>
<path d="M347.709 181.177C346.372 183.709 346.312 186.391 347.101 188.931C346.552 190.734 346.004 192.515 345.455 194.303C344.967 193.439 344.546 192.53 344.178 191.568C343.81 190.689 343.569 189.773 343.449 188.841C344.358 185.783 345.275 182.732 346.184 179.674C347.093 179.05 348.31 180.147 347.702 181.177H347.709Z" fill="black"/>
<path d="M328.06 251.605C328.06 251.718 328.06 251.831 328.06 251.943C327.88 253.296 327.632 254.656 327.392 256.001C326.903 258.916 326.355 261.824 325.814 264.725C324.777 270.33 323.627 275.943 322.41 281.548C321.861 284.208 321.313 286.861 320.764 289.536C320.524 290.768 320.216 292.008 319.975 293.247C319.607 294.931 319.247 296.629 318.878 298.327C318.27 301.205 317.661 304.083 316.992 306.96C316.692 308.388 316.384 309.831 316.023 311.258C315.655 312.633 315.475 314.129 314.746 315.346C313.836 316.856 311.95 316.045 311.703 314.535C311.582 313.129 312.003 311.619 312.251 310.229C312.552 308.779 312.8 307.321 313.1 305.878C313.649 303.076 314.197 300.273 314.806 297.47C315.963 291.872 317.12 286.282 318.27 280.707C319.487 275.019 320.704 269.346 322.042 263.688C322.65 260.998 323.259 258.315 323.928 255.633C324.296 254.205 324.596 252.762 325.085 251.357C325.205 250.914 325.325 250.471 325.513 250.05C325.513 250.05 325.513 250.035 325.513 250.027C325.814 249.441 326.242 248.908 326.851 248.585C327.031 248.487 327.339 248.472 327.519 248.675C328.188 249.539 328.248 250.546 328.068 251.62L328.06 251.605Z" fill="black"/>
<path d="M361.452 257.443C362.61 261.922 363.639 266.716 362.422 271.299C361.204 276.055 357.312 278.685 353.119 280.707C347.89 283.209 342.42 285.102 336.762 286.455C336.273 286.575 335.725 286.71 335.184 286.83C335.244 286.988 335.304 287.176 335.364 287.386C335.484 288.679 334.147 289.941 332.99 290.768C332.749 290.978 332.441 291.158 332.201 291.294C330.863 292.135 329.345 292.774 327.82 293.18C325.265 293.841 322.53 293.863 319.975 293.232C320.216 291.992 320.524 290.753 320.764 289.52C321.313 286.853 321.861 284.193 322.41 281.533C323.627 275.935 324.784 270.322 325.814 264.709C326.362 261.809 326.911 258.894 327.392 255.986C327.632 254.641 327.88 253.281 328.06 251.928C331.953 241.206 334.868 230.085 338.092 219.16C340.526 210.857 343.021 202.576 345.448 194.289C347.334 197.414 350.069 199.954 352.804 202.298C356.328 205.251 360.1 208.092 362.226 212.247C364.473 216.68 363.872 222.008 362.835 226.681C361.678 231.731 359.92 236.607 359.371 241.777C358.762 247.142 360.1 252.281 361.437 257.428L361.452 257.443Z" fill="black"/>
<path d="M320.764 289.528C320.524 290.76 320.216 292 319.975 293.24C319.367 293.09 318.758 292.902 318.149 292.669C317.24 292.293 316.572 291.406 316.872 290.354C317.113 289.438 318.21 288.671 319.186 289.032C319.675 289.235 320.223 289.408 320.764 289.528Z" fill="black"/>
<path d="M305.015 200.953C304.955 201.652 304.835 202.343 304.647 203.012C304.647 203.027 304.647 203.035 304.647 203.05C304.346 204.177 303.978 205.274 303.61 206.386C303.061 208.062 302.573 209.73 302.092 211.413C301.055 214.907 300.206 218.446 299.357 221.985C299.237 222.398 298.989 222.736 298.628 222.977C298.2 223.277 297.659 223.397 297.11 223.247C296.141 222.977 295.713 221.985 295.893 221.023C295.953 220.482 296.073 219.949 296.134 219.408C296.742 216.372 297.531 213.351 298.448 210.398C298.936 208.723 299.485 207.04 300.093 205.402C300.702 203.666 301.371 201.75 302.468 200.255C302.528 200.187 302.588 200.134 302.648 200.089C303.437 199.323 305.143 199.533 305.023 200.953H305.015Z" fill="black"/>
<path d="M373.249 100.371C372.821 101.867 372.4 103.362 371.972 104.857C371.544 104.391 371.183 103.948 370.755 103.505C370.266 103.016 369.845 102.55 369.357 102.085C366.802 99.6201 363.947 97.4786 360.844 95.7804C354.945 92.5569 348.258 91.1293 341.563 91.2645C340.225 91.2871 338.948 91.3622 337.611 91.505C337.911 90.5657 338.279 89.6115 338.58 88.6722C339.917 88.4468 341.255 88.3041 342.592 88.2439C343.81 88.1688 344.967 88.1688 346.184 88.2289C353.908 88.5821 361.505 91.1669 367.892 95.6978C368.801 96.374 369.718 97.0879 370.627 97.8543C371.536 98.6508 372.453 99.4848 373.242 100.364L373.249 100.371Z" fill="black"/>
<path d="M271.39 66.003C271.33 67.2278 271.21 68.4601 271.15 69.6848C270.113 69.1138 269.023 68.5878 267.926 68.1445C267.686 68.0468 267.438 67.9416 267.197 67.8589C263.854 66.5665 260.262 65.8001 256.738 65.6198C252.665 65.4319 248.653 65.9654 244.821 67.1376C243.784 67.4682 242.694 67.8439 241.718 68.2722C240.989 68.5728 240.26 68.8959 239.531 69.2415C238.922 69.5421 238.314 69.9178 237.705 70.2859C237.946 68.9334 238.194 67.5809 238.434 66.2284C239.651 65.5747 240.929 65.0187 242.266 64.5303C242.815 64.3124 243.363 64.1245 243.912 63.9367C248.104 62.5841 252.605 61.9981 256.926 62.231C260.578 62.4188 264.102 63.1402 267.505 64.3499C268.174 64.5829 268.843 64.8458 269.512 65.1163C270.12 65.3944 270.789 65.6799 271.398 65.9955L271.39 66.003Z" fill="black"/>
<path d="M278.694 319.802C278.453 304.819 278.213 289.843 278.055 274.861C277.815 259.878 277.574 244.903 277.334 229.92C277.251 220.76 277.491 211.187 275.102 202.261C273.269 202.156 271.353 202.043 269.437 201.945C270.872 206.536 271.353 211.533 271.593 216.011C272.314 229.559 272.149 243.189 272.389 256.752L273.111 300.243C273.193 307.374 273.351 314.497 273.426 321.628C273.584 328.135 274.065 334.747 273.509 341.246C273.111 346.529 271.353 351.886 266.649 354.779C262.261 357.447 256.595 357.642 251.651 357.642C237.45 357.657 223.331 356.981 209.212 356.635C180.419 355.959 151.618 355.32 122.824 354.651C108.465 354.313 94.0308 353.998 79.6717 353.66C72.4132 353.487 65.1547 353.321 57.8962 353.149C52.2307 353.021 46.4901 353.126 40.9072 352.142C36.2786 351.338 31.5749 349.85 28.2237 346.371C24.2338 342.193 23.6777 336.092 23.4373 330.607C22.7159 316.383 22.2426 302.136 21.6039 287.912C20.4092 259.096 19.2896 230.258 17.6966 201.449C17.4562 197.685 17.2157 193.928 16.9753 190.163C15.4575 190.111 13.8645 190.043 12.4293 189.976C13.6241 216.695 14.9841 243.452 14.9841 270.202C15.6228 285.162 16.1788 300.108 16.8175 315.068C17.0579 322.026 17.0579 329.119 17.9371 336.024C18.6584 342.02 20.7323 347.881 25.5186 351.856C34.4527 359.31 47.3767 358.626 58.302 358.874C73.2998 359.205 88.2977 359.543 103.296 359.881C133.291 360.535 163.279 361.204 193.192 361.872C208.265 362.203 223.263 362.511 238.261 362.819C249.352 363.052 264.109 365.246 272.803 356.425C277.033 352.149 278.386 346.213 278.784 340.412C279.265 333.575 278.784 326.654 278.701 319.817L278.694 319.802ZM206.898 309.846C208.25 308.132 210.166 306.84 212.406 306.667C215.035 306.479 217.59 308.035 216.711 310.965C215.757 313.836 212.879 315.857 210.49 317.277C209.054 318.088 207.537 318.802 206.101 319.426C204.343 316.488 204.824 312.641 206.898 309.846ZM168.366 308.493C170.125 306.607 172.755 304.21 175.467 303.91C178.42 303.564 178.42 307.111 177.225 308.861C175.632 311.221 172.597 312.663 170.207 314.001C168.449 314.948 166.616 315.782 164.782 316.563C164.624 313.745 166.217 310.77 168.374 308.501L168.366 308.493ZM137.018 305.473C138.055 304.721 139.009 303.932 140.046 303.324C140.602 303.023 142.12 302.159 142.759 302.52C143.954 303.181 140.046 307.629 139.408 308.365C136.612 311.499 133.344 314.091 129.835 316.33C129.677 311.942 133.825 307.952 137.011 305.473H137.018ZM93.6251 307.501C94.8198 305.187 95.9394 302.444 98.0132 300.754C99.208 299.762 102.161 298.838 102.957 300.769C103.994 302.97 100.884 305.826 99.5235 307.103C96.7283 309.71 93.7002 312.122 90.6721 314.437C91.3934 312.017 92.4304 309.74 93.6251 307.501ZM218.785 322.725C215.592 324.393 211.444 324.009 208.491 322.003C209.287 321.597 210.009 321.184 210.722 320.726C213.675 318.9 216.944 316.713 218.86 313.723C220.536 310.98 220.776 307.404 218.221 305.052C216.065 302.963 212.556 302.587 209.768 303.406C203.945 305.104 200.038 311.431 200.676 317.375C200.759 318.682 201.157 319.892 201.631 321.004C196.363 322.589 190.78 323.363 185.355 323.904C179.69 324.453 172.589 325.61 167.728 321.936C167.172 321.507 166.691 321.034 166.292 320.546C168.051 319.787 169.802 318.975 171.477 318.073C174.671 316.36 178.255 314.422 180.411 311.394C182.327 308.846 182.801 305.232 181.05 302.482C178.976 299.274 175.069 299.289 171.958 300.716C165.736 303.556 159.357 310.672 160.552 317.938C160.552 318.021 160.552 318.096 160.552 318.186C155.127 320.102 149.461 321.417 143.721 322.221C140.054 322.732 134.23 323.506 131.435 320.448C135.823 317.75 139.888 314.527 143.165 310.597C145.238 308.087 148.349 304.608 146.997 301.069C145.802 297.868 142.128 297.733 139.415 298.853C136.304 300.108 133.434 302.602 130.962 304.909C128.332 307.471 126.258 310.635 125.695 314.339C125.454 315.782 125.537 317.262 125.852 318.66C121.464 321.034 116.836 322.988 112.215 324.761C109.743 325.715 107.188 326.677 104.633 327.526C101.763 328.488 98.5693 329.45 95.6163 328.473C92.1073 327.346 90.4317 323.979 90.0334 320.493C93.3846 318.216 96.5781 315.759 99.6062 313.152C102.477 310.755 105.587 308.253 107.105 304.751C108.465 301.61 107.902 297.778 104.791 295.907C101.996 294.262 98.4115 294.705 95.7741 296.463C92.746 298.582 90.9877 302.129 89.3947 305.375C87.4035 309.395 85.6453 313.813 85.4875 318.239C85.247 318.412 85.0066 318.599 84.7661 318.765C82.1363 320.561 79.4989 322.266 76.869 323.927C74.7125 325.234 76.6285 328.375 78.785 327.248C81.2571 325.993 83.6541 324.633 85.9609 323.19C86.2764 324.378 86.6822 325.55 87.3134 326.714C88.8312 329.615 91.5437 331.922 94.7296 332.771C98.6369 333.793 102.709 332.741 106.376 331.456C113.237 329.104 120.014 326.512 126.476 323.213C126.792 323.018 127.197 322.815 127.596 322.612C127.836 322.995 128.152 323.356 128.475 323.694C130.872 325.971 134.14 326.805 137.251 326.985C140.843 327.188 144.51 326.549 148.019 325.933C152.166 325.212 156.156 324.212 160.063 322.897C160.785 322.664 161.499 322.409 162.137 322.161C165.165 326.782 171.47 328.631 176.977 328.668C184.717 328.721 192.929 327.654 200.353 325.324C201.548 324.956 202.668 324.55 203.78 324.115C206.094 326.527 209.362 327.977 212.871 328.112C215.824 328.225 218.537 327.21 220.769 325.279C222.204 324.002 220.37 321.86 218.777 322.687L218.785 322.725Z" fill="black"/>
<path d="M275.102 202.261C273.269 202.156 271.353 202.043 269.437 201.945C250.531 200.826 231.544 199.751 212.563 198.745C210.97 198.647 209.37 198.579 207.777 198.497C194.695 197.79 181.531 197.099 168.374 196.46C138.303 194.988 108.15 193.643 78.0712 192.455C57.7309 191.644 37.308 190.998 16.9678 190.156C15.4499 190.103 13.857 190.036 12.4218 189.968C12.3392 189.082 12.3392 188.195 12.264 187.308C12.1814 186.422 12.1814 185.543 12.1062 184.663C12.1062 183.401 12.0236 182.124 12.3467 180.899C13.7819 175.677 22.6333 171.762 27.585 171.198C32.5292 170.597 37.556 171.326 42.5002 171.521C48.0079 171.762 53.5081 171.995 59.0158 172.243C60.0528 172.28 61.1723 172.325 62.2093 172.386C63.0884 172.408 64.0427 172.461 65.0045 172.506C80.0023 173.137 95.0002 173.791 109.998 174.444C139.911 175.744 169.907 177.022 199.895 178.299C203.404 178.449 206.913 178.592 210.422 178.72C212.015 178.795 213.691 178.848 215.291 178.908C224.946 179.298 234.677 179.689 244.408 180.17C250.629 180.486 257.091 181.177 262.674 184.325C267.22 186.94 270.729 191.11 272.885 195.882C273.366 196.926 273.765 197.986 274.163 199.06C274.486 200.112 274.801 201.179 275.117 202.261H275.102Z" fill="#2220FF"/>
<path d="M110.058 273.711C110.058 274.56 109.262 275.311 108.465 275.296C95.6238 274.981 82.8576 275.409 70.0163 275.078C57.2501 274.74 44.4087 273.839 31.65 272.952C30.4553 272.862 29.6588 272.05 29.5762 270.878C28.697 259.517 27.9832 248.118 27.1041 236.757C26.3076 225.404 25.3458 214.012 25.4285 202.621C25.4285 202.253 25.5863 201.953 25.8267 201.735C25.5111 200.675 26.0672 199.248 27.5023 199.187C54.0641 198.181 80.8664 199.39 107.27 203.012C107.992 203.117 108.548 204.026 108.548 204.71C108.788 216.222 109.104 227.703 109.344 239.207C109.502 250.703 110.066 262.207 110.066 273.696L110.058 273.711Z" fill="#A1D2FF"/>
<path d="M249.818 213.276C241.282 212.089 232.505 211.886 223.894 211.383C215.276 210.879 206.582 210.504 197.889 210.188C180.659 209.542 163.347 209.106 146.118 208.866C141.249 208.798 136.462 208.776 131.601 208.776C126.814 208.776 121.712 208.475 117.001 209.452C115.408 209.797 115.408 212.42 117.001 212.773C121.149 213.652 125.619 213.502 129.767 213.569C134.155 213.645 138.461 213.735 142.849 213.802C151.385 213.93 159.996 214.11 168.532 214.343C185.679 214.802 202.833 215.553 219.98 216.267C224.766 216.462 229.635 216.673 234.422 216.898C239.366 217.139 244.31 217.537 249.262 217.454C251.576 217.424 252.29 213.615 249.818 213.276Z" fill="#A1D2FF"/>
<path d="M166.856 226.103C165.504 224.931 163.663 225.254 161.987 225.231C155.209 225.149 148.424 224.908 141.647 224.54C137.815 224.329 134.065 224.036 130.241 223.728C126.574 223.428 122.501 222.676 118.834 223.435C117.557 223.698 117.317 225.72 118.519 226.298C121.472 227.756 124.898 227.959 128.174 228.372C131.443 228.8 134.794 229.101 138.145 229.371C144.848 229.92 151.625 230.266 158.486 230.303C160.078 230.311 161.754 230.303 163.43 230.296C164.948 230.281 166.781 230.22 167.495 228.582C167.893 227.658 167.577 226.764 166.856 226.11V226.103Z" fill="#A1D2FF"/>
<path d="M250.058 227.215C237.615 226.17 225.247 225.389 212.804 225.066C206.582 224.908 200.361 224.878 194.214 224.938C191.104 224.968 187.993 225.013 184.882 225.111C183.447 225.156 182.012 225.239 180.577 225.329C178.984 225.419 177.864 225.381 176.985 226.854C176.669 227.327 176.669 228.079 176.985 228.537C178.66 230.799 182.327 229.935 184.882 229.882C187.993 229.822 191.104 229.754 194.214 229.732C200.353 229.687 206.582 229.747 212.804 229.875C225.247 230.145 237.69 230.769 250.058 231.918C253.011 232.196 253.011 227.47 250.058 227.215Z" fill="#A1D2FF"/>
<path d="M207.777 243.64C192.862 243.37 177.947 243.032 163.024 242.724C155.525 242.566 148.109 242.438 140.61 242.303C137.018 242.243 133.434 242.228 129.76 242.205C127.844 242.19 125.928 242.168 124.019 242.213C122.343 242.258 120.668 242.243 119.39 243.55C118.834 244.129 118.91 244.955 119.39 245.541C120.585 246.894 122.343 246.901 124.019 247.007C125.935 247.119 127.851 247.164 129.76 247.224C133.426 247.33 137.018 247.45 140.61 247.503C148.109 247.638 155.525 247.773 163.024 247.893C177.939 248.111 192.854 248.299 207.777 248.569C210.97 248.622 210.97 243.685 207.777 243.633V243.64Z" fill="#A1D2FF"/>
<path d="M66.5072 410.104C61.7208 405.799 56.8518 401.486 52.1481 396.985C50.9534 402.087 50.232 407.302 49.12 412.419C47.9252 418.58 46.5652 424.727 45.5283 430.918C45.2878 432.218 43.2966 432.391 42.7331 431.279C36.5942 419.497 30.6056 407.407 25.9845 394.934C20.4843 400.892 14.9766 406.934 9.3937 412.922C7.95854 414.448 5.72689 412.825 6.12513 411.021C10.115 391.665 13.4663 372.151 18.2526 352.968C18.7335 351.158 20.8825 351.503 21.4461 352.878C33.0927 350.429 44.6567 347.942 56.2281 345.575C57.2651 345.372 58.6176 345.883 58.858 347.055C59.2563 349.685 59.3389 352.36 59.8123 354.99C60.2932 357.589 60.8492 360.174 61.3301 362.774C62.2844 367.741 63.1635 372.7 64.1253 377.667C66.0414 387.841 67.9574 397.984 69.9486 408.136C70.2717 410.127 68.1152 411.465 66.5148 410.097L66.5072 410.104Z" fill="#A1D2FF"/>
<path d="M58.4523 359.663C46.0092 367.538 28.3815 369.228 16.2539 359.926C9.79194 354.997 5.80203 347.648 3.65304 339.962C1.97743 334.003 0.857854 326.309 3.96863 320.576C5.00555 313.114 10.2728 306.667 16.7348 302.85C24.1511 298.447 33.4834 296.771 42.1019 297.155C56.7767 297.808 71.6167 305.405 75.6066 320.56C79.5965 336.054 71.4589 351.383 58.4523 359.663Z" fill="#2220FF"/>
<path d="M50.0742 347.987C42.3349 353.66 30.7709 354.644 22.8737 348.776C18.4856 345.462 14.8188 339.511 14.4205 333.71C13.9396 332.358 13.6992 330.832 13.6992 329.495C13.7818 326.166 15.5326 323.266 17.5313 320.726C20.9652 316.458 25.7516 313.242 30.9362 311.649C40.6668 308.681 51.2765 312.25 56.7015 321.004C62.4422 330.434 58.5349 341.705 50.0817 347.979L50.0742 347.987Z" fill="#A1D2FF"/>
<path d="M297.11 181.567C296.201 181.552 295.405 181.627 294.496 181.838C293.707 182.033 292.85 182.153 292.001 182.176C290.295 182.228 288.597 182.018 286.891 181.733C285.005 181.409 283.18 181.049 281.294 180.703C279.347 180.35 277.221 179.794 275.275 179.794C273.449 179.794 273.389 182.108 274.847 182.702C276.793 183.491 279.167 183.754 281.233 184.182C283.24 184.595 285.246 185.054 287.312 185.384C289.258 185.7 291.204 185.94 293.151 185.783C294.06 185.7 294.976 185.587 295.826 185.309C296.983 184.941 297.531 184.4 298.2 183.476C298.809 182.664 297.959 181.582 297.103 181.567H297.11Z" fill="black"/>
<path d="M27.5023 181.327C27.5023 181.282 27.5023 181.229 27.5023 181.192C27.4197 180.891 27.2619 180.591 27.1041 180.313C27.1041 180.222 27.0214 180.147 26.9463 180.072C26.7885 179.802 26.6307 179.531 26.3903 179.291C26.1498 179.05 25.8342 178.862 25.5938 178.659C25.2782 178.404 24.7973 178.246 24.3991 178.096C24.3164 178.066 24.2413 178.036 24.1586 178.021C23.7604 177.968 23.4373 177.893 23.1217 177.893C23.039 177.893 23.039 177.901 22.9639 177.901C22.8061 177.916 22.5657 177.946 22.3252 177.983C21.8443 177.953 21.3709 178.036 20.9727 178.284C20.8149 178.381 20.6571 178.502 20.4918 178.622C20.334 178.742 20.1762 178.855 20.0109 178.99C19.9283 179.133 19.7705 179.291 19.6878 179.448C19.53 179.606 19.4474 179.757 19.2896 179.929C19.1318 180.192 19.0491 180.478 18.9665 180.771C18.8838 180.869 18.8838 180.959 18.8838 181.049C18.726 181.455 18.726 181.883 18.726 182.304C18.726 182.717 18.726 183.153 18.8838 183.544C18.9665 183.829 19.1243 184.122 19.2821 184.4C19.3647 184.671 19.6803 184.964 19.8381 185.174C20.0785 185.475 20.3941 185.73 20.7172 185.941C20.7999 185.986 20.875 186.031 20.9577 186.061C21.2733 186.188 21.5137 186.331 21.8368 186.421C21.9195 186.436 21.9946 186.451 22.0773 186.466C22.3928 186.512 22.7159 186.579 23.0315 186.579C23.1142 186.579 23.1893 186.572 23.3471 186.564C23.6627 186.534 23.9858 186.504 24.3014 186.429C24.384 186.406 24.4592 186.384 24.5418 186.346C24.8574 186.234 25.1805 186.113 25.421 185.963C25.5036 185.933 25.5788 185.88 25.6614 185.835C25.9019 185.655 26.1423 185.467 26.3827 185.242C26.6232 185.024 26.781 184.768 26.9388 184.52C27.0214 184.445 27.0966 184.378 27.0966 184.287C27.4122 183.619 27.5775 183.19 27.6526 182.431C27.6526 182.349 27.6526 182.274 27.6526 182.191C27.5699 181.906 27.5699 181.605 27.4948 181.334L27.5023 181.327Z" fill="white"/>
<path d="M43.6122 182.153C43.6122 182.108 43.6122 182.063 43.6122 182.018C43.4544 181.725 43.3718 181.425 43.214 181.147C43.214 181.056 43.1313 180.981 43.0562 180.899C42.8984 180.636 42.7406 180.358 42.5002 180.117C42.2597 179.877 41.9441 179.696 41.7037 179.493C41.3806 179.23 40.9072 179.073 40.509 178.93C40.4263 178.9 40.3512 178.877 40.2685 178.847C39.8703 178.795 39.5472 178.727 39.2316 178.727C39.1489 178.727 39.1489 178.727 39.0738 178.735C38.8334 178.75 38.6756 178.78 38.4351 178.817C37.9542 178.78 37.4808 178.862 37.0826 179.118C36.9248 179.215 36.767 179.336 36.6017 179.456C36.4439 179.569 36.2861 179.689 36.1208 179.824C35.963 179.959 35.8804 180.117 35.8052 180.282C35.6474 180.433 35.4821 180.583 35.407 180.756C35.2492 181.019 35.1665 181.312 35.0088 181.605C35.0088 181.695 35.0088 181.785 35.0088 181.883C34.851 182.289 34.7683 182.717 34.851 183.138C34.851 183.543 34.851 183.972 35.0088 184.37C35.0914 184.663 35.2492 184.956 35.3243 185.234C35.4821 185.505 35.8052 185.798 35.963 186.008C36.2035 186.309 36.5191 186.557 36.8422 186.774C36.9248 186.82 36.9999 186.865 37.0826 186.895C37.4057 187.022 37.6386 187.165 37.9617 187.248C38.0444 187.27 38.1195 187.285 38.2022 187.293C38.5178 187.338 38.8409 187.406 39.1565 187.413C39.2391 187.413 39.3142 187.406 39.472 187.398C39.7876 187.368 40.1107 187.338 40.4263 187.255C40.509 187.24 40.5841 187.218 40.6668 187.18C40.9899 187.06 41.2228 186.947 41.5459 186.797C41.6285 186.759 41.7037 186.714 41.7037 186.669C42.0193 186.489 42.2597 186.301 42.5002 186.076C42.7406 185.858 42.8984 185.595 43.0562 185.354C43.1388 185.279 43.1388 185.204 43.214 185.121C43.5296 184.445 43.6122 184.024 43.6949 183.265C43.7775 183.183 43.7775 183.108 43.7775 183.018C43.6949 182.74 43.6949 182.446 43.6197 182.161L43.6122 182.153Z" fill="white"/>
</g>
<defs>
<clipPath id="clip0_8_799">
<rect width="432" height="432" fill="white"/>
</clipPath>
</defs>
</svg>
