<svg width="328" height="264" viewBox="0 0 328 264" fill="none" xmlns="http://www.w3.org/2000/svg">
<path d="M48.7442 75.5194C48.1348 77.4821 47.5504 79.4387 46.9614 81.4021C47.0893 81.2877 47.2126 81.1719 47.3405 81.0582C48.8884 79.6913 50.4728 78.367 52.0661 77.0658C52.6139 75.233 53.1651 73.3922 53.7128 71.5514H53.725C55.2032 66.6009 56.7544 61.6606 58.4547 56.7921C59.9944 52.4158 61.9167 48.1438 64.6333 44.4553H60.2165C56.1701 50.7388 54.1035 58.1584 51.9097 65.2117C50.8351 68.6476 49.7775 72.0835 48.7442 75.5194Z" fill="#161616"/>
<path d="M25.746 173.558C26.8036 169.208 27.8823 164.857 28.9568 160.524C29.1749 159.643 29.3977 158.746 29.6319 157.867C30.0721 156.081 30.5291 154.294 30.978 152.518C30.5704 151.655 30.1675 150.799 29.7762 149.927C29.3807 149.056 28.9819 148.167 28.5905 147.278C28.1253 149.131 27.652 150.969 27.1869 152.814C25.5036 159.407 23.8771 166.001 22.2846 172.603C21.7368 174.863 25.2158 175.81 25.7466 173.559L25.746 173.558Z" fill="#161616"/>
<path d="M23.3086 198.959C26.6183 202.174 30.9857 204.24 35.5054 205.103C35.6164 205.129 35.7356 205.145 35.8467 205.171C36.8021 205.34 37.7819 205.467 38.782 205.544C40.2723 205.661 41.787 205.653 43.2773 205.518C44.3106 205.417 45.3276 205.247 46.3236 204.993C46.0643 204.503 45.8341 204.003 45.595 203.52C45.3682 203.038 45.1543 202.556 44.9531 202.073C43.928 202.208 42.9069 202.286 41.8818 202.301C39.8565 202.344 37.8272 202.158 35.8473 201.718C28.5 200.076 21.691 194.693 21.1269 186.736C20.8798 183.326 21.6334 179.729 23.815 177.012C25.4083 175.039 28.7262 172.873 31.3066 173.879C31.8829 174.414 32.5871 174.87 33.3813 175.2C34.9583 175.86 36.1229 173.499 34.9989 172.433C34.5419 172 34.0523 171.662 33.5418 171.383C32.6114 170.444 32.2201 169.088 32.2654 167.709C32.2986 166.61 32.6358 165.559 33.1301 164.561C33.6691 163.469 34.3895 162.445 35.0768 161.506C35.1675 161.388 35.2542 161.268 35.3443 161.151C36.649 159.365 38.0202 157.503 39.757 156.124C41.5683 154.667 43.7872 154.27 46.0426 154.066C48.1254 153.889 50.2786 153.804 52.2998 153.187C54.4612 152.525 56.2433 151.257 57.5975 149.445C59.7054 146.627 60.2071 143.275 60.5782 139.906C60.7143 138.679 60.8335 137.453 61.0102 136.25C61.1463 135.302 61.3399 134.363 61.5945 133.44C63.3483 127.11 67.7732 121.729 73.4379 118.367C79.2956 114.889 86.0837 113.949 92.6164 115.438C93.559 115.642 94.4974 115.912 95.4197 116.222C95.4691 116.239 95.5226 116.256 95.572 116.272C99.219 117.533 102.64 119.536 105.555 122.066C106.551 122.932 107.481 123.849 108.346 124.806C109.437 125.994 110.437 127.246 111.384 128.54C112.022 129.388 112.619 130.259 113.224 131.148C113.504 131.553 113.964 131.706 114.392 131.656H114.4C115.059 131.563 115.636 131.029 115.339 130.25C115.162 129.759 114.965 129.269 114.746 128.793C114.034 127.228 113.145 125.739 112.096 124.339C111.231 123.152 110.259 122.039 109.193 121.001C104.9 116.77 99.265 113.735 93.67 112.369C85.3551 110.332 76.5702 112.016 69.5851 116.975C66.1562 119.406 63.2047 122.49 61.044 126.11C60.5125 127.017 60.0561 127.922 59.6566 128.845C58.9199 130.529 58.3843 132.265 57.9977 134.059C57.6517 135.614 57.4134 137.207 57.2278 138.84C56.7545 143.004 56.0503 148.395 51.3871 149.868C47.0603 151.232 42.3144 150.181 38.3913 152.933C36.4893 154.261 35.0321 156.031 33.6203 157.859C33.5709 157.927 33.5255 157.977 33.4761 158.046C32.7062 159.034 31.9526 160.034 31.2741 161.075C30.6234 162.083 30.0391 163.123 29.5983 164.266C28.804 166.28 28.6761 168.54 29.2773 170.538C28.2772 170.622 27.2683 170.876 26.3136 171.257C24.8605 171.833 23.4941 172.705 22.3782 173.77C22.0573 174.06 21.7688 174.372 21.4973 174.685C15.4954 181.753 16.8746 192.688 23.3086 198.959V198.959Z" fill="#161616"/>
<path d="M112.985 130.055C112.906 130.528 113.153 131.189 113.627 131.409C113.866 131.511 114.125 131.595 114.393 131.655H114.401C115.022 131.79 115.685 131.816 116.294 131.849C116.957 131.883 117.616 131.917 118.266 131.966C118.29 131.977 118.303 131.977 118.311 131.977C118.323 131.977 118.335 131.977 118.352 131.985C118.48 132.001 118.595 132.027 118.723 132.052C118.986 132.104 119.241 132.172 119.493 132.255C119.53 132.265 119.612 132.306 119.682 132.332C119.707 132.34 119.723 132.348 119.74 132.366C119.797 132.392 119.859 132.416 119.916 132.45C119.97 132.476 120.053 132.553 120.085 132.577C120.13 132.62 120.164 132.654 120.204 132.68C120.22 132.696 120.22 132.696 120.229 132.704C120.258 132.755 120.282 132.807 120.307 132.857C120.323 132.908 120.34 132.95 120.357 133.002C120.365 133.085 120.332 133.381 120.348 133.356C120.22 134.05 120.011 134.371 119.698 135.014C119.373 135.649 119.027 136.276 118.673 136.885C118.536 137.106 118.393 137.326 118.257 137.554C118.002 137.935 117.75 138.316 117.536 138.721C117.536 138.729 117.536 138.729 117.536 138.739C117.528 138.755 117.52 138.773 117.512 138.789C117.175 139.458 117.294 140.228 117.887 140.694C118.014 140.787 118.146 140.863 118.282 140.905C118.809 141.1 119.434 141.007 119.822 140.575C120.246 140.119 120.612 139.593 120.95 139.052C121.11 138.798 121.254 138.552 121.415 138.298C121.847 137.561 122.263 136.808 122.642 136.037C123.424 134.438 123.955 132.526 122.814 130.942C121.958 129.757 120.579 129.216 119.18 129.004C118.394 128.893 117.616 128.851 116.829 128.818C116.414 128.81 115.998 128.784 115.574 128.784C115.311 128.792 115.022 128.776 114.747 128.792C114.475 128.802 114.203 128.843 113.956 128.927C113.434 129.106 113.067 129.495 112.985 130.055V130.055Z" fill="#161616"/>
<path d="M102.118 161.066C102.134 161.963 102.402 162.614 102.838 163.063C103.427 163.682 104.345 163.926 105.349 163.968C106.917 164.037 108.704 163.597 109.885 163.268C110.042 163.224 110.174 163.182 110.326 163.14C113.656 162.174 117.015 160.584 119.522 158.18C121.382 156.386 122.535 154.185 123.083 151.833C123.251 151.12 123.354 150.394 123.412 149.657C123.424 149.598 123.424 149.539 123.424 149.47C123.44 149.344 123.448 149.208 123.448 149.09C123.473 148.768 123.482 148.439 123.473 148.125C123.448 144.968 122.526 141.777 120.941 139.061C120.755 138.705 120.533 138.358 120.315 138.029C119.747 137.189 118.874 137.147 118.249 137.554C117.866 137.798 117.574 138.223 117.536 138.721C117.536 138.729 117.536 138.729 117.536 138.739C117.512 138.993 117.566 139.271 117.697 139.559C117.903 139.999 118.096 140.448 118.281 140.905C118.289 140.93 118.302 140.948 118.31 140.972V140.982C118.751 142.047 119.138 143.174 119.426 144.317C119.722 145.484 119.915 146.678 119.969 147.864C120.01 149.124 119.89 150.361 119.52 151.562C119.153 152.798 118.52 153.973 117.564 155.041C115.737 157.097 113.118 158.451 110.554 159.356C109.142 159.848 107.693 160.22 106.22 160.466C105.931 160.518 105.66 160.551 105.372 160.559C105.121 160.585 104.866 160.585 104.61 160.577C104.375 160.559 104.145 160.534 103.91 160.542C103.857 160.551 103.815 160.559 103.766 160.568C103.231 159.958 102.099 160.103 102.115 161.067L102.118 161.066Z" fill="#161616"/>
<path d="M112.841 138.983C113.104 138.916 113.368 138.874 113.627 138.949C113.849 139.043 113.944 139.077 113.915 139.068C114.034 139.119 114.146 139.161 114.253 139.213C114.339 139.247 114.413 139.28 114.492 139.314C114.364 139.247 114.373 139.247 114.516 139.314C114.755 139.389 114.957 139.517 115.179 139.636C115.463 139.789 115.772 139.94 116.076 140.085C116.228 140.152 116.381 140.22 116.529 140.287C116.608 140.321 116.686 140.347 116.76 140.381C117.378 140.626 118.003 140.846 118.625 141.092C119.308 141.371 120.062 141.532 120.695 141.905C121.181 142.183 121.469 142.827 121.296 143.368C121.102 143.954 120.637 144.276 120.045 144.326C119.3 144.393 118.489 144.148 117.768 143.962C117.006 143.758 116.262 143.429 115.549 143.073C114.94 142.759 114.347 142.412 113.771 142.033C113.425 141.813 113.121 141.558 112.825 141.278C112.664 141.125 112.512 140.973 112.385 140.804C112.183 140.542 112.137 140.261 112.113 139.941C112.08 139.518 112.447 139.087 112.842 138.984L112.841 138.983Z" fill="#161616"/>
<path d="M105.266 127.709C105.308 127.533 105.394 127.372 105.51 127.245C105.579 127.143 105.654 127.058 105.765 126.999C105.893 126.872 106.053 126.789 106.23 126.745C106.399 126.686 106.584 126.662 106.774 126.67C106.881 126.678 107.053 126.703 107.168 126.729C107.189 126.729 107.202 126.729 107.222 126.737C107.358 126.779 107.481 126.839 107.609 126.898C107.642 126.915 107.671 126.932 107.696 126.957C107.815 127.033 107.931 127.118 108.026 127.211C108.162 127.338 108.273 127.481 108.355 127.642C108.45 127.795 108.527 127.964 108.569 128.134C108.585 128.192 108.585 128.261 108.593 128.319C108.676 128.396 108.754 128.472 108.82 128.573C108.939 128.751 109.026 128.927 109.091 129.124C109.145 129.25 109.186 129.368 109.228 129.495C109.277 129.69 109.277 129.877 109.228 130.071C109.194 130.206 109.137 130.333 109.042 130.436C108.964 130.554 108.865 130.646 108.737 130.714C108.569 130.816 108.379 130.859 108.186 130.859C107.93 130.859 107.671 130.825 107.432 130.74C107.189 130.655 106.942 130.554 106.728 130.41C106.518 130.265 106.304 130.105 106.131 129.919C106.012 129.783 105.909 129.64 105.798 129.495C105.757 129.428 105.715 129.342 105.662 129.275C105.732 129.361 105.789 129.446 105.86 129.529C105.724 129.376 105.588 129.208 105.485 129.031C105.403 128.904 105.317 128.709 105.283 128.582C105.242 128.43 105.222 128.243 105.222 128.074C105.234 127.955 105.246 127.837 105.267 127.709H105.266Z" fill="#161616"/>
<path d="M101.99 126.33C101.982 126.356 101.974 126.374 101.966 126.391C101.974 126.374 101.982 126.356 101.99 126.34C101.99 126.34 101.99 126.34 101.99 126.33Z" fill="#161616"/>
<path d="M103.497 124.209C103.488 124.219 103.48 124.227 103.472 124.237C103.48 124.229 103.488 124.221 103.497 124.212C103.497 124.211 103.497 124.211 103.497 124.209Z" fill="#161616"/>
<path d="M99.2571 127.143C99.2815 126.973 99.3065 126.812 99.3309 126.651C99.3803 126.397 99.467 126.153 99.5489 125.907C99.7466 125.339 99.9647 124.758 100.298 124.256C100.603 123.777 100.973 123.296 101.422 122.945C101.879 122.593 102.352 122.331 102.904 122.136C103.04 122.085 103.201 122.088 103.353 122.117C103.456 122.102 103.547 122.089 103.522 122.093C103.616 122.082 103.707 122.072 103.801 122.068C104.048 122.061 104.283 122.093 104.522 122.127C104.843 122.17 105.107 122.569 105.094 122.874C105.078 123.209 104.868 123.543 104.522 123.624C104.452 123.641 104.386 123.657 104.308 123.68C104.291 123.685 104.18 123.729 104.139 123.744C104.098 123.763 104.028 123.794 104.02 123.8C104.012 123.805 103.996 123.815 103.987 123.823C103.904 123.917 103.818 124.004 103.715 124.067C103.641 124.112 103.563 124.16 103.497 124.208C103.505 124.203 103.513 124.197 103.513 124.192C103.513 124.198 103.497 124.205 103.497 124.211C103.489 124.216 103.473 124.223 103.464 124.229C103.377 124.288 103.419 124.267 103.472 124.236C103.448 124.255 103.419 124.273 103.402 124.287C103.242 124.429 103.098 124.584 102.953 124.742C102.888 124.818 102.817 124.89 102.76 124.968C102.752 124.974 102.744 124.985 102.735 124.997C102.727 125.006 102.719 125.016 102.719 125.022C102.583 125.212 102.464 125.408 102.353 125.611C102.242 125.805 102.143 126.008 102.04 126.212C102.024 126.253 102.007 126.295 101.991 126.329C101.991 126.329 101.991 126.321 101.999 126.313C101.991 126.32 101.991 126.329 101.991 126.338C101.982 126.347 101.974 126.355 101.974 126.372C101.933 126.466 101.95 126.44 101.966 126.389C101.942 126.474 101.896 126.558 101.871 126.635C101.645 127.236 101.456 128.049 100.838 128.336C100.83 128.344 100.822 128.352 100.814 128.361C100.62 128.616 100.188 128.64 99.9247 128.53C99.6613 128.421 99.5171 128.208 99.4595 127.947C99.2909 127.719 99.2124 127.439 99.2578 127.143L99.2571 127.143Z" fill="#161616"/>
<path d="M90.9416 144.586C90.7154 144.503 90.7811 144.493 91.1725 144.586C91.4074 144.586 91.6376 144.519 91.8394 144.41C92.136 144.265 92.3913 144.028 92.6337 143.826C92.654 143.808 92.679 143.791 92.6871 143.774C93.1604 143.393 93.6012 142.986 93.9919 142.514C94.8972 141.464 95.659 140.287 96.2846 139.043C97.5028 136.623 98.2232 133.989 98.4704 131.29C98.7629 128.134 98.4006 124.878 97.5894 121.818C97.1818 120.322 96.7004 118.831 96.0951 117.408C95.9265 117.008 95.766 116.632 95.5723 116.272C95.1485 115.446 94.6338 114.733 93.7448 114.219C92.8889 113.718 92.2301 114.717 92.6167 115.437C92.6459 115.486 92.6783 115.527 92.7034 115.576C93.4814 116.582 93.7529 118.07 94.128 119.257C94.5065 120.518 94.8444 121.794 95.099 123.095C95.6258 125.797 95.8689 128.539 95.5642 131.29C95.3008 133.558 94.6501 135.819 93.5762 137.824C93.0325 138.832 92.3987 139.763 91.6783 140.643C91.3079 141.091 90.9253 141.531 90.538 141.962C90.3775 142.149 90.1466 142.361 90.0275 142.59C90.0275 142.597 90.0112 142.631 89.9862 142.691C89.9205 142.894 89.7722 143.318 89.85 143.181C89.4506 143.884 90.1216 144.85 90.9409 144.587L90.9416 144.586Z" fill="#161616"/>
<path d="M88.8417 144.062C89.2412 144.942 90.1465 145.459 90.9082 145.991C91.7275 146.575 92.5753 147.117 93.3986 147.71C94.9052 148.81 96.3339 150.054 97.5602 151.468C99.9477 154.21 101.438 157.688 100.997 161.354C100.923 162.013 101.549 162.734 102.158 162.877C102.389 162.929 102.615 162.996 102.837 163.063C103.697 163.291 104.529 163.605 105.348 163.968C108.295 165.272 111.012 167.287 113.354 169.353C116.26 171.908 118.434 175.54 116.355 179.315C116.149 179.695 116.133 180.075 116.244 180.414V180.422C116.446 181.024 117.055 181.472 117.693 181.438C117.977 181.43 118.29 181.294 118.561 181.015C122.328 177.139 119.747 171.138 116.462 167.904C114.626 166.102 112.47 164.553 110.325 163.14C110.317 163.13 110.317 163.122 110.309 163.122C108.753 162.107 107.11 161.209 105.373 160.558C104.994 160.413 104.624 160.279 104.233 160.17C104.307 156.361 102.64 152.661 100.203 149.793C98.7993 148.133 97.095 146.72 95.3169 145.46C94.4644 144.867 93.6004 144.283 92.6863 143.775C92.6166 143.742 92.5502 143.7 92.4764 143.656C91.7235 143.241 90.875 142.733 89.986 142.692C89.8668 142.675 89.747 142.683 89.6319 142.692C88.9114 142.759 88.5451 143.402 88.8417 144.063V144.062Z" fill="#161616"/>
<path d="M144.43 177.528C145.109 179.424 148.172 178.578 147.464 176.69C146.031 172.83 145.039 168.743 145.414 164.603C145.743 160.989 147.723 157.867 148.205 154.26C148.267 153.788 148.316 153.237 148.378 152.637C148.493 151.435 148.675 150.072 149.069 148.877C149.526 147.516 150.3 146.381 151.634 145.984C153.284 145.493 153.066 147.643 153.058 148.683V148.785C153.05 150.039 153.025 151.291 152.98 152.534C152.955 153.246 152.922 153.948 152.889 154.659C152.802 156.487 152.564 158.341 152.556 160.177C152.548 161.836 152.724 163.656 153.955 164.875C154.335 165.247 154.783 165.23 155.116 165.018C155.454 164.798 155.672 164.383 155.589 163.927C155.478 163.284 155.35 162.658 155.285 162.031C155.223 161.541 155.19 161.049 155.215 160.533C155.268 159.366 155.392 158.197 155.495 157.038C155.614 155.498 155.717 153.966 155.784 152.426C155.825 151.444 155.866 150.47 155.895 149.489C155.903 149.219 155.911 148.946 155.911 148.676C155.96 147.094 155.935 145.384 154.828 144.165C153.573 142.777 151.535 142.759 149.95 143.573C147.785 144.672 146.744 146.703 146.184 148.913C145.854 150.149 145.685 151.443 145.525 152.662C145.508 152.823 145.487 153.001 145.471 153.162C145.212 155.279 144.557 157.132 143.763 159.105C142.977 161.043 142.528 163.065 142.367 165.157C142.059 169.354 143.025 173.594 144.429 177.53L144.43 177.528Z" fill="#161616"/>
<path d="M87.3113 181.396C87.966 182.021 88.8429 181.912 89.5051 181.396C89.6988 181.251 89.8836 181.109 90.0691 180.972C93.8725 178.315 98.6969 177.655 103.217 178.407C113.096 180.041 120.391 187.684 127.216 194.395C131.387 198.492 135.552 202.588 139.718 206.685C140.751 207.701 141.768 208.725 142.788 209.75C143.9 210.857 144.999 211.966 146.118 213.066C148.132 215.065 150.182 217.02 152.33 218.848C153.763 220.059 155.648 218.205 154.397 216.792C152.051 214.134 149.478 211.705 146.963 209.234C146.674 208.953 146.391 208.666 146.098 208.386C144.999 207.295 143.9 206.22 142.797 205.137C141.768 204.113 140.735 203.096 139.701 202.09C135.342 197.799 130.999 193.498 126.615 189.225C123.795 186.482 120.885 183.767 117.695 181.438C117.209 181.084 116.736 180.752 116.246 180.423V180.415C115.645 180.008 115.023 179.611 114.406 179.238C107.161 174.871 97.2858 172.984 89.7692 177.436C88.9214 177.936 88.0981 178.527 87.3119 179.196C86.6782 179.746 86.752 180.838 87.3119 181.397L87.3113 181.396Z" fill="#161616"/>
<path d="M41.8821 202.301C42.22 203.149 42.5823 204.002 42.9649 204.832C43.0759 205.052 43.1666 205.29 43.2777 205.518C44.3522 207.769 45.6239 210.021 47.5421 211.663C49.8558 213.643 52.7247 214.312 55.7379 214.1C60.2989 213.779 67.0294 212.711 69.0465 208.142C71.5823 209.589 74.6821 209.614 77.6208 209.207C81.1235 208.707 84.9234 207.743 87.5412 205.187C90.1467 202.64 91.0439 198.984 91.2131 195.462C91.4068 191.373 90.7974 187.243 90.316 183.19C90.2293 182.453 90.1474 181.717 90.0688 180.971C89.9537 179.786 89.8508 178.611 89.7682 177.434C89.6199 175.057 89.5623 172.677 89.6571 170.283C89.6984 169.156 88.072 169.02 87.7511 170.029C86.4131 174.201 86.516 178.671 86.8126 182.986C87.0679 186.719 87.6069 190.46 87.5825 194.2C87.5662 197.003 87.208 200.27 85.2031 202.42C83.1041 204.68 79.7612 205.323 76.8509 205.873C74.3686 206.337 71.0921 206.659 69.207 204.637C68.3098 203.672 66.8276 204.476 66.7498 205.66C66.5317 208.912 62.6539 209.969 60.0484 210.452C57.0352 210.984 53.3836 211.823 50.5844 210.18C48.6167 209.021 47.3322 207.014 46.324 204.992C46.0647 204.501 45.8344 204.002 45.5954 203.519C45.3686 203.036 45.1546 202.554 44.9535 202.072C43.9284 202.207 42.9073 202.284 41.8821 202.3V202.301Z" fill="#161616"/>
<path d="M119.036 13.0459C119.374 11.9497 119.691 10.8367 119.987 9.72435C120.399 8.17734 120.773 6.61679 121.111 5.04608C121.19 4.64393 121.271 4.25193 121.358 3.8518C121.391 3.64599 121.424 3.44965 121.469 3.24586C122.152 3.19576 122.857 3.14769 123.552 3.124C124.676 3.06577 125.807 3.03395 126.944 3.04005C128.866 3.04953 130.788 3.13212 132.707 3.27836C132.859 3.28852 133.003 3.30409 133.155 3.31018C133.658 3.35216 134.139 3.38398 134.638 3.43408C134.547 4.00684 134.428 4.58706 134.325 5.1605C134.292 5.30742 134.259 5.46313 134.23 5.61072C133.971 7.02571 133.674 8.43529 133.378 9.84351C143.534 10.3899 153.693 10.9464 163.839 11.5015C195.635 13.2605 227.414 15.0756 259.197 16.9564C271.945 17.7106 284.694 18.4391 297.443 19.244C297.554 18.8067 297.652 18.3693 297.755 17.9306C297.866 17.4723 297.986 17.0139 298.085 16.5556C298.588 16.5718 299.093 16.6057 299.584 16.6375C299.967 16.6619 300.337 16.6869 300.704 16.7032C302.469 16.7756 304.239 16.8738 306.009 16.9652C307.116 17.0132 308.228 17.0715 309.335 17.1195C309.821 17.1432 310.311 17.1696 310.792 17.1933C310.759 17.6192 310.714 18.0356 310.656 18.4621C310.417 20.5487 310.055 22.6265 309.775 24.7036C309.71 25.1633 309.639 25.6122 309.582 26.0698C309.52 26.4957 309.463 26.9121 309.392 27.3386C308.828 27.3142 308.26 27.2905 307.684 27.2567C306.98 27.2194 306.28 27.1775 305.577 27.1375C305.128 33.3418 304.535 39.54 303.893 45.7213C302.893 55.4739 301.683 65.1933 300.32 74.8978C297.594 94.3197 294.285 113.734 290 132.872C289.975 132.982 289.95 133.092 289.926 133.202C291.383 133.252 292.828 133.287 294.285 133.312C294.878 133.329 295.479 133.338 296.08 133.346C295.985 133.973 295.882 134.608 295.784 135.233C295.528 136.799 295.257 138.357 294.976 139.923C294.717 141.386 294.438 142.85 294.149 144.316C294.083 144.689 294.013 145.044 293.939 145.407C293.268 145.441 292.593 145.458 291.914 145.483C288.386 145.586 284.821 145.483 281.327 145.085C280.742 145.018 280.149 144.951 279.565 144.865C279.622 144.653 279.684 144.443 279.75 144.222C279.812 144.028 279.861 143.842 279.911 143.647C280.108 142.986 280.285 142.318 280.471 141.658C279.742 141.674 279.014 141.7 278.285 141.717C274.502 141.792 270.719 141.844 266.936 141.853H265.718C265.936 141.04 266.183 140.226 266.463 139.423C266.841 139.431 267.232 139.431 267.603 139.431C270.221 139.457 272.835 139.465 275.44 139.457C277.321 139.449 279.203 139.441 281.072 139.423C281.286 138.627 281.496 137.831 281.698 137.037C281.895 136.266 282.081 135.487 282.274 134.717C282.426 134.108 282.562 133.499 282.707 132.898C282.834 132.898 282.962 132.907 283.085 132.915C283.459 132.941 283.822 132.949 284.196 132.967C285.32 133.034 286.448 133.068 287.572 133.109C289.342 124.505 290.992 115.874 292.54 107.223C295.977 88.0031 298.739 68.6793 300.999 49.2892C301.868 41.871 302.589 34.4379 303.333 27.0102C301.345 26.8945 299.357 26.7773 297.369 26.6677H297.357C297.283 26.6582 297.22 26.6582 297.147 26.6514C296.673 26.6257 296.192 26.5939 295.714 26.56C295.801 26.2581 295.882 25.9717 295.945 25.7097C295.986 25.5309 296.031 25.3515 296.064 25.1694C296.361 23.9176 296.648 22.6597 296.933 21.4044C270.32 20.1357 243.716 18.5718 217.111 17.0958C189.025 15.5299 160.93 13.9815 132.852 12.316C132.761 12.7466 132.667 13.1813 132.572 13.6118C132.44 14.2164 132.312 14.8129 132.185 15.4114C131.498 15.4012 130.814 15.3775 130.135 15.3532C129.06 15.3159 127.986 15.2773 126.912 15.2374C126.599 16.4249 126.278 17.6151 125.977 18.8067C125.117 22.2006 124.323 25.6041 123.566 29.0156C123.516 29.2458 123.467 29.4821 123.405 29.7123C122.536 29.6703 121.664 29.6222 120.791 29.5802C120.886 29.1645 120.969 28.7461 121.072 28.3298C121.874 24.86 122.731 21.3997 123.636 17.955C123.891 17.0193 124.134 16.085 124.397 15.1507C123.195 15.1135 121.993 15.0749 120.791 15.0336C120.079 15.0092 119.376 14.9849 118.667 14.953C118.589 14.953 118.523 14.9449 118.445 14.9449C118.659 14.3146 118.853 13.6843 119.038 13.0459H119.036Z" fill="#A1D2FF"/>
<path d="M175.522 141.625C175.929 142.395 176.234 143.217 176.456 144.054C176.616 143.275 176.769 142.514 176.929 141.743C177.106 140.888 177.291 140.051 177.485 139.195C178.078 136.538 178.716 133.888 179.292 131.23C180.049 127.719 180.811 124.207 181.507 120.68C181.844 118.955 182.186 117.22 182.499 115.485C182.532 115.313 182.565 115.142 182.594 114.961C183.244 115.003 183.903 115.026 184.541 114.961C184.776 115.175 185.199 115.133 185.376 114.839C185.656 114.406 185.73 113.824 185.8 113.31C185.85 112.957 185.899 112.589 185.952 112.229C189.369 112.377 192.798 112.524 196.219 112.695C205.53 113.153 214.841 113.702 224.153 114.298C228.768 114.593 233.39 114.88 238.001 115.183C240.314 115.339 242.631 115.495 244.933 115.625C245.382 115.657 245.851 115.691 246.324 115.731C246.271 115.968 246.222 116.198 246.172 116.426C246.077 116.828 245.822 117.515 246.053 117.932C245.934 118.227 246.069 118.643 246.382 118.741C246.934 118.913 247.506 118.93 248.066 119.011C248.074 119.011 248.074 119.011 248.082 119.011C247.687 121.23 247.473 123.504 247.169 125.687C246.704 129.055 246.205 132.434 245.654 135.794C245.111 139.154 244.502 142.504 243.835 145.839C243.489 147.541 243.143 149.233 242.777 150.935C242.497 152.264 242.118 153.609 241.92 154.973C241.39 154.836 240.846 154.708 240.315 154.558C240.035 154.488 239.714 154.659 239.636 154.954C239.331 156.157 239.018 157.358 238.697 158.56C238.648 158.729 238.595 158.916 238.545 159.085C237.174 158.991 235.795 158.94 234.424 158.857C231.975 158.704 229.53 158.551 227.072 158.424C218.16 157.951 209.256 157.469 200.344 156.985C195.924 156.748 191.507 156.562 187.077 156.367C186.909 156.359 186.731 156.351 186.554 156.341C185.497 156.284 184.43 156.224 183.352 156.147C183.381 156.502 183.533 156.8 183.718 157.088C184.895 157.163 186.06 157.239 187.229 157.324C187.596 157.35 187.95 157.375 188.304 157.399C197.22 158.018 206.124 158.559 215.041 159.11C219.457 159.38 223.882 159.652 228.304 159.922C230.547 160.05 232.799 160.169 235.042 160.278C236.072 160.337 237.121 160.412 238.171 160.464C238.027 160.939 237.817 161.574 238.098 161.97C238.242 162.173 238.46 162.284 238.707 162.216C238.707 162.216 239.148 162.377 239.226 162.393C239.485 162.46 239.732 162.563 239.983 162.639C240.551 162.825 241.103 163.062 241.679 163.24C242.239 163.409 242.828 163.502 243.404 163.611C243.869 163.704 244.437 163.892 244.902 163.772C245.368 163.655 245.631 163.29 245.75 162.851C245.878 162.326 245.944 161.783 246.047 161.251C246.249 160.1 246.438 158.939 246.537 157.765C246.64 157.56 246.751 157.341 246.842 157.121C247.01 156.732 246.899 156.258 246.442 156.139C245.422 155.869 244.413 155.564 243.396 155.318C243.363 155.31 243.338 155.302 243.305 155.293C243.725 153.878 243.923 152.338 244.206 150.909C244.548 149.208 244.869 147.497 245.182 145.796C245.8 142.454 246.4 139.094 246.993 135.741C247.57 132.398 248.13 129.03 248.628 125.669C248.941 123.584 249.323 121.407 249.517 119.24C249.55 119.248 249.604 119.257 249.653 119.265C250.176 119.347 250.703 119.445 251.238 119.55C251.81 119.674 252.412 119.894 253.004 119.797C253.091 119.789 253.156 119.739 253.214 119.691C253.309 119.633 253.396 119.559 253.445 119.429C253.614 118.954 253.643 118.39 253.708 117.882C253.791 117.383 253.877 116.893 253.951 116.393C254.038 115.894 254.104 115.387 254.182 114.888C254.252 114.372 254.343 113.856 254.343 113.325C254.351 113.153 254.252 113.039 254.141 112.981C254.096 112.735 253.935 112.507 253.647 112.433C252.626 112.163 251.548 112.106 250.51 111.983C250 111.926 249.51 111.869 249.004 111.828C248.732 111.812 248.452 111.763 248.189 111.794C247.937 111.819 247.69 111.901 247.436 111.935C247.25 111.951 247.123 112.065 247.073 112.197C246.834 112.409 246.834 112.965 246.802 113.251C246.76 113.561 246.691 113.866 246.633 114.175C245.72 114.125 244.814 114.094 243.949 114.021C241.376 113.808 238.787 113.644 236.21 113.471C219.534 112.342 202.851 111.558 186.151 110.838C186.262 110.086 186.373 109.339 186.39 108.587C186.406 108.137 185.887 108.006 185.604 108.235C185.447 108.121 185.279 108.072 185.044 108.032C184.788 107.982 184.533 107.942 184.282 107.908C183.78 107.843 183.274 107.794 182.767 107.768C182.241 107.736 181.726 107.752 181.207 107.786C180.734 107.817 180.092 107.786 179.676 108.032C179.474 108.155 179.396 108.375 179.437 108.587C179.379 108.769 179.276 108.922 179.227 109.102C179.157 109.307 179.169 109.545 179.14 109.757C179.091 110.183 178.996 110.6 178.938 111.026C178.897 111.386 178.847 111.738 178.77 112.089C178.708 112.327 178.65 112.565 178.601 112.801C178.506 113.185 178.313 113.587 178.441 113.972C178.523 114.234 178.778 114.38 179.05 114.316C179.083 114.306 179.124 114.306 179.149 114.306C179.244 114.422 179.317 114.504 179.479 114.56C179.59 114.586 179.701 114.602 179.804 114.618C180.055 114.666 180.31 114.708 180.565 114.74C180.718 114.764 180.862 114.79 181.022 114.814C180.981 115.034 180.928 115.248 180.886 115.46C180.495 117.179 180.133 118.896 179.779 120.623C179.043 124.074 178.363 127.539 177.663 130.985C177.202 133.194 176.799 135.419 176.358 137.636C176.111 138.88 175.856 140.125 175.589 141.362C175.568 141.455 175.547 141.53 175.527 141.624L175.522 141.625Z" fill="#A1D2FF"/>
<path d="M155.117 165.018C155.401 165.138 155.726 165.171 156.071 165.07C160.76 163.639 165.296 160.449 167.878 156.25C170.216 152.443 171.031 147.542 169.454 143.284C169.182 142.564 168.733 141.718 168.355 140.821C167.787 139.492 167.355 138.079 167.861 136.878C168.092 136.335 168.532 136.292 168.997 136.419C169.383 136.522 169.791 136.741 170.125 136.901C170.936 137.3 171.673 137.791 172.34 138.392C173.373 139.323 174.184 140.433 174.805 141.625C175.201 142.395 175.513 143.217 175.735 144.054C176.226 145.831 176.337 147.726 176.09 149.59C175.777 151.917 174.941 154.185 173.821 156.241C172.669 158.331 171.232 159.949 169.631 161.668C168.947 162.394 169.614 163.851 170.672 163.462C173.331 162.488 175.126 159.516 176.402 157.147C177.794 154.582 178.715 151.815 179.012 148.911C179.342 145.561 178.555 142.056 176.769 139.195C176.419 138.653 176.048 138.13 175.624 137.637C175.221 137.146 174.773 136.682 174.278 136.249C172.986 135.107 171.17 133.864 169.343 133.533C168.947 133.457 168.54 133.431 168.149 133.449C166.963 133.517 166.144 134.142 165.601 134.989C164.885 136.165 164.704 137.798 164.918 139.111C164.926 139.178 164.942 139.255 164.959 139.322C165.416 141.785 166.964 143.901 167.314 146.406V146.414C167.322 146.424 167.322 146.432 167.322 146.44C167.635 148.75 167.083 151.206 166.033 153.27C163.798 157.714 159.661 160.127 155.277 162.031C155.149 162.098 155.005 162.15 154.869 162.209C153.556 162.767 154.037 164.553 155.116 165.018H155.117Z" fill="#161616"/>
<path d="M176.448 165.002C179.144 162.623 181.297 159.399 181.668 155.743C181.845 154.032 181.602 152.282 180.659 150.825C180.28 150.242 179.754 149.692 179.19 149.277C178.556 148.81 177.741 148.429 177.395 147.685C177.25 147.381 177.217 146.915 177.518 146.678C179.206 145.333 181.593 147.05 182.709 148.406C184.223 150.242 184.936 152.544 184.849 154.922C184.688 159.552 182.124 164.215 178.51 167.067C177.884 167.559 177.057 167.66 176.447 167.067C175.912 166.543 175.863 165.526 176.447 165.002H176.448Z" fill="#161616"/>
<path d="M180.519 173.068C182.474 175.073 184.375 171.536 185.199 170.173C186.306 168.336 187.298 166.305 187.652 164.188C187.957 162.37 187.846 160.413 187.162 158.679C187.018 158.289 186.795 157.807 186.508 157.325C186.314 156.985 186.096 156.656 185.833 156.342C185.158 155.505 184.277 154.895 183.293 155.183C182.914 155.294 182.618 155.658 182.626 156.065C182.626 156.098 182.626 156.124 182.634 156.148C182.658 156.503 182.803 156.801 182.988 157.088C183.149 157.325 183.342 157.561 183.503 157.807C183.845 158.323 184.182 158.865 184.4 159.433C184.841 160.609 184.952 161.888 184.799 163.114C184.606 164.587 184.071 166.017 183.404 167.338C183.021 168.083 182.597 168.811 182.177 169.53C181.971 169.852 181.786 170.173 181.593 170.487C181.568 170.521 181.456 170.689 181.362 170.826C180.279 170.927 179.74 172.263 180.518 173.069L180.519 173.068Z" fill="#161616"/>
<path d="M174.975 183.046C177.099 182.582 178.992 181.337 180.82 180.202C182.5 179.161 184.224 178.002 185.266 176.283C186.324 174.541 186.748 172.272 186.868 170.257C186.996 168.141 186.444 166.246 185.834 164.239C185.571 163.384 186.62 162.961 187.214 163.435C189.161 165.009 189.56 167.718 189.552 170.097C189.552 172.576 189.103 175.241 187.934 177.46C186.806 179.592 184.88 181.184 182.879 182.462C180.69 183.857 178.335 185.381 175.729 185.779C173.967 186.05 173.156 183.435 174.976 183.045L174.975 183.046Z" fill="#161616"/>
<path d="M105.349 213.263C112.458 220.168 119.987 226.661 127.849 232.694C135.325 238.425 143.257 244.23 152.523 246.575C156.953 247.692 161.666 247.996 166.137 246.965C168.253 246.472 170.369 245.728 172.122 244.416C173.83 243.138 174.983 241.268 175.752 239.313C177.498 234.853 177.893 229.987 177.819 225.237C177.74 220.515 177.21 215.801 176.243 211.171C175.16 206.008 173.567 200.921 171.443 196.088C170.904 194.853 170.31 193.651 169.751 192.431C169.191 191.213 168.935 189.968 169.59 188.733C170.722 186.548 172.965 184.823 174.921 183.418C176.098 182.581 177.531 184.45 176.473 185.423C175.609 186.203 174.794 187.04 174.052 187.937C173.71 188.334 173.381 188.75 173.06 189.164C172.83 189.444 172.332 189.908 172.307 190.299C172.274 190.714 172.806 191.441 172.974 191.772C173.255 192.322 173.526 192.879 173.789 193.439C174.324 194.565 174.815 195.716 175.296 196.875C177.177 201.428 178.63 206.168 179.631 211.001C180.602 215.74 181.171 220.589 181.269 225.432C181.372 230.409 180.948 235.563 179.104 240.236C178.248 242.401 177.124 244.493 175.424 246.117C173.72 247.734 171.612 248.826 169.414 249.579C164.877 251.136 159.958 251.237 155.249 250.511C145.448 248.987 136.923 243.435 129.152 237.578C120.063 230.722 111.422 223.281 103.234 215.377C101.847 214.039 103.971 211.916 105.35 213.261L105.349 213.263Z" fill="#161616"/>
<path d="M146.118 213.066C146.089 211.502 146.081 209.936 146.098 208.386C146.11 206.889 146.135 205.391 146.176 203.892C146.411 195.411 147.177 186.999 147.971 178.544C148.132 176.851 145.304 176.496 145.016 178.145C143.559 186.549 142.957 195.183 142.818 203.697C142.81 204.18 142.798 204.655 142.798 205.137C142.79 206.677 142.781 208.209 142.798 209.749C143.901 210.857 145.008 211.966 146.12 213.066H146.118Z" fill="#161616"/>
<path d="M8.7408 257.79C8.62975 258.535 9.58854 259.406 10.1979 258.636C10.5771 258.162 11.0091 257.798 11.322 257.264C11.6185 256.774 11.8738 256.249 12.1365 255.75C12.6511 254.785 13.1082 253.803 13.5977 252.83C14.631 250.756 15.6067 248.666 16.619 246.584C20.2003 239.246 23.9088 231.992 27.7866 224.799C29.709 221.244 31.6888 217.705 33.71 214.194C34.7351 212.415 35.7677 210.639 36.8098 208.861C37.7727 207.212 39.2054 205.408 39.4153 203.478C39.5183 202.614 38.3821 202.072 37.7151 202.496C36.6988 203.139 36.1137 204.189 35.4556 205.172C34.8543 206.077 34.2781 207.016 33.7019 207.939C32.4749 209.903 31.2731 211.882 30.0962 213.873C25.9388 220.898 22.0156 228.057 18.3314 235.337C16.5039 238.951 14.7502 242.597 13.0662 246.279C12.2015 248.167 11.3619 250.054 10.5758 251.968C10.1885 252.916 9.79777 253.864 9.45177 254.82C9.28316 255.302 9.08545 255.777 8.94529 256.267C8.78887 256.783 8.81731 257.257 8.73944 257.791L8.7408 257.79Z" fill="#161616"/>
<path d="M119.979 147.863C120.526 147.888 121.094 147.931 121.646 147.973C122.256 148.024 122.864 148.074 123.474 148.117C123.49 149.37 123.371 150.622 123.082 151.823C122.872 151.807 122.662 151.797 122.448 151.782C121.477 151.697 120.501 151.629 119.521 151.554C119.892 150.361 120.012 149.116 119.978 147.864L119.979 147.863ZM146.184 148.911C147.147 148.911 148.106 148.895 149.07 148.877C148.674 150.072 148.494 151.434 148.379 152.637C147.428 152.653 146.481 152.661 145.526 152.661C145.686 151.443 145.855 150.148 146.185 148.911H146.184ZM165.614 134.99C166.145 134.142 166.964 133.517 168.15 133.449C168.549 133.423 168.948 133.457 169.343 133.533C169.253 134.497 169.133 135.461 169.005 136.419C168.54 136.292 168.092 136.335 167.861 136.877C167.355 138.07 167.795 139.491 168.355 140.821C168.059 142.691 167.709 144.552 167.322 146.398C166.964 143.901 165.416 141.786 164.959 139.314C165.095 138.527 165.214 137.723 165.342 136.918C165.433 136.283 165.528 135.632 165.614 134.99ZM153.059 148.785C154.005 148.76 154.96 148.717 155.911 148.675C155.911 148.945 155.903 149.217 155.895 149.487C155.866 150.469 155.825 151.443 155.784 152.424C154.846 152.466 153.911 152.5 152.981 152.534C153.026 151.291 153.051 150.039 153.059 148.785H153.059ZM109.202 120.999C110.26 122.037 111.231 123.151 112.104 124.338C111.894 125.332 111.717 126.339 111.561 127.346C111.503 127.743 111.445 128.141 111.392 128.539C110.437 127.244 109.445 125.993 108.346 124.804C108.585 123.527 108.864 122.259 109.201 120.999H109.202Z" fill="#161616"/>
<path d="M109.194 121.001C110.26 122.039 111.232 123.152 112.096 124.339C113.146 125.739 114.035 127.228 114.747 128.793C115.019 128.778 115.303 128.793 115.566 128.786C115.99 128.786 116.414 128.812 116.83 128.82C117.616 128.854 118.394 128.895 119.18 129.014C120.358 129.183 121.526 129.598 122.375 130.437C122.535 130.589 122.675 130.76 122.816 130.953C123.264 131.562 123.449 132.222 123.474 132.917C123.499 133.967 123.112 135.066 122.635 136.039C122.264 136.809 121.849 137.563 121.408 138.3C121.255 138.553 121.111 138.807 120.943 139.062C122.528 141.779 123.449 144.969 123.474 148.126C123.483 148.643 123.466 149.15 123.413 149.658C123.989 149.718 124.565 149.76 125.133 149.809C132 150.361 138.862 150.791 145.728 151.173C145.847 150.418 145.983 149.658 146.177 148.912C146.745 146.703 147.786 144.672 149.952 143.572C151.537 142.759 153.566 142.777 154.829 144.164C155.936 145.383 155.962 147.093 155.912 148.676C155.912 148.946 155.904 149.217 155.896 149.488C155.88 150.225 155.842 150.961 155.809 151.697C158.028 151.816 160.247 151.925 162.462 152.07C163.895 151.969 165.298 151.741 166.154 150.411C166.891 149.267 167.043 147.712 167.315 146.408C166.965 143.903 165.417 141.787 164.96 139.324C164.944 139.256 164.927 139.18 164.919 139.112C164.705 137.8 164.886 136.166 165.602 134.991C166.146 134.143 166.965 133.518 168.15 133.451C168.542 133.433 168.949 133.458 169.344 133.534C169.27 133.526 169.978 121.354 170.097 120.363C170.233 119.225 170.319 118.064 170.056 116.952C169.693 115.455 168.557 114.333 167.154 113.76C166.384 113.442 165.56 113.294 164.738 113.214C162.572 112.698 160.254 112.551 158.061 112.239C155.505 111.879 152.965 111.527 150.4 111.225C141.385 110.176 132.345 109.416 123.285 108.795C121.128 108.639 118.938 108.409 116.768 108.393C114.739 108.377 112.479 109.875 111.207 111.526C109.235 114.088 109.388 116.517 109.338 120.519C109.297 120.673 109.235 120.837 109.194 121.002V121.001Z" fill="#2220FF"/>
<path d="M136.14 132.353C135.433 133.263 134.513 133.812 133.344 134.03C131.339 134.424 128.929 133.629 127.947 131.589C127.164 129.962 127.407 127.692 128.512 126.073C129.076 125.638 129.733 125.268 130.245 125.071C131.362 124.632 132.458 124.493 133.564 124.743C134.557 124.962 135.491 125.557 136.087 126.408C136.729 127.324 137.027 128.338 137.029 129.487C137.044 130.445 136.732 131.583 136.14 132.353ZM139.359 130.693C139.816 127.545 138.362 124.017 135.298 122.766C133.607 122.075 131.666 122.007 129.946 122.615C129.075 122.923 128.229 123.369 127.543 123.996C127.024 124.481 126.671 125.029 126.377 125.635C125.239 127.373 124.91 129.609 125.462 131.646C126.362 134.878 129.612 136.724 132.85 136.519C136.123 136.306 138.865 133.974 139.36 130.693L139.359 130.693Z" fill="white"/>
<path d="M154.868 133.37C155.809 134.019 153.951 136.188 153.276 135.753C153.233 135.725 153.196 135.7 153.156 135.673C152.467 135.227 151.805 134.73 151.186 134.186C150.024 133.191 148.886 131.995 148.074 130.655C147.457 131.047 146.838 131.428 146.201 131.796C146.22 133.233 146.265 134.667 146.387 136.107C146.548 138.018 143.765 138.261 143.627 136.356C143.331 132.123 143.516 127.871 144.165 123.655C144.228 123.229 144.604 122.724 145.007 122.63C145.031 122.615 145.068 122.616 145.104 122.604C145.425 122.527 145.672 122.532 145.979 122.685C146.492 122.96 146.677 123.552 146.602 124.154C146.423 125.655 146.315 127.167 146.252 128.681C146.974 128.219 147.705 127.758 148.427 127.296C149.13 126.848 149.837 126.399 150.533 125.943C151.283 125.471 152.021 124.889 152.825 124.535C153.41 124.28 154.077 124.631 154.336 125.202C154.602 125.838 154.368 126.496 153.872 126.922C153.252 127.47 152.467 127.855 151.776 128.286C151.268 128.609 150.77 128.922 150.27 129.245C150.314 129.291 150.363 129.338 150.401 129.392C150.431 129.426 150.464 129.47 150.47 129.48C150.506 129.544 150.549 129.598 150.597 129.644C150.837 129.926 151.083 130.217 151.326 130.48C151.835 131.018 152.371 131.525 152.938 131.983C153.08 132.115 153.224 132.237 153.379 132.351C153.447 132.402 153.519 132.454 153.585 132.515C153.613 132.538 153.621 132.54 153.635 132.552C153.635 132.552 153.643 132.553 153.669 132.569C153.973 132.779 154.259 132.994 154.568 133.178C154.666 133.244 154.772 133.311 154.867 133.369L154.868 133.37Z" fill="white"/>
<path d="M92.4151 73.558C92.4314 73.4693 92.4646 73.3942 92.5018 73.317C92.2878 72.4924 92.7367 71.4619 93.8479 71.4376C98.7793 71.3157 102.608 74.7428 106.094 77.7949C107.848 79.3236 109.634 80.8625 111.758 81.8774C114.027 82.9735 116.525 82.9735 118.892 82.1312C121.703 81.1164 124.124 79.088 126.367 77.1571C128.89 74.9805 131.385 72.7957 134.089 70.8242C139.474 66.8981 145.838 62.4304 152.827 63.3464C156.231 63.7966 159.479 65.1473 162.529 66.6923C165.473 68.1912 168.235 70.0063 170.824 72.0767C172.088 73.0834 173.298 74.164 174.438 75.3007C175.575 76.4137 176.579 77.6398 177.732 78.7204C178.662 79.587 179.84 80.4712 181.185 80.2335C182.659 79.9878 183.952 78.8267 185.224 78.1063C190.608 75.0712 197.523 73.5255 202.821 77.566C205.2 79.3913 206.937 81.8862 209.247 83.7676C211.577 85.6586 214.57 86.6728 217.533 86.8691C223.983 87.3031 229.977 84.1359 234.649 79.9235C236.926 77.8524 239.058 75.5451 241.989 74.4084C244.4 73.4761 247.344 73.8045 249.394 75.4314C249.522 75.5377 249.649 75.6433 249.769 75.7672C250.386 76.3555 250.843 77.0759 251.115 77.8944C251.51 78.4746 251.909 79.065 252.325 79.6452C252.51 79.9235 252.703 80.2017 252.889 80.4793C252.782 81.4197 252.646 82.3682 252.493 83.3106C252.312 84.4061 252.119 85.494 251.892 86.5827C251.34 89.3057 250.723 92.0389 249.936 94.7064C249.208 97.1938 247.919 99.3129 245.577 100.557C243.326 101.75 240.716 102.169 238.221 102.52C235.311 102.928 232.388 103.116 229.453 103.151C223.575 103.215 217.684 102.798 211.818 102.462C205.866 102.128 199.918 101.742 193.974 101.318C181.946 100.466 169.934 99.4686 157.922 98.4463C146.03 97.4314 134.137 96.3996 122.253 95.3773C117.284 94.9433 112.315 94.5263 107.347 94.093C107.236 93.9704 107.125 93.856 106.997 93.7504C106.482 93.2894 105.931 92.9156 105.338 92.5879C105.313 92.5866 105.28 92.588 105.243 92.5852C104.695 92.5365 104.144 92.4546 103.613 92.3483C102.509 92.133 101.443 91.7857 100.431 91.3327C98.3893 90.4228 96.5611 88.781 95.1987 87.0302C92.2188 83.205 91.2634 78.2512 92.4117 73.5601L92.4151 73.558Z" fill="#2220FF"/>
<path d="M81.5191 93.1905C83.5856 95.1539 86.2982 96.4301 88.752 97.8627C91.1063 99.2276 93.4566 100.586 95.9802 101.601C98.4009 102.575 101.023 103.155 103.633 102.829C105.934 102.541 108.371 101.601 108.906 99.0813C109.277 97.3062 108.593 95.399 107.35 94.091C107.239 93.9671 107.128 93.8526 107 93.7464C105.469 92.3713 103.53 91.7498 101.719 90.8412C101.068 90.5149 100.414 90.1466 99.7964 89.7465C97.2152 88.0932 94.9882 85.8766 93.6509 83.1028C91.757 79.1672 92.6874 74.7652 94.6097 71.0347C96.5896 67.2048 99.4341 63.8271 102.728 61.054C103.913 60.0473 105.181 59.1468 106.494 58.3046C106.984 57.9938 107.474 57.6905 107.968 57.396C108.964 56.7914 109.981 56.0954 110.734 55.195C111.261 54.564 111.657 53.8281 111.817 52.9615C112.706 48.1668 106.425 46.8662 102.881 47.2988C98.5051 47.8472 94.8988 50.4504 92.0543 53.7136C88.9301 57.2972 86.3902 61.4135 83.6899 65.3159C82.5706 66.9347 85.2215 68.4729 86.3205 66.8527C89.033 62.8766 91.5363 58.5659 94.8128 55.0244C97.5545 52.061 101.551 49.468 105.766 50.254C107.026 50.4923 109.516 51.1613 108.603 52.8714C107.96 54.0738 106.335 54.7786 105.063 55.4807C104.836 55.6127 104.614 55.7346 104.412 55.8652C103.49 56.4631 102.585 57.1177 101.72 57.8137C99.5174 59.5564 97.5213 61.5679 95.7879 63.777C91.8484 68.7755 88.6748 75.1409 89.9471 81.3513C90.2308 82.7582 90.7495 84.1569 91.5363 85.532C93.2981 88.6158 96.0682 91.1107 99.1396 92.8777C99.5472 93.116 99.967 93.3293 100.391 93.5317C101.601 94.114 102.852 94.6204 104.005 95.3326C104.964 95.9304 106.335 97.2879 105.751 98.5824C105.417 99.3169 104.261 99.4733 103.557 99.5634C102.61 99.6852 101.602 99.6534 100.663 99.5214C98.5722 99.2194 96.5754 98.4009 94.6943 97.4687C92.6894 96.4795 90.7258 95.3915 88.7547 94.3272C86.7498 93.2406 84.7577 92.0199 82.5469 91.4235C81.5509 91.1615 80.7519 92.4539 81.5218 93.1905H81.5191Z" fill="#161616"/>
<path d="M80.8026 59.4655C81.8068 58.1067 82.9349 56.8461 84.2647 55.7933C85.6027 54.7324 87.0679 53.8753 88.6815 53.3188C90.2747 52.7704 92.2052 52.4461 93.8397 52.9701C94.7782 53.2727 94.98 54.8929 93.8397 55.0797C92.4151 55.3113 91.0196 55.4128 89.641 55.8983C88.3111 56.3695 87.0476 57.0851 85.9649 57.9903C84.8822 58.8921 83.9153 59.9367 83.096 61.0802C82.6803 61.6557 82.3018 62.2522 81.9354 62.8581C81.5197 63.5399 81.1737 64.3571 80.5812 64.9034C79.873 65.5689 78.2553 65.1749 78.4077 64.003C78.6257 62.3666 79.8276 60.7647 80.8033 59.4662L80.8026 59.4655Z" fill="#161616"/>
<path d="M72.6068 61.3451C73.5744 60.2774 74.6076 59.2808 75.5624 58.2037C76.5706 57.0669 77.5876 55.9688 78.8145 55.0656C80.1647 54.0738 81.7823 53.5234 83.4413 53.4049C84.3425 53.3406 85.2275 53.4157 86.1172 53.5369C86.5743 53.5999 86.99 53.7062 87.4389 53.8524C87.8465 53.9871 88.1512 54.2255 88.5216 54.3812C89.3118 54.7089 89.3118 56.0006 88.3117 55.981C87.9203 55.9742 87.5337 56.0744 87.1342 56.069C86.7347 56.0622 86.3481 56.0588 85.9486 56.0352C85.1543 55.9837 84.3432 55.9695 83.5448 56.0785C82.1825 56.268 80.9718 56.8212 79.9473 57.7365C77.9837 59.4934 76.6295 62.2185 74.2088 63.4195C72.8708 64.0837 71.5823 62.4838 72.6075 61.3458L72.6068 61.3451Z" fill="#161616"/>
<path d="M65.5765 62.3706C65.6835 61.8899 65.8609 61.4498 66.0579 60.9949C66.3789 60.2644 66.733 59.5528 67.1406 58.8677C68.0297 57.385 69.1367 56.0262 70.4998 54.9544C71.982 53.7825 73.7519 52.8191 75.6743 52.6986C76.6459 52.6376 77.6216 52.8915 78.5351 53.1826C79.4038 53.4575 80.3301 53.5733 81.1325 54.0073C81.5814 54.2483 81.5645 54.8082 81.2767 55.1535C80.1161 56.557 78.0164 55.5604 76.5349 55.3769C75.0364 55.1907 73.5217 56.0891 72.414 57.0187C71.3313 57.9273 70.4503 59.0444 69.7218 60.2501C69.3311 60.9028 68.9851 61.5798 68.6804 62.2758C68.528 62.6069 68.3919 62.9366 68.2314 63.2595C68.0215 63.6664 67.7419 63.9386 67.4785 64.2913C66.8854 65.0909 65.5481 64.8736 65.5311 63.7639C65.5149 63.2751 65.4573 62.8587 65.5765 62.3699V62.3706Z" fill="#161616"/>
<path d="M18.7229 128.176C20.4482 136.75 23.4938 144.918 27.1861 152.814C27.9641 154.514 28.7834 156.199 29.6312 157.867C30.1661 158.941 30.7139 160.008 31.2738 161.075C31.8832 162.244 32.5008 163.403 33.1305 164.562C33.6695 163.47 34.3899 162.446 35.0772 161.507C35.1679 161.389 35.2546 161.27 35.3446 161.152C34.7603 160.059 34.1881 158.951 33.62 157.86C32.7147 156.09 31.8338 154.305 30.9772 152.518C30.5696 151.655 30.1667 150.799 29.7754 149.928C29.3799 149.057 28.9811 148.168 28.5898 147.278C25.4696 140.101 22.7652 132.543 21.5464 124.821C20.8551 120.46 21.0481 115.937 22.9129 111.878C24.7404 107.894 27.457 104.303 29.9521 100.719C32.5333 97.0211 35.2173 93.4132 38.2305 90.0511C40.9552 86.9977 43.8945 84.1183 46.9612 81.4027C47.0892 81.2883 47.2124 81.1725 47.3404 81.0588C47.8468 80.6085 48.3567 80.1685 48.872 79.7338C49.8971 78.8489 50.9385 77.9911 51.9799 77.1388C52.0043 77.1083 52.0375 77.0907 52.0666 77.0663C53.8325 75.6182 55.6275 74.2032 57.4226 72.795C60.8433 70.1207 64.4246 67.6333 67.7837 64.8927C69.0513 63.8541 67.3924 61.7831 66.0469 62.6422C61.8069 65.3835 57.7361 68.4687 53.7262 71.5526H53.714C52.0382 72.8457 50.3711 74.1639 48.7454 75.5207C46.5556 77.329 44.4064 79.2024 42.3318 81.1414C39.0633 84.1846 35.9757 87.4167 33.1562 90.8764C30.1058 94.6163 27.3642 98.5918 24.6314 102.568C22.1701 106.144 19.6878 109.841 18.5597 114.088C17.3416 118.703 17.7898 123.554 18.7242 128.177L18.7229 128.176Z" fill="#161616"/>
<path d="M15.3767 183.733C17.1053 189.082 20.7854 193.567 25.6309 196.267C28.3644 198.984 32.0275 200.862 35.8478 201.718C37.8277 202.158 39.8577 202.345 41.8822 202.302C42.9074 202.286 43.9285 202.208 44.9536 202.074C45.1554 202.556 45.3694 203.038 45.5955 203.521C45.8345 204.004 46.0648 204.503 46.3241 204.994C47.3323 207.017 48.6168 209.023 50.5845 210.182C53.3837 211.825 57.0347 210.986 60.0485 210.454C62.654 209.971 66.5318 208.914 66.7499 205.663C66.8284 204.478 68.3099 203.673 69.2071 204.639C71.0922 206.661 74.3694 206.34 76.851 205.875C79.7612 205.325 83.1035 204.682 85.2032 202.422C87.2081 200.272 87.5663 197.005 87.5826 194.202C87.6069 190.463 87.068 186.721 86.8127 182.988C86.5161 178.673 86.4132 174.203 87.7512 170.031C88.0721 169.023 89.6979 169.159 89.6572 170.285C89.5624 172.679 89.62 175.059 89.7683 177.437C97.2849 172.984 107.16 174.872 114.405 179.239C115.023 179.612 115.644 180.009 116.245 180.415C116.134 180.076 116.15 179.695 116.356 179.316C118.435 175.541 116.261 171.909 113.355 169.354C111.013 167.289 108.295 165.274 105.349 163.97C104.344 163.928 103.426 163.683 102.838 163.065C102.616 162.997 102.389 162.929 102.159 162.878C101.549 162.735 100.924 162.015 100.998 161.356C101.439 157.69 99.9487 154.212 97.5612 151.469C96.3342 150.055 94.9062 148.812 93.3996 147.712C92.5763 147.119 91.7285 146.576 90.9092 145.993C90.1475 145.46 89.2422 144.943 88.8427 144.064C88.5461 143.403 88.9124 142.76 89.6329 142.692C89.748 142.684 89.8678 142.676 89.987 142.692C90.0114 142.633 90.0283 142.599 90.0283 142.591C90.1475 142.362 90.3784 142.15 90.5388 141.963C90.9261 141.532 91.3087 141.092 91.6791 140.643C92.3995 139.764 93.0333 138.833 93.577 137.825C94.6516 135.82 95.3016 133.559 95.565 131.291C95.8697 128.54 95.6267 125.798 95.0999 123.096C94.8446 121.795 94.5074 120.519 94.1289 119.258C93.7544 118.071 93.4822 116.583 92.7042 115.576C92.6799 115.528 92.6467 115.486 92.6176 115.438C86.0848 113.95 79.2967 114.89 73.439 118.368C67.775 121.73 63.3501 127.111 61.5957 133.441C61.5463 133.611 61.5171 133.772 61.4765 133.933C60.4595 135.245 59.328 136.446 58.0761 137.521C54.4332 140.618 50.1437 142.184 45.4716 142.878C40.4414 143.623 35.407 144.172 31.3437 147.517C26.2558 151.707 23.7404 159.078 25.1691 165.545C23.4607 165.299 21.6332 165.594 20.0732 166.339C13.8532 169.294 13.5404 178.071 15.3767 183.733Z" fill="#161616"/>
<path d="M53.1032 117.082C53.087 119.66 53.6463 122.235 54.4161 124.683C55.4162 127.863 56.6675 130.977 57.9974 134.059C58.7178 135.726 59.4545 137.375 60.1912 139.027C60.3192 139.323 60.4506 139.61 60.5785 139.906C60.7146 138.679 60.8338 137.453 61.0105 136.25C61.1466 135.302 61.3403 134.363 61.5949 133.44C60.9367 131.926 60.2732 130.393 59.6563 128.845C58.8783 126.932 58.1741 124.993 57.5816 123.029C56.9066 120.82 56.3385 118.383 56.5937 116.05C56.845 113.825 58.8783 112.622 60.4675 111.313C64.2465 108.212 68.1114 105.219 72.0224 102.305C74.0395 100.8 76.0688 99.3116 78.1191 97.8546C79.7205 96.7179 81.4038 95.6455 82.8779 94.3124C83.207 94.0165 83.5279 93.7065 83.8407 93.372C84.2565 92.9137 84.1373 92.177 83.7378 91.8169C83.5773 91.6612 83.3593 91.5786 83.1122 91.605C83.0296 91.605 82.9354 91.6212 82.8406 91.653C82.2847 91.8494 81.7498 92.0775 81.2271 92.3416C79.1362 93.3639 77.222 94.7789 75.2996 96.0957C74.3368 96.7504 73.3895 97.4139 72.4307 98.0922C71.6365 98.6488 70.8456 99.2134 70.0514 99.7855C69.3844 100.259 68.7215 100.742 68.0633 101.234C63.9506 104.278 59.81 107.353 55.916 110.691C53.9523 112.384 53.1168 114.505 53.1046 117.082H53.1032Z" fill="#161616"/>
<path d="M47.1799 76.9838C48.5179 76.1368 50.4402 76.7651 51.8683 77.1077C53.383 77.4712 54.857 77.9695 56.2891 78.5727C59.1912 79.7867 61.8421 81.4359 64.2296 83.4846C66.588 85.515 68.6958 87.9746 70.2275 90.697C71.0833 92.2338 71.8119 93.9074 72.2114 95.6278C72.598 97.361 72.4376 99.0508 72.0922 100.776C71.8532 101.922 69.96 101.676 70.0338 100.498C70.2356 97.4172 68.8651 94.1674 67.2428 91.6231C65.7565 89.2996 63.8958 87.2516 61.7717 85.5008C59.7173 83.8062 57.3386 82.3993 54.8726 81.3831C53.6294 80.8685 52.3449 80.4569 51.032 80.1353C49.6859 79.8029 47.9857 79.8381 46.9402 78.8219C46.3925 78.2769 46.5529 77.3812 47.1793 76.9844L47.1799 76.9838Z" fill="#161616"/>
<path d="M147.308 192.517C148.638 191.823 150.037 191.239 151.465 190.791C154.405 189.86 157.586 189.521 160.649 189.8C166.354 190.334 172.723 192.855 175.979 197.781C176.53 198.595 175.431 199.736 174.608 199.153C172.483 197.662 170.384 196.114 168.038 194.971C165.695 193.821 163.09 193.101 160.48 192.907C157.771 192.712 155.079 193.033 152.482 193.821C151.185 194.211 149.95 194.71 148.756 195.336C147.632 195.937 146.208 197.392 144.87 196.944C144.314 196.757 143.915 196.283 143.907 195.684C143.899 194.05 146.048 193.177 147.307 192.518L147.308 192.517Z" fill="#161616"/>
<path d="M6.39359 256.606C40.336 256.575 72.1423 256.594 106.081 256.606C139.852 256.616 173.615 256.647 207.386 256.758C216.915 256.789 226.432 256.799 235.961 256.861C245.47 256.923 255.037 256.698 264.535 257.413C265.293 257.476 265.301 258.92 264.535 258.973C256.072 259.608 247.553 259.413 239.075 259.473C230.589 259.545 222.104 259.535 213.618 259.556C196.647 259.607 179.683 259.616 162.708 259.626C128.937 259.647 95.1732 259.626 61.4023 259.597C42.3565 259.585 25.4469 259.556 6.39294 259.524C4.9577 259.524 4.95395 256.604 6.39294 256.604L6.39359 256.606Z" fill="#161616"/>
<path d="M48.2542 231.416C48.7444 234.312 49.3119 237.19 49.8393 240.084C50.354 242.936 50.8516 245.797 51.4035 248.658C51.8111 250.764 52.453 253.058 54.0713 254.573C56.2035 256.572 59.151 256.419 61.8682 256.52C64.857 256.613 67.841 256.715 70.8339 256.808C82.7842 257.215 94.738 257.637 106.696 257.925C107.248 257.943 107.68 257.756 107.985 257.477C111.2 257.603 114.415 257.739 117.626 257.865C119.606 257.951 121.577 258.044 123.553 258.137C125.159 258.213 126.809 258.366 128.402 258.018C131.736 257.282 132.893 254.075 132.741 251.002C132.563 247.345 131.955 243.672 131.535 240.041C130.814 233.71 130.086 227.379 129.094 221.083C128.822 219.322 128.522 217.536 127.69 215.961C125.068 210.96 117.869 212.067 113.196 211.95C106.622 211.79 100.053 211.832 93.4826 212.101C87.5592 212.339 81.6521 212.695 75.7409 213.1C69.9943 213.481 64.2395 213.794 58.4969 214.31C55.9408 214.549 53.4707 215.064 51.4617 216.773C49.6755 218.288 48.5183 220.574 48.045 222.843C47.4444 225.695 47.7735 228.581 48.2549 231.415L48.2542 231.416Z" fill="#161616"/>
<path d="M106.485 58.3044C107.543 58.3206 108.601 58.3382 109.651 58.3382C132.563 58.4283 155.454 58.2644 178.35 58.9029C189.802 59.2305 201.25 59.6794 212.677 60.2691C218.432 60.5636 224.178 60.8994 229.937 61.2596C232.769 61.4383 235.613 61.6177 238.45 61.7999C241.076 61.9705 243.81 61.9461 246.407 62.3638C247.473 62.5358 248.153 62.9102 248.523 63.9589C248.939 65.1132 249.194 66.3475 249.404 67.5505C249.845 70.2099 249.911 72.9336 249.778 75.6248C249.778 75.6749 249.77 75.7148 249.77 75.7649C250.388 76.3533 250.845 77.0736 251.116 77.8922C251.512 78.4724 251.911 79.0627 252.326 79.6429C252.512 79.9212 252.705 80.1995 252.89 80.477C253.331 76.9098 253.45 73.3175 253.063 69.7434C252.89 68.2052 252.631 66.6839 252.314 65.1694C252.071 64.0151 251.816 62.8046 251.257 61.7498C249.931 59.2867 247.256 58.9685 244.74 58.7722C220.898 56.9151 196.981 55.8007 173.077 55.2124C161.152 54.9185 149.223 54.7621 137.305 54.7621C131.271 54.754 125.24 54.8204 119.206 54.9341C116.382 54.9923 113.554 55.0898 110.734 55.1961C109.981 56.0959 108.964 56.7905 107.959 57.3971C107.466 57.691 106.976 57.9936 106.486 58.3037L106.485 58.3044Z" fill="#A1D2FF"/>
<path d="M99.7958 89.7463C99.8373 89.7803 99.8909 89.8123 99.9404 89.8367C99.9072 89.8123 99.8746 89.7803 99.8495 89.7545C99.8291 89.7463 99.804 89.7463 99.7958 89.7463Z" fill="#161616"/>
<path d="M60.2165 44.4538H64.6333C92.0157 44.47 119.41 44.7239 146.785 45.2141C176.995 45.7543 207.206 46.5891 237.408 47.7252C251.598 48.2573 265.782 48.8958 279.972 49.518C281.182 49.5741 282.393 49.6242 283.611 49.6804C283.66 48.9858 283.714 48.2837 283.73 47.5952C283.813 44.2899 283.273 41.1715 280.885 38.521C278.329 35.7072 274.628 33.8339 271.167 32.402C267.56 30.9051 263.753 29.9566 259.9 29.3581C251.705 28.0913 243.377 28.2132 235.115 28.1232C216.267 27.9011 197.421 27.6892 178.572 27.4766L122.025 26.8307C107.432 26.6662 91.7158 25.4475 77.7693 30.6844C71.4668 33.0479 65.9056 36.8196 61.826 42.1702C61.6446 42.3827 61.4841 42.596 61.3317 42.816C60.937 43.3563 60.5707 43.8966 60.2165 44.4531V44.4538Z" fill="#2220FF"/>
<path d="M252.656 200.33C253.17 201.701 253.689 203.071 254.212 204.443L254.323 204.723C254.764 203.172 255.188 201.617 255.599 200.068C255.678 199.737 255.768 199.416 255.854 199.094C260.428 181.558 263.972 163.784 267.281 145.976C270.669 127.72 273.954 109.431 277.288 91.1622C278.947 82.0473 280.639 72.9406 281.944 63.7703C282.603 59.1895 283.162 54.5992 283.587 50.0015L283.611 49.6813C282.393 49.6251 281.183 49.575 279.973 49.5188C279.903 50.3617 279.8 51.1958 279.717 52.0123C277.964 70.1675 274.242 88.1264 270.999 106.069C267.78 123.936 264.606 141.82 261.223 159.653C259.029 171.249 256.624 182.818 254.027 194.328C253.578 196.334 253.122 198.331 252.656 200.33Z" fill="#161616"/>
<path d="M208.527 219.797C208.672 221.176 209.145 222.488 209.931 223.63C211.66 226.059 214.311 227.498 217.163 228.149C220.37 228.895 223.758 228.979 227.03 229.225C230.459 229.479 233.896 229.699 237.334 229.793C243.225 229.936 249.37 229.843 255.133 228.556C257.623 227.999 259.986 226.864 261.423 224.672C262.761 222.64 262.864 220.119 262.518 217.791C262.143 215.201 261.134 212.789 260.204 210.375C259.043 207.388 257.911 204.401 256.751 201.422C256.446 200.642 256.141 199.872 255.845 199.094C255.236 197.502 254.627 195.92 254.026 194.329C252.721 190.952 251.403 187.576 250.029 184.216C248.242 179.857 244.925 174.06 239.305 174.955C236.605 175.379 235.107 177.739 233.592 179.764C231.805 182.141 230.052 184.537 228.335 186.957C224.89 191.798 221.58 196.732 218.439 201.777C215.442 206.584 212.462 211.417 209.959 216.487C208.807 217.257 208.382 218.307 208.527 219.798L208.527 219.797Z" fill="#A1D2FF"/>
<path d="M157.01 223.883C157.026 224.638 157.043 225.39 157.072 226.126C157.076 226.364 157.076 226.6 157.084 226.829C157.282 234.608 157.714 242.378 158.434 250.139C158.611 251.933 158.644 253.862 159.907 255.293C160.998 256.52 162.723 257.044 164.275 257.434C167.761 258.314 171.409 258.339 174.99 258.272C182.795 258.094 190.6 257.883 198.413 257.688C202.332 257.585 206.25 257.517 210.161 257.391C213.277 257.297 216.546 256.968 219.024 254.903C220.914 253.353 221.692 251.095 222.095 248.774C222.223 247.996 222.317 247.219 222.403 246.448C222.403 246.414 222.412 246.38 222.412 246.345C220.148 243.552 217.492 241.123 214.142 239.515C211.466 238.229 208.465 237.433 205.489 237.645C203.912 237.747 202.419 238.11 200.97 238.711C199.463 239.338 198.038 240.158 196.515 240.733C190.321 243.061 184.183 239.1 179.741 235.08C175.336 231.093 171.183 226.278 165.357 224.364C162.892 223.552 160.236 223.298 157.68 223.747C157.449 223.789 157.231 223.832 157.009 223.882L157.01 223.883Z" fill="#A1D2FF"/>
<path d="M157.01 223.883C157.232 223.833 157.45 223.79 157.681 223.748C160.237 223.299 162.893 223.554 165.358 224.365C171.183 226.279 175.336 231.094 179.741 235.081C184.183 239.101 190.321 243.062 196.516 240.734C198.039 240.159 199.464 239.339 200.97 238.712C202.419 238.111 203.914 237.747 205.49 237.647C208.466 237.434 211.467 238.23 214.143 239.517C217.493 241.124 220.149 243.554 222.412 246.346C222.792 242.513 223.071 238.653 223.256 234.802C223.602 227.659 223.713 220.474 223.223 213.321C223.478 212.001 223.215 210.673 222.486 209.496C220.617 206.517 217.246 205.612 213.92 205.441C210.104 205.239 206.251 205.29 202.419 205.213C194.601 205.07 186.788 204.943 178.976 204.808C172.781 204.689 164.992 203.919 160.575 209.259C157.232 213.313 156.944 218.755 157.01 223.884V223.883Z" fill="#2220FF"/>
<path d="M207.107 254.658C213.207 260.508 223.399 259.787 231.171 259.439C241.236 259.001 251.317 259.118 261.373 258.366C269.836 257.731 276.188 257.45 276.518 247.549C276.637 244.239 276.526 240.913 276.221 237.62C275.422 228.937 270.87 225.442 262.287 225.729C250.555 226.127 238.831 227.016 227.083 226.998C221.884 226.99 215.051 225.365 210.354 228.336C204.553 231.992 202.018 249.784 207.105 254.659L207.107 254.658Z" fill="#161616"/>
<path d="M77.9289 224.052C75.2611 225.102 72.6637 226.364 70.046 227.539C67.4404 228.716 64.8511 229.935 62.2497 231.128C61.406 231.517 61.3525 232.779 61.9612 233.381C63.8917 235.25 65.9663 236.977 68.1643 238.543C69.23 239.295 70.3337 240.015 71.4577 240.684C72.6264 241.377 73.8452 242.139 75.1256 242.606C76.6573 243.155 77.4183 240.912 76.1833 240.099C75.1006 239.381 73.8825 238.847 72.7625 238.17C71.7211 237.545 70.7041 236.876 69.7162 236.173C68.234 235.123 66.8385 233.98 65.4924 232.771C67.4479 231.874 69.3946 230.977 71.3419 230.062C73.8696 228.861 76.4629 227.743 78.9242 226.421C80.1965 225.745 79.3149 223.511 77.9282 224.052L77.9289 224.052Z" fill="#2220FF"/>
<path d="M97.5923 220.169C94.55 225.087 91.8579 230.216 89.446 235.463C87.0422 240.668 84.671 246.076 83.1847 251.62C82.7073 253.398 85.2059 253.974 85.8647 252.365C87.9969 247.127 89.8786 241.811 92.2655 236.673C94.653 231.544 97.337 226.577 100.206 221.701C101.194 220.016 98.6127 218.519 97.5923 220.169V220.169Z" fill="#2220FF"/>
<path d="M118.327 233.651C114.079 231.214 110.32 227.895 107.41 223.961C106.937 223.326 106.138 223.013 105.414 223.436C104.776 223.809 104.43 224.781 104.887 225.434C107.349 228.92 110.362 231.932 113.828 234.38C112.581 234.777 111.362 235.234 110.16 235.768C109.061 236.25 107.978 236.8 106.929 237.401C105.953 237.969 104.575 238.612 103.87 239.509C103.463 240.025 103.29 240.669 103.644 241.27C103.957 241.804 104.686 242.149 105.287 241.939C106.386 241.558 107.349 240.703 108.358 240.119C109.366 239.535 110.399 239.001 111.457 238.519C113.528 237.588 115.73 236.919 117.966 236.446C119.271 236.167 119.423 234.28 118.328 233.653L118.327 233.651Z" fill="#2220FF"/>
<path d="M183.709 117.682C184.561 117.41 185.426 117.507 186.307 117.555C187.332 117.612 188.348 117.666 189.361 117.721C191.201 117.821 193.037 117.92 194.865 118.02C198.606 118.224 202.34 118.44 206.074 118.66C213.545 119.102 221.02 119.531 228.487 119.983C230.525 120.105 232.567 120.247 234.6 120.38C236.724 120.518 238.968 120.526 241.03 121.076C242.08 121.359 242.236 123.192 241.03 123.369C239.178 123.64 237.28 123.499 235.42 123.409C233.583 123.319 231.748 123.231 229.916 123.142C226.109 122.957 222.309 122.731 218.509 122.52C211.034 122.11 203.559 121.718 196.092 121.272L189.777 120.896C187.739 120.774 185.257 121.003 183.38 120.171C182.244 119.664 182.693 118.002 183.71 117.682H183.709Z" fill="#161616"/>
<path d="M219.448 130.038C220.835 129.436 222.589 129.861 224.07 129.962C225.652 130.072 227.232 130.182 228.808 130.292C231.974 130.512 235.139 130.74 238.297 131.01C239.001 131.069 239.577 131.551 239.593 132.306C239.593 132.391 239.585 132.482 239.56 132.576C239.552 132.602 239.552 132.619 239.544 132.644C239.449 133.177 238.823 133.626 238.297 133.6C235.131 133.439 231.974 133.245 228.808 133.05C227.231 132.949 225.651 132.848 224.07 132.746C222.663 132.653 220.675 132.873 219.448 132.128C218.744 131.704 218.575 130.418 219.448 130.038Z" fill="#161616"/>
<path d="M184.08 128.928C184.862 127.939 186.369 128.378 187.467 128.438C188.735 128.523 190.007 128.59 191.275 128.676C193.88 128.845 196.499 128.997 199.104 129.124C201.652 129.241 204.192 129.386 206.74 129.496C208.012 129.547 209.296 129.522 210.56 129.641C211.54 129.724 212.71 130.606 212.207 131.689C211.693 132.807 210.388 132.704 209.354 132.68C208.078 132.637 206.811 132.603 205.53 132.553C203.06 132.467 200.578 132.366 198.1 132.214C195.696 132.061 193.28 131.892 190.876 131.705C189.608 131.612 188.34 131.485 187.069 131.368C185.928 131.257 184.521 131.417 183.911 130.266C183.66 129.784 183.767 129.335 184.08 128.929V128.928Z" fill="#161616"/>
<path d="M182.82 136.182C197.286 137.383 211.755 138.654 226.212 139.957C230.324 140.329 234.515 140.541 238.594 141.226C240.154 141.48 239.755 143.953 238.224 143.936C234.634 143.894 231.012 143.435 227.431 143.124C223.833 142.818 220.235 142.505 216.637 142.193C209.434 141.566 202.238 140.939 195.043 140.254C190.972 139.873 186.901 139.484 182.821 139.103C180.977 138.926 180.94 136.031 182.821 136.183L182.82 136.182Z" fill="#161616"/>
<path d="M210.145 147.101C211.219 146.881 212.285 147.024 213.368 147.083L216.83 147.288C219.065 147.423 221.309 147.566 223.544 147.71C225.718 147.854 227.887 147.998 230.065 148.133C232.272 148.278 234.778 148.15 236.902 148.844C237.968 149.191 238.166 150.959 236.902 151.205C234.762 151.636 232.432 151.265 230.267 151.138C228.023 151.018 225.788 150.892 223.544 150.774C221.375 150.655 219.201 150.536 217.036 150.401C215.883 150.333 214.723 150.257 213.574 150.189C212.446 150.121 211.219 150.173 210.145 149.817C208.918 149.41 208.696 147.396 210.145 147.1V147.101Z" fill="#161616"/>
<path d="M185.495 144.739C186.249 144.46 187.051 144.679 187.829 144.79L189.769 145.052C191.226 145.247 192.683 145.449 194.136 145.644C196.989 146.035 199.841 146.431 202.686 146.872C204.04 147.083 203.735 149.418 202.365 149.284C199.495 148.996 196.635 148.657 193.774 148.32C192.37 148.159 190.962 147.99 189.559 147.819C188.855 147.744 188.151 147.659 187.451 147.575C186.677 147.481 185.85 147.49 185.199 147.033C184.277 146.39 184.455 145.128 185.496 144.738L185.495 144.739Z" fill="#161616"/>
<path d="M256.11 39.4472C256.406 38.741 257.064 38.2705 257.76 37.9604C258.328 37.4492 259.077 37.1453 259.868 37.1337C261.119 37.1141 262.511 37.7431 263.066 38.9116C263.428 39.6692 263.523 40.4844 263.313 41.3029C263.141 41.965 262.753 42.6177 262.264 43.0875C261.753 43.5655 261.103 43.9521 260.399 44.0557C259.901 44.1295 259.477 44.1315 258.97 44.0266C258.62 43.9528 258.274 43.8032 257.97 43.6258C257.345 43.2656 256.785 42.6955 256.447 42.0571C256.278 41.7403 256.134 41.3916 256.055 41.0375C255.965 40.5216 255.895 39.9441 256.109 39.4478L256.11 39.4472Z" fill="white"/>
<path d="M256.422 233.887C258.748 234.058 261.078 234.218 263.416 234.252C263.922 234.26 264.58 234.641 264.659 235.199C265.35 240.177 265.461 245.313 265.095 250.325C265.054 250.961 264.547 251.68 263.81 251.604C262.32 251.451 260.772 251.399 259.307 251.103C257.969 250.841 258.336 248.835 259.62 248.801C260.587 248.767 261.567 248.853 262.551 248.936C262.634 244.815 262.481 240.727 262.185 236.604C260.205 236.165 258.208 235.784 256.212 235.429C255.348 235.276 255.541 233.819 256.422 233.887V233.887Z" fill="#2220FF"/>
<path d="M250.486 242.174C250.519 242.132 250.556 242.09 250.597 242.057C251.03 241.582 251.894 241.582 252.335 242.057C252.368 242.09 252.4 242.132 252.442 242.174C253.24 243.037 252.697 244.528 251.462 244.528C250.235 244.528 249.684 243.038 250.486 242.174Z" fill="#2220FF"/>
<path d="M240.709 243.063C240.718 242.85 240.788 242.656 240.899 242.479C240.982 242.378 241.068 242.267 241.142 242.165C241.253 242.08 241.356 241.996 241.463 241.911C241.471 241.911 241.479 241.911 241.479 241.903C241.598 241.843 241.726 241.784 241.854 241.742C241.99 241.699 242.125 241.69 242.257 241.69C242.566 241.69 242.768 241.758 243.031 241.893C243.159 241.952 243.258 242.046 243.361 242.147C243.456 242.24 243.53 242.351 243.604 242.468L243.616 242.478C243.731 242.655 243.794 242.849 243.802 243.061C243.835 243.205 243.835 243.342 243.802 243.484C243.794 243.687 243.732 243.883 243.616 244.067C243.53 244.17 243.456 244.28 243.369 244.381C243.258 244.466 243.159 244.55 243.048 244.627C242.867 244.747 242.674 244.804 242.464 244.814C242.328 244.855 242.183 244.855 242.048 244.814C241.838 244.803 241.64 244.746 241.464 244.627C241.357 244.55 241.254 244.466 241.143 244.381C241.069 244.279 240.982 244.17 240.9 244.067C240.789 243.883 240.718 243.687 240.71 243.484C240.677 243.341 240.677 243.204 240.71 243.061L240.709 243.063Z" fill="#2220FF"/>
<path d="M231.06 242.902C231.13 242.656 231.254 242.436 231.443 242.259C231.542 242.174 231.637 242.098 231.739 242.021C231.966 241.885 232.221 241.826 232.48 241.818C232.686 241.818 232.88 241.86 233.056 241.945C233.238 242.005 233.398 242.105 233.534 242.258C233.674 242.386 233.777 242.546 233.838 242.732C233.929 242.901 233.975 243.096 233.962 243.298L233.912 243.688C233.838 243.942 233.711 244.153 233.533 244.34L233.224 244.568C232.998 244.704 232.751 244.771 232.48 244.771C232.278 244.781 232.092 244.737 231.915 244.644C231.73 244.586 231.578 244.483 231.442 244.34C231.298 244.205 231.195 244.052 231.133 243.866C231.043 243.688 231.001 243.502 231.01 243.298L231.06 242.901L231.06 242.902Z" fill="#2220FF"/>
<path d="M221.766 235.064C222.223 234.54 222.894 234.294 223.577 234.294C223.977 234.294 226.43 234.955 226.463 234.903C227.225 233.785 229.011 234.786 228.303 235.979C227.567 237.223 226.175 237.154 224.932 236.85C224.669 236.783 223.673 236.368 223.434 236.58C223.351 236.656 223.487 238.121 223.487 238.383C223.511 240.693 223.511 242.995 223.479 245.305C223.434 247.336 223.611 249.325 223.746 251.331C225.483 251.188 227.295 250.96 228.987 251.188C229.995 251.323 229.917 252.949 228.987 253.151C228.007 253.363 226.94 253.32 225.94 253.346C224.899 253.363 223.866 253.371 222.832 253.388C222.293 253.397 221.844 252.923 221.844 252.397C221.824 251.154 221.918 249.926 221.894 248.681C221.869 247.439 221.775 246.211 221.676 244.966C221.462 242.554 221.276 240.135 221.173 237.713C221.14 236.79 221.116 235.8 221.767 235.064L221.766 235.064Z" fill="#2220FF"/>
<path d="M196.668 229.546C199.961 231.426 204.584 230.918 207.108 227.988C208.343 226.541 209.046 224.722 209.129 222.818C209.162 222.157 209.113 221.37 208.96 220.609C208.952 220.489 208.952 220.371 208.927 220.246C208.758 219.186 208.305 218.197 207.672 217.334C206.284 215.446 204.28 214.337 201.958 214.083C198.101 213.661 194.273 215.979 193.062 219.687C191.885 223.3 193.326 227.634 196.668 229.547V229.546Z" fill="#A1D2FF"/>
</svg>
