<svg width="328" height="328" viewBox="0 0 328 328" fill="none" xmlns="http://www.w3.org/2000/svg">
<path d="M158.358 145.983C158.96 146.259 159.563 146.506 160.165 146.712C160.271 146.751 160.378 146.786 160.484 146.821C160.555 146.835 160.661 146.857 160.697 146.885C161.335 147.076 161.972 147.228 162.575 147.355H162.61C162.646 147.362 162.646 147.369 162.717 147.376C163.531 147.531 164.346 147.637 165.161 147.68C169.697 147.931 174.161 146.477 177.598 143.355C178.165 142.856 178.661 142.301 179.192 141.71C179.689 141.098 180.184 140.444 180.61 139.744C181 139.09 181.39 138.415 181.708 137.71C182.098 136.9 182.452 136.066 182.736 135.199C182.877 134.786 183.019 134.357 183.161 133.926C183.409 133.063 183.622 132.172 183.764 131.27C184.011 129.937 184.189 128.586 184.26 127.235C184.295 127.006 184.295 126.779 184.295 126.546C184.331 126.111 184.331 125.669 184.331 125.227C184.366 121.355 184.011 117.415 183.48 113.542C183.267 112.202 183.055 110.857 182.807 109.521C182.594 108.198 180.929 108.594 181 109.828C181 109.86 181 109.885 181 109.917C181.673 115.799 182.63 121.612 181.921 127.483C181.85 128.268 181.708 129.049 181.567 129.824C181.532 130.054 181.496 130.287 181.426 130.503C180.788 133.647 179.654 136.629 177.847 139.132C175.473 142.428 171.93 144.356 168.103 144.882C165.835 145.19 163.532 144.956 161.264 144.27C161.158 144.228 161.051 144.193 160.945 144.164C160.271 143.945 159.634 143.676 158.996 143.382L158.358 145.981V145.983Z" fill="black"/>
<path d="M159.882 96.7612C159.917 96.8039 159.953 96.8465 159.988 96.8814C160.059 97.0016 160.201 97.0868 160.378 97.1078C160.449 97.1287 160.555 97.1539 160.662 97.1784C160.839 97.2098 161.016 97.2594 161.229 97.302C161.512 97.3726 161.76 97.4292 162.079 97.4362H162.115C162.717 97.4432 163.284 97.4501 163.887 97.4858C165.057 97.5563 166.261 97.7122 167.395 98.0056C169.663 98.596 171.824 99.5972 173.773 101.03C175.756 102.448 177.493 104.219 178.91 106.289C179.371 106.908 179.761 107.555 180.15 108.22V108.227C180.327 108.51 180.469 108.807 180.646 109.107V109.114C180.717 109.298 180.823 109.471 180.93 109.663C180.93 109.719 180.965 109.769 181 109.829C181.532 110.964 181.992 112.145 182.595 113.213C182.808 113.549 183.197 113.656 183.481 113.542C183.658 113.458 183.8 113.27 183.8 112.966C183.729 110.141 182.134 107.194 180.646 104.924C179.087 102.576 177.138 100.496 174.977 98.9153C172.78 97.3307 170.335 96.1918 167.784 95.57C166.544 95.2583 165.233 95.025 163.957 94.9831C163.283 94.9621 162.575 94.9761 161.902 95.0683C161.76 95.0823 161.654 95.1032 161.582 95.1249C161.015 95.259 160.59 95.5245 160.058 95.8075C159.704 96.0199 159.704 96.4545 159.881 96.7626L159.882 96.7612Z" fill="black"/>
<path d="M151.98 112.644C153.008 111.455 153.964 110.225 154.885 108.98C155.027 108.807 155.133 108.63 155.275 108.453C156.055 107.35 156.799 106.204 157.508 105.023C158.252 103.764 158.96 102.477 159.598 101.143C159.634 101.115 159.634 101.079 159.669 101.036C160.165 99.8271 160.661 98.5401 160.661 97.267C160.661 97.2384 160.661 97.2035 160.661 97.1783C160.59 96.924 160.341 96.7256 160.094 96.7186C160.023 96.7186 159.952 96.7325 159.881 96.7612C159.81 96.7898 159.774 96.8318 159.739 96.8883C159.101 97.5919 158.711 98.4548 158.357 99.3282C158.18 99.7278 158.003 100.121 157.826 100.51C157.294 101.719 156.692 102.908 156.16 104.114C155.912 104.637 155.664 105.157 155.416 105.67C155.026 105.836 154.636 106.048 154.282 106.359C154.246 106.398 154.176 106.455 154.105 106.518C153.715 106.95 153.077 107.399 153.113 108.11C153.113 108.251 153.113 108.375 153.184 108.481C153.29 108.637 153.396 108.754 153.574 108.831C153.68 108.867 153.751 108.888 153.857 108.888C153.467 109.691 153.078 110.493 152.652 111.293C152.44 111.742 152.192 112.191 151.979 112.643L151.98 112.644Z" fill="black"/>
<path d="M142.662 117.924C143.016 118.257 143.3 118.642 143.548 119.049C143.69 119.303 143.795 119.565 143.902 119.823C144.221 119.83 144.504 119.745 144.823 119.537C144.894 119.48 144.965 119.423 145.036 119.367C145.319 119.161 145.603 118.953 145.851 118.741C145.673 117.779 145.248 116.877 144.61 116.106C144.043 116.583 143.512 117.054 142.98 117.545C142.838 117.665 142.768 117.793 142.661 117.923L142.662 117.924Z" fill="black"/>
<path d="M138.481 131.685C139.331 133.333 140.075 135.013 140.607 136.764C140.642 136.693 140.677 136.615 140.677 136.544C140.997 135.441 141.28 134.316 141.599 133.213L141.563 133.206C141.422 133.163 141.279 133.128 141.102 133.086C140.181 132.803 139.26 132.318 138.48 131.685H138.481Z" fill="black"/>
<path d="M133.272 122.553C133.272 122.624 133.307 122.695 133.307 122.759C133.307 122.759 133.307 122.759 133.307 122.766C133.662 124.241 134.335 125.648 135.008 126.999C135.717 128.368 136.497 129.726 137.559 130.836C137.843 131.144 138.161 131.427 138.481 131.685C139.26 132.318 140.182 132.803 141.103 133.086C141.28 133.129 141.422 133.164 141.564 133.206L141.599 133.213C142.308 133.365 143.017 133.419 143.761 133.298C143.796 133.298 143.832 133.291 143.902 133.284C143.938 133.284 144.009 133.277 144.044 133.263C144.15 133.249 144.221 133.235 144.327 133.213C144.717 133.114 145.106 132.987 145.496 132.81C145.886 132.637 146.098 132.361 146.205 132.061C146.488 131.088 145.426 129.805 144.185 130.331C144.185 130.338 144.15 130.345 144.15 130.345C143.3 130.695 142.485 130.646 141.706 130.324C140.217 129.726 138.977 128.188 138.269 126.915C137.064 124.811 135.221 121.699 136.213 119.216C136.957 117.395 139.19 116.196 141.103 116.897C141.67 117.109 142.201 117.473 142.662 117.933C143.016 118.262 143.3 118.648 143.547 119.058C143.69 119.309 143.795 119.571 143.902 119.829C144.149 120.441 144.256 121.074 144.185 121.685C144.185 121.763 144.185 121.84 144.185 121.894C144.256 122.247 144.539 122.46 144.859 122.481C144.929 122.488 144.965 122.488 145.036 122.481C145.319 122.467 145.603 122.297 145.709 121.975C145.816 121.543 145.886 121.116 145.957 120.68C146.028 120.033 145.993 119.379 145.851 118.739C145.673 117.776 145.248 116.882 144.61 116.1C144.469 115.948 144.327 115.793 144.185 115.648C143.866 115.344 143.512 115.078 143.123 114.838C140.819 113.423 137.949 113.721 135.788 115.28C133.449 116.967 132.634 119.778 133.272 122.555V122.553Z" fill="black"/>
<path d="M173.346 116.46C173.417 116.258 173.488 116.061 173.594 115.88C173.665 115.764 173.771 115.671 173.877 115.594C173.984 115.385 174.161 115.194 174.338 115.038C174.728 114.716 175.295 114.709 175.684 115.095C176.251 115.707 176.535 116.527 176.535 117.362C176.57 118.193 176.216 118.974 175.649 119.583C175.401 119.883 174.869 119.883 174.551 119.678C173.877 119.25 173.418 118.512 173.311 117.73C173.24 117.313 173.24 116.87 173.347 116.46H173.346Z" fill="black"/>
<path d="M155.877 116.29C155.807 115.657 155.984 114.992 156.479 114.515C156.586 114.391 156.763 114.282 156.869 114.168C157.011 114.066 157.117 113.956 157.259 113.893C157.613 113.737 158.003 113.86 158.287 114.098C158.641 114.384 158.889 114.815 158.995 115.23C159.172 115.683 159.137 116.163 159.03 116.627C158.995 116.849 158.889 117.065 158.783 117.26C158.748 117.327 158.712 117.39 158.641 117.447C158.57 117.529 158.5 117.613 158.428 117.687C158.251 117.874 158.003 117.97 157.755 117.963C157.436 117.956 157.117 117.85 156.869 117.698C156.728 117.624 156.622 117.517 156.479 117.418C156.409 117.358 156.338 117.291 156.302 117.216C156.09 116.937 155.948 116.619 155.877 116.29V116.29Z" fill="black"/>
<path d="M156.197 114.788C156.197 114.834 156.161 114.884 156.161 114.933C156.126 114.965 156.09 114.997 156.09 115.029C156.126 114.951 156.161 114.87 156.197 114.788V114.788Z" fill="black"/>
<path d="M169.307 124.29C169.59 124.067 169.874 123.667 170.086 123.381C170.334 123.101 170.476 122.762 170.547 122.408C170.759 121.376 170.299 120.265 170.122 119.261C169.767 117.34 169.98 115.335 170.759 113.546C171.61 111.714 172.921 110.229 174.657 109.228C175.543 108.733 176.535 108.348 177.527 108.188C178.413 108.051 179.618 107.881 180.397 108.341C180.787 108.574 180.787 109.232 180.362 109.423C179.902 109.625 179.441 109.61 178.945 109.692C178.449 109.781 177.988 109.901 177.492 110.059C176.642 110.346 175.791 110.756 175.083 111.315C173.63 112.454 172.603 114.109 172.248 115.919C172.107 116.789 172.107 117.691 172.248 118.561C172.425 119.647 172.745 120.683 172.78 121.793C172.78 122.727 172.496 123.696 171.965 124.456C171.646 124.859 171.327 125.181 170.831 125.358C170.334 125.542 170.016 125.471 169.52 125.305C169.095 125.167 168.953 124.58 169.307 124.29Z" fill="black"/>
<path d="M153.114 108.11C153.114 108.251 153.114 108.375 153.185 108.481C153.291 108.637 153.397 108.754 153.574 108.831C153.681 108.867 153.752 108.888 153.858 108.888C154.283 108.895 154.709 108.622 155.098 108.509C155.169 108.495 155.205 108.466 155.276 108.452C155.559 108.36 155.807 108.237 156.09 108.116C156.232 108.046 156.374 107.989 156.515 107.933C156.586 107.904 156.657 107.883 156.728 107.854C157.614 107.568 158.5 107.412 159.421 107.405C161.37 107.391 163.46 108.074 165.091 109.272C165.764 109.774 166.543 108.656 165.976 108.002C165.126 107.03 164.098 106.124 162.965 105.64C161.831 105.159 160.626 104.922 159.421 104.88C158.96 104.859 158.5 104.887 158.075 104.944C157.969 104.951 157.898 104.965 157.791 104.979C157.685 104.993 157.614 105.007 157.508 105.022C156.941 105.121 156.41 105.28 155.878 105.478C155.737 105.535 155.595 105.605 155.418 105.669C155.028 105.835 154.638 106.048 154.284 106.358C154.248 106.397 154.177 106.454 154.106 106.518C153.717 106.949 153.079 107.398 153.115 108.109L153.114 108.11Z" fill="black"/>
<path d="M156.941 153.148C157.047 153.448 157.26 153.724 157.508 153.894C157.933 154.17 158.465 154.216 158.854 153.802L158.89 153.774C159.28 153.332 159.386 152.943 159.492 152.395C159.598 152.024 159.669 151.631 159.775 151.245C159.775 151.238 159.775 151.238 159.775 151.228C159.953 150.45 160.13 149.668 160.272 148.89C160.449 148.229 160.591 147.546 160.697 146.885C160.732 146.835 160.732 146.807 160.732 146.765C160.767 146.701 160.767 146.648 160.767 146.584C160.944 145.817 161.087 145.035 161.264 144.272C161.157 144.229 161.051 144.194 160.944 144.166C160.271 143.946 159.633 143.678 158.996 143.384L158.358 145.983C158.216 146.686 158.039 147.391 157.862 148.101C157.684 148.915 157.507 149.724 157.33 150.527C157.26 150.884 157.153 151.245 157.082 151.609C156.976 152.115 156.799 152.635 156.94 153.148H156.941Z" fill="black"/>
<path d="M139.792 119.579C140.359 119.936 140.748 120.425 141.209 120.926C141.599 121.386 141.988 121.846 142.414 122.305C143.229 123.261 143.973 124.247 144.681 125.308C144.823 125.555 144.717 125.927 144.468 126.082C144.221 126.266 143.937 126.202 143.689 126C142.768 125.197 141.918 124.327 141.103 123.405C140.713 122.962 140.324 122.521 139.934 122.078C139.509 121.583 139.048 121.095 138.764 120.497C138.48 119.871 139.154 119.182 139.792 119.578V119.579Z" fill="black"/>
<path d="M160.449 128.346C160.555 128.559 160.591 128.824 160.662 129.05C160.874 129.916 161.158 130.79 161.583 131.585C162.362 133.032 163.638 134.015 165.374 133.814C166.969 133.63 168.209 132.696 169.378 131.741C168.315 131.851 167.181 131.582 166.189 131.161C164.594 130.479 163.248 129.355 161.654 128.672C161.299 128.52 160.839 128.485 160.52 128.311C160.52 128.308 160.485 128.308 160.45 128.304C160.45 128.318 160.45 128.329 160.45 128.347L160.449 128.346ZM159.244 127.82C159.811 125.839 163.319 127.833 164.275 128.41C166.188 129.528 168.173 130.839 170.44 130.108C170.688 130.034 170.865 130.101 171.007 130.238C171.042 130.238 171.042 130.238 171.042 130.238C171.078 130.263 171.149 130.285 171.184 130.309V130.312C171.291 130.33 171.326 130.355 171.432 130.398C171.432 130.405 171.467 130.412 171.467 130.422C171.538 130.461 171.574 130.5 171.644 130.549C171.679 130.592 171.715 130.645 171.751 130.695C171.751 130.702 171.751 130.709 171.751 130.716C171.786 130.776 171.821 130.839 171.857 130.903C171.857 130.973 171.857 131.055 171.857 131.126C171.893 131.2 171.857 131.292 171.857 131.359C171.822 131.455 171.786 131.55 171.751 131.639C171.715 131.731 171.644 131.801 171.574 131.882C171.538 131.896 171.538 131.915 171.503 131.932C171.467 132.021 171.432 132.109 171.326 132.186C169.944 133.548 168.102 134.895 166.117 135.2C164.133 135.504 162.326 134.779 161.121 133.198C160.519 132.413 160.093 131.511 159.775 130.577C159.633 130.121 159.527 129.658 159.385 129.195C159.278 128.752 159.101 128.275 159.243 127.819L159.244 127.82Z" fill="black"/>
<path d="M151.98 112.644C153.008 111.455 153.964 110.225 154.885 108.98C155.027 108.807 155.133 108.63 155.275 108.453C155.559 108.361 155.806 108.237 156.09 108.117C156.231 108.047 156.373 107.99 156.515 107.933C156.586 107.905 156.656 107.884 156.728 107.855C156.975 107.371 157.188 106.879 157.401 106.388C157.649 105.899 157.862 105.429 158.075 104.945C158.287 104.425 158.499 103.891 158.712 103.365C158.925 102.859 159.137 102.361 159.315 101.855C159.421 101.628 159.492 101.388 159.598 101.144C159.634 101.116 159.634 101.081 159.669 101.038C160.166 99.8285 160.661 98.5415 160.661 97.2685C160.661 97.2399 160.661 97.2049 160.661 97.1798C160.59 96.9254 160.342 96.727 160.094 96.72C160.023 96.72 159.953 96.734 159.881 96.7627C159.811 96.7913 159.775 96.8332 159.739 96.8898C159.101 97.5934 158.712 98.4563 158.357 99.3297C158.18 99.7293 158.003 100.122 157.826 100.511C157.295 101.721 156.693 102.909 156.161 104.115C155.913 104.638 155.664 105.158 155.417 105.671C154.92 106.746 154.389 107.822 153.858 108.889C153.468 109.692 153.078 110.495 152.653 111.294C152.44 111.743 152.192 112.193 151.979 112.645L151.98 112.644Z" fill="black"/>
<path d="M144.185 121.899C144.291 121.999 144.398 122.08 144.468 122.15C144.645 122.284 144.823 122.391 145.035 122.472C145.319 122.458 145.602 122.292 145.709 121.967C145.815 121.546 145.922 121.111 145.957 120.682C145.425 120.52 145.283 119.943 145.035 119.367C145 119.281 144.965 119.19 144.929 119.105C144.681 118.521 143.901 118.641 143.547 119.048C143.512 119.066 143.512 119.087 143.512 119.105C142.874 119.985 143.476 121.195 144.185 121.899L144.185 121.899Z" fill="black"/>
<path d="M177.704 141.463C177.598 142.065 177.563 142.712 177.598 143.359C178.165 142.853 178.661 142.305 179.192 141.707C179.122 141.566 179.086 141.427 179.015 141.293C178.767 140.752 177.846 140.894 177.704 141.463Z" fill="black"/>
<path d="M157.543 152.066C157.543 152.073 157.543 152.073 157.543 152.08C157.897 152.748 158.358 153.325 158.854 153.802L158.89 153.774C159.28 153.332 159.386 152.942 159.492 152.395C159.598 152.024 159.669 151.631 159.775 151.245C159.705 151.146 159.634 151.026 159.563 150.899C159.315 150.471 158.96 150.301 158.571 150.329C157.827 150.372 157.082 151.182 157.543 152.066Z" fill="black"/>
<path d="M217.176 217.533C219.869 215.67 221.534 212.466 222.633 209.428C223.164 207.946 223.518 206.46 223.696 204.965C223.767 204.366 223.837 203.769 223.837 203.172C223.412 202.973 222.987 202.776 222.562 202.588C222.562 202.581 222.527 202.581 222.527 202.574C222.456 203.165 222.35 203.763 222.243 204.353C221.924 205.842 221.499 207.299 220.932 208.675C219.798 211.606 217.885 213.983 216.29 216.642C215.971 217.176 216.61 217.909 217.176 217.533Z" fill="black"/>
<path d="M173.949 225.378C173.985 225.463 174.02 225.547 174.055 225.633C175.189 228.628 177.457 231.122 179.37 233.646C183.657 239.283 187.91 244.928 192.197 250.572C194.252 253.316 196.307 256.107 198.468 258.784C200.381 261.202 202.756 263.002 205.838 263.642C208.885 264.289 212.075 264.021 215.192 263.858C218.63 263.678 222.102 263.445 225.574 263.162C239.428 262.037 253.212 260.113 266.853 257.429C270.255 256.768 273.656 256.043 277.022 255.275C279.927 254.617 282.975 254.086 285.739 252.962C288.255 251.95 290.522 250.306 291.373 247.622C292.294 244.747 291.089 241.702 289.53 239.304C287.759 236.627 285.421 234.321 283.188 232.001C280.885 229.547 278.511 227.114 276.101 224.723C273.692 222.336 271.247 219.991 268.766 217.675C267.951 216.907 267.101 216.161 266.286 215.411C265.542 214.594 264.762 213.816 263.947 213.08C261.041 210.481 257.605 208.68 253.707 208.15C248.64 207.446 243.467 208.464 238.436 209.09C227.593 210.43 216.787 211.775 205.98 213.118C205.732 213.143 205.449 213.182 205.201 213.207C205.095 213.334 204.988 213.426 204.811 213.461C204.882 214.37 204.882 215.29 204.74 216.17C204.599 217.104 204.244 217.988 203.677 218.748C203.464 219.003 203.252 219.24 203.004 219.466C201.232 221.011 199.673 220.591 198.61 218.398C198.114 217.365 197.866 216.311 197.618 215.2C197.548 214.907 197.122 214.557 197.016 214.267C196.131 214.38 194.5 214.543 193.615 214.663C193.685 214.925 193.792 215.183 193.828 215.409C194.075 216.187 194.218 216.962 194.359 217.758C194.572 219.049 194.536 220.378 193.828 221.531C193.154 222.691 191.879 223.402 190.497 223.282C189.079 223.148 187.875 222.292 186.954 221.256C186.281 222.299 185.608 223.346 184.438 223.958C183.269 224.57 181.887 224.555 180.789 223.767C179.691 222.964 179.124 221.659 178.663 220.414C178.309 219.452 177.919 218.229 177.175 217.397C177.068 217.433 176.962 217.482 176.855 217.531C176.926 218.094 176.997 218.656 177.033 219.226C177.068 220.371 177.103 221.482 176.678 222.564C176.182 223.787 175.19 224.891 173.95 225.376L173.949 225.378Z" fill="black"/>
<path d="M193.649 229.954C199.212 235.531 204.243 241.631 208.46 248.266C208.601 248.52 208.885 248.599 209.168 248.556C221.321 246.813 233.51 244.935 245.629 243.025C246.231 242.933 246.479 242.013 246.018 241.646C239.463 236.578 232.377 231.563 227.806 224.543C227.806 224.515 227.771 224.508 227.771 224.48C228.196 224.331 228.621 224.186 229.046 224.02C229.578 223.818 229.366 223.037 228.798 223.164C223.058 224.423 217.424 225.933 211.614 226.913C205.803 227.896 199.92 228.815 194.003 229.084C193.578 229.098 193.329 229.633 193.649 229.954Z" fill="#A1D2FF"/>
<path d="M203.677 218.75C205.378 220.253 206.83 221.969 208.106 223.854C208.247 224.073 208.496 224.161 208.744 224.105C213.704 223.079 218.771 222.329 223.696 221.013C223.944 221.127 224.157 221.229 224.405 221.321C225.149 221.582 225.468 220.55 224.901 220.161C223.342 219.065 221.889 218.096 220.755 216.515C220.508 216.211 220.33 215.812 220.011 215.649C219.621 215.476 219.09 215.592 218.665 215.585C217.602 215.571 216.503 215.557 215.405 215.564C211.827 215.578 208.283 215.868 204.74 216.172C204.599 217.106 204.244 217.99 203.677 218.75Z" fill="#A1D2FF"/>
<path d="M154.602 182.377C155.63 182.689 156.622 183.003 157.65 183.209C158.606 183.389 159.528 183.559 160.448 183.742C162.433 184.135 164.417 184.524 166.401 184.981C168.669 185.5 170.937 186.091 173.204 186.731C173.665 186.869 174.161 187.01 174.657 187.159C175.72 187.474 176.783 187.813 177.845 188.156C183.798 190.105 189.786 192.471 194.711 196.453C199.352 200.205 203.002 205.372 203.959 211.363C204.172 212.753 204.207 214.189 204.101 215.586C203.959 216.796 203.711 218.203 202.86 219.122C201.868 220.162 200.557 219.589 199.813 218.567C198.962 217.357 198.821 215.727 198.502 214.319C197.828 211.391 196.659 208.554 195.1 205.991C193.576 203.466 191.627 200.994 189.218 199.25C188.367 198.617 187.446 199.961 188.12 200.668C189.431 202.048 190.777 203.363 191.911 204.902C192.974 206.341 193.895 207.89 194.675 209.513C195.454 211.186 196.021 212.944 196.446 214.737C196.836 216.529 197.049 218.447 198.218 219.953C199.104 221.113 200.486 221.969 202.01 221.831C203.391 221.704 204.49 220.781 205.163 219.599C206.687 216.965 206.545 213.386 206.12 210.489C205.093 204.042 201.053 198.313 195.951 194.366C190.53 190.133 183.975 187.551 177.384 185.585C176.853 185.422 176.321 185.259 175.754 185.108C175.259 184.974 174.797 184.839 174.302 184.705C171.645 183.979 168.986 183.343 166.294 182.785C164.381 182.385 162.432 182.021 160.483 181.738C159.526 181.593 158.57 181.465 157.577 181.359C156.621 181.253 155.699 181.317 154.743 181.359C154.141 181.38 154.035 182.201 154.602 182.378L154.602 182.377Z" fill="black"/>
<path d="M141.988 201.206C142.98 205.007 145.815 208.052 149.429 209.668C150.031 209.236 150.669 208.816 151.272 208.438C150.988 208.625 149.5 207.766 149.216 207.599C148.543 207.242 147.835 206.789 147.303 206.238C145.461 204.265 144.22 201.464 143.938 198.794C143.654 196.311 144.079 193.733 145.177 191.48C147.551 186.617 152.477 183.678 157.508 182.105C158.145 181.892 158.075 180.754 157.33 180.839C155.949 181.008 154.637 181.175 153.362 181.677C152.122 182.151 150.918 182.731 149.783 183.431C145.851 185.85 142.661 189.698 141.776 194.31C141.351 196.584 141.386 198.954 141.989 201.206L141.988 201.206Z" fill="black"/>
<path d="M149.429 209.668C150.208 210.011 151.058 210.273 151.909 210.439C153.645 210.782 155.452 210.722 157.189 210.181C158.358 209.817 159.35 209.198 160.449 208.639C161.441 208.119 162.752 207.543 163.709 208.473C164.453 209.198 164.701 210.347 164.984 211.313C165.374 212.699 165.799 214.068 166.295 215.418C167.216 218.124 168.421 220.745 169.662 223.333C170.583 225.218 172.213 227.121 174.551 226.431C177.174 225.661 177.776 222.743 177.74 220.366C178.165 221.745 178.732 223.078 179.795 224.09C181.035 225.257 182.843 225.953 184.508 225.392C186.173 224.822 187.165 223.641 187.697 222.202C188.299 222.839 189.008 223.369 189.929 223.727C192.799 224.844 195.669 223.27 196.094 220.197C196.342 218.524 195.988 216.795 195.704 215.143C195.456 213.47 195.066 211.819 194.57 210.189C193.613 206.946 192.126 203.812 190.425 200.916C188.688 198.068 186.669 195.102 183.976 193.114C183.48 192.746 182.842 193.457 183.161 193.949C184.897 196.676 186.988 199.137 188.582 201.977C191.311 206.85 193.224 212.459 193.826 218.019C193.932 219.158 194.109 220.77 193.118 221.577C192.338 222.182 191.239 222.054 190.389 221.697C189.361 221.255 188.723 220.459 188.299 219.511C188.405 218.125 188.299 216.696 188.157 215.451C187.236 207.614 183.764 199.929 178.059 194.405C177.527 193.857 176.429 194.618 176.96 195.272C179.334 198.398 181.46 201.825 183.019 205.456C184.189 208.254 185.038 211.207 185.57 214.202C185.641 214.63 185.747 215.051 185.783 215.482C185.96 216.624 186.137 217.862 186.102 219.057C186.066 219.69 185.995 220.309 185.818 220.907C185.464 222.264 184.33 223.662 182.735 223.527C180.999 223.375 180.007 221.385 179.547 219.938C179.015 218.116 178.661 216.246 178.094 214.438C177.563 212.836 176.96 211.249 176.252 209.721C176.252 209.717 176.252 209.717 176.252 209.71C175.153 205.42 173.382 201.145 170.618 197.728C170.122 197.106 169.342 197.905 169.59 198.51C170.582 200.788 171.646 203.022 172.531 205.343C172.638 205.646 172.744 205.955 172.85 206.255C173.063 206.864 173.275 207.468 173.452 208.07V208.08C174.09 210.124 174.622 212.204 174.976 214.319C175.366 216.624 175.685 219.036 175.579 221.385C175.543 222.544 175.225 224.009 174.02 224.493C173.099 224.85 172.355 224.174 171.858 223.489C171.15 222.516 170.689 221.35 170.193 220.253C169.697 219.058 169.201 217.852 168.775 216.618C167.925 214.259 167.287 211.833 166.437 209.478C165.799 207.685 164.559 206.034 162.504 206.02C160.236 206.013 158.535 207.805 156.445 208.424C155.382 208.747 154.248 208.852 153.15 208.768C152.512 208.721 151.91 208.612 151.272 208.438C150.669 208.817 150.032 209.238 149.43 209.669L149.429 209.668Z" fill="black"/>
<path d="M172.637 220.339C172.779 219.373 173.062 218.383 173.878 217.764C174.586 217.212 175.649 217.085 176.394 217.668C176.748 217.955 177.031 218.407 177.031 218.881C177.031 219.344 176.712 219.677 176.394 219.924C176.216 220.03 176.039 219.821 176.146 219.677C176.288 219.426 176.216 218.98 176.075 218.725C175.934 218.46 175.65 218.326 175.331 218.293C174.587 218.215 173.985 218.937 173.736 219.556C173.382 220.348 173.346 221.299 173.488 222.141C173.559 222.573 173.701 223.015 173.878 223.418C173.949 223.591 174.02 223.785 174.198 223.913C174.304 224.033 174.517 224.069 174.694 224.125C174.942 224.211 175.084 224.55 174.871 224.748C174.481 225.095 173.95 224.992 173.56 224.666C173.206 224.355 173.028 223.884 172.886 223.439C172.567 222.446 172.496 221.367 172.639 220.338L172.637 220.339Z" fill="black"/>
<path d="M182.665 218.273C183.09 217.389 183.834 216.413 184.861 216.36C186.066 216.304 186.845 217.326 187.165 218.323C187.555 219.426 187.484 220.944 186.633 221.807C186.492 221.948 186.173 221.856 186.208 221.626C186.35 220.554 186.528 219.55 186.102 218.504C185.925 218.072 185.641 217.62 185.216 217.468C184.72 217.308 184.331 217.663 184.047 218.016C183.48 218.734 183.196 219.675 183.161 220.584C183.161 221.054 183.232 221.517 183.338 221.97C183.409 222.189 183.515 222.405 183.622 222.61C183.728 222.854 183.905 223.056 183.905 223.342C183.905 223.59 183.657 223.845 183.374 223.745C182.913 223.565 182.701 222.978 182.523 222.543C182.346 222.083 182.24 221.602 182.204 221.111C182.098 220.142 182.24 219.158 182.665 218.275V218.273Z" fill="black"/>
<path d="M189.822 217.533C190 216.458 190.496 215.224 191.417 214.605C192.48 213.905 193.827 214.41 194.677 215.161C195.598 215.946 196.13 217.484 195.138 218.425C194.89 218.658 194.571 218.365 194.677 218.075C195.102 217.131 194.181 216.2 193.437 215.78C193.047 215.56 192.552 215.43 192.162 215.635C191.772 215.829 191.524 216.275 191.347 216.65C190.922 217.526 190.816 218.563 190.993 219.511C191.17 220.42 191.56 221.438 192.552 221.689C192.835 221.76 192.871 222.089 192.693 222.283C192.303 222.757 191.63 222.619 191.205 222.262C190.744 221.909 190.461 221.417 190.248 220.905C189.787 219.833 189.645 218.683 189.823 217.534L189.822 217.533Z" fill="black"/>
<path d="M200.877 215.914C201.054 215.015 201.409 214.018 202.153 213.424C202.897 212.816 203.889 212.819 204.633 213.431C205.093 213.795 205.377 214.315 205.448 214.874C205.554 215.493 205.412 216.052 205.164 216.617C205.023 216.971 204.526 216.703 204.597 216.37C204.739 215.507 204.632 214.216 203.605 213.972C202.79 213.785 202.294 214.683 202.081 215.309C201.479 217.024 201.089 219.238 202.471 220.684C202.684 220.925 202.436 221.254 202.152 221.208C201.195 221.055 200.877 220.016 200.77 219.182C200.628 218.11 200.664 216.975 200.877 215.914H200.877Z" fill="black"/>
<path d="M102.126 190.306C104.146 188.838 105.988 187.172 108.079 185.843C110.134 184.552 112.224 183.3 114.35 182.133C115.024 181.772 115.661 181.422 116.334 181.089C116.759 180.867 117.185 180.654 117.645 180.446C124.236 177.309 131.393 175.382 138.728 175.318C147.055 175.24 155.382 177.673 162.326 182.257C162.857 182.603 163.46 181.815 162.999 181.408C159.35 178.14 155.027 175.855 150.315 174.533C141.847 172.164 132.776 172.627 124.449 175.229C121.543 176.128 118.709 177.274 115.981 178.617C115.484 178.84 115.024 179.081 114.563 179.321C113.712 179.777 112.827 180.247 111.976 180.739C110.949 181.33 109.921 181.942 108.929 182.603C108.044 183.222 107.228 183.95 106.343 184.598C104.5 185.934 102.587 187.215 100.957 188.767C100.142 189.521 101.24 190.967 102.126 190.306H102.126Z" fill="black"/>
<path d="M123.315 227.818C124.023 226.806 124.555 225.696 125.051 224.522C125.334 223.953 125.582 223.433 125.901 222.959C126.468 222.09 127.177 221.393 128.239 220.88C129.728 220.156 131.428 219.911 133.023 219.59C136.778 218.836 140.428 217.641 143.865 215.905C145.531 215.059 147.125 214.097 148.649 213.016C149.818 212.22 150.917 211.413 151.909 210.441C152.299 210.055 152.653 209.642 153.007 209.189C153.113 209.051 153.148 208.909 153.148 208.768C152.511 208.722 151.909 208.612 151.27 208.439C150.668 208.818 150.03 209.238 149.428 209.67C148.507 210.317 147.585 210.982 146.628 211.572C144.892 212.615 143.085 213.542 141.242 214.345C137.841 215.791 134.369 216.551 130.79 217.35C128.486 217.863 126.431 218.687 124.872 220.197C124.447 220.622 124.022 221.093 123.702 221.626C123.667 221.775 123.667 221.913 123.667 222.062C123.561 223.989 123.42 225.906 123.313 227.82L123.315 227.818Z" fill="black"/>
<path d="M208.531 188.725C208.637 188.881 208.85 188.969 208.991 189.111C209.311 189.391 209.346 189.836 209.416 190.243C209.841 193.022 211.223 195.626 213.349 197.493C216.006 199.841 219.373 201.153 222.526 202.574C222.526 202.581 222.561 202.581 222.561 202.588C222.986 202.776 223.412 202.974 223.837 203.172C226.034 204.183 228.195 205.294 230.108 206.736C230.533 207.052 230.959 207.39 231.349 207.748C231.349 207.755 231.384 207.762 231.384 207.776C232.128 208.473 233.085 209.898 234.183 210.347C234.503 210.481 234.821 210.531 235.14 210.474C235.247 210.453 235.353 210.425 235.424 210.368C236.451 209.848 235.637 207.649 235.353 206.885C234.361 203.854 232.377 201.421 230.073 199.292C229.932 199.285 229.826 199.249 229.719 199.179C229.613 199.122 229.506 199.038 229.436 198.931C229.365 198.843 229.294 198.737 229.294 198.609C229.259 198.602 229.259 198.595 229.259 198.581C229.259 198.581 229.259 198.574 229.259 198.567C228.904 198.26 229.188 197.616 229.613 197.605C229.719 197.527 229.826 197.471 229.932 197.435C230.003 197.421 230.073 197.407 230.109 197.4C230.251 197.38 230.393 197.358 230.534 197.351C230.605 197.351 230.64 197.358 230.711 197.358C230.853 197.379 230.995 197.393 231.136 197.421C231.384 197.485 231.597 197.591 231.81 197.725C235.07 198.772 237.975 200.767 240.101 203.451C241.235 204.887 242.156 206.468 242.794 208.176C243.431 209.781 243.644 211.454 243.998 213.127C244.282 214.538 244.955 216.709 246.798 216.617C248.747 216.515 249.809 214.616 249.916 212.83C250.022 210.793 249.419 208.649 248.852 206.708C248.285 204.886 247.541 203.121 246.62 201.442C245.557 199.514 244.317 197.711 242.899 196.048C241.411 194.333 239.639 192.923 238.152 191.221C237.655 190.687 238.258 189.998 238.86 190.27C240.844 191.115 242.474 192.745 243.892 194.284C245.31 195.783 246.549 197.463 247.613 199.207C248.676 200.183 249.491 201.498 250.164 202.701C250.978 204.246 251.51 205.948 251.793 207.691C251.935 208.801 251.935 209.883 251.864 210.959C251.899 211.192 251.899 211.425 251.935 211.655C251.97 212.522 251.899 213.413 251.687 214.261C251.793 215.553 252.395 216.68 254.025 216.507C257.993 216.051 257.604 210.201 257.213 207.383C256.753 203.967 255.477 200.635 253.564 197.76C252.502 196.14 251.226 194.651 249.737 193.356C248.32 192.097 246.796 190.821 245.202 189.799C244.705 189.491 245.167 188.78 245.662 188.971C247.505 189.646 249.135 190.467 250.658 191.754C252.111 193.006 253.458 194.431 254.591 195.991C256.859 199.121 258.418 202.774 259.02 206.608C259.339 208.659 259.517 211.4 258.914 213.713C259.374 213.653 259.835 213.709 260.296 213.561C260.863 213.385 261.394 213.034 261.784 212.592C262.705 211.563 262.953 210.095 262.989 208.765C263.024 206.34 262.564 203.896 261.784 201.604C260.898 199.128 259.622 196.978 258.063 194.994C257.638 194.453 257.178 193.919 256.752 193.399C255.654 192.183 254.485 191.022 253.28 189.891C252.784 189.421 253.421 188.731 253.988 188.999C256.469 190.174 258.56 192.097 260.189 194.339C261.642 194.926 263.024 195.733 264.3 196.73C265.398 197.632 266.426 198.672 267.276 199.825C267.985 200.737 269.26 202.523 270.359 200.964C271.281 199.683 270.643 197.597 270.04 196.317C269.367 194.917 268.375 193.714 267.276 192.628C264.973 190.323 262.28 188.438 259.446 186.825C253.635 183.508 247.186 181.089 240.738 179.43C234.147 177.75 227.344 177.085 220.612 178.125C218.734 178.404 216.891 178.828 215.084 179.384C213.383 179.9 211.577 180.463 210.23 181.69C208.529 183.281 208.14 185.937 208.317 188.155C208.352 188.331 208.352 188.519 208.459 188.671C208.494 188.688 208.494 188.706 208.529 188.724L208.531 188.725ZM207.645 181.914C209.629 179.017 213.456 177.977 216.681 177.189C223.873 175.438 231.385 175.86 238.542 177.296C245.842 178.767 253.141 181.395 259.66 184.938C262.778 186.631 265.825 188.651 268.376 191.158C270.609 193.379 272.77 196.467 272.487 199.784C272.345 201.449 271.246 203.172 269.404 203.242C267.561 203.299 266.676 201.605 265.648 200.381C264.585 199.045 263.309 197.906 261.857 196.972C262.211 197.591 262.53 198.224 262.814 198.854C263.735 200.916 264.408 203.087 264.727 205.329C265.046 207.671 265.223 210.224 264.196 212.438C263.31 214.294 260.404 216.657 258.349 215.15C257.888 216.116 257.215 216.929 256.223 217.498C254.77 218.358 252.75 218.432 251.44 217.226C251.12 216.957 250.908 216.663 250.731 216.331C250.483 216.681 250.2 217 249.881 217.29C248.357 218.537 246.338 218.849 244.708 217.633C243.326 216.617 242.865 214.871 242.546 213.279C242.156 211.313 241.802 209.428 240.88 207.606C239.356 204.575 236.877 202.026 233.9 200.424C235.247 201.785 236.274 203.444 237.018 205.208C237.656 206.75 238.365 208.72 237.869 210.393C237.338 212.197 235.389 212.844 233.723 212.211C231.952 211.535 230.96 209.703 229.578 208.48C228.054 207.107 226.283 206.11 224.405 205.272C224.157 205.169 223.944 205.063 223.696 204.965C223.2 204.752 222.739 204.551 222.244 204.352C219.161 203.093 215.972 201.934 213.279 199.939C210.161 197.609 208.637 194.666 207.22 191.137C207.043 190.748 206.901 190.351 206.795 189.948C206.051 187.406 206.122 184.169 207.646 181.913L207.645 181.914Z" fill="black"/>
<path d="M184.294 126.546C184.33 126.111 184.33 125.669 184.33 125.227C183.869 124.852 183.409 124.509 182.913 124.187C182.452 123.875 182.027 124.544 182.346 124.923C182.983 125.683 183.621 126.458 184.259 127.235C184.294 127.006 184.294 126.779 184.294 126.546H184.294Z" fill="black"/>
<path d="M171.964 166.173C172.992 165.866 173.665 165.034 174.444 164.341C175.188 163.694 175.968 163.082 176.747 162.506C177.067 162.279 177.349 162.056 177.669 161.837C178.306 161.409 178.909 160.995 179.511 160.578C180.255 160.079 181.035 159.588 181.779 159.082C184.614 157.162 187.484 155.09 189.645 152.38C191.914 149.565 193.189 146.23 193.118 142.587C193.048 139.482 192.091 136.444 190.744 133.661C190.46 133.112 190.177 132.578 189.893 132.052C189.68 131.673 189.433 131.298 189.22 130.927C188.759 131.467 188.299 131.98 187.802 132.451C188.122 133.042 188.44 133.64 188.688 134.259C188.829 134.552 188.971 134.856 189.078 135.161C190.282 138.096 191.027 141.417 190.53 144.557C190.034 147.716 188.192 150.428 185.959 152.628C183.621 154.92 180.857 156.685 178.164 158.52C177.88 158.714 177.597 158.92 177.313 159.125C176.71 159.538 176.108 159.959 175.541 160.401C175.045 160.762 174.584 161.126 174.124 161.508C172.954 162.434 171.218 163.623 170.935 165.154C170.829 165.745 171.325 166.371 171.963 166.173H171.964Z" fill="black"/>
<path d="M118.78 128.541C119.24 126.992 120.409 125.379 122.11 125.11C122.677 125.018 123.244 125.209 123.492 125.779C123.669 126.256 123.528 126.988 122.996 127.218C121.827 127.738 121.047 128.509 120.799 129.828C120.516 131.264 121.189 132.679 121.968 133.849C122.889 135.242 124.094 136.467 125.228 137.686C126.362 138.878 127.531 140.045 128.701 141.177C133.52 145.785 138.835 149.863 144.504 153.325C146.134 154.308 147.799 155.224 149.43 156.126C151.095 157.025 152.867 157.761 154.426 158.793C155.24 159.317 154.745 160.625 153.752 160.36C151.98 159.875 150.28 158.945 148.615 158.111C147.02 157.308 145.461 156.423 143.938 155.507C140.784 153.622 137.737 151.553 134.832 149.311C131.891 147.076 129.127 144.682 126.47 142.125C125.159 140.845 123.883 139.522 122.643 138.168C121.438 136.845 120.163 135.47 119.383 133.85C118.568 132.198 118.213 130.335 118.78 128.541L118.78 128.541Z" fill="black"/>
<path d="M101.417 151.875C102.409 153.24 104.288 151.776 103.26 150.471C100.142 146.57 98.8666 141.464 98.5831 136.58C98.1224 127.706 100.355 118.338 105.776 111.202C108.362 107.814 111.729 105.088 115.591 103.287C117.469 102.4 119.489 101.777 121.579 101.424C122.819 101.208 124.059 101.18 125.3 101.173C126.221 101.166 127.142 101.173 128.063 101.123C128.772 101.088 128.985 100.292 128.559 99.8711C128.488 99.7936 128.382 99.73 128.275 99.6804C126.716 99.1249 125.051 99.0334 123.386 99.1536C122.464 99.2171 121.614 99.3373 120.763 99.4861C118.248 99.9144 115.803 100.763 113.5 101.902C104.819 106.262 99.4336 114.88 97.3426 124.161C95.2873 133.348 95.6772 144.032 101.417 151.876V151.875Z" fill="black"/>
<path d="M67.2959 183.031C67.8272 180.711 68.9256 178.543 70.0596 176.468C71.1937 174.339 72.5398 172.287 73.9924 170.343C76.8625 166.488 80.1932 162.98 83.9138 159.92C87.8116 156.674 92.0636 153.657 96.8112 151.769C101.878 149.763 107.37 149.64 112.649 150.856C118.85 152.285 124.519 155.273 129.799 158.704C130.649 159.259 129.94 160.44 129.019 160.044C124.13 157.88 119.346 155.284 114.173 153.805C109.177 152.373 103.898 152.013 98.9021 153.664C94.4024 155.153 90.3275 157.943 86.6426 160.879C83.0283 163.754 79.6626 166.937 76.7218 170.506C75.1271 172.458 73.6745 174.52 72.3991 176.705C71.0879 178.972 70.131 181.387 68.927 183.711C68.4307 184.634 67.0845 183.972 67.2973 183.032L67.2959 183.031Z" fill="black"/>
<path d="M230.463 207.755C230.782 207.84 231.065 207.776 231.349 207.776H231.384C231.526 207.769 231.667 207.769 231.809 207.776C231.844 207.776 231.879 207.783 231.95 207.79C231.986 207.79 231.986 207.79 231.986 207.797C232.127 207.825 232.234 207.847 232.376 207.889C232.446 207.903 232.482 207.932 232.553 207.946C232.588 207.953 232.588 207.953 232.588 207.96C232.588 207.96 232.588 207.96 232.588 207.967C232.836 208.08 233.048 208.204 233.226 208.353C233.261 208.373 233.296 208.402 233.332 208.409C233.368 208.452 233.403 208.494 233.473 208.543C233.509 208.593 233.544 208.639 233.58 208.688C233.615 208.702 233.615 208.712 233.615 208.72C233.615 208.724 233.615 208.731 233.65 208.737C233.721 208.851 233.792 208.964 233.863 209.077C233.899 209.141 233.899 209.197 233.934 209.25C233.934 209.271 233.934 209.278 233.934 209.286C233.97 209.293 233.97 209.307 233.97 209.332C234.04 209.583 234.111 209.838 234.183 210.096C234.183 210.152 234.183 210.252 234.183 210.347C234.218 210.467 234.218 210.594 234.183 210.686C234.148 210.93 234.076 211.17 233.97 211.369C233.863 211.641 233.899 211.966 234.183 212.129C234.43 212.274 234.785 212.182 234.927 211.931C235.21 211.446 235.352 210.908 235.423 210.368C235.458 210.265 235.458 210.152 235.494 210.045C235.529 209.377 235.352 208.673 235.033 208.086C234.395 206.958 233.261 206.318 232.021 206.18C231.419 206.11 230.603 206.173 230.178 206.644C230.143 206.672 230.143 206.707 230.108 206.736C229.824 207.121 229.966 207.62 230.462 207.754L230.463 207.755Z" fill="black"/>
<path d="M247.259 211.023C247.826 210.096 248.995 209.329 250.093 209.746C250.978 210.089 251.511 211.193 250.943 212.059C250.802 212.32 250.306 212.158 250.447 211.836C250.66 211.167 249.987 210.644 249.349 210.736C248.605 210.846 248.18 211.575 248.003 212.243C247.79 213.017 247.755 213.852 247.896 214.641C247.967 215.026 248.109 215.408 248.25 215.773C248.428 216.172 248.747 216.522 248.711 216.972C248.711 217.201 248.498 217.389 248.25 217.322C247.719 217.159 247.436 216.49 247.223 215.988C247.01 215.476 246.833 214.945 246.762 214.39C246.585 213.258 246.692 212.035 247.258 211.023H247.259Z" fill="black"/>
<path d="M252.893 214.054C253.106 212.406 253.885 210.556 255.586 210.012C256.436 209.751 257.393 209.92 257.995 210.549C258.562 211.126 258.704 212.009 258.279 212.714C258.102 213.036 257.57 212.82 257.677 212.459C257.818 211.883 257.393 211.211 256.826 211.066C256.118 210.886 255.409 211.275 254.984 211.798C254.488 212.403 254.24 213.213 254.098 213.973C253.956 214.84 253.992 215.735 254.205 216.587C254.275 216.831 254.346 217.061 254.205 217.301C254.17 217.415 254.027 217.549 253.921 217.584C253.354 217.736 253.177 217.092 253.071 216.707C252.858 215.848 252.787 214.936 252.893 214.055L252.893 214.054Z" fill="black"/>
<path d="M260.865 208.222C261.325 207.362 262.14 206.486 263.203 206.496C264.088 206.507 264.939 207.383 264.655 208.306C264.549 208.593 264.159 208.469 264.195 208.183C264.265 207.766 263.911 207.536 263.557 207.405C263.238 207.288 262.919 207.366 262.636 207.543C261.998 207.942 261.608 208.713 261.396 209.396C261.148 210.128 261.077 210.906 261.148 211.67C261.219 212.045 261.29 212.42 261.432 212.777C261.573 213.137 261.857 213.516 261.857 213.905C261.857 214.238 261.502 214.425 261.219 214.273C260.758 214.036 260.546 213.279 260.404 212.826C260.263 212.327 260.191 211.804 260.156 211.284C260.121 210.227 260.369 209.155 260.865 208.222Z" fill="black"/>
<path d="M268.305 196.746C268.482 196.137 268.766 195.579 269.156 195.091C269.369 194.871 269.617 194.546 269.935 194.546C270.148 194.546 270.36 194.669 270.396 194.899C270.466 195.249 270.183 195.462 269.971 195.716C269.794 195.956 269.652 196.229 269.546 196.508C269.333 197.032 269.227 197.597 269.262 198.16C269.298 198.779 269.475 199.38 269.794 199.903C269.971 200.133 270.184 200.409 270.467 200.49C270.68 200.55 271.034 200.473 271.14 200.292C271.353 199.998 271.708 200.203 271.672 200.515C271.601 201.165 270.998 201.526 270.361 201.47C269.652 201.406 269.121 200.9 268.766 200.32C268.093 199.255 267.951 197.933 268.305 196.745V196.746Z" fill="black"/>
<path d="M186.492 187.968C187.13 186.79 188.051 185.694 188.866 184.633C189.716 183.554 190.602 182.511 191.523 181.518C193.366 179.58 195.421 177.836 197.688 176.404C202.188 173.532 207.61 172.029 212.995 172.68C215.901 173.034 219.019 173.914 221.251 175.919C221.925 176.542 221.074 177.493 220.294 177.132C218.062 176.064 215.901 175.063 213.42 174.699C210.976 174.342 208.424 174.494 206.05 175.049C201.125 176.185 196.873 179.024 193.365 182.55C192.408 183.52 191.487 184.545 190.637 185.609C189.716 186.748 188.936 187.997 188.015 189.146C187.341 190.037 185.995 188.899 186.491 187.968H186.492Z" fill="black"/>
<path d="M175.543 160.401C175.649 160.472 175.756 160.535 175.862 160.607C176.464 161.006 177.067 161.416 177.669 161.838C178.165 162.16 178.626 162.492 179.121 162.828C181.177 164.306 183.196 165.866 185.109 167.503C187.093 169.169 189.007 170.884 190.85 172.691C192.692 174.484 194.357 176.486 196.413 178.063C197.015 178.534 197.937 177.957 197.511 177.204C196.236 174.905 194.251 172.982 192.408 171.139C190.53 169.297 188.617 167.504 186.563 165.838C184.507 164.151 182.381 162.535 180.185 161.015C179.937 160.87 179.724 160.721 179.511 160.579C178.803 160.08 178.059 159.596 177.314 159.126C176.712 159.54 176.11 159.961 175.543 160.402V160.401Z" fill="black"/>
<path d="M129.834 114.738C130.578 117.578 131.854 120.209 133.307 122.759C133.307 122.695 133.271 122.625 133.271 122.553C132.634 119.778 133.448 116.966 135.787 115.279C137.949 113.719 140.819 113.422 143.122 114.836C143.512 115.077 143.866 115.342 144.185 115.646C144.15 115.091 144.114 114.532 144.114 113.977C144.079 112.608 146.276 112.608 146.24 113.977C146.098 117.043 146.347 120.074 146.949 123.084C147.126 124.053 147.373 125.015 147.622 125.969C147.764 124.88 147.905 123.791 148.118 122.716C148.721 119.515 149.713 116.389 150.953 113.379C151.626 111.72 152.405 110.09 153.185 108.481C153.114 108.375 153.114 108.251 153.114 108.11C153.079 107.399 153.717 106.95 154.106 106.518C154.177 106.455 154.248 106.398 154.283 106.359C154.603 105.74 154.957 105.121 155.311 104.51C156.268 102.78 157.26 101.029 158.358 99.3289C158.712 98.4555 159.102 97.5926 159.74 96.889C159.776 96.8324 159.811 96.7898 159.882 96.7619C159.705 96.4544 159.705 96.0192 160.059 95.8068C160.591 95.5238 161.016 95.2583 161.583 95.1241C161.654 95.1032 161.76 95.0815 161.903 95.0675C162.576 94.9753 163.284 94.9613 163.958 94.9823C165.233 95.0249 166.544 95.2583 167.785 95.5692C170.336 96.1917 172.781 97.3306 174.978 98.9146C177.139 100.496 179.088 102.575 180.647 104.923C182.135 107.194 183.73 110.14 183.801 112.965C183.801 113.269 183.659 113.457 183.482 113.542C184.013 117.415 184.367 121.354 184.332 125.227C184.332 125.669 184.332 126.111 184.296 126.546C184.296 126.779 184.296 127.006 184.261 127.235C184.191 128.586 184.014 129.937 183.765 131.27C183.624 132.172 183.411 133.063 183.162 133.926C183.021 134.358 182.879 134.786 182.737 135.199C184.544 134.609 186.175 133.933 187.627 132.621C187.663 132.564 187.734 132.515 187.804 132.451C188.301 131.981 188.761 131.468 189.222 130.927C189.435 131.298 189.682 131.673 189.895 132.052C190.179 132.578 190.462 133.112 190.746 133.661C192.411 131.882 193.652 129.675 194.396 127.362C196.274 121.605 195.069 115.285 192.766 109.839C190.711 104.958 187.664 100.502 183.837 96.8171C176.361 89.6128 165.483 85.0224 154.995 86.3276C155.632 86.6671 155.207 87.6362 154.57 87.6788C153.826 87.7215 153.081 87.7354 152.337 87.7424C150.672 87.7704 149.007 87.7704 147.377 88.061C145.039 88.4607 142.736 89.2069 140.645 90.3136C136.358 92.5732 132.956 96.191 131.007 100.633C129.058 105.022 128.597 110.097 129.837 114.737L129.834 114.738Z" fill="black"/>
<path d="M181.709 137.711C181.886 137.824 182.099 137.888 182.382 137.888C184.792 137.909 187.165 136.685 189.078 135.161C189.398 134.92 189.681 134.673 189.964 134.421C190.212 134.174 190.495 133.923 190.743 133.661C190.46 133.113 190.176 132.579 189.893 132.052C189.68 131.674 189.432 131.299 189.219 130.927C188.759 131.468 188.298 131.981 187.802 132.452C187.731 132.515 187.66 132.565 187.625 132.622C186.172 133.934 184.542 134.609 182.735 135.2C182.522 135.277 182.274 135.349 182.026 135.426C180.928 135.78 180.892 137.219 181.707 137.711H181.709Z" fill="black"/>
<path d="M152.334 87.7439C153.079 87.7369 153.823 87.7229 154.567 87.6803C155.205 87.6377 155.63 86.6686 154.992 86.329C154.213 86.4213 153.433 86.5554 152.653 86.7252C152.122 86.8349 152.051 87.4078 152.334 87.7439H152.334Z" fill="black"/>
<path d="M136.284 150.259C136.461 150.563 136.851 150.842 137.241 150.8C138.126 150.707 138.48 150.266 138.835 149.576C138.906 149.47 138.942 149.367 139.012 149.247C139.367 148.473 139.757 147.695 140.076 146.906C140.749 145.311 141.387 143.702 141.954 142.061C142.875 139.313 143.761 136.233 143.903 133.283C143.903 132.855 143.903 132.431 143.903 132.017C143.867 130.921 142.415 130.808 142.06 131.77C141.883 132.244 141.741 132.729 141.6 133.213C141.281 134.316 140.997 135.441 140.679 136.544C140.679 136.615 140.644 136.693 140.608 136.764V136.771C140.183 138.245 139.757 139.706 139.262 141.163C139.155 141.478 139.049 141.796 138.942 142.104V142.111C138.518 143.348 138.057 144.579 137.525 145.789C137.241 146.478 136.923 147.157 136.604 147.84C136.604 147.861 136.568 147.883 136.568 147.904C136.178 148.699 135.753 149.399 136.284 150.259H136.284Z" fill="black"/>
<path d="M162.716 147.377C163.531 147.532 164.346 147.638 165.161 147.681C164.771 146.549 164.062 145.52 162.893 145.283C162.433 145.184 161.866 145.59 162.078 146.096C162.256 146.538 162.503 146.955 162.716 147.377Z" fill="black"/>
<path d="M158.252 156.875C158.677 157.845 160.307 157.618 160.342 156.529C160.944 156.741 161.688 156.599 161.972 155.988C162.68 154.422 163.035 152.713 163.035 151.005C162.716 152.2 161.972 153.318 161.193 154.237C160.342 155.234 159.35 156.122 158.252 156.875Z" fill="black"/>
<path d="M153.646 161.466C157.65 160.713 161.158 158.435 163.602 155.203C164.807 153.608 165.657 151.616 165.551 149.59C165.516 149.01 165.41 148.328 165.161 147.681C164.346 147.638 163.531 147.532 162.717 147.377C162.646 147.37 162.646 147.363 162.61 147.356H162.575C161.973 147.229 161.335 147.076 160.697 146.886C160.591 147.547 160.449 148.229 160.272 148.891C160.13 149.669 159.953 150.45 159.776 151.229C159.776 151.239 159.776 151.239 159.776 151.246C159.669 151.632 159.599 152.024 159.492 152.396C159.386 152.944 159.28 153.333 158.89 153.775L158.855 153.803C158.465 154.216 157.933 154.17 157.508 153.895C157.544 154.107 157.615 154.309 157.651 154.521C157.828 155.257 158.005 155.988 158.218 156.72C158.218 156.777 158.253 156.827 158.253 156.876C159.352 156.122 160.344 155.234 161.194 154.237C161.973 153.318 162.718 152.201 163.037 151.005C163.037 152.713 162.682 154.421 161.973 155.988C161.69 156.6 160.946 156.741 160.344 156.529C160.308 157.618 158.678 157.845 158.253 156.876C156.694 157.986 154.887 158.821 153.08 159.355C151.698 159.751 152.265 161.724 153.647 161.466H153.646Z" fill="black"/>
<path d="M158.252 156.875C158.677 157.845 160.307 157.618 160.342 156.529C160.944 156.741 161.688 156.599 161.972 155.988C162.68 154.422 163.035 152.713 163.035 151.005C162.716 152.2 161.972 153.318 161.193 154.237C160.342 155.234 159.35 156.122 158.252 156.875Z" fill="black"/>
<path d="M157.507 153.894C157.932 154.17 158.464 154.216 158.854 153.802L158.889 153.774C159.279 153.332 159.386 152.942 159.491 152.395C159.598 152.024 159.668 151.631 159.775 151.245C159.775 151.238 159.775 151.238 159.775 151.228C159.952 150.45 160.129 149.668 160.271 148.89C160.448 148.229 160.59 147.546 160.696 146.885C161.334 147.076 161.971 147.228 162.574 147.355C162.361 146.899 161.83 146.655 161.299 146.672C161.122 146.609 160.945 146.584 160.767 146.584C160.555 146.584 160.378 146.615 160.165 146.711C160.059 146.735 159.988 146.786 159.918 146.835C159.351 147.185 159.032 147.987 159.138 148.641C159.032 148.768 158.926 148.907 158.891 149.077C158.784 149.494 158.678 149.908 158.571 150.329C158.501 150.778 158.394 151.227 158.359 151.687C158.039 151.616 157.685 151.761 157.544 152.066C157.544 152.101 157.508 152.136 157.508 152.179C157.331 152.741 157.402 153.325 157.508 153.894H157.507Z" fill="black"/>
<path d="M144.114 113.978C144.114 114.533 144.15 115.091 144.185 115.647C144.185 115.912 144.185 116.181 144.22 116.446C144.256 117.206 144.327 117.956 144.398 118.717C144.433 119.05 144.468 119.378 144.504 119.707C144.61 120.609 144.717 121.5 144.858 122.395C144.858 122.423 144.858 122.448 144.858 122.48C144.894 122.802 144.965 123.124 145.035 123.449C145.283 124.995 145.637 126.526 146.063 128.047C146.276 128.768 146.488 129.503 146.736 130.218C146.984 131.028 147.374 131.841 147.551 132.68C147.799 133.974 149.641 133.55 149.713 132.383C149.819 130.774 149.713 129.151 149.854 127.527C149.961 125.967 150.209 124.411 150.528 122.88C151.165 119.792 152.193 116.797 153.398 113.886C154.177 111.92 155.099 109.999 156.091 108.118C156.622 107.117 157.154 106.127 157.686 105.143C157.721 105.087 157.756 105.037 157.792 104.981C158.111 104.44 158.394 103.898 158.713 103.365C159.883 101.409 161.052 99.4533 162.08 97.4376C162.186 97.2182 162.292 97.0023 162.399 96.7766C162.93 95.6594 161.478 94.8671 160.769 95.8215C160.521 96.1184 160.308 96.4189 160.096 96.72C160.06 96.7766 160.025 96.8262 159.989 96.8828C159.422 97.6786 158.855 98.4919 158.36 99.3296C157.261 101.031 156.269 102.781 155.312 104.51C154.958 105.123 154.604 105.741 154.285 106.36C153.931 107.06 153.541 107.764 153.186 108.482C152.407 110.091 151.627 111.721 150.954 113.38C149.714 116.39 148.722 119.516 148.12 122.716C147.907 123.792 147.765 124.881 147.623 125.97C147.375 125.015 147.128 124.054 146.95 123.085C146.347 120.075 146.099 117.044 146.241 113.978C146.276 112.609 144.08 112.609 144.115 113.978H144.114Z" fill="black"/>
<path d="M152.334 87.7439C153.079 87.7369 153.823 87.7229 154.567 87.6803C155.205 87.6377 155.63 86.6686 154.992 86.329C154.213 86.4213 153.433 86.5554 152.653 86.7252C152.122 86.8349 152.051 87.4078 152.334 87.7439H152.334Z" fill="black"/>
<path d="M150.988 85.4521C150.881 85.8727 150.811 86.3045 150.811 86.7468C150.776 87.21 151.342 87.5174 151.732 87.2806C152.334 86.8914 152.795 86.3646 153.185 85.742C152.44 85.5723 151.732 85.487 150.988 85.4521Z" fill="black"/>
<path d="M139.259 141.163C139.153 141.478 139.047 141.796 138.94 142.104V142.111C139.117 143.716 141.633 143.723 141.563 142.037C141.492 140.208 141.138 138.461 140.606 136.771C140.181 138.245 139.755 139.706 139.259 141.163Z" fill="black"/>
<path d="M136 127.278C135.115 125.782 134.194 124.29 133.307 122.765C133.661 124.24 134.335 125.647 135.008 126.999C135.717 128.367 136.497 129.726 137.559 130.836C137.843 131.143 138.161 131.426 138.48 131.685C137.701 130.189 136.851 128.721 136 127.278Z" fill="black"/>
<path d="M127.531 102.795C128.169 102.958 128.948 102.611 129.267 102.042C129.728 101.268 129.408 100.362 128.7 99.8844C128.664 99.8557 128.629 99.8278 128.594 99.7991C128.594 99.8201 128.558 99.8487 128.558 99.8697C128.381 100.283 128.204 100.697 128.062 101.122C127.849 101.67 127.672 102.232 127.531 102.794V102.795Z" fill="black"/>
<path d="M123.386 99.1521C125.051 99.032 126.716 99.1235 128.275 99.679C128.382 99.7286 128.488 99.7921 128.559 99.8697C128.559 99.8487 128.595 99.8201 128.595 99.7991C128.63 99.8271 128.665 99.8557 128.701 99.8844C129.409 100.362 129.729 101.267 129.268 102.042C128.949 102.611 128.17 102.958 127.532 102.795C126.399 106.78 126.292 111.053 127.355 115.148C129.799 124.675 138.162 131.961 138.941 142.037C138.941 142.061 138.941 142.075 138.941 142.104C139.047 141.796 139.154 141.478 139.26 141.163C139.757 139.706 140.181 138.245 140.606 136.771V136.764C140.075 135.013 139.331 133.333 138.48 131.685C138.161 131.427 137.843 131.144 137.559 130.836C136.496 129.726 135.717 128.367 135.008 126.999C134.335 125.648 133.661 124.24 133.307 122.765C133.307 122.758 133.307 122.758 133.307 122.758C131.855 120.209 130.579 117.577 129.834 114.737C128.595 110.097 129.055 105.023 131.004 100.633C132.953 96.1911 136.354 92.5732 140.642 90.3137C142.732 89.2069 145.035 88.4607 147.374 88.0611C149.004 87.7711 150.669 87.7711 152.335 87.7425C152.051 87.4064 152.122 86.8335 152.654 86.7238C153.433 86.554 154.213 86.4198 154.993 86.3276C154.993 86.3171 154.957 86.3031 154.957 86.2962C154.355 86.0488 153.788 85.8644 153.185 85.7407C152.795 86.3632 152.335 86.8901 151.733 87.2792C151.343 87.5161 150.776 87.2087 150.811 86.7454C150.811 86.3031 150.882 85.8721 150.989 85.4507C151.733 85.4857 152.441 85.5709 153.185 85.7407C154.354 83.7285 154.284 80.7681 153.823 78.7097C153.185 75.6369 151.307 72.9735 148.827 71.0604C140.359 64.4578 127.745 67.6725 121.862 76.1567C117.008 83.152 118.142 92.7821 123.386 99.1514L123.386 99.1521Z" fill="black"/>
<path d="M150.988 85.4521C150.881 85.8727 150.811 86.3045 150.811 86.7468C150.776 87.21 151.342 87.5174 151.732 87.2806C152.334 86.8914 152.795 86.3646 153.185 85.742C152.44 85.5723 151.732 85.487 150.988 85.4521Z" fill="black"/>
<path d="M123.385 99.1521C123.988 99.8697 124.626 100.545 125.299 101.171C125.866 101.681 126.468 102.168 127.106 102.611C127.247 102.703 127.39 102.766 127.531 102.794C128.169 102.957 128.948 102.611 129.267 102.041C129.728 101.267 129.408 100.362 128.7 99.8837C128.664 99.855 128.629 99.8271 128.594 99.7984C128.594 99.8194 128.558 99.848 128.558 99.869C128.487 99.7914 128.381 99.7278 128.274 99.6782C126.715 99.1228 125.05 99.0312 123.385 99.1514L123.385 99.1521Z" fill="black"/>
<path d="M205.023 107.114C204.25 108.994 206.337 110.99 208.176 110.148C212.342 108.236 216.406 105.742 219.87 102.751C221.623 101.224 223.299 99.5638 224.874 97.862C225.157 97.5453 225.387 97.2738 225.668 96.9566C226.923 97.3839 228.231 97.766 229.586 98.0978C236.486 99.9703 243.706 100.785 250.794 99.631C260.594 98.073 269.6 92.0607 273.509 82.7374C281.35 63.993 270.664 42.4565 255.476 30.9554C239.798 19.1435 218.645 16.4985 199.838 20.9874C190.163 23.2999 180.633 27.8689 174.678 36.0697C169.13 43.7662 168.333 54.0462 171.215 62.9109C176.461 79.3406 191.743 88.7263 207.674 94.1388C207.669 94.936 207.602 95.7561 207.53 96.5692C207.557 96.615 207.577 96.6505 207.545 96.73C207.214 100.31 206.349 103.774 205.025 107.114L205.023 107.114Z" fill="#2220FF"/>
<path d="M223.006 65.3615H220.962V60.5626H216.784V65.3615H214.755V54.5527H216.784V58.9126H220.962V54.5527H223.006V65.3615Z" fill="white"/>
<path d="M227.682 57.1565V65.3615H225.684V57.1565H227.682ZM226.698 53.9926C226.991 53.9926 227.243 54.0682 227.455 54.2196C227.667 54.3609 227.773 54.6183 227.773 54.9917C227.773 55.355 227.667 55.6174 227.455 55.7789C227.243 55.9303 226.991 56.006 226.698 56.006C226.385 56.006 226.123 55.9303 225.911 55.7789C225.699 55.6174 225.593 55.355 225.593 54.9917C225.593 54.6183 225.699 54.3609 225.911 54.2196C226.123 54.0682 226.385 53.9926 226.698 53.9926Z" fill="white"/>
<path d="M231.911 61.9857H230.276L229.958 54.5527H232.244L231.911 61.9857ZM229.913 64.3927C229.913 63.9688 230.024 63.6711 230.246 63.4995C230.478 63.3178 230.755 63.227 231.078 63.227C231.401 63.227 231.674 63.3128 231.896 63.4844C232.128 63.6559 232.244 63.9587 232.244 64.3927C232.244 64.8065 232.128 65.1042 231.896 65.2858C231.674 65.4675 231.401 65.5583 231.078 65.5583C230.755 65.5583 230.478 65.4675 230.246 65.2858C230.024 65.1042 229.913 64.8065 229.913 64.3927Z" fill="white"/>
<path d="M101.311 166.053C102.729 167.722 104.394 169.112 105.882 170.696C107.3 172.192 108.788 173.614 110.276 175.053C111.693 176.468 113.146 177.894 114.563 179.322C115.165 179.909 115.732 180.503 116.334 181.09C116.759 180.867 117.185 180.655 117.646 180.447C117.078 179.835 116.547 179.22 115.98 178.618C114.456 176.973 112.933 175.357 111.303 173.773C109.779 172.242 108.185 170.763 106.556 169.332C104.997 167.988 103.508 166.563 101.807 165.438C101.382 165.169 101.063 165.731 101.311 166.054V166.053Z" fill="black"/>
<path d="M173.204 186.731C173.665 186.869 174.161 187.01 174.657 187.159C175.011 186.476 175.401 185.794 175.755 185.108C176.003 184.648 176.252 184.185 176.499 183.721C177.811 181.303 179.122 178.877 180.326 176.422C180.646 175.793 179.759 175.255 179.37 175.867C177.988 178.218 176.606 180.598 175.26 182.989C174.94 183.559 174.622 184.128 174.303 184.704C173.949 185.33 173.594 185.957 173.275 186.59C173.24 186.639 173.204 186.678 173.204 186.731Z" fill="black"/>
<path d="M207.787 249.115C207.857 249.571 207.928 250.031 208.07 250.484C208.07 250.501 208.034 250.522 208.034 250.544C208.034 253.023 209.913 254.982 212.251 255.894C212.322 255.941 212.428 255.987 212.535 256.025C212.712 256.1 212.889 256.138 213.066 256.152C215.653 256.877 218.523 256.492 221.145 256.29C227.382 255.82 233.582 255.154 239.748 254.377C250.732 252.987 261.68 251.166 272.558 249.238C281.239 247.703 290.345 244.977 297.644 239.58C305.971 233.437 311.676 223.51 317.168 214.959C319.081 211.942 320.995 208.89 322.802 205.813C324.538 202.928 326.487 199.967 327.514 196.777C328.436 193.892 328.188 190.535 325.531 188.509C323.263 186.747 320.18 186.493 317.31 186.652C313.589 186.854 309.869 187.359 306.184 187.724C302.215 188.117 298.247 188.51 294.278 188.902C286.377 189.691 278.44 190.476 270.503 191.261C266.535 191.654 262.567 192.043 258.634 192.435C255.161 192.781 251.653 193.089 248.217 193.694C244.922 194.27 241.697 195.161 238.721 196.636C235.78 198.104 233.229 200.211 231.138 202.631C229.012 205.096 227.24 207.808 225.54 210.546C223.627 213.637 221.784 216.759 220.013 219.917C216.47 226.237 213.174 232.684 210.197 239.259C208.78 242.343 207.363 245.684 207.788 249.115H207.787Z" fill="black"/>
<path d="M121.791 249.012C122.642 245.232 123.315 241.413 124.024 237.61C123.953 237.462 123.882 237.32 123.847 237.168C123.811 236.935 123.988 236.733 124.201 236.733V236.708C124.307 236.209 125.086 236.422 124.98 236.921C124.98 236.97 124.945 237.02 124.945 237.062C125.406 237.398 125.795 237.89 126.15 238.264C126.717 238.883 127.319 239.502 127.921 240.117C129.162 241.394 130.367 242.663 131.571 243.937C131.784 244.163 131.784 244.584 131.465 244.74C128.453 246.313 125.406 247.908 122.394 249.457C122.075 249.61 121.721 249.358 121.791 249.012V249.012Z" fill="#A1D2FF"/>
<path d="M120.551 265.351C119.488 263.389 120.161 260.775 122.004 259.516C122.499 259.166 123.102 258.954 123.704 258.869C123.633 258.856 123.563 258.842 123.491 258.835C123.066 258.792 123.066 258.222 123.491 258.188C125.83 257.993 128.168 259.39 128.771 261.724C129.373 263.931 128.31 266.471 126.148 267.333C124.129 268.136 121.577 267.252 120.55 265.353L120.551 265.351Z" fill="#A1D2FF"/>
<path d="M119.205 281.919C119.524 280.753 119.807 279.564 119.984 278.362C120.091 277.764 120.126 277.159 120.197 276.554C120.268 275.928 120.197 275.256 120.41 274.655C120.41 274.566 120.481 274.496 120.551 274.439C120.481 274.206 120.586 273.955 120.906 273.877C121.402 273.743 121.969 273.834 122.5 273.863C123.067 273.898 123.634 273.933 124.201 273.969C124.626 273.99 124.875 274.333 124.804 274.733C124.45 276.398 124.095 278.064 123.741 279.733C123.599 280.532 123.457 281.335 123.351 282.152C123.28 282.58 123.209 283.015 123.174 283.443C123.103 283.928 123.138 284.388 123.103 284.865C123.067 285.138 122.855 285.474 122.536 285.435C121.898 285.356 121.296 285.265 120.693 285.138C120.197 285.045 119.666 285 119.276 284.702C118.355 284.041 118.957 282.771 119.205 281.919V281.919Z" fill="#A1D2FF"/>
<path d="M0.115784 231.27C0.43499 224.437 0.930611 217.64 1.53334 210.878C2.77379 197.344 4.61626 183.99 6.67085 170.682C7.23787 166.948 7.83988 163.231 8.51331 159.532C8.97393 156.993 9.36386 154.344 10.0016 151.833C10.7807 152.272 11.5605 152.713 12.3754 153.163C12.1982 155.019 11.879 156.847 11.6312 158.658C11.1706 161.916 10.71 165.162 10.2137 168.409C9.25674 174.856 8.26482 181.289 7.37929 187.757C5.60751 200.669 4.01286 213.669 3.16302 226.836C2.91521 230.51 2.52528 234.252 2.77309 238.018C2.87949 239.755 3.09231 241.357 4.04855 243.012C4.82768 244.395 6.03243 245.547 7.41428 246.329C7.6271 246.442 7.76851 246.58 7.87491 246.729C10.2137 248.197 12.5168 249.816 14.8556 251.319C18.0799 253.399 21.2685 255.51 24.4936 257.618C30.8715 261.844 37.3202 266.014 43.7338 270.201C55.9227 278.144 68.0759 286.412 80.7961 293.323C86.8905 296.64 93.2328 299.72 99.7171 301.892C102.729 302.896 106.024 303.791 108.929 303.051C111.268 302.446 112.933 300.852 113.961 298.754C114.989 296.632 115.485 294.27 115.874 291.879C116.37 288.725 116.831 285.546 117.292 282.376C118.249 275.774 119.134 269.154 119.949 262.512C121.331 251.018 122.5 239.467 123.316 227.818C123.422 225.905 123.564 223.988 123.67 222.06C123.67 221.912 123.67 221.774 123.705 221.625C123.741 220.928 123.776 220.225 123.811 219.535C124.166 219.754 124.52 219.974 124.875 220.196C125.229 220.415 125.548 220.635 125.902 220.858C125.902 221.561 125.902 222.265 125.902 222.958C125.796 235.205 124.839 247.268 123.564 259.246C122.855 266.135 121.934 272.975 120.977 279.804C120.516 283.22 120.02 286.629 119.524 290.031C119.134 292.723 118.745 295.428 117.965 297.974C117.186 300.4 115.982 302.6 114.068 304.202C111.871 306.052 108.788 306.564 105.67 306.211C102.304 305.839 99.0087 304.658 95.7487 303.371C92.4536 302.079 89.1936 300.616 86.0043 299.028C72.9299 292.552 60.6346 284.153 48.3393 276.075C35.1235 267.394 22.0127 258.57 8.90324 249.721C7.8756 249.025 6.88364 248.321 5.89101 247.593C3.65862 246.242 2.02897 243.872 1.14343 241.545C0.541412 239.859 0.115799 238.193 0.0450974 236.492C-0.0613098 234.727 0.0450745 232.997 0.115784 231.268V231.27ZM31.7927 241.49C33.1039 240.464 34.8757 240.737 36.3282 241.306C38.2414 242.053 40.0839 242.958 41.962 243.803C45.8241 245.543 49.6504 247.312 53.4775 249.119C57.7295 251.107 61.9457 253.108 66.0563 255.333C71.7251 258.427 72.1507 263.025 71.7608 268.934C71.6194 270.632 71.7608 272.531 70.8753 274.058C69.8119 275.922 67.7574 275.802 66.092 274.921C64.2495 273.974 62.4777 272.892 60.671 271.88C53.124 267.625 45.5056 263.435 37.9236 259.29C36.0811 258.297 34.2386 257.362 32.4311 256.302C30.9079 255.382 29.7381 254.123 29.526 252.281C29.3132 250.375 29.8453 248.344 30.0931 246.46C30.3409 244.759 30.3059 242.651 31.7934 241.491L31.7927 241.49Z" fill="#2220FF"/>
<path d="M10.0014 151.832C10.7805 152.268 11.5604 152.709 12.3752 153.158C20.4892 157.706 28.6033 162.311 36.6823 166.965C48.127 173.535 59.501 180.209 70.8037 186.985C82.142 193.757 93.4097 200.614 104.642 207.575C110.24 211.033 115.804 214.514 121.402 218.001C122.181 218.507 122.996 219.019 123.811 219.536C124.52 219.971 125.229 220.413 125.901 220.855C125.901 220.229 125.901 219.603 125.901 218.97C125.901 218.592 125.901 218.213 125.901 217.831C127.425 214.74 125.441 210.221 122.819 207.388C119.311 203.61 114.563 201.291 110.205 198.812C92.0985 188.464 73.9923 178.102 55.8861 167.747C46.8866 162.598 37.8863 157.463 28.8867 152.307C24.989 150.09 20.702 147.03 16.3794 146.846C14.7847 146.783 13.0843 147.275 11.9146 148.233C11.5604 148.126 11.1704 148.212 11.029 148.526C10.8162 149.067 10.6041 149.622 10.462 150.185C10.2849 150.726 10.1078 151.274 10.0014 151.833V151.832Z" fill="#2220FF"/>
<path d="M205.944 246.314C206.334 244.825 206.795 243.347 207.291 241.883C208.282 238.877 209.417 235.924 210.692 233.028C213.172 227.372 216.255 221.997 219.798 216.951C220.826 215.522 221.853 214.122 222.952 212.749C224.015 211.36 225.113 209.839 226.495 208.739C227.31 208.109 228.515 208.884 227.983 209.878C227.239 211.168 226.247 212.293 225.361 213.467C224.404 214.698 223.519 215.949 222.632 217.223C220.932 219.727 219.337 222.316 217.849 224.972C214.979 230.216 212.499 235.719 210.55 241.395C210.019 242.997 209.522 244.613 209.062 246.243C208.601 247.899 208.317 249.731 207.29 251.145C206.829 251.792 205.554 251.871 205.377 250.898C205.093 249.306 205.518 247.85 205.944 246.315L205.944 246.314Z" fill="white"/>
<path d="M193.72 244.641C194.534 244.209 195.279 244.507 195.81 245.193C196.908 246.598 198.007 248.005 199.07 249.423C199.601 250.134 200.133 250.841 200.665 251.549C201.196 252.256 201.763 252.946 202.224 253.703C203.074 255.085 201.09 256.627 199.956 255.439C199.353 254.802 198.822 254.078 198.291 253.381C197.724 252.659 197.157 251.938 196.59 251.216C195.456 249.734 194.287 248.242 193.153 246.749C192.656 246.106 193.046 244.995 193.72 244.641Z" fill="#A1D2FF"/>
<path d="M190.141 239.701C192.48 239.701 192.48 243.277 190.141 243.277C187.838 243.277 187.838 239.701 190.141 239.701Z" fill="#A1D2FF"/>
<path d="M184.861 235.92C184.932 235.641 185.074 235.4 185.286 235.195C185.393 235.11 185.499 235.022 185.606 234.937C185.853 234.788 186.137 234.714 186.456 234.714C186.669 234.704 186.881 234.75 187.094 234.855C187.271 234.919 187.448 235.036 187.625 235.195C187.767 235.344 187.873 235.521 187.944 235.722C188.051 235.92 188.086 236.128 188.086 236.355C188.086 236.504 188.051 236.648 188.016 236.794C187.945 237.073 187.803 237.313 187.626 237.519C187.484 237.604 187.378 237.692 187.272 237.777C187.024 237.925 186.74 238 186.457 238C186.209 238.011 185.996 237.962 185.819 237.859C185.606 237.795 185.429 237.682 185.288 237.519C185.111 237.371 185.004 237.194 184.934 236.993C184.827 236.794 184.792 236.583 184.792 236.356C184.828 236.212 184.828 236.066 184.863 235.921L184.861 235.92Z" fill="#A1D2FF"/>
<path d="M194.18 246.41C194.605 246.243 195.101 246.212 195.562 246.332C196.164 246.505 196.766 247.039 196.66 247.757C196.66 247.853 196.625 247.945 196.625 248.033C197.617 248.702 198.468 249.54 199.212 250.526C199.566 251.06 199.956 251.665 200.133 252.291C200.452 253.285 200.133 254.417 199.07 254.788C198.148 255.114 197.333 254.512 196.625 253.993C196.022 253.543 195.42 253.063 194.853 252.546C193.755 251.563 192.55 250.382 192.55 248.812C192.55 247.723 193.152 246.81 194.18 246.41V246.41Z" fill="#A1D2FF"/>
<path d="M151.484 243.46C154.425 242.162 156.374 238.859 155.098 235.672C154.106 233.14 150.563 231.771 148.26 233.427C145.709 235.252 145.922 239.096 146.736 241.741C147.019 242.657 147.409 243.541 147.906 244.383C149.145 244.235 150.35 243.951 151.484 243.46ZM127.85 243.456C131.713 242.399 136 243.492 139.862 244.019C141.846 244.288 143.972 244.546 146.098 244.499C145.531 243.431 145.07 242.303 144.787 241.129C143.972 238.003 144.184 233.918 147.126 231.955C149.677 230.268 153.397 231.05 155.346 233.292C157.472 235.757 157.154 239.488 155.346 242.03C153.751 244.255 151.307 245.273 148.72 245.694C149.642 246.974 150.74 248.117 151.98 249.043C154.461 250.861 157.579 251.971 160.661 251.812C162.54 251.716 164.134 251.027 165.055 249.35C165.834 247.929 166.224 246.32 166.897 244.845C168.35 241.524 171.079 238.723 174.267 237.023C177.775 235.159 182.523 234.257 186.315 235.753C187.023 236.026 187.023 237.267 186.138 237.179C183.976 236.966 181.851 236.74 179.689 237.094C177.74 237.423 175.827 238.113 174.126 239.159C170.795 241.207 168.882 244.277 167.394 247.788C166.72 249.394 165.87 250.886 164.417 251.915C162.893 252.979 160.98 253.209 159.173 253.107C155.842 252.912 152.725 251.523 150.138 249.422C148.897 248.418 147.835 247.223 146.949 245.9C145.78 245.978 144.611 245.971 143.476 245.921C140.926 245.801 138.41 245.448 135.859 245.295C133.272 245.144 130.686 245.257 128.099 245.267C127.071 245.271 126.859 243.732 127.851 243.456H127.85Z" fill="#A1D2FF"/>
<path d="M126.185 263.957C127.39 264.233 128.524 263.7 129.586 263.197C130.649 262.695 131.712 262.151 132.917 261.97C135.468 261.588 137.701 262.967 139.685 264.403C141.705 265.878 143.724 267.254 146.063 268.219C148.402 269.185 150.917 269.815 153.398 270.037C158.394 270.483 163.39 269.415 167.642 266.691C172.284 263.689 175.615 259.215 178.556 254.628C180.363 251.852 181.993 248.973 183.729 246.183C185.04 244.135 186.917 241.635 189.611 241.795C190.249 241.834 190.426 242.771 189.788 242.944C187.202 243.613 185.82 245.77 184.544 247.888C182.985 250.445 181.497 253.058 179.902 255.597C177.068 260.149 173.631 264.534 169.202 267.657C160.84 273.546 149.324 273.057 140.962 267.473C138.765 266.013 136.391 263.502 133.556 263.653C132.139 263.731 130.863 264.537 129.588 265.082C128.347 265.62 127.108 265.931 125.761 265.613C124.663 265.358 125.123 263.714 126.186 263.957H126.185Z" fill="#A1D2FF"/>
<path d="M122.5 278.773C128.17 276.714 134.618 276.757 140.323 278.733C143.157 279.73 145.673 281.4 148.437 282.546C151.271 283.713 154.283 283.784 157.295 283.522C162.858 283.037 168.563 281.407 172.85 277.673C177.067 273.959 179.76 268.924 182.63 264.167C185.854 258.841 189.61 253.448 195.279 250.509C197.157 249.529 198.858 252.351 196.945 253.384C192.126 256.019 188.901 260.606 186.102 265.214C183.161 270.112 180.468 275.307 176.357 279.374C172.105 283.575 166.507 285.892 160.661 286.805C157.472 287.297 154.283 287.547 151.094 287.067C147.941 286.593 145.318 285.015 142.554 283.562C136.602 280.44 129.799 279.973 123.421 282.031C122.535 282.31 121.578 281.705 121.33 280.853C121.083 279.912 121.65 279.088 122.499 278.773L122.5 278.773Z" fill="#A1D2FF"/>
<path d="M40.7217 250.112C40.3317 249.628 39.8711 249.168 39.3398 248.846C38.8435 248.531 37.7808 248.213 37.958 249.193C38.0994 249.78 38.6664 250.352 39.0213 250.798C39.4462 251.339 39.9068 251.874 40.3674 252.397C40.7574 252.839 41.1466 253.267 41.5365 253.692C41.5722 253.645 41.5722 253.603 41.5722 253.561C41.8914 252.341 41.4658 251.085 40.7217 250.113V250.112ZM52.9813 255.159C52.7684 254.459 52.4142 253.797 52.0957 253.136C51.8122 252.532 51.458 251.718 50.8203 251.407C50.0411 251.029 49.4741 251.577 49.7219 252.404C49.9347 253.076 50.3239 253.73 50.6432 254.352C51.3873 255.774 52.2378 257.132 53.1941 258.434C53.5483 257.369 53.3712 256.217 52.9813 255.159ZM61.131 258.939C60.8832 258.387 59.8912 257.03 59.5013 258.26C59.3242 258.83 59.7848 259.721 59.9619 260.237C60.4225 261.397 61.0253 262.465 61.7337 263.459C62.4421 262.051 61.8044 260.258 61.131 258.939V258.939ZM36.6118 254.222C36.931 255.198 38.2065 255.824 39.1984 255.781C39.8718 255.756 40.4382 255.421 40.8638 254.939C39.9783 254.087 39.1627 253.196 38.3836 252.255C37.4623 251.131 35.6906 249.171 37.0017 247.704C38.3129 246.254 40.4389 247.69 41.4308 248.762C42.7419 250.173 43.4861 252.156 42.9191 254.056C42.8484 254.303 42.7419 254.543 42.6355 254.781C42.8126 254.951 42.9898 255.127 43.1669 255.294C44.1588 256.206 45.1864 257.072 46.2491 257.872C47.2767 258.646 48.3751 259.491 49.5798 259.994C50.7496 260.481 51.9186 260.326 52.6627 259.41C51.5644 257.925 50.5725 256.362 49.7219 254.721C49.1192 253.585 47.8794 251.566 49.297 250.516C50.6432 249.494 52.0964 250.767 52.7691 251.938C53.9032 253.975 55.2143 257.328 54.0096 259.552C54.3995 260.048 54.7887 260.532 55.2143 261.002C56.277 262.19 59.2178 265.546 61.0253 264.294C59.7848 262.728 58.8993 260.875 58.6158 259.011C58.4387 257.812 59.1471 256.167 60.6353 256.772C62.1236 257.377 62.832 259.778 63.0799 261.179C63.257 262.282 63.0798 263.509 62.4064 264.39C63.1505 265.327 64.0011 266.194 64.8866 267.007C65.1344 267.202 64.8516 267.548 64.6031 267.407C63.5398 266.816 62.5478 266.009 61.6973 265.066C61.5559 265.154 61.4495 265.235 61.2724 265.302C59.7841 265.968 58.1545 265.14 56.9847 264.203C55.6029 263.127 54.4688 261.755 53.4062 260.383C53.1226 260.662 52.7684 260.913 52.3435 261.122C50.6782 261.932 48.9064 261.105 47.4538 260.213C45.7178 259.127 44.0881 257.883 42.5641 256.535C42.3163 256.33 42.1035 256.122 41.8557 255.913C41.218 256.641 40.3318 257.151 39.3048 257.193C37.5688 257.271 36.1162 256.157 35.8677 254.431C35.797 253.947 36.4704 253.738 36.6118 254.223V254.222Z" fill="white"/>
<path d="M90.7874 238.116C90.7524 238.35 90.7167 238.572 90.7167 238.806C92.9134 239.909 95.0751 241.027 97.2361 242.158C100.46 243.824 103.65 245.483 106.874 247.148C108.433 247.951 109.992 248.757 111.515 249.56C112.897 250.274 114.315 250.961 115.626 251.781C116.016 249.38 116.547 246.996 116.937 244.595C116.937 244.585 116.937 244.574 116.973 244.563C116.229 242.997 115.343 241.536 114.032 240.379C112.721 239.24 111.197 238.693 109.496 238.516C107.972 238.357 106.449 238.307 104.997 237.893C102.233 237.119 99.7527 235.495 97.9459 233.278C95.997 230.913 94.7573 228.105 93.0205 225.6C92.6663 225.098 92.2764 224.607 91.8515 224.14C91.8515 224.264 91.8158 224.388 91.8158 224.515C91.7094 227.546 91.6387 230.566 91.3202 233.582C91.178 235.092 90.9302 236.599 90.7888 238.116H90.7874ZM118.035 236.726C118.355 234.17 118.638 231.606 118.921 229.042C119.169 226.753 119.311 224.405 119.629 222.124C117.326 220.968 115.2 219.507 113.004 218.188C110.807 216.886 108.61 215.592 106.413 214.333C102.267 211.939 97.9795 209.704 93.7632 207.412C93.409 210.096 92.8777 212.759 92.5235 215.444C92.2043 217.7 92.0272 219.963 91.9208 222.233C92.0622 222.354 92.2043 222.47 92.3107 222.594C94.5788 224.903 95.8892 227.913 97.626 230.625C99.3978 233.494 101.842 235.768 105.137 236.772C106.873 237.295 108.574 237.235 110.31 237.441C111.869 237.617 113.216 238.162 114.421 239.11C115.626 240.033 116.547 241.179 117.255 242.441C117.539 240.542 117.823 238.632 118.035 236.726L118.035 236.726ZM84.4095 219.811C85.8977 219.39 87.2089 219.433 88.6257 220.023C89.6534 220.459 90.6103 221.077 91.4602 221.802C91.7794 219.694 92.0272 217.576 92.1686 215.444C92.3814 212.431 92.3457 209.4 92.5935 206.376C92.6285 205.863 93.1248 205.584 93.5854 205.806C98.2273 208.088 102.798 210.644 107.263 213.208C109.53 214.496 111.762 215.804 113.995 217.148C116.085 218.407 118.211 219.62 120.16 221.099C120.373 221.116 120.585 221.265 120.585 221.512C120.621 224.119 120.195 226.796 119.911 229.385C119.664 232.009 119.309 234.625 118.99 237.239C118.671 239.474 118.352 241.706 118.033 243.941C118.707 245.413 119.203 246.983 119.628 248.521C119.805 249.218 118.777 249.494 118.53 248.818C118.282 248.022 117.998 247.212 117.715 246.41C117.431 248.511 117.183 250.622 116.758 252.701C116.758 252.762 116.723 252.801 116.723 252.846C116.758 253.302 116.404 253.773 115.872 253.575C112.541 252.4 109.388 250.509 106.234 248.921C102.974 247.262 99.6792 245.603 96.3842 243.952C94.4003 242.955 92.4514 241.95 90.4668 240.935C90.0419 240.706 89.5813 240.472 89.1207 240.246C89.1914 239.539 89.2978 238.827 89.3685 238.124C89.3685 238.004 89.3685 237.887 89.4042 237.767C89.5456 236.253 89.5813 234.736 89.7584 233.23C90.0776 230.329 90.5375 227.461 91.0338 224.579C91.1045 224.211 91.1402 223.843 91.2109 223.479C89.4042 221.739 87.0654 220.494 84.5145 220.636C84.0539 220.663 83.9832 219.942 84.4081 219.811H84.4095Z" fill="black"/>
<path d="M115.661 226.888C115.591 226.81 115.555 226.732 115.52 226.644C115.449 226.549 115.414 226.454 115.379 226.361C115.237 226.114 115.059 225.909 114.847 225.714C114.493 225.357 114.032 225.088 113.501 225.067C112.368 225.018 111.375 225.902 111.127 226.97C110.844 228.112 111.411 229.336 112.261 230.085C112.686 230.442 113.289 230.725 113.856 230.595C114.387 230.471 114.813 230.032 115.096 229.569C115.556 228.798 115.733 227.826 115.663 226.888H115.661ZM111.906 231.517C110.347 230.654 109.496 228.762 109.745 227.015C109.993 225.346 111.445 223.967 113.11 223.765C114.032 223.655 114.953 223.981 115.661 224.575C116.016 224.868 116.299 225.278 116.441 225.703C116.547 225.926 116.583 226.166 116.618 226.403C116.618 226.424 116.618 226.446 116.618 226.467C116.688 226.739 116.759 227.015 116.795 227.298C116.865 228.175 116.688 229.067 116.334 229.866C115.98 230.619 115.413 231.341 114.633 231.691C113.748 232.098 112.755 231.988 111.904 231.518L111.906 231.517Z" fill="black"/>
<path d="M87.3504 207.098C83.0278 205.004 78.8822 202.49 74.7367 200.057C70.5911 197.624 66.4455 195.173 62.3 192.708C53.9731 187.747 45.682 182.703 37.4266 177.604C32.7847 174.736 28.1428 171.886 23.5723 168.929C22.474 168.208 23.466 166.432 24.635 167.139C41.1115 177.257 57.5167 187.428 74.2053 197.199C78.9179 199.951 83.7369 202.56 88.2367 205.606C89.1579 206.232 88.3788 207.583 87.3511 207.098L87.3504 207.098Z" fill="black"/>
<path d="M20.4545 166.3C20.2067 166.417 19.9582 166.374 19.6746 166.3C19.4618 166.244 19.2848 166.201 19.0726 166.123C18.6827 165.964 18.2935 165.805 17.9386 165.65C17.0881 165.31 16.2732 164.964 15.5291 164.454C15.1749 164.21 14.9978 163.807 15.1749 163.396C15.352 163.007 15.7769 162.803 16.2025 162.905C16.9817 163.106 17.7615 163.471 18.5056 163.835C18.8248 164.008 19.179 164.189 19.5332 164.366C19.6746 164.443 19.8168 164.51 19.9939 164.592C19.9939 164.606 20.3481 164.871 20.2417 164.776C20.3124 164.846 20.4188 164.91 20.5252 164.978C20.7023 165.105 20.8794 165.349 20.9151 165.597C20.9858 165.912 20.8444 166.24 20.4545 166.3Z" fill="black"/>
<path d="M75.0908 206.921C71.2637 204.774 67.4731 202.49 63.6103 200.35C62.4763 199.707 63.5039 197.921 64.6737 198.575C68.5007 200.736 72.4335 202.748 76.2955 204.902C78.1737 205.952 80.0162 206.998 81.8937 208.046C82.8506 208.587 83.8068 209.135 84.7638 209.715C85.685 210.284 86.7477 210.85 87.4925 211.65C88.0238 212.226 87.4925 213.082 86.7483 212.93C85.7207 212.721 84.7288 212.156 83.8075 211.692C82.8156 211.198 81.8586 210.678 80.8667 210.14C78.9535 209.068 77.0397 207.993 75.0908 206.922V206.921Z" fill="black"/>
<path d="M59.5361 196.491C60.0674 196.976 59.5361 198.005 58.8277 197.732C55.6741 196.516 52.8754 194.645 50.0052 192.909C47.1351 191.179 44.265 189.467 41.3956 187.759C35.5847 184.318 29.738 180.951 23.8921 177.613C20.5257 175.707 17.1599 173.843 13.7585 172.018C12.5181 171.339 13.6164 169.419 14.8918 170.098C26.7972 176.482 38.5962 183.003 50.1116 190.044C53.336 192.028 56.7374 193.885 59.5368 196.491L59.5361 196.491Z" fill="black"/>
<path d="M33.2807 187.858C37.8162 190.423 42.2803 193.05 46.6743 195.812C51.0327 198.536 55.5682 201.195 59.5009 204.487C60.1744 205.067 59.2881 206.079 58.5797 205.693C54.0092 203.313 49.7923 200.311 45.4339 197.648C41.0405 194.97 36.6115 192.325 32.1467 189.779C30.9069 189.068 32.0403 187.148 33.2807 187.858Z" fill="black"/>
<path d="M26.513 186.564C24.387 186.098 22.3674 184.881 20.4893 183.802C18.5761 182.71 16.7336 181.468 14.9262 180.188C14.3948 179.821 14.147 179.162 14.5012 178.575C14.7847 178.066 15.5996 177.783 16.1309 178.155C17.9027 179.439 19.7801 180.62 21.6583 181.776C23.5365 182.922 25.5911 183.888 27.2921 185.284C27.8942 185.804 27.2214 186.71 26.513 186.564Z" fill="black"/>
<path d="M69.245 226.11C65.3472 224.14 61.4852 222.173 57.6231 220.197C56.312 219.536 57.4817 217.572 58.7572 218.248C62.5842 220.264 66.4463 222.283 70.3083 224.302C72.1865 225.299 74.0997 226.294 75.9779 227.291C77.8203 228.253 80.017 229.105 81.5053 230.544C82.0366 231.047 81.4696 231.814 80.8318 231.687C78.848 231.294 76.9341 230.018 75.1273 229.105C73.1434 228.105 71.1946 227.107 69.2457 226.11H69.245Z" fill="black"/>
<path d="M45.4341 210.238C46.8159 211.005 48.2685 211.747 49.6503 212.54C50.3595 212.936 51.0322 213.343 51.7406 213.742C52.4848 214.17 53.3353 214.609 53.6538 215.432C53.8309 215.818 53.4767 216.376 53.0868 216.448C52.2012 216.603 51.3507 216.097 50.6066 215.701C49.8981 215.33 49.154 214.962 48.4456 214.584C47.028 213.831 45.6462 213.025 44.2293 212.243C43.698 211.939 43.5209 211.188 43.8394 210.655C44.1586 210.096 44.8671 209.936 45.4334 210.238H45.4341Z" fill="black"/>
<path d="M39.5166 209.011C38.4183 208.979 37.3906 208.318 36.4337 207.847C35.3711 207.334 34.3434 206.776 33.3158 206.231C31.1898 205.111 29.0638 203.972 26.9735 202.829C22.7922 200.569 18.6117 198.295 14.4661 195.986C13.155 195.244 14.3247 193.249 15.6709 193.949C19.8871 196.141 24.0684 198.366 28.2497 200.612C30.3399 201.715 32.3952 202.825 34.4505 203.957C35.4782 204.519 36.5058 205.071 37.4978 205.669C38.4897 206.245 39.6237 206.751 40.2615 207.696C40.6514 208.241 40.1551 209.025 39.5173 209.011L39.5166 209.011Z" fill="black"/>
<path d="M61.1658 228.854C58.1542 227.142 55.142 225.435 52.1305 223.723C50.6065 222.853 49.0833 221.983 47.56 221.113C46.0361 220.246 44.4421 219.464 42.9896 218.481C41.6434 217.579 42.7767 215.677 44.2293 216.349C45.8233 217.088 47.3122 218.071 48.8355 218.934C50.3595 219.804 51.8827 220.67 53.4417 221.541C56.4532 223.246 59.4297 224.953 62.4412 226.658C65.4527 228.367 68.465 230.071 71.4765 231.789C72.9997 232.659 74.5237 233.526 76.047 234.421C77.4645 235.259 79.1299 235.984 80.1218 237.321C80.5117 237.816 80.0154 238.665 79.3777 238.598C77.7123 238.421 76.2241 237.349 74.8072 236.56C73.2482 235.718 71.7243 234.845 70.201 233.978C67.1888 232.277 64.1773 230.566 61.1658 228.854Z" fill="black"/>
<path d="M15.0687 200.937C19.2143 203.427 23.4305 205.839 27.7182 208.137C29.8442 209.273 31.9702 210.379 34.0962 211.476C35.1588 212.038 36.2928 212.582 37.3562 213.159C38.3838 213.704 39.5886 214.188 40.4034 215.051C40.8997 215.596 40.5805 216.66 39.73 216.614C38.5609 216.543 37.4619 215.953 36.3992 215.482C35.2652 214.983 34.1312 214.453 33.0328 213.909C30.8361 212.826 28.6745 211.695 26.5135 210.531C22.1908 208.204 17.9388 205.75 13.7576 203.154C12.3757 202.281 13.6511 200.081 15.0687 200.937Z" fill="black"/>
<path d="M107.654 255.697C106.662 255.173 105.67 254.657 104.677 254.162C103.65 253.659 102.515 253.26 101.559 252.68C101.276 252.506 101.028 252.149 101.028 251.799C101.063 251.495 101.134 251.305 101.347 251.078C101.56 250.816 102.021 250.718 102.339 250.816C103.473 251.156 104.571 251.778 105.634 252.291C106.662 252.78 107.654 253.278 108.611 253.816C109.603 254.353 110.559 254.909 111.516 255.485C112.508 256.075 113.712 256.662 114.457 257.525C115.024 258.151 114.492 259.276 113.606 259C112.578 258.675 111.622 257.939 110.665 257.388C109.673 256.804 108.681 256.238 107.654 255.697V255.697Z" fill="black"/>
<path d="M97.0596 250.338C95.5714 249.536 94.1188 248.712 92.6305 247.954C91.8864 247.58 91.1423 247.198 90.3982 246.823C89.7961 246.519 88.3429 245.928 88.8742 245.002C89.4055 244.121 90.7167 244.857 91.3901 245.14C92.1692 245.469 92.914 245.816 93.6575 246.201C95.1457 246.964 96.5983 247.771 98.0158 248.701C99.0078 249.377 98.1223 250.937 97.0589 250.339L97.0596 250.338Z" fill="black"/>
<path d="M88.9806 249.508C93.0197 251.637 97.0596 253.794 101.063 255.948C103.048 256.998 104.996 258.044 106.98 259.095C108.008 259.651 109.036 260.224 110.028 260.793C110.985 261.306 112.224 261.762 112.898 262.607C113.323 263.141 113.146 264.22 112.26 264.143C111.162 264.04 110.205 263.361 109.248 262.852C108.221 262.304 107.158 261.766 106.131 261.211C104.111 260.129 102.126 259.022 100.143 257.929C96.0676 255.711 91.9928 253.498 87.9536 251.259C86.8196 250.623 87.8122 248.9 88.9813 249.508L88.9806 249.508Z" fill="black"/>
<path d="M14.9976 150.765C15.104 150.443 15.2454 150.163 15.4939 149.926C15.6353 149.824 15.7417 149.728 15.8838 149.629C16.203 149.456 16.5215 149.367 16.8407 149.367C17.1242 149.357 17.3721 149.413 17.5849 149.534C17.8327 149.608 18.0098 149.739 18.1869 149.926C18.364 150.096 18.5061 150.301 18.5768 150.538C18.7182 150.765 18.7539 151.009 18.7539 151.271C18.7182 151.44 18.7182 151.61 18.6832 151.776C18.6125 152.099 18.4354 152.381 18.1869 152.615C18.0805 152.718 17.9391 152.817 17.797 152.912C17.5135 153.085 17.195 153.174 16.84 153.174C16.5922 153.184 16.3437 153.128 16.1316 153.011C15.8838 152.933 15.671 152.802 15.4939 152.615C15.3168 152.445 15.1747 152.24 15.104 152.003C14.9976 151.776 14.9269 151.533 14.9269 151.271C14.9626 151.101 14.9976 150.934 14.9976 150.765Z" fill="white"/>
<path d="M21.8355 154.156C21.9062 153.845 22.0833 153.576 22.2961 153.346C22.4375 153.251 22.5439 153.156 22.686 153.06C22.9695 152.894 23.288 152.808 23.6072 152.808C23.8551 152.798 24.1036 152.851 24.3157 152.964C24.5285 153.039 24.7406 153.166 24.9184 153.346C25.0955 153.513 25.2376 153.707 25.3083 153.937C25.4147 154.156 25.4497 154.393 25.4497 154.644L25.379 155.132C25.3083 155.443 25.1312 155.716 24.9184 155.942C24.7763 156.041 24.6706 156.137 24.5285 156.232C24.245 156.398 23.9258 156.479 23.6072 156.483C23.3594 156.49 23.1109 156.44 22.8988 156.324C22.686 156.25 22.4739 156.122 22.2968 155.941C22.1197 155.779 22.0133 155.581 21.9426 155.351C21.8012 155.135 21.7655 154.898 21.7655 154.644C21.8012 154.481 21.8012 154.318 21.8362 154.156H21.8355Z" fill="white"/>
<path d="M271.175 230.248C272.345 230.955 273.762 231.27 275.25 230.958C278.156 230.356 280.317 227.722 280.955 224.847C281.309 223.231 281.202 221.381 280.104 220.15C276.95 216.656 270.466 219.8 268.872 223.326C267.632 226.031 268.908 228.878 271.175 230.247V230.248Z" fill="white"/>
</svg>
