<svg width="432" height="316" viewBox="0 0 432 316" fill="none" xmlns="http://www.w3.org/2000/svg">
<g clip-path="url(#clip0_8_1050)">
<path d="M333.224 117.519C333.224 117.519 332.97 99.1284 334.786 91.3703C336.552 83.6156 337.865 74.3086 342.302 75.4212C346.743 76.5305 343.865 85.3944 343.159 91.5935C342.502 97.7993 340.537 107.773 340.736 110.651C340.99 113.532 341.393 115.524 341.393 115.524C341.393 115.524 351.181 86.0606 352.694 83.4024C354.256 80.7376 356.478 76.5305 358.697 76.9702C360.916 77.4132 362.935 81.627 362.935 81.627C362.935 81.627 362.935 77.1967 366.92 79.1853C370.904 81.1839 370.198 85.8341 369.998 89.6016C369.795 93.369 365.357 106 365.357 106C365.357 106 374.639 95.1411 380.646 95.804C386.65 96.4702 383.724 100.901 380.849 104.668C377.974 108.435 366.47 123.282 364.251 125.054C362.032 126.83 357.591 132.589 352.041 136.133C346.49 139.681 336.552 149.431 334.08 152.755C331.658 156.08 329.186 160.177 329.186 160.177C329.186 160.177 343.868 191.755 346.743 200.393C349.619 209.04 360.266 235.629 353.806 248.477C347.4 261.331 340.993 264.652 328.126 265.538C315.26 266.428 267.381 245.599 267.381 245.599C267.381 245.599 268.29 252.024 262.94 259.12C257.642 266.211 254.111 269.752 255.22 274.632C256.33 279.506 263.193 292.357 261.627 292.803C260.064 293.243 167.432 300.335 165.463 297.234C163.444 294.132 152.293 269.912 151.69 270.645C151.133 271.378 147.955 296.791 145.483 297.234C143.061 297.677 100.982 290.808 100.529 288.15C100.076 285.492 115.362 193.314 117.584 186.892C119.803 180.466 122.025 171.159 129.541 167.612C137.057 164.068 137.967 155.647 137.967 155.647C137.967 155.647 119.146 91.6069 120.712 79.6417C122.225 67.6765 149.268 33.9994 160.569 33.5564C171.87 33.1133 196.037 46.854 205.119 50.8379C214.201 54.8286 228.834 94.7081 231.506 113.768C234.128 132.825 239.478 146.12 239.478 146.12L259.205 183.787L309.203 210.469C309.203 210.469 302.393 170.053 301.533 163.405C300.624 156.763 295.983 143.465 304.155 136.593C312.378 129.728 325.448 120.864 328.323 119.978C331.198 119.088 331.904 116.93 331.904 116.93L333.217 117.539L333.224 117.519Z" fill="white"/>
<path d="M186.455 142.619C186.555 142.689 186.605 142.735 186.709 142.785C187.565 143.225 188.424 143.608 189.331 143.925C189.231 142.875 189.181 141.836 189.127 140.797C188.724 140.58 188.271 140.367 187.815 140.147C187.412 139.934 187.058 139.941 186.755 140.077C185.846 140.467 185.546 141.913 186.452 142.619H186.455Z" fill="#161616"/>
<path d="M132.823 97.4729C132.923 96.78 133.629 96.1371 134.385 96.3037C138.573 97.2664 142.155 99.6448 145.889 101.667C146.393 101.94 146.746 102.373 146.746 102.972C146.746 103.519 146.393 104.055 145.889 104.248C144.024 104.905 142.208 105.634 140.339 106.23C138.473 106.837 136.504 107.366 134.485 107.283C133.779 107.253 133.223 106.407 133.326 105.714C133.476 104.901 134.132 104.528 134.888 104.545C134.685 104.541 135.142 104.535 135.242 104.531C135.445 104.521 135.645 104.505 135.798 104.481C136.251 104.431 136.707 104.355 137.111 104.258C137.917 104.085 138.826 103.815 139.683 103.532C140.489 103.266 141.298 102.976 142.055 102.679C139.483 101.19 136.907 99.708 133.982 99.0418C133.276 98.8719 132.72 98.2557 132.823 97.4729Z" fill="#161616"/>
<path d="M161.278 87.8559C161.681 86.5635 163.55 85.6974 164.607 85.1877C165.06 84.9912 165.666 85.0811 166.019 85.3909C167.885 87.0465 170.207 88.6654 172.882 88.6054C175.354 88.5454 177.27 87.0764 179.239 85.7607C180.752 84.768 182.114 86.7533 180.855 87.9458C178.836 89.8679 175.811 91.3768 172.986 91.4102C169.957 91.4568 167.285 90.0378 164.963 88.1757C164.71 88.3256 164.46 88.4888 164.207 88.6754C164.053 88.7919 163.904 88.9219 163.754 89.0384C163.904 88.9119 163.604 89.4182 163.804 88.9318C163.047 90.5707 160.725 89.5314 161.282 87.8559H161.278Z" fill="#161616"/>
<path d="M200.885 85.2444C201.541 84.7614 202.297 84.9779 202.8 85.5176C202.547 85.2344 202.8 85.5109 202.85 85.5675C202.95 85.6475 203.054 85.7241 203.104 85.794C203.204 85.8507 203.507 86.0372 203.557 86.0572C203.96 86.2637 204.363 86.4336 204.766 86.5768C204.969 86.6268 205.119 86.6568 205.219 86.6768C205.472 86.7334 205.722 86.7667 206.025 86.7934C206.125 86.8067 206.229 86.82 206.379 86.8233C206.379 86.8233 206.478 86.8233 206.528 86.83C206.782 86.8233 206.982 86.8133 207.185 86.7934C207.438 86.7667 207.688 86.7167 207.941 86.6834C208.091 86.6235 208.194 86.5968 208.294 86.5635C208.497 86.4936 208.697 86.4036 208.951 86.3004C209.1 86.1704 209.204 86.1138 209.304 86.0472C209.607 85.7241 209.707 85.6242 209.757 85.5342C209.907 85.2677 209.96 85.1012 210.06 84.9246C210.06 84.868 210.06 84.7647 210.06 84.7281C210.11 84.5682 210.11 84.405 210.16 84.2451C210.26 83.1092 211.573 82.8127 212.379 83.3424C211.926 83.0592 212.329 83.2957 212.479 83.3557C212.529 83.3923 212.629 83.4223 212.682 83.4556C212.985 83.3657 213.288 83.3657 213.592 83.5223C214.198 83.8853 214.751 84.2784 214.751 85.1078C214.751 86.0405 213.895 86.6102 213.035 86.4802C212.832 86.4503 212.632 86.4103 212.479 86.3537C211.623 88.1758 209.704 89.3083 207.635 89.5515C205.113 89.8446 202.337 89.0485 200.572 87.1564C200.118 86.6168 200.318 85.6541 200.875 85.2511L200.885 85.2444Z" fill="#161616"/>
<path d="M203.963 102.799C201.994 102.982 199.928 102.946 197.91 102.956C197.153 102.962 196.597 103.829 196.7 104.528C196.75 105.351 197.506 105.791 198.263 105.781C201.291 105.774 204.316 105.87 207.295 105.171C208.504 104.878 208.961 103.512 208.001 102.629C204.923 99.8912 201.897 97.0332 199.675 93.5389C197.86 90.6775 196.9 87.4264 196.597 84.0753C196.394 82.3698 196.244 80.591 196.547 78.8789C196.75 77.4065 197.253 75.9942 197.86 74.6351C199.122 71.9469 201.038 69.1821 203.713 67.7131C206.235 66.3407 208.861 66.977 210.93 69.1155C211.079 69.312 211.889 69.5286 212.645 69.6818C213.252 69.8084 213.705 69.1122 213.352 68.6059C212.849 67.9197 212.342 67.2834 211.789 66.5539C211.336 65.9843 211.336 65.3281 210.88 64.7818C210.626 64.7152 210.073 63.7059 209.77 63.6726C207.854 63.4261 203.667 64.5253 202.051 65.4847C198.922 67.2801 196.653 70.5079 195.188 73.7257C194.481 75.2747 193.925 76.9502 193.725 78.649C193.422 80.671 193.575 82.8362 193.825 84.8648C194.278 88.7755 195.541 92.4763 197.71 95.7507C199.475 98.3623 201.694 100.647 203.966 102.799H203.963Z" fill="#161616"/>
<path d="M194.678 119.098C197.2 120.6 200.482 121.297 203.104 119.874C203.557 119.608 204.263 119.008 204.719 118.435C205.123 117.922 205.426 117.356 205.679 116.756C200.635 114.984 195.184 114.974 190.037 113.645C190.793 115.924 192.559 117.806 194.678 119.098ZM188.774 110.347C194.778 112.516 201.388 112.103 207.391 114.425C207.745 114.561 207.948 114.781 208.098 115.034C208.704 115.397 208.854 116.097 208.654 116.763C207.445 120.923 203.86 123.552 199.572 123.432C195.587 123.325 191.703 121.12 189.281 118.035C187.918 116.253 186.958 114.071 186.859 111.796C186.759 110.72 187.768 109.981 188.774 110.347Z" fill="#161616"/>
<path d="M170.917 70.581C171.067 70.5977 171.17 70.611 171.32 70.6377C174.851 71.2273 178.383 72.4798 181.561 74.2053C182.218 74.5617 183.124 74.1086 183.377 73.4791C183.68 72.7362 183.277 72.0401 182.671 71.677C179.592 69.9248 176.161 68.689 172.682 68.0261C172.379 68.4791 172.076 68.9288 171.773 69.3719C171.47 69.7816 171.217 70.178 170.917 70.581Z" fill="#161616"/>
<path d="M199.069 203.058C199.372 203.207 199.625 203.344 199.925 203.477C200.128 202.518 200.278 201.539 200.378 200.546C200.328 200.509 200.278 200.476 200.175 200.439C199.519 200.083 198.612 200.536 198.309 201.195C198.006 201.952 198.409 202.698 199.066 203.058H199.069Z" fill="#161616"/>
<path d="M99.2733 288.989C99.4232 290.785 102.099 290.511 102.099 288.806C102.148 289.219 102.148 288.813 102.198 288.589C102.248 288.256 102.298 287.923 102.348 287.59C103.208 282.677 104.214 277.8 105.024 272.897C106.486 264.153 107.396 255.335 109.058 246.621C112.287 229.413 114.306 211.992 117.787 194.833C119.15 188.284 120.409 181.486 124.094 175.766C127.122 171.066 131.56 167.452 137.161 166.429C143.164 165.33 149.471 166.722 154.971 169.114C160.875 171.686 166.172 175.526 170.863 179.94C175.658 184.484 179.845 189.757 183.274 195.41C186.452 200.596 189.077 206.265 190.54 212.181C190.44 212.604 190.54 213.094 190.743 213.414C191.246 214.08 192.106 214.083 192.762 213.697C209.817 203.674 195.587 180.107 183.68 171.612C178.283 167.775 174.801 162.955 174.648 156.409C174.395 146.033 170.56 139.751 162.035 134.254C153.812 128.998 145.536 122.919 147.402 111.943C147.402 111.826 147.352 111.726 147.302 111.63C147.805 111.08 148.262 110.491 148.715 109.864C149.674 108.375 147.452 106.657 146.496 108.149C145.133 110.148 143.317 111.843 140.895 112.296C138.676 112.719 136.508 112.209 134.539 111.2C130.804 109.315 127.779 105.494 127.022 101.364C126.316 97.696 127.526 94.3816 130.251 92.2797C134.842 88.8054 140.342 90.4043 143.974 94.3583C146.246 96.8 151.693 103.599 153.509 103.086C156.687 102.176 156.081 97.8326 155.778 95.5741C155.375 92.4829 154.515 89.3584 153.102 86.5603C153.859 86.0573 154.615 85.561 155.371 85.0613C158.45 83.0227 161.475 80.8941 164.2 78.4092C166.772 76.0541 168.891 73.3959 170.91 70.5845C171.213 70.1814 171.466 69.7817 171.766 69.3753C172.069 68.9323 172.373 68.4826 172.676 68.0296C176.814 61.8204 180.295 54.9651 181.355 47.5135C185.289 47.1438 189.174 48.9326 192.506 50.8646C196.037 52.9065 199.216 55.4581 202.244 58.1829C205.322 60.9777 208.651 63.6059 210.72 67.2368C213.192 71.6771 215.211 76.3772 216.773 81.2139C219.902 90.8907 221.214 101.164 220.455 111.32C219.848 119.781 217.729 128.495 212.079 134.867C206.528 141.233 196.793 144.527 189.174 140.793C189.73 150.54 191.746 160.193 195.078 169.361C196.237 172.495 197.45 177.598 200.678 178.568C203.1 179.314 205.169 178.851 207.641 178.055C226.308 171.942 250.123 177.798 264.652 184.743C261.574 177.465 258.445 169.973 258.195 162.069C257.992 157.236 258.902 152.262 257.489 147.642C255.167 140.15 247.501 135.717 243.363 129.068C235.037 115.767 239.931 99.8712 236.753 85.5709C234.734 76.4805 230.849 66.5272 224.139 59.8085C215.361 51.0678 207.085 44.4523 195.784 38.9394C177.57 30.1054 157.237 24.3926 137.914 31.7343C127.975 35.5383 119.146 42.9266 114.905 52.8665C110.364 63.4493 110.971 75.5611 112.786 86.6702C114.905 99.4781 118.69 111.963 122.222 124.438C124.137 131.237 125.853 138.079 127.722 144.887C129.438 151.223 131.104 157.852 130.751 164.464C130.751 164.887 130.85 165.227 131.104 165.477C131.71 165.17 132.366 164.89 132.969 164.644C133.173 164.584 133.323 164.524 133.472 164.474C133.472 164.6 133.472 164.73 133.472 164.857C133.423 166.209 131.807 166.296 131.1 165.477C126.306 167.878 122.675 172.059 120.203 176.802C118.74 179.58 117.731 182.548 116.924 185.573C115.865 189.773 115.009 194.057 114.199 198.314C112.483 207.182 111.121 216.115 109.758 225.036C109.052 229.496 108.345 233.963 107.589 238.414C106.833 242.877 105.923 247.311 105.217 251.781C103.904 260.029 102.948 268.323 101.432 276.534C100.979 279.076 100.523 281.624 100.02 284.172C99.8164 285.215 99.6664 286.261 99.4632 287.304C99.4132 287.84 99.21 288.44 99.26 288.993L99.2733 288.989Z" fill="#161616"/>
<path d="M131.107 165.47C131.813 166.286 133.429 166.203 133.479 164.85C133.479 164.724 133.479 164.594 133.479 164.467C133.329 164.517 133.176 164.577 132.976 164.637C132.37 164.884 131.713 165.16 131.11 165.47H131.107Z" fill="#161616"/>
<path d="M145.386 291.727C145.993 289.768 146.699 287.843 147.405 285.911C149.021 281.181 149.877 276.224 151.14 271.358C152.653 265.378 154.269 259.422 155.934 253.473C156.741 250.492 157.55 247.521 158.456 244.559C159.113 242.351 159.616 240.039 160.425 237.88C160.828 236.805 161.385 235.692 162.291 234.926C162.897 234.356 163.804 233.973 164.613 233.643C165.369 233.317 166.329 232.937 167.235 233.054C168.548 233.23 168.901 234.546 168.245 235.555C167.892 236.172 167.185 236.192 166.579 235.912C166.326 235.988 166.126 236.068 165.873 236.158C165.216 236.405 164.61 236.668 164.207 236.994C163.954 237.141 163.904 237.241 163.65 237.611C163.447 237.967 163.247 238.367 163.094 238.757C162.741 239.646 162.488 240.569 162.288 241.491C160.975 246.491 159.363 251.428 158.05 256.418C156.587 261.791 155.075 267.164 153.762 272.567C152.603 277.03 151.846 281.617 150.38 285.984C149.724 287.953 148.968 289.895 148.362 291.867C148.108 292.68 147.858 293.496 147.655 294.329C147.555 294.655 147.505 294.988 147.452 295.331C147.452 295.468 147.452 295.608 147.402 295.751C147.605 297.703 144.93 297.986 144.627 296.201C144.374 294.738 144.98 293.1 145.383 291.727H145.386Z" fill="#161616"/>
<path d="M331.305 117.736C332.214 115.187 332.214 112.196 332.264 109.495C332.314 106.373 332.264 103.229 332.617 100.121C333.07 96.2303 333.727 92.333 334.433 88.4823C334.786 86.4703 335.189 84.4617 335.696 82.4697C336.099 80.8142 336.502 79.1186 337.362 77.6063C338.371 75.7043 340.287 73.5491 342.709 74.3686C345.081 75.1747 345.737 78.2293 345.887 80.4377C346.037 83.5256 345.534 86.6835 345.081 89.7281C344.578 93.0791 344.021 96.4135 343.518 99.7679C342.509 106.637 341.549 114.235 344.175 120.874C344.831 122.519 342.309 123.502 341.603 121.873C339.231 116.293 339.534 109.798 340.14 103.888C340.846 97.5461 342.209 91.2937 342.815 84.948C342.965 83.5656 343.119 82.1533 343.069 80.7575C343.019 80.0913 342.969 79.4051 342.815 78.7589C342.715 78.3792 342.412 77.7462 342.362 77.623C342.312 77.563 342.109 77.2999 342.109 77.2632C342.009 77.1866 341.906 77.1167 341.856 77.0567C341.453 77.0667 341.3 77.1367 341.25 77.1633C341.503 77.0367 340.996 77.3399 340.946 77.3965C340.743 77.5564 340.796 77.4964 340.593 77.7496C340.39 77.9927 340.24 78.2326 340.09 78.4957C339.284 79.7782 338.881 81.2805 338.528 82.7229C338.074 84.6082 337.671 86.5103 337.318 88.419C336.612 92.1931 336.056 95.9905 335.552 99.7846C335.049 103.082 335.149 106.45 335.099 109.768C334.999 112.739 335.049 116.037 333.89 118.822C333.184 120.487 330.712 119.418 331.318 117.736H331.305Z" fill="#161616"/>
<path d="M299.671 156.483C299.974 159.837 300.327 163.181 300.78 166.516C301.133 169.151 301.487 171.779 301.89 174.397C302.143 175.966 302.393 177.525 302.596 179.084C304.059 188.174 305.674 197.235 306.987 206.345C307.897 212.554 308.3 218.817 309.156 225.029C309.609 228.314 310.115 231.618 311.022 234.816C311.475 236.482 312.384 239.599 314.703 239.23C316.369 238.963 316.216 236.611 314.803 236.415C314.753 236.338 314.703 236.275 314.653 236.202C314.653 236.132 314.603 236.055 314.553 235.985C314.35 235.515 314.2 235.042 314.05 234.553C313.95 234.26 313.847 233.967 313.747 233.673C313.747 233.524 313.697 233.38 313.647 233.23C313.647 233.17 313.597 233.104 313.597 233.034C313.447 232.308 313.244 231.601 313.144 230.899C312.488 227.524 312.035 224.12 311.631 220.716C311.228 217.624 310.925 214.52 310.622 211.425C310.219 207.738 309.662 204.08 309.109 200.423C308.15 194.32 307.09 188.221 306.081 182.115C305.878 180.709 305.628 179.297 305.425 177.878C304.568 172.572 303.809 167.255 303.206 161.912C302.803 158.688 302.499 155.457 302.296 152.212C302.093 149.714 301.893 147.232 302.346 144.751C303.052 140.987 305.325 138.072 308.25 135.737C310.016 134.344 311.931 133.208 313.8 131.943C315.919 130.514 317.888 128.885 319.854 127.292C323.689 124.201 327.723 120.81 332.567 119.564C334.08 119.175 333.424 116.61 331.911 116.91C330.702 117.163 329.539 117.529 328.429 118.035C323.435 120.271 319.347 124.065 315.06 127.382C311.375 130.264 307.137 132.396 303.859 135.79C300.83 138.861 299.318 142.862 299.168 147.129C299.068 150.24 299.371 153.385 299.671 156.483Z" fill="#161616"/>
<path d="M358.601 78.9087C358.501 79.008 358.452 78.998 358.601 78.9087V78.9087Z" fill="#161616"/>
<path d="M340.54 115.66C341.699 113.548 342.356 111.117 343.112 108.845C344.321 105.177 345.484 101.5 346.743 97.8424C348.006 94.0084 349.315 90.181 350.881 86.4435C352.041 83.6188 353.303 80.6075 355.269 78.2025C355.925 77.3697 356.732 76.5536 357.741 76.1839C358.901 75.7508 360.01 76.1572 361.019 76.8401C363.238 78.3724 363.995 81.2071 363.995 83.782C364.045 87.2963 363.188 90.7539 362.229 94.1117C361.119 98.0823 359.657 101.956 358.194 105.8C356.782 109.451 355.269 113.075 353.906 116.736C353.3 118.229 352.747 119.731 352.291 121.257C352.191 121.553 352.087 121.863 351.987 122.159C351.937 122.529 351.887 122.699 351.837 122.869C351.688 123.372 351.584 123.891 351.534 124.411C351.484 124.614 351.484 124.821 351.484 125.027C351.484 125.147 351.484 125.24 351.484 125.334C351.634 127.096 348.912 127.419 348.759 125.647C348.556 123.322 349.465 120.853 350.222 118.695C351.331 115.361 352.694 112.093 354.006 108.812C355.469 105.074 356.932 101.327 358.244 97.5127C359.404 94.0684 360.463 90.6873 360.969 87.0665C361.173 85.5142 361.273 84.4316 361.119 83.0259C361.119 82.7227 361.069 82.4196 361.019 82.1265C361.019 81.9799 360.969 81.8433 360.919 81.6968C360.919 81.5968 360.919 81.5202 360.87 81.4503C360.82 81.1938 360.716 80.9406 360.616 80.6941C360.566 80.5775 360.516 80.4609 360.466 80.3444C360.263 80.0212 360.063 79.8247 359.963 79.6282C359.813 79.4716 359.66 79.3817 359.56 79.2951C359.46 79.2185 359.357 79.1485 359.257 79.0719C359.054 78.9553 358.954 78.9053 358.854 78.8387C358.551 78.9053 358.501 78.9387 358.401 78.9953C358.351 79.0719 357.998 79.3484 357.998 79.3517C357.694 79.6848 357.391 80.0379 357.141 80.4076C356.992 80.6442 356.788 80.8807 356.638 81.1272C356.538 81.2537 356.488 81.3837 356.385 81.5169C356.385 81.5835 356.335 81.6535 356.285 81.7234C355.479 83.1358 354.823 84.5582 354.166 86.0005C352.654 89.5214 351.341 93.149 350.078 96.7798C348.816 100.477 347.606 104.201 346.447 107.912C345.591 110.53 344.781 113.192 343.672 115.727C343.522 116.08 343.368 116.426 343.169 116.76C342.815 117.439 342.059 117.846 341.303 117.522C340.647 117.246 340.193 116.333 340.547 115.65L340.54 115.66Z" fill="#161616"/>
<path d="M364.301 103.908C366.117 100.091 367.629 96.0538 368.389 91.8666C368.892 88.7055 368.995 85.6875 367.833 82.7395C367.529 82.0633 367.28 81.5437 366.923 81.0107C366.873 80.9241 366.823 80.8408 366.72 80.7542C366.72 80.7176 366.467 80.4311 366.467 80.4378C366.367 80.3412 366.113 80.1613 366.064 80.1113C365.71 80.0847 365.61 80.138 365.56 80.1513C364.954 80.5643 364.501 81.3605 364.098 82.0467C363.242 83.3991 361.019 82.0567 361.676 80.6343C362.432 79.1553 363.591 77.4964 365.361 77.2199C366.773 76.9934 367.983 77.7762 368.842 78.8022C370.608 80.8408 371.567 84.0286 371.617 86.6768C371.921 96.2903 366.926 104.801 362.789 113.099C360.52 117.579 358.601 122.189 358.148 127.233C357.998 129.001 355.372 128.575 355.472 126.843C355.875 118.518 360.77 111.2 364.301 103.905V103.908Z" fill="#161616"/>
<path d="M328.683 159.977C330.249 156.046 332.771 152.475 335.443 149.238C338.318 145.747 341.546 142.539 344.978 139.598C348.056 136.959 351.488 134.774 354.766 132.392C356.329 131.243 357.894 130.037 359.307 128.695C360.873 127.233 362.132 125.554 363.342 123.838C366.067 120.131 369.092 116.676 372.02 113.166C374.493 110.224 376.765 107.096 379.287 104.228C380.296 103.082 381.356 101.917 382.162 100.631C382.515 100.114 382.818 99.5648 383.022 98.9752C383.071 98.8153 383.121 98.702 383.121 98.4755C383.121 98.5155 383.121 98.3556 383.121 98.2623C383.071 98.1924 382.972 97.9892 382.972 97.9792C382.518 97.0198 381.559 96.8533 380.4 96.9765C379.087 97.1164 377.828 97.5828 376.665 98.1524C373.586 99.6414 370.914 102.519 368.692 105.114C366.27 107.909 363.948 110.917 362.182 114.178C361.376 115.72 358.854 114.671 359.66 113.102C361.326 109.981 363.395 107.073 365.664 104.355C367.986 101.537 370.558 98.6987 373.636 96.6534C376.008 95.0745 379.287 93.6221 382.162 94.1651C383.828 94.4782 385.24 95.5642 385.793 97.1864C386.297 98.6187 385.793 100.131 385.087 101.404C383.525 104.172 381.103 106.333 379.233 108.855C376.258 112.766 373.027 116.413 369.898 120.174C368.386 122.029 366.87 123.912 365.457 125.86C364.095 127.716 362.682 129.428 361.016 131.007C357.988 133.858 354.456 136.087 351.078 138.508C346.94 141.48 343.105 144.924 339.677 148.711C336.349 152.425 333.32 156.479 331.301 161.08C330.595 162.758 328.023 161.676 328.679 159.974L328.683 159.977Z" fill="#161616"/>
<path d="M266.021 245.898C266.931 246.378 267.837 246.851 268.747 247.337C272.835 249.453 276.919 251.551 281.057 253.513C288.473 256.997 296.193 259.682 303.912 262.244C311.631 264.795 319.604 266.904 327.776 266.834C334.889 266.777 342.559 265.069 348.059 260.329C352.65 256.395 355.426 250.895 356.635 245.029C358.048 238.037 357.088 230.682 355.576 223.797C353.81 215.782 350.985 208.067 348.159 200.386C346.847 196.932 345.587 193.514 344.021 190.17C342.406 186.779 340.743 183.441 339.077 180.076C338.521 178.941 337.968 177.791 337.412 176.632C336.855 175.37 336.252 174.104 335.696 172.825C333.93 168.648 332.467 164.344 331.861 159.864C331.658 158.118 328.986 158.421 329.186 160.17C329.389 161.839 329.689 163.494 330.095 165.12C331.105 169.094 332.617 172.915 334.283 176.652C334.786 177.698 335.243 178.737 335.746 179.773C336.602 181.539 337.461 183.291 338.368 185.033C339.93 188.248 341.496 191.449 342.909 194.74C344.371 198.194 345.584 201.768 346.893 205.303C349.569 212.798 352.191 220.402 353.503 228.29C354.563 234.646 354.966 241.321 352.947 247.534C351.231 252.877 347.903 257.564 342.959 260.359C336.552 263.986 328.479 264.429 321.313 263.516C313.39 262.517 305.824 259.839 298.305 257.201C294.57 255.885 290.789 254.589 287.104 253.014C283.419 251.431 279.788 249.669 276.206 247.854C273.784 246.618 271.312 245.365 268.89 244.116C267.93 243.627 266.974 243.137 266.065 242.654C266.065 243.736 266.065 244.822 266.015 245.902L266.021 245.898Z" fill="#161616"/>
<path d="M186.759 140.077C186.962 139.821 187.262 139.634 187.618 139.587C188.324 139.517 189.131 140.037 189.131 140.767C189.181 141.836 189.231 142.875 189.334 143.924C189.434 145.287 189.637 146.649 189.837 147.995C190.29 151.469 190.946 154.93 191.753 158.341C192.609 161.852 193.618 165.413 195.031 168.777C195.384 169.59 195.737 170.393 196.09 171.179C196.494 171.955 196.747 172.485 197.15 173.091C197.503 173.741 197.956 174.384 198.413 174.987C198.563 175.243 198.816 175.503 199.019 175.749C199.119 175.876 199.222 175.996 199.322 176.122C199.372 176.182 199.422 176.242 199.525 176.316C200.028 176.815 200.585 177.238 201.141 177.618C201.191 177.665 201.291 177.695 201.344 177.728C201.494 177.795 201.598 177.865 201.748 177.931C201.951 178.001 202.101 178.051 202.251 178.118C202.704 178.234 203.007 178.278 203.31 178.314C203.36 178.321 203.41 178.321 203.513 178.324C203.717 178.314 203.866 178.304 204.016 178.288C205.226 176.992 207.195 176.362 208.761 175.799C209.82 175.426 210.88 175.083 211.939 174.777C212.545 174.594 213.148 174.427 213.755 174.274C214.864 173.971 216.027 173.687 217.186 173.421C219.808 172.811 222.434 172.362 225.209 172.262C229.497 172.102 233.785 172.555 237.972 173.534C246.145 175.46 253.814 179.104 261.28 182.831C261.434 182.901 261.584 182.971 261.734 183.048C262.793 183.557 263.802 184.08 264.762 184.62C271.825 188.354 278.485 192.711 285.298 196.778C293.167 201.455 302.05 204.676 309.213 210.449C310.625 211.565 308.959 213.707 307.547 212.628C301.29 207.824 293.924 204.87 287.064 201.062C279.444 196.828 272.232 191.855 264.562 187.695C260.777 185.666 256.943 183.794 253.058 182.008C249.323 180.29 245.542 178.704 241.604 177.465C234.741 175.306 227.324 174.327 220.161 175.689C219.102 175.896 218.043 176.129 216.983 176.379C215.824 176.642 214.714 176.939 213.601 177.262C212.945 177.452 212.239 177.651 211.632 177.851C206.992 179.29 203.56 182.895 198.969 179.593C196.447 177.748 194.731 174.797 193.418 172.002C190.14 165.137 188.424 157.409 187.315 149.934C186.912 147.522 186.559 145.07 186.459 142.625C186.459 142.116 186.409 141.613 186.409 141.113C186.409 140.73 186.509 140.36 186.762 140.084L186.759 140.077Z" fill="#161616"/>
<path d="M199.069 203.057C199.372 203.207 199.625 203.344 199.925 203.477C203.104 204.936 206.788 205.373 210.217 205.036C213.545 204.73 217.026 203.594 219.449 201.272C222.071 198.824 223.133 195.616 223.08 192.105C223.03 188.487 222.021 184.77 220.458 181.522C219.602 179.697 218.439 177.825 216.976 176.376C216.017 175.463 214.957 174.72 213.748 174.274C212.839 173.967 212.236 174.277 211.932 174.777C211.479 175.426 211.529 176.382 212.489 176.735C212.892 176.882 213.245 177.052 213.598 177.258C215.97 178.671 217.483 181.485 218.492 184.007C219.602 186.829 220.358 190.01 220.208 193.061C220.058 195.872 218.895 198.281 216.627 199.9C212.186 203.104 205.226 203.001 200.382 200.539C200.332 200.503 200.282 200.469 200.178 200.433C199.522 200.076 198.616 200.529 198.313 201.189C198.01 201.945 198.413 202.691 199.069 203.051V203.057Z" fill="#161616"/>
<path d="M131.107 165.47C131.813 166.286 133.429 166.203 133.479 164.85C133.479 164.724 133.479 164.594 133.479 164.467C133.329 164.517 133.176 164.577 132.976 164.637C132.37 164.884 131.713 165.16 131.11 165.47H131.107Z" fill="#161616"/>
<path d="M261.277 182.828C261.53 183.851 261.78 184.86 262.237 185.763C263.043 187.358 265.365 186.469 264.809 184.753C263.799 184.077 262.79 183.554 261.73 183.045C261.58 182.968 261.427 182.898 261.277 182.828Z" fill="#161616"/>
<path d="M246.798 209.02C248.414 212.205 251.189 214.637 253.608 217.231C258.855 222.961 264.002 229.893 265.515 237.711C265.818 239.336 266.018 240.989 266.071 242.651C266.071 243.733 266.071 244.819 266.021 245.899C265.971 247.008 265.818 248.117 265.668 249.213C265.215 252.771 264.256 256.155 262.187 259.136C260.218 261.961 257.796 264.433 256.03 267.401C255.274 268.723 254.567 270.115 254.364 271.644C254.161 272.98 254.264 274.379 254.464 275.702C254.967 278.823 256.026 281.857 257.239 284.752C258.299 287.314 259.458 289.845 260.871 292.237C261.677 293.593 263.999 292.284 263.293 290.901C261.93 288.146 260.518 285.408 259.408 282.534C258.249 279.579 257.086 276.328 257.086 273.117C257.136 270.362 258.902 268.017 260.617 265.848C262.736 263.12 265.109 260.485 266.521 257.284C267.884 254.216 268.49 250.712 268.74 247.348C268.79 247.004 268.79 246.668 268.84 246.335C268.89 245.599 268.89 244.856 268.89 244.126C268.94 241.015 268.587 237.911 267.731 234.909C265.612 227.228 260.514 220.489 255.117 214.773C253.148 212.684 250.829 210.646 249.417 208.104C247.904 205.416 248.307 202.501 249.317 199.72C249.923 198.064 247.451 196.992 246.795 198.651C245.585 202.045 245.079 205.703 246.795 209.03L246.798 209.02Z" fill="#161616"/>
<path d="M154.012 270.295C155.628 274.779 157.493 279.199 159.512 283.513C160.522 285.651 161.631 287.777 162.791 289.839C163.85 291.701 165.063 293.436 166.222 295.205C167.232 296.697 165.163 298.246 164.003 296.874C162.641 295.235 161.531 293.273 160.472 291.414C159.209 289.246 158.1 287.03 157.04 284.782C154.971 280.388 153.056 275.888 151.44 271.295C150.884 269.636 153.409 268.626 154.012 270.295Z" fill="#161616"/>
<path d="M301.893 174.394C302.146 175.963 302.396 177.522 302.599 179.081C303.052 179.51 303.509 179.927 304.012 180.346C304.668 180.956 305.375 181.546 306.081 182.112C308.25 183.791 310.672 185.213 313.297 186.076C316.979 187.292 321.017 187.555 324.851 186.789C328.233 186.099 331.411 184.56 333.883 182.079C334.59 181.372 335.196 180.6 335.749 179.774C336.405 178.791 336.958 177.735 337.415 176.632C336.858 175.37 336.255 174.104 335.699 172.825C335.396 174.151 334.943 175.443 334.286 176.652C333.48 178.318 332.317 179.81 330.805 181.016C325.761 185.127 318.041 185.263 312.288 182.605C309.716 181.429 307.493 179.764 305.425 177.878C304.215 176.772 303.052 175.6 301.893 174.397V174.394Z" fill="#161616"/>
<path d="M233.831 110.87C233.981 109.095 236.706 109.505 236.556 111.263C236.303 114.385 237.313 117.539 238.525 120.364C239.838 123.319 241.554 126.133 243.673 128.575C247.557 133.105 253.814 134.411 258.305 138.235C263.806 142.922 265.218 150.797 262.543 157.362C261.434 160.097 259.818 162.662 259.565 165.68C259.361 168.241 260.827 170.407 262.49 172.209C265.012 174.913 267.99 177.125 270.359 179.997C272.328 182.368 273.741 185.107 274.294 188.101C274.697 188.484 274.797 189.09 274.597 189.667C274.547 189.787 274.547 190.15 274.497 189.92C274.597 191.755 271.772 192.098 271.622 190.243C271.269 183.424 265.768 179.414 261.277 175.01C259.108 172.911 257.189 170.45 256.786 167.389C256.383 164.614 257.392 161.836 258.502 159.337C259.158 157.778 260.014 156.279 260.471 154.631C260.924 153.002 261.077 151.27 260.974 149.587C260.721 146.313 259.358 143.038 256.886 140.803C252.395 136.713 246.088 135.377 241.9 130.85C239.428 128.182 237.459 124.947 236.047 121.633C234.534 118.279 233.525 114.565 233.828 110.867L233.831 110.87Z" fill="#161616"/>
<path d="M146.193 110.097C146.596 108.362 149.321 108.735 148.968 110.491C148.112 114.818 149.371 119.141 151.996 122.629C153.309 124.394 154.971 125.893 156.791 127.103C158.506 128.222 160.422 128.978 162.291 129.737C165.923 131.19 169.607 132.522 172.786 134.707C176.114 136.973 178.536 140.25 179.546 144.161C180.252 146.729 180.455 149.357 180.049 151.996C179.646 154.527 178.636 156.889 178.183 159.387C177.327 163.798 182.068 166.945 185.246 169.037C187.365 170.46 189.634 171.802 191.503 173.561C193.369 175.276 194.934 177.255 196.297 179.387C198.566 183.018 200.788 186.985 201.997 191.126C203.913 197.744 203.966 206.668 197.406 210.809C196.6 211.345 195.691 211.772 194.731 212.101C193.015 212.708 191.956 210.083 193.722 209.443C196.8 208.294 198.919 206.009 199.775 202.831C200.631 199.547 200.278 195.919 199.422 192.671C198.363 188.747 196.394 185.04 194.275 181.582C193.012 179.504 191.549 177.495 189.784 175.833C187.918 174.104 185.696 172.781 183.577 171.382C181.458 169.99 179.489 168.458 177.773 166.569C176.411 165.067 175.351 163.251 175.201 161.186C174.998 158.728 176.111 156.439 176.664 154.104C177.27 151.752 177.573 149.404 177.22 146.986C176.664 143.032 174.798 139.677 171.57 137.319C168.541 135.13 164.91 133.878 161.478 132.496C159.612 131.723 157.643 130.943 155.878 129.887C153.962 128.738 152.246 127.272 150.73 125.59C147.805 122.296 145.836 117.912 145.836 113.459C145.886 112.323 145.986 111.21 146.189 110.097H146.193Z" fill="#161616"/>
<path d="M8.5564 121.024C10.3221 114.724 16.3757 111.933 22.4326 111.207C30.202 110.267 38.0746 109.804 45.894 109.774C54.1164 109.738 62.4422 110.131 70.5147 111.873C73.8963 112.609 77.2746 113.595 80.4529 115.014C82.1188 115.76 81.0093 118.375 79.3435 117.629C72.6336 114.611 65.1141 113.542 57.8012 112.989C49.7287 112.379 41.6062 112.529 33.5337 113.059C30.0521 113.285 26.6205 113.582 23.1923 113.972C20.0139 114.331 16.7355 115.071 14.2635 117.146C9.82242 120.797 10.4288 127.049 12.2445 131.886C14.9198 138.945 20.417 144.941 25.7676 150.107C31.9744 156.106 38.9875 161.206 46.2504 165.756C53.6666 170.337 61.3361 174.367 69.0055 178.351C77.7343 182.851 86.4632 187.198 95.442 191.169C132.07 207.421 171.223 218.171 210.526 225.559C230.303 229.276 250.283 231.971 270.362 233.584C280.504 234.396 290.595 234.896 300.734 235.526C311.178 236.175 321.673 236.798 332.164 236.985C340.69 237.131 349.419 237.428 357.894 236.122C364.504 235.109 373.333 232.611 376.308 225.882C378.527 220.782 376.005 215.106 373.13 210.849C369.598 205.719 364.904 201.385 359.81 197.885C357.641 196.416 355.419 195.11 353 194.107C351.384 193.428 352.444 190.899 354.06 191.569C359.61 193.854 364.604 197.581 368.942 201.709C373.383 205.972 377.671 211.172 379.337 217.225C380.899 222.944 379.287 228.427 374.796 232.318C368.489 237.741 359.51 239.146 351.488 239.626C341.903 240.196 332.214 239.883 322.629 239.516C311.681 239.096 300.784 238.327 289.836 237.671C268.647 236.398 247.557 234.523 226.568 231.205C205.832 227.917 185.296 223.494 165.016 218.074C144.633 212.631 124.504 206.335 104.977 198.304C86.7631 190.813 68.9022 182.052 51.8009 172.302C44.0316 167.878 36.4621 163.052 29.6023 157.329C23.0923 151.906 16.5856 145.55 12.1945 138.215C9.21939 133.192 6.89725 126.89 8.56305 121.03L8.5564 121.024Z" fill="#2220FF"/>
<path d="M286.201 65.5311C290.236 57.36 301.387 51.5373 310.215 59.5685C324.645 72.623 305.271 90.8039 290.639 81.7934C283.929 77.6929 283.422 71.074 286.198 65.5311H286.201Z" fill="#A1D2FF"/>
<path d="M265.212 109.255C267.481 110.874 270.056 111.963 272.628 112.919C275.906 114.138 279.288 115.104 282.67 115.98C288.22 117.429 294.174 118.992 299.974 119.088C300.983 119.108 301.943 118.678 302.346 117.762C302.849 117.586 303.256 117.203 303.555 116.53C305.221 111.956 305.574 106.91 304.465 102.17C303.456 97.9926 301.287 94.1085 297.855 91.4304C294.12 88.4757 288.926 87.1166 284.232 87.8894C274.544 89.485 269.046 98.832 264.555 106.623C264.052 107.449 264.505 108.732 265.212 109.255Z" fill="#A1D2FF"/>
<path d="M62.692 231.335C62.1889 233.737 61.9857 236.182 61.8358 238.633C61.7858 239.386 62.2389 240.106 63.0452 240.222C64.9109 240.489 66.8799 240.072 68.7456 239.563C70.9644 238.936 73.1866 238.044 75.3056 237.074C79.3935 235.222 83.3281 233.047 87.2128 230.815C87.8691 230.426 87.9191 229.376 87.466 228.823C87.2128 228.434 86.7597 228.277 86.3566 228.277C84.9939 225.922 82.875 224.02 80.5529 222.648C75.9619 219.929 69.0987 218.863 65.5672 223.817C63.9514 226.012 63.1951 228.72 62.692 231.332V231.335Z" fill="#2220FF"/>
<path d="M56.8417 211.515C57.598 213.634 58.9107 215.682 60.7764 216.998C64.0047 219.303 68.4458 219.083 71.5242 216.489C74.1462 214.233 75.209 211.039 75.1057 207.778C75.812 207.555 76.3684 206.865 76.0152 205.982C74.2495 201.342 69.7584 198.208 64.7643 198.188C60.8796 198.168 57.2482 200.463 56.2387 204.357C55.6323 206.709 56.0355 209.253 56.845 211.515H56.8417Z" fill="#2220FF"/>
<path d="M13.7538 161.273C20.5136 165.606 28.3863 167.865 34.843 172.562C35.4493 172.961 36.4055 172.961 36.812 172.309C39.4873 168.098 40.0903 163.042 40.3435 158.168C40.5967 153.225 40.3435 148.192 41.303 143.308C41.403 142.899 41.303 142.565 41.0998 142.316C41.7061 141.293 40.7966 139.651 39.434 140.247C34.5398 142.362 30.0987 145.523 25.9642 148.801C21.8263 152.086 17.8417 155.62 13.8037 159.031C13.1474 159.567 12.9475 160.746 13.7538 161.269V161.273Z" fill="#2220FF"/>
<path d="M85.497 138.295C86.8097 135.783 89.5849 134.501 92.3068 134.648C93.6695 134.717 95.0821 135.247 96.0916 136.21C97.1011 137.212 97.6041 138.522 97.7074 139.907C97.8573 140.487 97.9606 141.103 97.9606 141.709C97.9606 142.609 97.7574 143.505 97.4043 144.308C96.7979 145.543 95.7884 146.466 94.579 147.066C92.2569 148.172 89.2817 147.809 87.3127 146.223C85.0439 144.411 84.1344 140.91 85.497 138.292V138.295Z" fill="#2220FF"/>
<path d="M258.452 31.1613C258.199 31.0114 257.949 30.7782 257.846 30.4618C257.039 27.8835 254.667 25.9415 251.942 25.8449C249.267 25.755 246.898 27.7303 246.038 30.1686C245.029 32.8168 246.291 35.6582 248.51 37.2505C250.729 38.8561 253.658 38.6828 255.827 37.0806C257.846 35.6016 258.652 33.4031 258.449 31.1646L258.452 31.1613ZM248.007 40.2351C244.576 38.4297 242.257 34.569 242.963 30.655C243.669 26.8476 246.848 23.5831 250.683 23.0668C253.508 22.6871 256.486 23.8596 258.402 25.9115C259.108 25.725 259.765 26.1181 260.068 26.7376C262.037 30.6217 261.734 35.3784 258.505 38.4863C255.73 41.1612 251.442 42.0639 248.011 40.2318L248.007 40.2351Z" fill="#2220FF"/>
<path d="M262.486 57.59C260.671 53.1098 257.289 48.3297 251.942 48.5295C246.341 48.7327 244.576 54.5588 243.719 59.2689C250.026 59.3555 256.333 58.7792 262.486 57.59ZM240.641 60.4514C241.447 55.3716 242.71 49.5822 247.604 46.8607C252.295 44.2724 257.846 46.361 261.227 50.0485C263.143 52.1104 264.406 54.6887 265.365 57.2969C265.818 57.5234 266.121 57.9898 266.171 58.4528C266.271 59.2889 265.668 59.8951 264.909 60.0584C257.339 61.6739 249.57 62.3168 241.85 62.0603C241.044 62.0337 240.488 61.141 240.641 60.4514Z" fill="#2220FF"/>
<path d="M370.911 177.981C371.97 174.83 373.939 172.009 376.711 170.06C373.736 167.645 371.111 164.873 368.842 161.822C368.539 165.137 367.126 168.334 364.604 170.6C367.28 172.532 369.398 175.083 370.911 177.978V177.981ZM361.426 169.577C365.614 166.842 367.38 160.936 365.361 156.376C365.057 155.926 364.857 155.473 364.604 155.01C363.898 153.638 366.17 152.362 366.976 153.684C367.076 153.791 367.126 153.901 367.18 154.008C367.18 154.064 367.23 154.114 367.28 154.167C367.38 154.421 367.533 154.667 367.633 154.93C370.508 160.237 374.496 164.893 379.237 168.604C380.246 168.171 381.003 169.054 381.003 169.93C381.206 170.047 381.356 170.167 381.559 170.283C382.972 171.276 381.306 173.431 379.843 172.442C379.54 172.245 379.287 172.032 378.987 171.832C375.152 174.164 372.73 178.704 372.83 183.198C373.033 184.167 373.183 185.15 373.283 186.142C373.383 187.621 371.064 188.387 370.608 186.802C370.608 186.685 370.558 186.565 370.558 186.452C370.305 185.543 370.205 184.723 370.155 183.894C369.045 178.871 365.917 174.46 361.426 171.782C360.67 171.329 360.77 170.027 361.426 169.574V169.577Z" fill="#2220FF"/>
<path d="M81.6123 79.0254C82.3186 76.5038 83.5813 74.1287 85.1938 72.0335C86.2533 70.6478 87.466 69.3853 88.7753 68.2194C83.478 65.9643 79.037 61.8571 76.2617 56.8138C76.3117 58.1862 76.2617 59.552 75.9586 60.9144C75.2023 63.8157 73.4365 66.837 70.7612 68.1128C74.8491 71.2407 78.5306 74.9215 81.609 79.0254H81.6123ZM67.4363 65.901C71.1177 66.4573 73.1367 61.957 73.4399 58.9557C73.6931 56.4774 73.1367 53.9225 72.8335 51.4708C72.5303 48.8926 72.4803 46.351 73.1367 43.8493C73.1866 43.7128 73.2366 43.5962 73.2366 43.4796C73.4398 42.83 74.2961 42.5169 74.9024 42.6935C75.6087 42.9066 75.9619 43.5096 75.9119 44.2257C75.5588 52.2503 80.1997 60.015 86.9096 64.2321C88.2223 65.0682 89.6849 65.7511 91.1974 66.2607C91.9537 65.7578 92.8133 66.1741 93.1664 66.8404C94.7323 67.33 94.3258 69.9116 92.6633 69.5152C92.3602 69.4486 92.107 69.3653 91.8071 69.282C88.0224 72.31 84.7441 76.3539 83.9878 81.2272C83.9378 81.5337 83.8878 81.8535 83.8345 82.1666C84.794 83.6189 85.7002 85.1113 86.5598 86.6469C87.7692 88.952 88.8286 91.3437 89.7382 93.7987C90.1413 94.8346 89.0319 96.1904 87.9224 95.5908C83.9878 93.4589 81.6157 89.375 81.1126 84.968C81.0626 84.3085 81.0126 83.6456 81.0626 82.9894C77.128 77.2732 72.1838 72.2966 66.3801 68.396C65.1708 67.5998 66.1269 65.7078 67.4396 65.9043L67.4363 65.901Z" fill="#2220FF"/>
</g>
<defs>
<clipPath id="clip0_8_1050">
<rect width="378" height="275" fill="white" transform="matrix(-1 0 0 1 386 23)"/>
</clipPath>
</defs>
</svg>
