<svg width="432" height="432" viewBox="0 0 432 432" fill="none" xmlns="http://www.w3.org/2000/svg">
<path d="M356.525 26.3459C354.97 26.3971 353.341 26.4541 351.718 26.511C329.174 27.2339 306.63 27.5755 284.085 27.4901C271.156 27.4389 258.226 27.2624 245.291 26.9493C238.723 26.8013 232.156 26.5508 225.589 26.2776C223.424 26.1808 221.254 26.1011 219.021 26.0043C218.953 24.6324 218.885 23.2662 218.748 21.8771C218.68 20.7329 218.611 19.5887 218.543 18.4331C218.475 17.75 218.406 17.0441 218.338 16.3609C218.338 15.8258 218.27 15.2736 218.27 14.7385C239.527 13.8846 260.784 13.9529 282.046 13.8163C292.134 13.7366 302.221 13.674 312.24 13.6C317.452 13.5715 322.532 13.5374 327.676 13.4975C332.415 13.4691 337.154 13.1617 341.824 13.5658C345.68 13.8846 349.542 14.9207 352.384 17.7215C353.672 18.9454 354.549 20.3914 355.227 21.9455C355.836 23.3459 356.241 24.843 356.514 26.3459H356.525Z" fill="#A1D2FF"/>
<path d="M320.038 101.222C320.038 102.201 319.565 102.861 318.887 103.209C318.819 103.732 318.75 104.256 318.682 104.763C313.47 100.812 306.561 99.6678 300.131 102.252C298.234 103.032 296.474 104.091 294.851 105.423C293.364 106.675 292.077 109.055 290.248 109.755C288.625 110.387 286.996 110.051 286.455 112.123C286.386 112.38 286.386 112.619 286.318 112.863C279.415 112.767 272.506 112.67 265.602 112.505C265.329 112.505 265.061 112.482 264.788 112.482C257.611 104.672 250.297 96.9524 242.853 89.3527C242.853 86.3185 243.531 83.1875 246.037 81.2121C247.729 79.8402 249.83 79.5328 251.926 79.4474C254.501 79.3449 257.002 79.2937 259.576 79.1855C264.719 78.9692 269.868 78.7643 275.012 78.5707C280.155 78.3601 285.304 78.1779 290.448 77.9901C293.221 77.8933 296.069 77.7339 298.843 77.8307C301.754 77.3183 304.733 77.2159 307.712 77.1362C310.958 77.0565 315.361 76.5555 317.936 79.0432C320.51 81.5822 319.969 86.0281 320.032 89.3185C320.1 93.2863 320.032 97.2484 320.032 101.222H320.038Z" fill="#A1D2FF"/>
<path d="M300.877 96.4911C299.589 96.7017 298.775 97.3962 297.562 97.9256C296.548 98.3469 295.528 98.5461 294.446 98.5461C291.94 98.5518 290.18 97.1685 288.352 95.6087C286.592 94.1286 284.626 92.5574 282.189 92.5233C279.751 92.4834 277.922 93.9123 276.367 95.5802C275.621 96.3089 274.943 97.1685 274.066 97.6865C272.847 98.4152 271.423 98.1989 270.074 97.789C267.368 96.9294 264.998 95.1305 262.219 94.2994C259.918 93.6049 257.48 93.7187 255.447 95.0053C253.618 96.1154 252.194 98.1135 252.872 100.277C253.208 101.597 254.968 101.461 255.378 100.277C257.611 94.4246 264.247 99.8782 267.63 101.307C270.068 102.32 272.773 102.747 275.28 101.694C277.313 100.806 278.526 99.0357 280.155 97.5955C281.915 96.0072 283.402 96.8212 285.099 98.1818C286.859 99.622 288.483 101.153 290.721 101.945C294.241 103.226 301.754 102.901 302.637 98.2387C302.842 97.1116 302.027 96.3146 300.877 96.5025V96.4911Z" fill="white"/>
<path d="M357.004 40.7086L356.867 55.4185C356.594 75.7186 356.394 96.0301 356.121 116.324C356.121 120.617 356.935 126.156 354.293 129.896C352.196 132.987 348.471 133.943 344.883 134.296C340.212 134.752 335.337 134.643 330.598 134.735C325.523 134.843 320.374 134.922 315.299 134.979C312.115 135.008 312.115 130.067 315.299 130.032C320.715 129.964 326.132 129.867 331.617 129.748C334.391 129.679 337.171 129.611 339.945 129.543C341.978 129.486 344.143 129.543 346.176 129.179C347.668 128.894 349.428 128.416 350.305 127.038C351.524 125.222 351.188 122.381 351.188 120.326C351.257 114.975 351.325 109.624 351.393 104.267C351.667 85.083 351.866 65.9101 352.071 46.7201C352.14 42.2229 352.208 37.7314 352.208 33.2285C352.208 31.0368 352.208 28.7085 351.735 26.5054C353.358 26.4542 354.987 26.3973 356.542 26.3403C356.611 26.8413 356.747 27.3479 356.816 27.8432C357.357 32.1013 357.089 36.4278 357.021 40.7086H357.004Z" fill="#A1D2FF"/>
<path d="M322.544 112.06C322.612 112.812 321.53 112.948 321.188 112.425C318.004 107.677 314.353 103.567 308.327 102.736C307.649 102.639 306.903 102.605 306.163 102.628C305.485 102.639 304.807 102.702 304.197 102.821C299.931 103.516 296.007 106.072 293.774 109.732C292.828 111.349 290.254 109.869 291.268 108.252C294.925 102.258 301.76 98.5802 308.805 99.5024C309.688 99.6049 310.565 99.8041 311.448 100.089C315.714 101.409 319.776 104.472 321.604 108.468C322.077 109.596 322.418 110.808 322.549 112.06H322.544Z" fill="#161616"/>
<path d="M292.213 109.692C292.213 109.641 292.145 109.584 292.145 109.544C292.145 109.533 292.145 109.533 292.145 109.516C292.145 109.487 292.145 109.482 292.145 109.482C292.145 109.379 292.077 109.271 292.077 109.18C291.94 108.85 291.672 108.577 291.33 108.4C290.926 108.195 290.516 108.11 290.112 108.053C289.365 107.985 288.625 108.207 288.016 108.548C287.679 108.713 287.406 108.941 287.133 109.18C286.928 109.351 286.797 109.533 286.66 109.709C286.66 109.766 286.592 109.806 286.592 109.857C286.523 109.897 286.386 110.25 286.386 110.336V110.301C286.386 110.313 286.386 110.336 286.386 110.347C286.386 110.41 286.318 110.455 286.318 110.512C286.25 110.62 286.25 110.717 286.25 110.825C286.113 111.121 286.113 111.412 286.045 111.713C286.045 112.203 286.045 112.681 286.181 113.154C286.25 113.598 286.386 114.042 286.517 114.457C286.517 114.469 286.517 114.486 286.517 114.497C286.586 114.776 286.723 115.083 286.922 115.345C287.059 115.658 287.395 115.84 287.668 116.023C287.873 116.125 288.072 116.154 288.278 116.125C288.614 116.085 288.887 115.84 289.024 115.493C289.092 115.197 289.16 114.895 289.16 114.582C289.092 114.309 289.024 114.042 288.955 113.78C288.887 113.558 288.887 113.358 288.819 113.142C288.819 113.045 288.819 112.954 288.75 112.857V112.749C288.75 112.556 288.75 112.339 288.75 112.117V112.009C288.75 111.958 288.819 111.782 288.819 111.765C288.819 111.753 288.819 111.622 288.887 111.52C288.887 111.514 288.887 111.514 288.887 111.497V111.486V111.463C288.955 111.412 288.955 111.36 289.024 111.292C289.024 111.281 289.024 111.252 289.092 111.224C289.092 111.212 289.092 111.195 289.092 111.195C289.16 111.144 289.16 111.098 289.229 111.047C289.297 111.019 289.297 110.996 289.365 110.968C289.434 110.939 289.502 110.911 289.502 110.888C289.639 110.848 289.707 110.82 289.838 110.791H290.043C290.043 110.802 290.112 110.802 290.112 110.82C290.385 110.939 290.584 111.024 290.858 111.024C290.994 111.013 291.063 111.013 291.131 110.996C291.336 110.985 291.604 110.945 291.809 110.78C292.014 110.592 292.282 110.25 292.213 109.92C292.213 109.84 292.213 109.761 292.213 109.692Z" fill="#161616"/>
<path d="M292.145 109.522C292.145 109.527 292.145 109.533 292.145 109.545C292.213 109.59 292.213 109.647 292.213 109.698C292.213 109.71 292.145 109.351 292.145 109.522Z" fill="#161616"/>
<path d="M291.536 135.628C291.536 135.605 291.467 135.628 291.467 135.628C288.762 133.317 285.982 131.04 283.208 128.751C282.935 128.011 282.735 127.254 282.53 126.503C282.325 125.262 282.257 123.998 282.325 122.763C282.394 121.578 282.661 120.423 283.14 119.29C283.544 118.174 284.085 117.093 284.763 116.102C285.304 115.362 285.777 114.804 286.523 114.451C286.797 114.286 287.133 114.167 287.537 114.098C288.146 113.979 288.619 114.463 288.483 115.095C288.414 115.476 288.414 115.8 288.277 116.119C288.209 116.239 288.141 116.347 288.072 116.472C287.867 116.888 287.6 117.292 287.395 117.696C287.395 117.725 287.326 117.747 287.326 117.776C287.053 118.254 286.785 118.772 286.648 119.279C286.512 119.632 286.375 119.967 286.312 120.326C285.84 122.04 285.703 123.947 286.107 125.677C286.107 125.763 286.107 125.837 286.107 125.922C286.58 127.579 287.395 129.013 288.408 130.374C288.95 131.102 289.627 131.694 290.305 132.349C290.846 132.97 291.661 133.505 292.065 134.279C292.27 134.814 292.065 135.434 291.524 135.628H291.536Z" fill="#161616"/>
<path d="M298.035 111.019C297.966 110.934 297.966 110.837 297.898 110.74C297.829 110.603 297.761 110.495 297.624 110.416C297.556 110.347 297.419 110.296 297.351 110.268C297.283 110.222 297.146 110.194 297.078 110.194C296.941 110.159 296.873 110.159 296.742 110.194C296.605 110.194 296.468 110.239 296.337 110.33C296.2 110.381 296.064 110.507 295.933 110.603C295.933 110.632 295.864 110.666 295.864 110.689C295.796 110.712 295.796 110.729 295.796 110.74C295.728 110.82 295.659 110.911 295.591 110.991C295.591 111.002 295.591 111.013 295.591 111.025C295.523 111.07 295.523 111.121 295.454 111.173C295.454 111.258 295.386 111.355 295.386 111.452C295.318 111.611 295.318 111.77 295.318 111.924C295.318 112.032 295.386 112.129 295.454 112.22C295.454 112.368 295.523 112.499 295.659 112.602C295.728 112.67 295.864 112.733 295.933 112.789C296.001 112.824 296.138 112.863 296.206 112.903C296.343 112.955 296.48 112.966 296.679 112.926C296.816 112.92 296.952 112.869 297.083 112.789C297.152 112.755 297.22 112.727 297.22 112.693C297.288 112.687 297.288 112.681 297.288 112.664C297.425 112.556 297.624 112.414 297.693 112.226C297.761 112.203 297.761 112.186 297.761 112.163C297.761 112.123 297.829 112.078 297.829 112.032C297.898 111.901 297.966 111.782 298.035 111.634C298.035 111.526 298.034 111.423 298.103 111.321C298.034 111.218 298.035 111.11 298.035 111.008V111.019Z" fill="#161616"/>
<path d="M291.33 116.973C291.125 116.865 290.858 116.837 290.653 116.825C290.448 116.723 290.18 116.672 289.975 116.74C288.824 117.133 287.674 117.577 286.592 118.01C286.255 118.14 285.982 118.454 286.119 118.829C286.187 119.182 286.592 119.37 286.933 119.29C288.084 119.006 289.303 118.738 290.453 118.408C290.727 118.345 290.926 118.158 290.994 117.936C291.199 117.805 291.33 117.662 291.467 117.474C291.536 117.309 291.536 117.065 291.33 116.973Z" fill="#161616"/>
<path d="M303.383 108.355C302.773 107.677 301.959 107.285 301.082 106.988C300.677 106.84 300.199 106.727 299.795 106.658C299.185 106.573 298.712 106.596 298.103 106.687C297.357 106.801 297.425 108.013 298.103 108.133C298.507 108.201 298.917 108.303 299.322 108.377C299.658 108.451 300.068 108.554 300.404 108.696C300.541 108.725 300.609 108.759 300.677 108.793C300.746 108.799 300.814 108.861 300.882 108.873C301.087 108.958 301.218 109.055 301.424 109.163C301.56 109.26 301.76 109.379 301.896 109.465C302.101 109.573 302.301 109.653 302.506 109.761C302.711 109.869 302.842 110.011 303.047 110.08C303.383 110.176 303.793 110.102 303.93 109.795C304.266 109.254 303.725 108.73 303.389 108.355H303.383Z" fill="#161616"/>
<path d="M306.835 129.235C306.362 129.656 305.752 129.508 305.28 129.167C304.397 128.563 303.793 127.596 303.315 126.577C302.91 125.774 302.568 124.92 302.301 124.18V124.169C300.877 120.429 300.472 116.393 300.945 112.442C301.013 111.366 301.219 110.29 301.486 109.225C301.623 108.605 301.822 107.99 302.027 107.381C302.096 107.136 302.164 106.909 302.301 106.687C302.705 105.514 303.246 103.903 304.197 102.827C304.471 102.502 304.739 102.246 305.08 102.041C305.553 101.757 306.163 102.11 306.163 102.628V102.667C306.163 103.778 305.485 104.797 305.149 105.821C304.744 106.817 304.471 107.836 304.203 108.861C303.662 111.07 303.457 113.353 303.594 115.63C303.662 117.616 303.998 119.597 304.539 121.505C305.08 123.44 306.026 125.154 306.772 127.004C307.045 127.664 307.518 128.66 306.84 129.235H306.835Z" fill="#161616"/>
<path d="M304.26 125.734C304.055 126.155 303.719 126.315 303.315 126.548C303.315 126.56 303.315 126.56 303.315 126.577C302.842 126.856 302.369 127.163 301.76 127.533C301.218 127.835 300.746 128.205 300.205 128.569C300.205 128.598 300 128.717 300 128.746C299.863 128.814 299.795 128.888 299.726 128.973C299.453 129.155 299.253 129.343 299.048 129.548C298.576 129.975 298.166 130.436 297.761 130.92C297.761 130.96 297.693 131.028 297.693 131.068C297.624 131.176 297.488 131.279 297.419 131.387C297.283 131.643 297.083 131.916 296.878 132.173C296.605 132.708 296.337 133.277 296.064 133.812C295.927 133.96 295.859 134.097 295.859 134.216C295.654 134.615 295.523 134.939 295.249 135.264C294.976 135.691 294.845 136.152 294.435 136.493C293.962 136.898 293.147 136.915 292.88 136.3C292.675 135.935 292.544 135.452 292.544 135.036C292.544 134.979 292.544 134.643 292.544 134.643C292.544 134.569 292.544 134.461 292.544 134.285C292.544 134.097 292.544 133.903 292.612 133.715C292.817 133.129 292.948 132.503 293.222 131.928C293.29 131.808 293.358 131.683 293.427 131.564C294.036 130.231 294.982 129.002 296.001 127.926C296.947 126.856 298.166 125.837 299.453 125.154C300.131 124.818 300.877 124.431 301.549 124.283C301.754 124.243 302.022 124.203 302.295 124.174C302.432 124.146 302.631 124.135 302.836 124.106C303.309 124.038 303.719 124.146 304.123 124.527C304.397 124.858 304.397 125.347 304.26 125.746V125.734Z" fill="#161616"/>
<path d="M214.152 65.8587C212.118 63.8434 210.358 61.4981 208.399 59.4032C206.639 57.5246 204.81 55.6858 202.845 54.0236C202.099 53.4714 201.222 52.7712 200.339 52.8793C199.456 52.9875 199.188 53.7105 199.394 54.4904C199.667 55.5663 200.681 56.386 201.427 57.1545C202.441 58.1622 203.46 59.1584 204.474 60.1546C205.488 61.1508 206.508 62.1299 207.522 63.1319L209.076 64.6063C209.549 65.1072 210.09 65.5456 210.432 66.1945C210.569 66.5133 210.569 66.8378 210.5 67.094C210.295 67.6689 209.618 68.0048 208.945 67.6974C208.063 67.3046 207.391 66.4507 206.713 65.8017C205.967 65.1186 205.289 64.4298 204.548 63.7581C203.261 62.4658 201.905 61.1622 200.555 59.887C200.555 59.8756 200.555 59.8529 200.555 59.8529C198.522 57.9971 195.748 55.7257 196.699 52.6175C197.645 49.4979 201.438 49.5548 203.671 51.1488C204.486 51.7294 205.294 52.3841 206.041 53.09C207.533 54.4448 208.883 55.9819 210.17 57.4335C210.444 57.7466 210.711 58.0654 210.985 58.3899C212.745 60.3368 214.436 62.4089 215.587 64.7486C215.991 65.6594 214.909 66.6158 214.163 65.853L214.152 65.8587Z" fill="#161616"/>
<path d="M220.246 92.7227C219.637 92.6942 219.096 92.5576 218.554 92.3185C216.185 91.2938 214.152 88.5784 212.733 86.3981C212.46 85.9996 212.192 85.6068 211.987 85.2539C211.583 84.5708 211.173 83.8763 210.768 83.1704C209.213 80.4322 207.789 77.6143 205.893 75.0925C204.674 73.5042 203.318 72.0298 201.831 70.7547C200.14 69.3884 198.106 68.4719 196.483 67.0601C193.84 64.7603 192.895 60.616 195.942 58.2649C196.346 57.9518 196.956 58.0771 197.366 58.2649C198.448 58.7602 199.468 59.301 200.55 59.8646C200.55 59.8646 200.55 59.8873 200.55 59.8987C202.378 60.8779 204.138 61.9766 205.83 63.2005C207.453 64.3959 209.077 65.6483 210.5 67.1057C211.247 67.8286 211.856 68.6142 212.466 69.4738C212.802 70.0374 212.13 70.6977 211.52 70.3733C208.877 68.8248 206.576 66.7812 204.076 65.1303C201.774 63.673 199.473 62.3807 197.035 61.2251C196.426 62.3978 197.035 63.9064 197.981 64.8741C199.268 66.2631 201.097 67.0943 202.652 68.2499C205.226 70.2139 207.185 72.7414 209.082 75.343C211.116 78.1267 213.007 80.973 215.108 83.7055C215.177 83.7738 215.245 83.825 215.313 83.8877C216.128 84.9863 216.937 86.0452 217.888 87.0414C218.025 87.1894 218.161 87.3317 218.292 87.4684C219.375 88.567 220.594 89.5006 221.271 90.884C221.34 90.9807 221.408 91.0889 221.408 91.1971C221.744 91.92 220.935 92.7512 220.258 92.7341L220.246 92.7227Z" fill="#161616"/>
<path d="M286.797 175.46C286.392 176.149 285.173 176.297 284.832 175.46C284.085 173.991 284.017 172.437 283.408 170.928C282.866 169.539 281.984 168.253 281.106 167.057C280.97 166.852 280.833 166.665 280.702 166.477C279.956 165.498 279.147 164.541 278.401 163.585C276.709 161.53 274.949 159.509 273.189 157.459C263.916 146.302 254.706 135.013 245.16 124.026C241.571 119.939 237.983 115.835 234.531 111.707C233.99 111.076 233.449 110.432 232.84 109.8C232.23 109.038 231.552 108.269 230.943 107.483L230.128 106.556L228.095 104.176C226.671 102.548 225.321 100.92 223.966 99.269C223.356 98.5403 222.747 97.8116 222.137 97.0773C221.192 95.9786 220.24 94.8742 219.432 93.6958C219.096 93.2404 218.822 92.7907 218.549 92.3182C218.213 91.7489 217.871 91.1911 217.603 90.5876C217.199 89.7224 218.076 88.4984 219.096 89.1474C219.842 89.654 220.582 90.2518 221.26 90.878C222.205 91.7262 223.088 92.6712 223.966 93.6389C224.507 94.2936 225.116 94.971 225.657 95.6427C225.993 96.0355 226.267 96.4056 226.603 96.787C226.939 97.2481 227.281 97.675 227.685 98.102C227.753 98.176 227.753 98.2215 227.822 98.2784C228.431 99.0242 229.109 99.7585 229.718 100.51C229.855 100.698 229.992 100.891 230.191 101.079C230.464 101.415 230.732 101.751 231.006 102.087C231.683 102.878 232.361 103.675 233.039 104.466C233.985 105.582 234.867 106.687 235.813 107.802C245.564 119.381 255.241 131.006 264.856 142.624C269.663 148.397 274.676 154.004 279.477 159.702C279.614 159.862 279.813 160.027 279.95 160.192C280.56 160.915 281.169 161.649 281.847 162.384C283.202 164 284.49 165.64 285.572 167.456C286.928 169.778 288.414 172.949 286.791 175.465L286.797 175.46Z" fill="#161616"/>
<path d="M218.213 59.4317C218.076 58.8283 217.877 58.2192 217.672 57.6157C217.199 56.3121 216.589 55.0313 216.048 53.7504C214.966 51.2115 213.679 48.7522 212.255 46.367C211.981 45.9457 211.714 45.5188 211.44 45.0861C210.557 43.7541 209.475 42.4903 208.057 42.0633C207.584 41.9267 207.043 41.8755 206.502 41.9267C204.674 42.0975 203.591 43.6744 203.591 45.4106C203.591 47.5966 204.674 49.7883 205.488 51.7864C205.625 52.2248 205.824 52.6574 206.029 53.0901C206.365 53.8927 206.775 54.6897 207.111 55.4639C207.721 56.6081 208.262 58.4525 209.618 58.7941C210.159 58.925 210.563 61.3444 210.905 60.9687C211.042 60.8264 211.919 60.8833 211.919 60.667C212.323 59.3064 210.432 55.0711 209.754 53.944C209.213 52.8794 208.604 51.7921 208.063 50.6877C207.316 49.0596 206.576 47.4941 206.439 45.6554C206.439 45.4391 206.439 45.2114 206.508 45.0121C206.98 44.1753 208.199 45.4049 208.541 45.8034C209.76 47.3404 210.774 49.2076 211.725 50.9325C212.739 52.7599 213.69 54.6157 214.499 56.5227C214.903 57.4962 215.382 58.481 215.786 59.4715C216.122 60.3994 216.327 61.4867 217.142 62.0788C217.683 62.4431 218.361 62.056 218.566 61.5152C218.771 60.7865 218.497 60.1433 218.23 59.4317H218.213Z" fill="#161616"/>
<path d="M310.019 129.201C310.019 129.725 309.882 130.243 309.745 130.755C309.472 131.586 308.458 131.467 308.19 130.755C307.717 129.668 307.717 128.495 307.581 127.34C307.444 126.184 307.444 125.028 307.444 123.867C307.376 122.74 307.376 121.596 307.376 120.463V119.768C307.376 118.812 307.376 117.89 307.444 116.945C307.512 115.983 309.067 115.653 309.204 116.7C309.272 117.019 309.272 117.343 309.341 117.668C309.409 118.362 309.546 119.068 309.614 119.78C309.683 121.1 309.819 122.421 309.888 123.731C309.956 124.727 310.024 125.729 310.024 126.719C310.024 126.913 310.024 127.129 310.024 127.334C310.093 127.949 310.093 128.569 310.024 129.195L310.019 129.201Z" fill="#161616"/>
<path d="M317.463 124.766C316.922 126.708 315.43 128.102 313.601 128.848C312.787 129.167 311.91 129.326 311.027 129.326C310.691 129.315 310.349 129.269 310.013 129.195C309.876 129.15 309.677 129.099 309.54 129.042C308.999 128.848 308.726 128.427 308.526 127.88C308.458 127.596 308.595 127.283 308.862 127.135C308.931 127.095 308.999 127.038 309.067 126.998C309.067 126.947 309.136 126.901 309.204 126.89C309.409 126.736 309.745 126.708 310.019 126.719H310.087C310.491 126.719 310.901 126.691 311.306 126.679C311.306 126.679 311.306 126.679 311.374 126.679C311.374 126.679 311.374 126.679 311.374 126.668C311.443 126.656 311.511 126.656 311.579 126.628C311.784 126.599 311.915 126.56 312.12 126.508C312.257 126.469 312.325 126.429 312.456 126.389C312.456 126.389 312.456 126.389 312.525 126.377C312.661 126.298 312.798 126.212 312.998 126.121C313.134 126.042 313.271 125.933 313.402 125.837C313.47 125.825 313.402 125.837 313.47 125.825C313.47 125.825 313.47 125.825 313.47 125.797C313.539 125.746 313.607 125.7 313.675 125.654C313.812 125.546 313.88 125.427 314.011 125.319C314.011 125.267 314.08 125.21 314.148 125.171C314.148 125.159 314.148 125.159 314.148 125.131C314.216 124.966 314.353 124.812 314.484 124.63C314.484 124.596 314.553 124.436 314.621 124.379C314.689 124.123 314.758 123.85 314.826 123.565C314.826 123.537 314.826 123.412 314.826 123.366V123.48C314.826 123.417 314.826 123.338 314.826 123.258C314.894 123.11 314.894 122.945 314.894 122.797C314.826 122.677 314.826 122.552 314.826 122.45C314.826 122.495 314.826 122.222 314.758 122.136C314.758 121.949 314.689 121.755 314.621 121.584C314.621 121.533 314.621 121.476 314.553 121.436C314.553 121.408 314.553 121.396 314.553 121.391C314.416 121.134 314.279 120.89 314.148 120.662C314.08 120.611 314.011 120.542 314.011 120.525C313.943 120.457 313.875 120.406 313.806 120.349C313.738 120.252 313.67 120.178 313.533 120.07C313.533 120.059 313.533 120.059 313.465 120.041C313.396 120.002 313.328 119.905 313.26 119.893C313.123 119.825 312.986 119.757 312.855 119.689C312.855 119.677 312.855 119.677 312.855 119.677C312.855 119.677 312.855 119.677 312.787 119.677C312.718 119.649 312.65 119.62 312.582 119.597C312.445 119.558 312.246 119.518 312.109 119.489C312.109 119.478 312.041 119.478 312.041 119.461H311.904C311.767 119.449 311.568 119.449 311.431 119.449C311.226 119.449 311.095 119.461 310.89 119.461C310.822 119.472 310.753 119.472 310.685 119.489C310.617 119.489 310.685 119.489 310.617 119.489C310.343 119.541 310.007 119.637 309.734 119.734C309.665 119.763 309.597 119.774 309.597 119.785C309.392 119.854 309.193 119.905 308.988 120.059C308.783 120.212 308.583 120.429 308.378 120.645C308.042 121.055 307.564 120.861 307.364 120.468C307.228 120.286 307.228 120.03 307.296 119.797C307.296 119.785 307.364 119.785 307.364 119.768C307.569 119.375 307.837 118.988 308.179 118.664C308.452 118.351 308.72 118.021 309.124 117.764C309.193 117.725 309.261 117.696 309.329 117.668C310.144 117.207 311.021 116.973 311.972 116.973C313.869 116.996 315.561 117.912 316.643 119.495C317.657 121.004 317.93 123.019 317.457 124.766H317.463Z" fill="#161616"/>
<path d="M334.118 136.904C333.844 137.257 333.508 137.587 333.172 137.911C332.09 138.907 330.598 138.127 330.33 137.08C330.125 136.573 330.193 135.976 330.803 135.509C333.782 132.885 333.446 128.621 332.563 125.068C331.68 121.476 330.057 118.175 327.961 115.129C326.201 112.613 324.036 110.364 321.598 108.469C321.057 108.042 320.516 107.638 319.975 107.245C318.488 106.237 316.996 105.349 315.373 104.626C313.681 103.812 311.784 103.414 310.093 102.611C308.805 102.002 309.483 100.106 310.77 100.078C310.976 100.078 311.243 100.078 311.448 100.089C315.373 100.294 319.707 102.628 322.823 104.706C326.48 107.102 329.527 110.33 331.896 113.939C335.821 119.888 339.341 130.687 334.129 136.898L334.118 136.904Z" fill="#161616"/>
<path d="M322.88 141.788C323.626 142.471 323.694 143.871 322.606 144.583C322.606 144.611 322.538 144.634 322.47 144.663C322.401 144.674 322.401 144.674 322.333 144.674C321.997 144.685 321.655 144.634 321.251 144.566C320.641 144.446 320.436 143.558 320.915 143.143C321.12 142.966 321.251 142.807 321.456 142.653C321.593 142.517 321.792 142.38 321.997 142.26C322.27 142.09 322.538 141.942 322.88 141.782V141.788Z" fill="#161616"/>
<path d="M329.715 139.875C328.633 139.602 327.955 138.082 329.242 137.478C329.516 137.359 329.783 137.262 329.988 137.165C330.057 137.245 330.125 137.342 330.193 137.438C330.666 138.338 330.262 139.157 329.721 139.875H329.715Z" fill="#161616"/>
<path d="M389.704 183.355C388.958 187.306 386.725 190.83 384.492 194.115C382.396 197.285 380.157 200.61 376.842 202.688C375.014 203.798 372.981 204.418 370.953 204.435C371.631 206.519 371.562 208.859 370.816 210.942C369.261 214.95 365.536 217.574 361.811 219.31C357.613 221.234 353.148 222.316 348.54 222.538C347.116 222.601 345.561 222.612 344.069 222.504C342.582 222.419 341.158 222.214 339.734 221.861C339.33 220.568 338.919 219.265 338.515 217.978C340.002 218.217 341.426 218.474 342.918 218.673C344.405 218.866 345.897 218.992 347.384 218.969C351.04 218.9 354.629 218.2 358.012 216.937C361.196 215.752 364.716 213.959 366.675 211.084C368.299 208.62 368.572 205.045 365.998 203.092C364.374 201.8 366.47 199.608 368.094 200.394C371.75 202.124 375.607 199.608 377.976 196.961C380.619 194.035 382.988 190.477 384.748 186.993C386.303 184.016 387.118 180.708 386.235 177.412C385.352 174.361 383.324 171.731 380.955 169.71C375.538 165.127 368.094 163.926 361.526 162.105C355.232 160.386 348.733 157.921 344.399 152.814C340.674 148.334 337.763 138.691 330.25 139.892C330.045 139.92 329.914 139.92 329.709 139.863C328.627 139.59 327.949 138.07 329.236 137.467C329.51 137.347 329.778 137.25 329.983 137.154C330.119 137.125 330.188 137.085 330.319 137.057C331.538 136.67 332.893 136.636 334.112 136.88C336.277 137.324 338.31 138.577 340.002 140.159C343.317 143.342 344.809 147.867 347.993 151.146C353.546 156.879 361.942 158.359 369.25 160.522C376.563 162.663 384.076 165.97 388.001 172.909C389.761 176.109 390.439 179.712 389.692 183.327L389.704 183.355Z" fill="#161616"/>
<path d="M346.848 264.693C345.02 265.689 343.465 262.979 345.225 261.943C348.881 259.78 349.354 255.135 348.608 251.321C347.725 246.909 346.102 242.577 344.752 238.29C343.06 232.814 341.369 227.343 339.74 221.867C339.335 220.574 338.925 219.271 338.521 217.984C335.678 208.717 332.836 199.443 329.988 190.193C327.55 182.502 325.79 174.492 322.407 167.137C319.024 159.68 312.861 155.564 306.835 150.241C302.232 146.183 298.302 141.31 293.563 137.319C292.885 136.75 292.208 136.192 291.53 135.628C288.756 133.317 285.976 131.04 283.202 128.752C274.67 121.658 266.212 114.548 258.152 106.84C252.194 101.079 246.031 95.1078 240.347 88.7605C239.601 87.9408 238.86 87.0983 238.114 86.2444C231.142 78.1664 224.911 69.451 220.782 59.7563C220.104 58.2364 219.494 56.6709 218.953 55.0997C218.207 52.9479 217.398 50.7847 216.31 48.7524C215.838 47.796 215.296 46.8624 214.687 45.9914C214.077 45.0635 212.585 42.6271 211.167 42.98C210.016 43.2533 210.831 44.4601 210.421 45.3766C210.421 45.388 210.694 45.536 210.694 45.5474C210.358 46.2078 210.626 46.037 209.88 45.9288C208.393 45.684 207.578 43.8339 207.915 42.4392C207.915 42.3026 207.983 42.183 208.051 42.0749C208.592 40.646 210.284 39.9515 211.776 40.0426C213.331 40.1621 214.824 41.1527 215.974 42.4848C217.529 44.1983 218.748 46.4582 219.563 48.092C219.836 48.7638 220.172 49.4412 220.445 50.1243C221.733 53.2382 222.61 56.4774 223.829 59.6254C224.507 61.5324 225.384 63.3996 226.403 65.1416C227.149 66.3371 228.027 67.3617 228.91 68.3978C229.046 68.4946 229.183 68.6028 229.246 68.728C234.731 75.7528 240.552 82.5612 246.578 89.1476C257.343 100.846 268.917 111.713 281.175 121.829C281.579 122.142 281.989 122.461 282.325 122.769C283.613 123.816 284.9 124.863 286.119 125.928C288.557 127.909 290.926 129.901 293.227 131.928C294.11 132.68 294.987 133.442 295.87 134.217C299.795 137.723 303.588 141.355 307.04 145.272C307.923 146.239 308.8 147.219 309.614 148.226C310.429 149.222 311.238 150.213 312.052 151.249C314.017 152.109 315.777 153.429 317.4 154.881C318.147 155.553 318.824 156.253 319.497 156.936C320.379 157.932 321.257 158.968 322.071 160.044C323.763 162.293 325.255 164.712 326.537 167.245C330.398 174.993 332.563 183.652 335.001 191.935C337.575 200.73 340.212 209.514 342.787 218.297C342.855 218.417 342.855 218.554 342.924 218.679C343.26 219.96 343.67 221.235 344.074 222.51C346.239 230.007 348.545 237.499 350.641 245.013C352.538 251.605 354.093 260.668 346.848 264.687V264.693Z" fill="#161616"/>
<path d="M281.853 162.378C281.784 163.425 281.579 164.501 281.38 165.526C281.311 166.038 281.243 166.545 281.106 167.063C280.97 168.082 280.77 169.107 280.634 170.126C280.093 173.296 279.483 176.462 278.942 179.632C278.333 182.792 277.655 185.997 277.791 189.242C277.86 190.494 278.065 191.729 278.401 192.925C278.874 194.285 279.688 195.333 279.893 196.773C279.962 198.162 278.338 198.748 277.319 198.236C274.949 197.086 274.271 193.181 274.004 190.841C273.599 187.505 274.209 184.169 274.887 180.913C275.564 177.441 276.242 173.957 276.988 170.496C277.324 168.759 277.666 167.023 278.071 165.287C278.139 164.752 278.276 164.177 278.407 163.596C278.612 162.509 278.879 161.416 279.557 160.573C279.625 160.408 279.762 160.289 279.962 160.192C280.571 160.915 281.18 161.649 281.858 162.384L281.853 162.378Z" fill="#161616"/>
<path d="M281.516 208.29C281.18 206.16 280.907 204.026 280.503 201.914C280.098 199.899 279.825 197.61 278.811 195.811C278.407 195.179 277.319 195.27 277.188 196.022C276.715 198.065 277.188 200.28 277.393 202.335C277.598 204.584 277.797 206.827 277.934 209.081C278.27 213.663 278.407 218.252 278.139 222.829C277.865 227.286 277.057 231.692 275.564 235.888C274.277 239.366 272.654 244.131 275.838 247.136C277.461 248.639 280.036 246.732 278.885 244.78C277.871 242.958 277.871 241.466 278.481 239.457C279.09 237.544 279.905 235.711 280.446 233.781C281.596 229.654 282.206 225.305 282.342 221.018C282.479 216.749 282.069 212.514 281.528 208.29H281.516Z" fill="#161616"/>
<path d="M347.253 264.419C347.253 264.932 346.916 265.387 346.37 265.592C346.034 265.712 345.692 265.769 345.356 265.769C344.342 265.82 343.322 265.433 342.308 265.194C342.103 265.131 341.904 265.097 341.699 265.04C340.343 264.738 339.056 264.408 337.706 264.106C334.864 263.446 332.084 262.746 329.242 262.029C323.489 260.583 317.731 259.137 312.046 257.657C311.369 257.503 310.691 257.326 310.081 257.161C309.136 256.934 308.253 256.7 307.307 256.472C298.576 254.309 289.776 252.266 281.175 249.431C280.229 249.106 279.21 248.77 278.264 248.412C277.991 248.315 277.723 248.224 277.45 248.116C275.826 247.529 276.504 245.321 278.127 245.571C278.464 245.622 278.805 245.679 279.141 245.73C279.819 245.827 280.429 245.935 281.106 246.055C291.872 247.951 302.5 251.161 313.06 253.871C318.813 255.34 324.503 256.825 330.256 258.323C333.098 259.063 335.878 259.797 338.72 260.594C339.734 260.89 340.816 261.18 341.836 261.482C342.308 261.602 342.781 261.727 343.191 261.846C343.664 261.983 344.137 262.068 344.615 262.194C344.684 262.222 344.752 262.233 344.82 262.262C345.635 262.49 346.375 262.803 346.916 263.435C347.19 263.748 347.321 264.089 347.253 264.431V264.419Z" fill="#161616"/>
<path d="M321.257 151.317C321.188 153.822 321.462 156.201 322.27 158.558C322.475 159.065 322.339 159.606 322.065 160.044C321.792 160.465 321.388 160.801 320.915 160.926C319.901 161.217 318.95 160.562 318.545 159.577C318.004 158.069 317.6 156.492 317.395 154.881C317.258 153.617 317.19 152.336 317.326 151.055C317.463 149.581 317.662 148.004 318.209 146.615C318.278 146.53 318.278 146.444 318.278 146.353C318.551 145.733 318.819 145.118 319.16 144.56C319.565 143.956 320.174 143.535 320.584 142.989C320.858 142.704 321.126 142.607 321.467 142.653C322.077 142.733 322.618 143.393 322.481 144.065C322.413 144.27 322.344 144.463 322.344 144.668V144.748C322.344 145.192 322.344 145.647 322.208 146.108C322.071 146.695 321.934 147.292 321.803 147.879C321.53 149.034 321.331 150.127 321.262 151.311L321.257 151.317Z" fill="#161616"/>
<path d="M317.463 124.767C316.922 126.708 315.43 128.103 313.601 128.848C312.787 129.167 311.91 129.327 311.027 129.327C310.691 129.315 310.349 129.27 310.013 129.196C310.013 129.719 309.876 130.238 309.74 130.75C309.466 131.581 308.452 131.461 308.185 130.75C307.712 129.663 307.712 128.49 307.575 127.334C307.438 126.179 307.438 125.023 307.438 123.862C307.37 122.735 307.37 121.59 307.37 120.458C307.233 120.275 307.233 120.019 307.302 119.786C307.302 119.774 307.37 119.774 307.37 119.757C307.37 118.801 307.37 117.879 307.438 116.934C307.507 115.972 309.062 115.641 309.198 116.689C309.267 117.008 309.267 117.332 309.335 117.657C310.15 117.196 311.027 116.962 311.978 116.962C313.875 116.985 315.566 117.901 316.649 119.484C317.662 120.993 317.936 123.008 317.463 124.755V124.767ZM386.246 177.424C385.364 174.373 383.336 171.743 380.966 169.722C375.55 165.139 368.105 163.938 361.538 162.116C355.244 160.397 348.745 157.932 344.41 152.826C340.685 148.346 337.775 138.703 330.262 139.904C330.057 139.932 329.926 139.932 329.721 139.875C328.638 139.602 327.961 138.082 329.248 137.479C329.521 137.359 329.789 137.262 329.994 137.165C330.131 137.137 330.199 137.097 330.33 137.069C330.125 136.562 330.193 135.964 330.803 135.498C333.782 132.873 333.446 128.609 332.563 125.057C331.68 121.465 330.057 118.163 327.961 115.118C326.201 112.602 324.036 110.353 321.598 108.457C322.071 109.584 322.413 110.797 322.544 112.049C322.612 112.801 321.53 112.937 321.188 112.414C318.004 107.666 314.353 103.556 308.327 102.725C307.649 102.628 306.903 102.594 306.163 102.617V102.657C306.163 103.767 305.485 104.786 305.149 105.81C304.744 106.806 304.471 107.825 304.203 108.85C303.662 111.059 303.457 113.342 303.594 115.619C303.662 117.605 303.998 119.587 304.539 121.494C305.08 123.429 306.026 125.143 306.772 126.993C307.045 127.653 307.518 128.649 306.84 129.224C306.368 129.645 305.758 129.497 305.285 129.156C304.403 128.552 303.799 127.585 303.32 126.566C302.848 126.845 302.375 127.152 301.765 127.522C301.224 127.824 300.751 128.194 300.21 128.558C300.21 128.587 300.005 128.706 300.005 128.735C299.869 128.803 299.8 128.877 299.732 128.962C299.458 129.145 299.259 129.332 299.054 129.537C298.581 129.964 298.171 130.425 297.767 130.909C297.767 130.949 297.698 131.017 297.698 131.057C297.63 131.165 297.493 131.268 297.425 131.376C297.288 131.632 297.089 131.905 296.884 132.162C296.611 132.697 296.343 133.266 296.069 133.801C295.933 133.949 295.864 134.086 295.864 134.205C299.789 137.712 303.582 141.344 307.034 145.26C307.307 145.164 307.643 145.084 307.917 145.016C308.595 144.896 309.204 144.839 309.882 144.742C311.169 144.555 312.388 144.304 313.675 143.98C314.963 143.667 316.182 143.325 317.4 142.904C318.078 142.676 318.688 142.431 319.366 142.181C319.975 141.925 320.653 141.572 321.262 141.395C321.94 141.219 322.481 141.395 322.886 141.777C323.632 142.46 323.7 143.86 322.612 144.572C322.612 144.6 322.544 144.623 322.475 144.651C322.475 144.691 322.407 144.72 322.339 144.748C322.339 145.192 322.339 145.648 322.202 146.109C322.065 146.695 321.929 147.293 321.798 147.879C321.524 149.035 321.325 150.128 321.257 151.312C321.188 153.817 321.462 156.196 322.27 158.553C322.475 159.06 322.339 159.6 322.065 160.039C323.757 162.287 325.249 164.707 326.531 167.24C330.393 174.988 332.557 183.646 334.995 191.929C337.57 200.724 340.207 209.508 342.781 218.292C342.85 218.411 342.85 218.548 342.918 218.673C344.405 218.867 345.897 218.992 347.383 218.969C351.04 218.901 354.629 218.201 358.012 216.937C361.196 215.753 364.716 213.96 366.675 211.085C368.299 208.62 368.572 205.045 365.998 203.092C364.374 201.8 366.47 199.608 368.094 200.394C371.75 202.125 375.607 199.608 377.976 196.961C380.619 194.035 382.988 190.477 384.748 186.993C386.303 184.016 387.118 180.709 386.235 177.413L386.246 177.424Z" fill="#161616"/>
<path d="M322.606 144.583C322.606 144.611 322.538 144.634 322.47 144.662C322.47 144.702 322.401 144.731 322.333 144.759C321.251 145.431 319.827 145.835 318.608 146.256C318.54 146.296 318.403 146.325 318.272 146.364C317.121 146.763 315.834 147.144 314.615 147.412C313.191 147.736 311.773 147.958 310.281 148.152C310.076 148.18 309.808 148.203 309.603 148.232C309.198 148.283 308.788 148.311 308.384 148.311C308.048 148.311 307.638 148.283 307.302 148.243C306.829 148.203 306.556 148.055 306.151 147.89C305.268 147.566 304.864 146.239 305.878 145.75C306.282 145.545 306.624 145.391 307.028 145.271C307.302 145.175 307.638 145.095 307.911 145.027C308.589 144.907 309.198 144.85 309.876 144.753C311.163 144.566 312.382 144.315 313.67 143.991C314.957 143.677 316.176 143.336 317.395 142.915C318.073 142.687 318.682 142.442 319.36 142.192C319.969 141.936 320.647 141.583 321.257 141.406C321.934 141.23 322.475 141.406 322.88 141.788C323.626 142.471 323.694 143.871 322.606 144.583Z" fill="#161616"/>
<path d="M240.489 88.6578C240.489 88.6977 240.421 88.7375 240.352 88.766C239.134 89.7223 237.778 90.4965 236.627 91.4871C235.545 92.4264 234.463 93.599 233.58 94.6465C232.635 95.8989 231.888 97.2765 231.142 98.7054C231.006 99.0982 230.806 99.491 230.67 99.8894C230.464 100.282 230.333 100.669 230.197 101.074C229.992 101.478 229.861 101.876 229.656 102.286C229.587 102.508 229.519 102.741 229.382 102.969C228.773 104.193 227.149 103.459 227.081 102.354C226.876 100.897 227.218 99.4796 227.691 98.0963C227.759 97.8059 227.896 97.5213 227.964 97.2424C228.642 95.5972 229.519 94.0374 230.539 92.6142C231.621 91.174 232.771 89.8647 234.195 88.7375C235.414 87.7811 236.701 86.802 238.12 86.2498C238.393 86.1644 238.661 86.0676 238.934 85.9993C239.612 85.8229 240.427 86.1132 240.763 86.7223C241.099 87.2859 241.036 88.2309 240.489 88.6578Z" fill="#161616"/>
<path d="M334.796 135.77C333.913 134.865 332.631 135.03 331.748 135.77C330.598 136.681 329.584 137.706 328.433 138.617C328.029 138.93 327.488 139.311 326.947 139.698C326.337 140.137 325.728 140.558 325.118 140.968C323.899 141.742 322.749 142.51 321.462 143.199C320.106 143.979 318.756 144.622 317.537 145.653C316.387 146.564 317.264 148.693 318.688 148.556C320.448 148.391 321.872 147.753 323.427 147.002C324.782 146.33 326.201 145.602 327.488 144.765C328.843 143.877 330.131 142.926 331.35 141.924C332.569 140.979 333.856 139.994 334.801 138.839C335.616 137.956 335.684 136.641 334.801 135.765L334.796 135.77Z" fill="#2220FF"/>
<path d="M352.669 383.345C352.464 385.133 350.505 385.44 349.69 384.284C349.485 384.04 349.354 383.721 349.354 383.345C349.218 382.434 349.149 381.501 349.081 380.556C348.876 376.958 349.012 373.252 348.944 369.671C348.807 365.214 348.671 360.779 348.54 356.328C348.067 340.428 347.116 324.551 345.834 308.697C345.225 300.722 344.547 292.741 343.732 284.782C343.396 280.797 342.986 276.818 342.582 272.833C342.308 270.334 341.767 267.642 341.699 265.029C341.631 263.822 341.699 262.626 341.836 261.471C342.308 261.59 342.781 261.715 343.191 261.835C343.664 261.972 344.137 262.057 344.615 262.182C344.684 262.251 344.684 262.319 344.684 262.399C344.957 263.122 345.088 263.879 345.225 264.63C345.293 265 345.293 265.382 345.361 265.757C345.43 266.292 345.498 266.833 345.635 267.38C345.908 269.64 346.176 271.9 346.518 274.16C347.059 278.572 347.532 282.995 348.004 287.424C349.696 303.352 350.847 319.325 351.661 335.322C352.065 343.314 352.339 351.312 352.544 359.316C352.681 363.324 352.749 367.32 352.817 371.328C352.817 375.279 353.153 379.394 352.681 383.339L352.669 383.345Z" fill="#161616"/>
<path d="M349.081 380.556C342.308 380.869 335.61 381.37 328.838 381.751C325.318 365.612 322.065 349.434 319.428 333.136C316.654 316.485 314.621 299.748 312.656 283.006C312.115 278.224 311.642 273.431 311.169 268.643C310.765 264.909 310.765 260.918 310.087 257.161C310.696 257.326 311.374 257.497 312.052 257.656C317.737 259.136 323.495 260.577 329.248 262.028C332.09 262.746 334.87 263.44 337.712 264.106C339.068 264.408 340.355 264.738 341.705 265.04C341.773 267.653 342.314 270.345 342.588 272.844C342.992 276.829 343.402 280.809 343.738 284.793C344.553 292.752 345.23 300.727 345.84 308.708C347.127 324.562 348.073 340.434 348.545 356.339C348.682 360.791 348.819 365.225 348.95 369.683C349.018 373.269 348.882 376.969 349.087 380.567L349.081 380.556Z" fill="#161616"/>
<path d="M350.3 384.244C350.095 384.256 349.895 384.273 349.69 384.284C342.246 384.893 334.796 385.252 327.283 385.781C326.468 385.833 325.591 385.121 325.386 384.341C323.222 374.977 321.257 365.567 319.428 356.14C316.176 339.341 313.402 322.428 311.306 305.475C310.901 302.071 310.491 298.655 310.087 295.239C309.683 291.033 309.204 286.82 308.868 282.613C308.8 281.651 308.731 280.7 308.663 279.744C308.327 275.617 308.054 271.49 307.78 267.345C307.575 263.782 307.102 260.064 307.307 256.472C307.376 255.858 307.444 255.248 307.512 254.645C307.649 253.598 309.272 253.757 309.478 254.645C309.751 255.47 309.95 256.302 310.087 257.161C310.765 260.918 310.765 264.909 311.169 268.643C311.642 273.437 312.115 278.224 312.656 283.006C314.621 299.754 316.649 316.485 319.428 333.136C322.071 349.434 325.318 365.612 328.838 381.751C335.61 381.364 342.308 380.863 349.081 380.556C349.485 380.533 349.895 380.51 350.3 380.493C352.738 380.385 352.669 384.051 350.3 384.239V384.244Z" fill="#161616"/>
<path d="M281.243 246.704C281.243 247.609 281.243 248.525 281.175 249.425C281.038 252.504 280.702 255.584 280.429 258.635C280.093 262.404 279.751 266.161 279.346 269.924C278.059 282.044 276.84 294.175 275.69 306.306C275.621 306.727 275.621 307.126 275.553 307.541C275.416 309.232 275.217 310.945 275.08 312.642C273.998 310.536 272.711 308.532 271.423 306.602C271.492 305.093 271.628 303.591 271.76 302.093C271.828 301.649 271.828 301.222 271.896 300.773C272.232 296.349 272.642 291.921 273.115 287.509C273.793 280.535 274.539 273.562 275.416 266.594C276.162 260.571 276.903 254.338 278.258 248.4C278.395 247.711 278.595 247.04 278.731 246.368C278.8 246.083 279.005 245.867 279.136 245.719C279.745 245.263 280.691 245.428 281.101 246.043C281.169 246.231 281.237 246.447 281.237 246.698L281.243 246.704Z" fill="#161616"/>
<path d="M310.491 292.342C310.355 293.309 310.218 294.266 310.087 295.234C309.814 297.721 309.478 300.209 309.073 302.685C307.313 315.329 305.012 327.904 302.711 340.468C301.56 346.747 300.341 353.009 299.054 359.259C298.376 362.39 297.767 365.51 297.089 368.629C296.548 370.986 296.48 374.715 294.446 376.309C294.378 376.388 294.241 376.457 294.173 376.525C293.632 376.878 292.885 376.622 292.618 376.126C291.672 374.658 292.077 373.052 292.413 371.458C292.749 369.99 293.022 368.515 293.296 367.047C293.364 366.791 293.432 366.534 293.501 366.278C294.178 362.72 294.856 359.14 295.534 355.576C297.972 343.137 300.273 330.699 302.369 318.198C303.383 312.016 304.403 305.822 305.485 299.651C306.026 296.503 306.499 293.361 307.108 290.224C307.512 287.776 307.717 284.901 308.868 282.613C309.073 282.232 309.272 281.867 309.546 281.526C309.882 281.013 310.628 281.082 310.833 281.702C311.984 284.901 310.97 289.068 310.497 292.353L310.491 292.342Z" fill="#161616"/>
<path d="M355.375 421.241C354.156 423.512 351.177 424.099 348.876 424.622C345.692 425.317 342.445 425.989 339.261 426.609C332.967 427.833 326.599 428.909 320.237 429.882C317.053 430.372 313.875 430.816 310.691 431.203C308.931 431.419 307.239 431.636 305.479 431.812C303.992 431.949 302.568 432.171 301.144 431.761C299.789 431.368 299.316 429.285 300.672 428.613C300.808 428.573 300.877 428.533 300.945 428.516C301.35 429.7 302.91 430.463 303.924 429.336C304.328 428.858 304.602 428.288 304.938 427.731C305.075 427.383 305.274 427.036 305.547 426.723C306.225 425.903 307.102 425.237 308.054 424.639C308.868 424.104 309.745 423.603 310.628 423.125C311.779 422.488 312.929 421.901 314.08 421.235C315.504 420.387 316.922 419.505 318.278 418.565C318.682 418.537 319.024 418.486 319.428 418.446C323.899 417.859 328.433 417.045 332.831 415.924C337.302 414.774 341.767 413.135 346.034 411.239C347.725 410.476 349.349 409.582 351.046 408.683C352.265 408.051 353.484 407.391 354.703 406.759C354.908 408.034 355.039 409.32 355.175 410.618C355.312 411.598 355.449 412.582 355.512 413.567C355.785 415.924 356.662 419.026 355.375 421.241Z" fill="#161616"/>
<path d="M304.938 427.742C304.602 428.294 304.328 428.864 303.924 429.348C302.91 430.475 301.35 429.712 300.945 428.528C302.232 427.959 303.52 427.862 304.938 427.742Z" fill="#161616"/>
<path d="M354.697 406.765C353.478 407.396 352.259 408.057 351.04 408.689C350.499 405.763 350.026 402.848 349.554 399.922C349.012 396.985 348.54 394.07 348.198 391.127C347.725 388.075 347.252 384.979 347.52 381.882C347.589 380.504 349.28 380.379 349.753 381.58C351.24 385.053 351.786 388.884 352.458 392.561C353.136 396.29 353.746 400.047 354.287 403.793C354.424 404.789 354.56 405.768 354.691 406.77L354.697 406.765Z" fill="#161616"/>
<path d="M334.864 399.239C334.186 404.311 331.139 408.268 327.414 411.575C324.572 414.108 321.524 416.459 318.272 418.571C316.916 419.511 315.498 420.399 314.074 421.241C312.923 421.902 311.773 422.494 310.622 423.131C309.74 423.609 308.862 424.11 308.048 424.646C307.102 425.243 306.219 425.909 305.542 426.729C305.268 427.042 305.069 427.395 304.932 427.737C304.596 428.289 304.323 428.858 303.918 429.342C302.904 430.469 301.344 429.706 300.939 428.522C300.871 428.374 300.803 428.226 300.803 428.061C300.598 426.154 302.358 424.139 303.713 422.955C304.186 422.534 304.659 422.152 305.2 421.799C306.35 420.94 307.638 420.228 308.925 419.511C309.13 419.414 309.261 419.323 309.466 419.226C313.937 416.784 318.198 414.034 322.196 410.875C325.921 407.898 329.914 404.539 330.996 399.655C332.147 394.383 329.914 389.362 329.236 384.228C329.1 382.935 331.065 382.548 331.606 383.584C334.18 388.133 335.53 394.07 334.858 399.233L334.864 399.239Z" fill="#161616"/>
<path d="M318.278 418.571C316.922 419.511 315.504 420.399 314.08 421.241C312.929 421.901 311.779 422.494 310.628 423.131C308.936 423.216 307.108 423.211 305.752 422.442C305.479 422.3 305.28 422.072 305.211 421.799C306.362 420.939 307.649 420.228 308.936 419.511C309.141 419.414 309.272 419.323 309.478 419.226C310.491 419.175 311.443 419.186 312.32 419.118C314.353 418.941 316.313 418.799 318.278 418.571Z" fill="#161616"/>
<path d="M217.877 87.0297C216.589 86.8704 215.302 86.7167 214.015 86.5573C213.61 86.506 213.132 86.4491 212.728 86.3979C210.426 86.1018 208.125 85.8115 205.824 85.487C200.271 84.747 194.791 83.8589 189.306 82.7602C183.684 81.6331 178.137 80.3238 172.651 78.8721C167.303 77.4831 161.818 76.2023 156.811 73.9708C155.256 73.2876 156.133 71.3237 157.489 71.0675C157.626 71.0276 157.825 71.0276 158.03 71.0675C158.976 71.244 159.927 71.4489 160.872 71.6766C165.344 72.7241 169.809 74.1928 174.275 75.3427C179.623 76.7146 184.972 77.967 190.32 79.1226C195.668 80.2953 201.085 81.394 206.434 82.4187C207.858 82.6919 209.344 82.9481 210.768 83.1701C212.055 83.3978 213.411 83.6028 214.693 83.8077C214.898 83.8362 215.097 83.8532 215.302 83.8817C216.117 84.9804 216.925 86.0392 217.877 87.0354V87.0297Z" fill="#161616"/>
<path d="M220.787 59.7563C220.109 58.2363 219.5 56.6708 218.959 55.0997C218.213 52.9478 217.404 50.7846 216.316 48.7523C216.248 47.1641 216.179 45.5872 216.111 44.0046C216.043 43.4923 216.043 42.997 215.974 42.4847C215.701 36.9286 215.433 31.384 215.091 25.8165C215.091 25.7767 215.091 25.7198 215.091 25.6856C215.023 24.382 214.955 23.0727 214.886 21.7804C214.75 20.6248 214.681 19.4806 214.613 18.3364C214.545 17.6817 214.545 17.0157 214.476 16.361C214.408 15.8601 214.408 15.3819 214.339 14.8809C214.203 12.9568 213.935 11.0213 213.257 9.20531C211.634 4.96427 207.231 3.39879 202.965 4.20715C198.226 5.10659 194.637 8.67589 191.932 12.4843C188.748 16.9189 186.111 21.7861 183.4 26.5395C180.557 31.5661 177.846 36.6782 175.209 41.8073C172.503 46.9307 169.929 52.0939 167.491 57.3312C166.272 59.9043 165.122 62.466 163.971 65.0675C162.957 67.2877 162.074 69.5932 160.855 71.6824C160.582 72.098 160.314 72.5022 160.041 72.895C159.027 74.3295 157.062 73.4187 157.335 71.7507C157.335 71.523 157.404 71.2896 157.472 71.0733C158.081 67.8342 159.568 64.7829 160.855 61.7829C162.211 58.5836 163.561 55.4071 165.053 52.2533C167.964 45.9629 171.011 39.7351 174.326 33.6497C177.305 28.2188 180.421 22.8507 183.667 17.5679C186.509 12.8885 189.488 7.88461 193.755 4.34377C197.411 1.34373 202.014 -0.460847 206.821 0.10842C211.833 0.706151 215.689 3.84281 217.182 8.6759C217.86 10.6228 218.065 12.6949 218.264 14.7443C218.264 15.2794 218.332 15.8316 218.332 16.3667C218.401 17.0498 218.469 17.7557 218.537 18.4388C218.606 19.5944 218.674 20.7387 218.742 21.8829C218.879 23.2719 218.947 24.6382 219.016 26.0101C219.084 26.1182 219.084 26.2378 219.084 26.346C219.557 32.8982 219.967 39.4448 220.235 45.9971C220.303 47.369 220.371 48.758 220.44 50.1243C220.576 53.3406 220.645 56.5456 220.776 59.762L220.787 59.7563Z" fill="#161616"/>
<path d="M225.663 95.6372C225.526 96.0755 225.19 96.4683 224.649 96.6164C223.835 96.8042 223.026 96.9522 222.143 97.0775C219.978 97.3792 217.74 97.493 215.576 97.7207C212.528 98.0452 209.413 98.2672 206.303 98.4835C200.208 98.9276 194.113 99.2748 188.025 99.4855C181.93 99.679 175.835 99.7758 169.747 99.7245C166.631 99.6961 163.515 99.6562 160.474 99.5879C157.631 99.5367 154.447 99.901 151.941 98.6486C151.263 98.3185 151.195 97.1173 151.941 96.7928C154.516 95.6372 157.626 96.0414 160.474 96.0015C163.521 95.956 166.637 95.8934 169.747 95.8137C175.773 95.6486 181.731 95.4607 187.689 95.2444C193.646 95.0167 199.673 94.789 205.631 94.493C208.746 94.3279 211.862 94.1685 214.903 94.0034C216.39 93.9351 217.951 93.7928 219.437 93.6903C220.992 93.6049 222.485 93.5366 223.971 93.6277C224.512 94.2824 225.122 94.9598 225.663 95.6315V95.6372Z" fill="#161616"/>
<path d="M266.081 299.686C264.725 298.103 263.307 296.555 261.883 295.046C261.478 292.866 261.137 290.674 260.801 288.494C259.986 283.712 259.246 278.93 258.363 274.171C253.35 245.338 248.275 216.499 243.468 187.637C241.03 173.2 238.524 158.758 236.155 144.321C235.004 137.148 233.785 129.97 232.635 122.797C231.752 117.429 230.738 111.998 230.128 106.567C229.923 105.138 229.792 103.71 229.656 102.292C229.656 101.911 229.587 101.529 229.587 101.148C229.587 100.903 229.587 100.692 229.724 100.51C229.929 100.152 230.265 99.9467 230.67 99.8955C230.464 100.288 230.333 100.675 230.197 101.08C230.47 101.415 230.738 101.751 231.011 102.087C231.689 102.878 232.367 103.675 233.045 104.467C233.586 106.863 234.059 109.277 234.531 111.714C235.346 116.165 236.086 120.657 236.832 125.097C238.256 133.249 239.675 141.395 241.03 149.553C245.974 178.432 250.782 207.305 255.521 236.207C257.89 250.655 260.26 265.114 262.629 279.568C263.375 283.9 264.116 288.226 264.862 292.564C265.266 294.944 265.676 297.306 266.081 299.691V299.686Z" fill="#161616"/>
<path d="M308.868 282.607C307.717 284.896 307.512 287.771 307.108 290.219C306.499 293.349 306.026 296.498 305.485 299.646C304.402 305.816 303.389 312.01 302.369 318.192C300.273 330.688 297.966 343.132 295.534 355.57C294.856 359.134 294.178 362.715 293.501 366.273C293.432 366.529 293.364 366.785 293.296 367.041C292.891 363.204 292.35 359.39 291.809 355.582C290.254 345.398 288.289 335.327 284.769 325.735C282.94 320.868 280.708 316.24 278.201 311.845C277.387 310.382 276.51 308.942 275.559 307.541C275.627 307.12 275.627 306.722 275.695 306.306C276.846 294.175 278.065 282.044 279.352 269.924C279.756 266.161 280.098 262.404 280.434 258.636C280.708 255.584 281.044 252.505 281.18 249.425C289.781 252.26 298.581 254.303 307.313 256.467C307.108 260.059 307.586 263.776 307.786 267.34C308.059 271.478 308.327 275.605 308.669 279.738C308.737 280.695 308.805 281.645 308.874 282.607H308.868Z" fill="#161616"/>
<path d="M299.048 419.55C298.843 419.106 298.712 418.662 298.576 418.218C297.761 415.77 297.021 413.271 296.343 410.744C294.247 402.41 293.028 393.694 291.94 385.229C289.234 364.815 287.674 343.564 279.956 324.477C279.21 322.689 278.401 320.959 277.586 319.262C276.367 316.803 275.012 314.458 273.594 312.192C271.834 309.38 269.937 306.693 267.909 304.108C266.485 302.253 264.998 300.437 263.375 298.678C257.281 291.681 250.377 285.323 243.536 279.015C242.859 278.4 242.181 277.791 241.503 277.176C240.489 276.249 240.825 275.019 241.64 274.347C242.318 273.744 243.331 273.556 244.146 274.279C249.899 279.203 255.657 284.258 261.006 289.717C261.41 290.15 261.82 290.577 262.225 291.01C263.238 292.034 264.19 293.065 265.135 294.118C265.676 294.67 266.149 295.222 266.628 295.774C267.51 296.793 268.388 297.818 269.27 298.866C270.153 299.93 270.962 301.017 271.777 302.105C272.591 303.181 273.4 304.285 274.146 305.389C274.619 306.101 275.092 306.83 275.57 307.553C276.516 308.953 277.398 310.393 278.213 311.856C280.719 316.257 282.952 320.885 284.78 325.746C288.3 335.338 290.265 345.409 291.82 355.593C292.361 359.401 292.903 363.221 293.307 367.052C293.711 370.144 294.053 373.235 294.457 376.314C294.93 380.032 295.34 383.732 295.881 387.426C297.169 396.575 298.929 405.449 301.298 414.29C301.634 415.656 302.044 417.028 302.449 418.406C302.449 418.446 302.449 418.503 302.449 418.543C303.127 420.968 299.874 421.839 299.065 419.562L299.048 419.55Z" fill="#161616"/>
<path d="M301.891 414.711C287.537 404.436 272.238 393.557 264.116 376.462C259.644 367.109 257.48 356.669 255.247 346.479C252.878 335.498 250.713 324.454 248.748 313.37C247.666 307.08 246.652 300.767 245.701 294.431C244.755 288.163 244.277 281.656 242.79 275.52C242.318 273.647 239.743 274.04 239.675 275.975C239.675 281.759 240.689 287.611 241.435 293.332C242.249 299.179 243.126 305.014 244.009 310.831C245.838 322.342 247.934 333.79 250.303 345.17C252.536 355.781 254.769 366.546 258.967 376.457C262.76 385.36 268.513 393.039 275.149 399.592C282.661 406.981 291.125 413.032 299.658 418.958C302.096 420.666 304.26 416.442 301.891 414.717V414.711Z" fill="#161616"/>
<path d="M200.134 393.711C199.251 402.894 198.101 412.156 196.141 421.213C194.45 413.744 192.758 406.258 191.334 398.704C189.437 388.394 187.882 377.983 186.8 367.542C184.767 346.918 184.294 326.128 185.04 305.412C185.444 294.027 186.532 282.716 187.478 271.37C187.751 271.41 188.087 271.393 188.361 271.296C194.113 290.56 198.311 310.467 200.208 330.46C202.173 351.472 202.105 372.7 200.14 393.711H200.134ZM199.997 302.298C197.964 290.344 195.122 278.543 191.602 266.913C191.129 265.319 189.164 264.824 188.013 265.951C187.404 266.526 186.726 267.101 186.116 267.681C185.843 267.909 185.712 268.159 185.575 268.421C184.761 268.421 184.02 268.843 183.884 269.776C182.055 280.256 181.241 290.964 180.631 301.57C180.022 312.039 179.817 322.507 180.09 332.988C180.7 353.897 182.864 374.812 186.453 395.419C188.486 407.18 190.787 419.021 194.17 430.475C194.712 432.228 197.759 432.547 198.032 430.475C199.724 419.881 201.757 409.355 203.045 398.698C204.264 388.013 205.078 377.248 205.209 366.483C205.482 345.016 203.722 323.441 199.997 302.298Z" fill="#161616"/>
<path d="M150.916 112.208C150.238 112.248 149.629 112.248 149.019 112.26C149.019 112.3 149.019 112.339 149.019 112.379C149.019 113.051 149.019 113.74 149.019 114.412C149.019 115.339 149.019 116.25 148.547 117.064C148.41 117.286 148.211 117.463 148.005 117.599C147.937 117.839 147.869 118.078 147.869 118.311C148.683 118.3 149.424 118.277 150.238 118.243C150.102 119.438 149.965 120.651 149.834 121.852C148.005 121.96 146.109 122.057 144.28 122.136C143.739 122.165 143.198 122.176 142.657 122.205C115.642 123.4 88.4951 123.776 61.4853 122.74C61.4853 122.968 61.4853 123.201 61.4853 123.417C62.0947 141.019 62.9719 158.609 63.7181 176.2C63.9231 179.832 63.5814 183.885 64.6636 187.38C65.7458 190.579 68.7931 191.109 71.772 191.337C80.3044 191.969 88.8995 192.185 97.4319 192.196C110.361 192.208 123.297 191.593 136.158 190.369C137.918 190.192 139.678 190.016 141.438 189.828C141.233 191.621 141.034 193.409 140.76 195.208C139 195.396 137.24 195.572 135.48 195.748C119.771 197.291 103.999 197.94 88.159 197.627C83.4884 197.53 78.8861 197.354 74.2098 197.103C70.4847 196.893 66.3552 196.847 63.177 194.53C59.993 192.191 58.9108 188.473 58.5747 184.699C58.1019 180.344 58.1703 175.904 57.9652 171.52C57.6292 162.156 57.2191 152.809 56.883 143.444C56.678 138.782 56.547 134.102 56.3419 129.417C56.2736 127.129 56.0685 124.818 56.0059 122.501C56.0059 121.305 56.0059 120.11 56.0742 118.909C56.0742 118.51 56.1426 118.106 56.1426 117.702C56.4786 114.423 57.4298 111.03 59.936 108.73C63.12 105.821 67.3805 105.895 71.379 105.941C80.9253 106.089 90.4715 106.225 100.018 106.373C109.427 106.51 118.837 106.698 128.247 106.897C133.054 107.005 137.861 107.096 142.668 107.25C143.956 107.29 145.175 107.318 146.394 107.37C148.085 107.41 149.709 107.489 151.338 107.643C151.201 109.157 151.064 110.683 150.933 112.203L150.916 112.208Z" fill="#A1D2FF"/>
<path d="M142.657 147.998C142.253 150.901 139.678 152.626 137.24 153.799C136.836 153.987 136.494 154.152 136.09 154.323C135.344 153.065 134.802 151.636 134.802 150.156C134.734 147.753 135.885 144.964 138.391 144.355C140.897 143.78 143.061 145.408 142.657 148.004V147.998ZM106.3 155.199C106.636 152.683 108.06 150.287 109.82 148.528C111.649 146.734 115.169 144.366 117.607 146.444C121.873 150.082 110.025 156.731 106.705 158.416C106.3 157.425 106.164 156.344 106.3 155.199ZM84.0922 152.831C84.2972 150.423 85.9205 147.48 88.6261 147.383C90.5911 147.304 90.8589 148.898 90.181 150.395C89.5032 151.943 88.1476 153.133 86.8661 154.243C86.1882 154.875 85.3794 155.45 84.6333 156.002C84.2289 155.023 84.0238 153.958 84.0922 152.831ZM142.179 141.213C138.385 139.636 134.125 141.474 132.228 145.027C130.468 148.391 130.673 152.518 132.433 155.865C130.878 156.48 129.317 157.078 127.762 157.693C124.647 158.985 121.531 160.425 118.353 161.433C115.442 162.321 112.19 162.765 109.416 161.325C109.143 161.205 108.943 161.04 108.67 160.892C110.025 160.169 111.313 159.406 112.526 158.569C115.778 156.429 120.107 153.577 121.058 149.581C121.941 146.04 119.298 143.057 115.847 142.75C111.985 142.414 108.334 145.254 106.095 148.118C103.863 150.947 102.439 154.642 103.185 158.262C103.253 158.797 103.458 159.298 103.657 159.793C98.6451 161.871 92.7556 163.01 87.9483 159.913C87.4072 159.526 86.7977 159.082 86.3249 158.587C87.6806 157.664 88.9678 156.628 90.1184 155.513C92.5562 153.241 95.2618 149.273 92.8923 146.046C90.5911 142.983 85.9889 144.07 83.6878 146.41C81.3866 148.71 80.4354 152.216 81.0449 155.382C81.2499 156.241 81.5176 157.021 81.8594 157.755C80.6405 158.473 79.4216 159.144 78.2026 159.811C77.0521 160.431 77.8666 162.167 79.0855 161.888C80.5721 161.524 82.0644 160.966 83.4201 160.272C87.3445 164.763 94.863 165.651 100.479 164.211C102.171 163.773 103.794 163.181 105.492 162.463C106.779 163.835 108.539 164.82 110.436 165.287C114.838 166.397 119.236 164.877 123.365 163.272C127.09 161.809 130.81 160.357 134.535 158.831C136.295 160.801 138.664 162.207 141.239 162.805C141.375 161.376 141.575 159.936 141.78 158.507C140.698 158.256 139.615 157.795 138.664 157.084C139.883 156.486 141.102 155.803 142.184 154.943C142.52 151.938 142.862 148.949 143.267 145.943C143.403 144.651 143.603 143.364 143.671 142.066C143.266 141.719 142.788 141.423 142.184 141.201L142.179 141.213Z" fill="#A1D2FF"/>
<path d="M153.696 98.6371C153.559 101.66 153.36 104.666 153.086 107.677C152.949 109.197 152.813 110.717 152.682 112.237C152.477 114.241 152.277 116.256 152.004 118.277C151.867 119.467 151.731 120.679 151.6 121.875C151.463 123.235 151.263 124.601 151.127 125.962C150.045 134.854 148.962 143.729 147.874 152.609C147.601 154.505 147.402 156.389 147.128 158.285C146.992 159.788 146.792 161.308 146.587 162.816C145.505 171.822 144.354 180.834 143.204 189.845C142.999 191.633 142.799 193.426 142.526 195.225C140.362 212.792 138.123 230.343 135.822 247.893C134.671 256.421 133.589 264.937 132.507 273.465C132.37 274.188 132.302 274.922 132.234 275.645C131.351 282.385 130.474 289.125 129.727 295.877C127.967 309.972 126.543 324.118 124.584 338.185C124.516 338.988 124.379 339.79 124.248 340.593C124.111 341.629 123.975 342.676 123.844 343.712C123.707 344.515 123.234 344.953 122.693 345.084C121.611 345.363 120.05 344.504 119.919 343.189C119.851 342.403 119.782 341.623 119.714 340.832C119.714 340.821 119.714 340.821 119.714 340.804C119.646 340.422 119.782 340.126 119.987 339.933C120.056 339.836 120.193 339.756 120.324 339.688C120.324 339.352 120.392 339.022 120.392 338.692C122.084 322.166 124.453 305.697 126.486 289.211C126.959 285.277 127.432 281.355 127.91 277.433C128.047 276.078 128.247 274.74 128.383 273.391C131.43 247.529 134.136 221.622 137.252 195.76C137.32 195.139 137.388 194.536 137.525 193.915C137.662 192.731 137.798 191.57 137.929 190.38C139.012 181.192 140.094 171.999 141.244 162.794C141.381 161.365 141.581 159.924 141.786 158.496C141.922 157.317 142.059 156.122 142.19 154.938C142.526 151.932 142.868 148.943 143.272 145.938C143.409 144.645 143.608 143.359 143.677 142.061C144.491 135.435 145.232 128.791 146.046 122.148C146.183 120.907 146.382 119.672 146.519 118.419C146.792 116.387 147.06 114.36 147.402 112.345C147.607 110.689 147.874 109.032 148.148 107.392C148.689 104.284 149.23 101.193 149.908 98.1077C150.312 95.9445 153.77 96.4682 153.701 98.6201L153.696 98.6371Z" fill="#161616"/>
<path d="M132.501 273.471C132.365 274.194 132.296 274.928 132.228 275.651C130.741 276.152 129.249 276.738 127.893 277.444C125.456 278.662 123.154 280.211 121.189 282.118C117.669 285.505 115.3 289.877 113.471 294.385C111.711 298.837 110.356 303.477 108.938 308.048C107.383 312.972 105.822 317.891 104.267 322.832C101.288 332.475 98.3091 342.136 95.5352 351.83C90.5228 368.811 85.8522 385.912 81.7227 403.127C84.1605 400.651 86.53 398.1 88.7628 395.436C102.37 379.36 112.862 360.722 119.703 340.821C119.771 340.536 119.908 340.24 119.976 339.95C120.113 339.545 120.25 339.124 120.381 338.714C120.449 338.606 120.449 338.498 120.517 338.39C121.195 336.295 123.969 336.619 124.578 338.202C124.783 338.583 124.783 339.022 124.578 339.523C124.51 339.887 124.373 340.246 124.242 340.61C123.77 342.119 123.228 343.61 122.687 345.101C121.195 349.217 119.503 353.288 117.743 357.29C108.47 377.869 95.1308 396.153 79.2222 412.082C77.5305 413.801 74.8193 412.042 75.3604 409.81C78.0033 398.032 80.9822 386.322 84.1605 374.681C89.714 354.341 95.8712 334.183 102.171 314.048C103.663 309.135 105.15 304.217 106.705 299.327C108.191 294.818 109.82 290.287 112.19 286.182C115.642 280.307 121.394 274.336 128.372 273.419C129.727 273.243 131.077 273.254 132.501 273.488V273.471Z" fill="#161616"/>
<path d="M203.386 163.67C195.874 168.885 184.567 168.105 178.74 160.767C172.173 152.393 170.481 136.607 180.705 130.061C181.11 129.804 181.315 129.446 181.452 129.064C181.657 128.934 181.856 128.791 182.129 128.672C185.581 126.816 189.58 125.956 193.504 126.155C202.167 126.588 209.008 133.305 211.309 140.968C213.747 149.177 210.768 158.587 203.386 163.67ZM218.822 144.383C217.603 133.613 210.022 123.224 198.647 120.463C192.621 119.005 186.396 119.785 180.774 122.262C178.068 123.486 175.63 125.245 173.597 127.385C171.7 129.366 169.872 131.985 169.804 134.729C165.947 141.998 167.098 152.239 170.345 159.48C172.919 165.116 177.521 169.585 183.479 171.885C189.033 174.014 195.663 174.094 201.285 172.033C212.728 167.826 220.104 156.025 218.816 144.383H218.822Z" fill="#161616"/>
<path d="M344.205 17.2036C340.007 17.2036 340.007 23.699 344.205 23.699C348.403 23.699 348.403 17.2036 344.205 17.2036Z" fill="white"/>
<path d="M335.473 19.2358C335.337 18.6836 335.001 18.194 334.659 17.7899C334.386 17.6134 334.186 17.4426 333.981 17.2661C333.44 16.9701 332.899 16.8221 332.289 16.8221C331.817 16.7993 331.407 16.8961 331.002 17.1067C330.598 17.2377 330.256 17.4654 329.988 17.7899C329.652 18.0802 329.447 18.4388 329.311 18.843C329.037 19.2358 328.974 19.6628 328.974 20.1125C329.043 20.4028 329.111 20.6931 329.111 20.9835C329.316 21.5356 329.584 22.0252 329.994 22.4408C330.199 22.6116 330.398 22.788 330.603 22.9531C331.145 23.2491 331.686 23.3971 332.295 23.3971C332.768 23.4199 333.178 23.3231 333.582 23.1125C333.987 22.9816 334.329 22.7596 334.665 22.4351C334.938 22.1391 335.206 21.7804 335.342 21.3706C335.548 20.9778 335.616 20.5565 335.616 20.1068L335.479 19.2244L335.473 19.2358Z" fill="white"/>
<path d="M312.32 50.2155C313.402 49.1908 315.84 48.3255 317.059 49.5437C319.024 51.5419 314.758 54.0751 310.765 55.874C310.36 53.8986 310.901 51.6329 312.32 50.2098V50.2155ZM289.098 52.2307C290.453 50.3919 292.686 49.7828 294.851 49.9365C292.954 52.3559 290.653 54.4508 288.078 56.1358C287.873 54.8038 288.215 53.3692 289.092 52.2307H289.098ZM270.478 47.7847C272.101 46.7202 274.471 46.6632 273.525 49.2192C272.779 51.1434 271.087 52.5153 269.532 53.7392C267.909 54.9973 266.217 56.096 264.457 57.0808C263.643 53.5969 267.977 49.4299 270.484 47.7847H270.478ZM243.804 51.1092C244.414 49.9991 245.091 48.7809 245.906 47.8302C246.515 47.187 248.207 45.9403 248.953 47.1243C250.035 48.8037 246.515 51.7753 245.502 52.7259C244.419 53.7222 243.269 54.6216 242.05 55.4527C242.386 53.91 243.132 52.4015 243.81 51.1092H243.804ZM321.524 58.9879C318.95 61.3674 314.553 61.2479 312.251 58.8342C314.148 57.986 315.976 57.0068 317.6 55.7943C320.106 53.836 322.134 50.1528 319.497 47.335C317.531 45.2287 314.08 45.3198 311.71 46.5437C308.731 48.0636 307.176 51.6273 307.176 54.855C307.176 55.6691 307.313 56.4603 307.45 57.2288C306.299 57.6729 305.416 57.9917 305.012 58.1112C300.814 59.4775 293.774 62.0448 289.781 59.0505C289.713 59.022 289.713 58.9879 289.645 58.9708C293.438 56.5913 296.685 53.4546 299.191 49.6576C299.8 48.7126 299.122 47.5399 298.177 47.2154C294.589 46.0257 290.391 46.4697 287.548 49.0769C285.179 51.2288 284.165 54.781 285.179 57.8209C282.473 59.1587 279.625 60.0866 276.647 60.542C273.668 60.986 268.86 61.4471 266.155 59.4888C266.833 59.1074 267.51 58.7089 268.12 58.2934C271.64 56.096 278.481 51.5589 276.516 46.4925C275.502 43.9763 272.654 43.481 270.353 44.4545C267.846 45.5418 265.545 47.8644 263.854 50.0048C262.162 52.1965 260.943 55.0258 261.621 57.8493C261.689 58.0543 261.758 58.2421 261.758 58.43C260.47 59.0277 259.183 59.5742 257.833 60.0183C254.176 61.2137 249.574 62.4604 245.712 61.4414C244.226 61.0429 242.938 60.1606 242.329 58.7545C244.63 57.4622 246.732 55.8626 248.623 53.9556C250.383 52.1908 252.348 49.891 251.938 47.2097C251.602 44.6366 248.959 43.4583 246.589 44.1585C244.015 44.9213 242.46 47.7562 241.309 49.9593C240.09 52.1737 239.008 54.7013 239.145 57.2687C237.112 58.356 235.015 59.2497 232.783 59.9158C231.427 60.3086 232.037 62.1815 233.324 61.9538C235.557 61.5667 237.727 60.912 239.754 60.0183C241.651 64.0828 247 64.8684 251.197 64.3561C255.395 63.8437 259.456 62.6653 263.318 60.912C264.264 61.8798 265.483 62.597 266.838 63.0581C272.46 64.9823 279.432 63.7185 284.78 61.5268C285.458 61.2479 286.067 60.9519 286.745 60.6274C291.012 65.4832 300.353 62.9329 305.564 61.2763C306.647 60.9519 307.661 60.6046 308.748 60.2289C309.762 61.9082 311.323 63.2517 313.22 63.9974C317.013 65.4263 321.342 64.4642 324.053 61.5211C325.608 59.8361 323.239 57.4395 321.547 59.005L321.524 58.9879Z" fill="#A1D2FF"/>
<path d="M69.9493 115.402C69.7443 114.85 69.4766 114.366 69.0665 113.962C68.8614 113.791 68.6621 113.626 68.457 113.455C67.9159 113.159 67.3748 113.011 66.7653 113.011C66.2926 112.988 65.8825 113.085 65.5464 113.29C65.142 113.427 64.7319 113.649 64.4642 113.967C64.1282 114.263 63.9231 114.616 63.7864 115.015C63.5814 115.408 63.513 115.829 63.513 116.273C63.5814 116.563 63.5814 116.854 63.6497 117.138C63.7864 117.69 64.0541 118.174 64.4642 118.579C64.6693 118.749 64.937 118.914 65.142 119.085C65.6148 119.381 66.1559 119.529 66.7653 119.529C67.2381 119.552 67.6482 119.455 68.0526 119.25C68.457 119.114 68.7988 118.892 69.0665 118.573C69.4025 118.277 69.6076 117.93 69.7443 117.525C69.9493 117.138 70.0803 116.711 70.0177 116.267C70.0177 115.977 69.9493 115.687 69.9493 115.402Z" fill="white"/>
<path d="M79.2222 115.801C79.0855 115.277 78.8178 114.833 78.476 114.452C78.271 114.298 78.0033 114.138 77.7982 113.979C77.3255 113.7 76.8527 113.563 76.3116 113.563C75.9072 113.541 75.4971 113.632 75.0927 113.82C74.7566 113.939 74.4149 114.156 74.1472 114.452C73.8738 114.73 73.6061 115.061 73.5377 115.431C73.3327 115.795 73.2017 116.182 73.2643 116.603C73.2643 116.877 73.3327 117.144 73.3327 117.417C73.5377 117.93 73.7371 118.379 74.1472 118.755C74.3522 118.909 74.5516 119.074 74.7566 119.228C75.2294 119.507 75.7705 119.649 76.3116 119.649C76.716 119.66 77.1261 119.575 77.4622 119.387C77.8666 119.268 78.14 119.057 78.476 118.755C78.7494 118.476 78.9488 118.152 79.0855 117.776C79.2906 117.417 79.3589 117.025 79.3589 116.603C79.2906 116.33 79.2906 116.063 79.2222 115.801Z" fill="white"/>
<path d="M389.225 171.942C388.211 167.684 385.5 163.949 382.049 161.331C377.919 158.205 373.043 157.534 367.968 157.75C364.989 157.869 361.942 158.228 359.032 157.847C356.189 157.477 354.088 156.281 351.718 154.847C350.972 154.414 350.294 155.245 350.636 155.9C352.937 160.596 359.909 161.08 364.448 160.955C367.832 160.852 371.352 160.414 374.741 161.24C377.247 161.849 379.548 163.13 381.376 164.889C385.17 168.435 387.061 173.718 385.848 178.807C384.629 184.141 380.704 187.312 376.706 190.682C376.096 191.234 376.569 192.475 377.452 192.407C386.525 191.65 391.128 179.792 389.231 171.936L389.225 171.942Z" fill="#161616"/>
</svg>
