<svg width="100" height="76" viewBox="0 0 100 76" fill="none" xmlns="http://www.w3.org/2000/svg">
<path d="M55.2562 21.6374C55.1628 21.2526 55.2887 20.6071 55.2278 20.1519C55.1872 19.8374 54.8825 19.6801 54.6225 19.6429C54.3626 19.6057 54.0782 19.7381 53.9361 19.9822C53.7939 20.2264 53.6801 20.5202 53.8792 21.4761C52.0675 21.3933 50.2518 21.7409 48.4929 22.1547C48.2979 20.1726 48.5416 17.9959 49.9471 16.4855C50.6336 15.7366 51.4866 15.2607 52.4737 15.0827C53.3795 14.9131 54.4519 15.0248 55.2197 15.5545C55.5771 17.6649 55.9062 19.7753 56.2636 21.8857C55.9346 21.7864 55.5771 21.7078 55.2481 21.6374H55.2562ZM42.7857 24.8651C42.3957 23.8761 42.2576 23.2389 42.3185 22.1299C42.3998 21.1616 42.7572 20.1726 43.3341 19.4112C43.9393 18.658 44.7639 18.0828 45.6129 17.7352C46.1085 17.5366 46.6568 17.3794 47.2336 17.2842C47.0427 17.7394 46.9046 18.207 46.7949 18.6911C46.5756 19.7215 46.4415 21.6085 46.7137 22.6347C45.4057 23.0361 43.7078 23.7934 42.7857 24.8651ZM38.8292 29.4336C38.0046 28.246 37.9518 26.4624 37.9234 25.0555C37.9234 23.5741 38.1143 21.9064 39.1583 20.7767C39.6823 20.1933 40.4216 19.7836 41.1893 19.5808C40.8318 20.3546 40.6125 21.1864 40.5312 22.0595C40.45 22.7216 40.5028 23.3879 40.6125 24.0334C40.7425 24.6831 41.0796 26.0031 41.7661 26.268C41.3558 27.0749 41.1324 27.977 41.2421 28.9039C41.2705 29.2929 41.3518 29.6777 41.4899 30.0419C40.8196 30.4474 39.7066 30.7454 38.8252 29.4294L38.8292 29.4336ZM63.0879 13.4192C62.8401 11.8054 62.5111 10.1998 62.1536 8.60664C61.8246 7.22039 61.4956 5.78033 60.8091 4.52236C60.1754 3.38853 59.1883 2.43677 57.925 2.12227C56.7429 1.83261 55.4268 2.03951 54.5738 2.93748C53.3633 4.17062 53.668 5.99551 53.9157 7.54316C54.2448 9.48391 54.5494 11.4288 54.8785 13.3696C54.9069 13.6054 54.9597 13.8454 54.9881 14.0813C54.2732 13.5599 53.4202 13.2578 52.49 13.2578C51.0885 13.2578 49.7684 13.9282 48.7813 14.9213C48.4523 15.2524 48.176 15.6248 47.9039 16.0138C46.9696 15.8028 46.0638 15.8193 45.0726 16.1421C43.9474 16.5062 42.9563 17.1725 42.1886 18.0663C41.7783 17.8925 41.364 17.8139 40.8684 17.8635C40.1535 17.938 39.467 18.2028 38.8617 18.6042C37.4887 19.5063 36.6357 20.9257 36.2539 22.5189C35.8964 24.1948 35.9533 25.9576 36.197 27.6418C36.4164 29.1729 36.9932 30.8116 38.3418 31.664C38.5327 31.7923 38.752 31.8999 38.9755 31.9868C38.6018 34.9827 40.0357 43.0768 42.0951 44.7072C43.2 45.5804 44.0287 44.4383 43.5859 43.6768C41.6077 40.2671 40.8481 36.1166 40.7871 32.1937C41.3355 32.1109 41.9976 31.8419 42.2698 31.3371C42.6801 31.8213 43.2325 32.1937 43.8337 32.4006C44.6014 32.6447 45.4017 32.6116 46.1978 32.5413C46.8315 32.4833 47.6805 32.2682 48.2857 32.562C48.8625 32.8392 48.891 33.5758 48.891 34.1469C48.891 36.8945 49.0331 40.6188 51.2388 42.5389C53.0708 44.132 56.2108 44.2231 56.4748 42.783C56.6048 42.063 55.6949 42.2244 54.72 42.1209C53.4852 41.9844 51.2876 40.9043 50.8733 36.758C50.727 35.2766 51.1495 33.6213 50.5442 32.2144C49.9674 30.8902 48.6757 30.3729 47.3311 30.406C46.2872 30.435 44.8045 30.9192 43.9231 30.1246C42.9888 29.297 43.0985 27.8984 43.7037 26.9218C44.4999 25.6597 45.9013 24.9976 47.2458 24.5796C48.8138 24.0955 50.4589 23.7065 52.0797 23.5492C53.5623 23.4085 55.24 23.5534 56.6414 24.1575C57.2994 24.4348 57.9047 24.8196 58.4003 25.3121C58.9771 25.9079 59.4158 26.6693 59.6108 27.6335C59.8585 28.9163 61.7799 28.3742 61.5077 27.0914C61.1218 25.1507 59.9154 23.7065 58.319 22.763C57.6203 18.5132 56.9501 14.2468 56.288 9.98876C56.0686 8.50733 55.6543 6.94727 55.6827 5.43687C55.6827 4.37339 56.3977 3.8851 57.3847 4.11683C58.4856 4.37339 59.0868 5.47826 59.4442 6.47553C60.4069 9.21908 60.8741 12.2357 61.2559 15.1158C62.1699 21.7202 62.0927 28.3867 61.6824 35.0407C61.6621 35.3924 60.6303 49.6483 60.61 50C61.2965 49.9172 61.983 49.8303 62.6695 49.7352C62.6898 49.3669 63.7175 35.0903 63.7378 34.722C64.1278 27.5052 64.205 20.6526 63.1001 13.4109L63.0879 13.4192Z" fill="#2220FF"/>
<path d="M15.6987 73.112C15.1854 73.112 14.6674 73.0933 14.1447 73.056C13.6221 73.028 13.1647 72.9627 12.7727 72.86V63.438C12.9781 63.4007 13.1974 63.368 13.4307 63.34C13.6641 63.3027 13.9021 63.2747 14.1447 63.256C14.3874 63.2373 14.6254 63.2233 14.8587 63.214C15.1014 63.2047 15.3301 63.2 15.5447 63.2C16.1327 63.2 16.6787 63.2467 17.1827 63.34C17.6867 63.424 18.1207 63.5687 18.4847 63.774C18.8581 63.9793 19.1474 64.25 19.3527 64.586C19.5581 64.922 19.6607 65.3373 19.6607 65.832C19.6607 66.2893 19.5487 66.6813 19.3247 67.008C19.1101 67.3347 18.8067 67.596 18.4147 67.792C19.0027 67.988 19.4367 68.2773 19.7167 68.66C19.9967 69.0427 20.1367 69.528 20.1367 70.116C20.1367 71.1147 19.7727 71.866 19.0447 72.37C18.3167 72.8647 17.2014 73.112 15.6987 73.112ZM14.5087 68.632V71.586C14.7047 71.6047 14.9147 71.6187 15.1387 71.628C15.3627 71.6373 15.5681 71.642 15.7547 71.642C16.1187 71.642 16.4547 71.6187 16.7627 71.572C17.0801 71.5253 17.3507 71.446 17.5747 71.334C17.8081 71.2127 17.9901 71.054 18.1207 70.858C18.2607 70.662 18.3307 70.41 18.3307 70.102C18.3307 69.5513 18.1301 69.1687 17.7287 68.954C17.3274 68.7393 16.7721 68.632 16.0627 68.632H14.5087ZM14.5087 67.246H15.7547C16.4267 67.246 16.9541 67.1527 17.3367 66.966C17.7194 66.77 17.9107 66.4247 17.9107 65.93C17.9107 65.4633 17.7101 65.132 17.3087 64.936C16.9167 64.74 16.4034 64.642 15.7687 64.642C15.4981 64.642 15.2554 64.6467 15.0407 64.656C14.8354 64.6653 14.6581 64.6793 14.5087 64.698V67.246ZM24.7459 71.81C25.2686 71.81 25.6652 71.782 25.9359 71.726V69.85C25.8426 69.822 25.7072 69.794 25.5299 69.766C25.3526 69.738 25.1566 69.724 24.9419 69.724C24.7552 69.724 24.5639 69.738 24.3679 69.766C24.1812 69.794 24.0086 69.8453 23.8499 69.92C23.7006 69.9947 23.5792 70.102 23.4859 70.242C23.3926 70.3727 23.3459 70.5407 23.3459 70.746C23.3459 71.1473 23.4719 71.4273 23.7239 71.586C23.9759 71.7353 24.3166 71.81 24.7459 71.81ZM24.6059 65.496C25.1659 65.496 25.6372 65.566 26.0199 65.706C26.4026 65.846 26.7059 66.042 26.9299 66.294C27.1632 66.546 27.3266 66.854 27.4199 67.218C27.5226 67.5727 27.5739 67.9647 27.5739 68.394V72.832C27.3126 72.888 26.9159 72.9533 26.3839 73.028C25.8612 73.112 25.2686 73.154 24.6059 73.154C24.1672 73.154 23.7659 73.112 23.4019 73.028C23.0379 72.944 22.7252 72.8087 22.4639 72.622C22.2119 72.4353 22.0112 72.1927 21.8619 71.894C21.7219 71.5953 21.6519 71.2267 21.6519 70.788C21.6519 70.368 21.7312 70.0133 21.8899 69.724C22.0579 69.4347 22.2819 69.2013 22.5619 69.024C22.8419 68.8373 23.1639 68.7067 23.5279 68.632C23.9012 68.548 24.2886 68.506 24.6899 68.506C24.8766 68.506 25.0726 68.52 25.2779 68.548C25.4832 68.5667 25.7026 68.604 25.9359 68.66V68.38C25.9359 68.184 25.9126 67.9973 25.8659 67.82C25.8192 67.6427 25.7352 67.4887 25.6139 67.358C25.5019 67.218 25.3479 67.1107 25.1519 67.036C24.9652 66.9613 24.7272 66.924 24.4379 66.924C24.0459 66.924 23.6866 66.952 23.3599 67.008C23.0332 67.064 22.7672 67.1293 22.5619 67.204L22.3519 65.832C22.5666 65.7573 22.8792 65.6827 23.2899 65.608C23.7006 65.5333 24.1392 65.496 24.6059 65.496ZM29.5224 69.346C29.5224 68.8047 29.6064 68.3007 29.7744 67.834C29.9424 67.358 30.1804 66.9473 30.4884 66.602C30.8058 66.2567 31.1884 65.986 31.6364 65.79C32.0844 65.594 32.5884 65.496 33.1484 65.496C33.8391 65.496 34.4924 65.622 35.1084 65.874L34.7444 67.26C34.5484 67.176 34.3244 67.106 34.0724 67.05C33.8298 66.994 33.5684 66.966 33.2884 66.966C32.6258 66.966 32.1218 67.176 31.7764 67.596C31.4311 68.0067 31.2584 68.59 31.2584 69.346C31.2584 70.074 31.4218 70.6527 31.7484 71.082C32.0751 71.502 32.6258 71.712 33.4004 71.712C33.6898 71.712 33.9744 71.684 34.2544 71.628C34.5344 71.572 34.7771 71.502 34.9824 71.418L35.2204 72.818C35.0338 72.9113 34.7491 72.9953 34.3664 73.07C33.9931 73.1447 33.6058 73.182 33.2044 73.182C32.5791 73.182 32.0331 73.0887 31.5664 72.902C31.1091 72.706 30.7264 72.44 30.4184 72.104C30.1198 71.7587 29.8958 71.3527 29.7464 70.886C29.5971 70.41 29.5224 69.8967 29.5224 69.346ZM38.5059 68.534C38.7206 68.31 38.9493 68.072 39.1919 67.82C39.4346 67.5587 39.6726 67.302 39.9059 67.05C40.1393 66.7887 40.3586 66.5413 40.5639 66.308C40.7786 66.0653 40.9606 65.8553 41.1099 65.678H43.1119C42.6453 66.2007 42.1506 66.742 41.6279 67.302C41.1146 67.862 40.5966 68.408 40.0739 68.94C40.3539 69.1733 40.6479 69.458 40.9559 69.794C41.2639 70.1207 41.5626 70.4707 41.8519 70.844C42.1413 71.2173 42.4119 71.5907 42.6639 71.964C42.9159 72.3373 43.1259 72.6827 43.2939 73H41.3339C41.1659 72.7107 40.9699 72.4073 40.7459 72.09C40.5313 71.7727 40.2979 71.4647 40.0459 71.166C39.7939 70.8673 39.5373 70.5873 39.2759 70.326C39.0146 70.0553 38.7579 69.8267 38.5059 69.64V73H36.8119V62.416L38.5059 62.136V68.534ZM48.2665 63.746L49.9605 63.466V65.678H52.5645V67.092H49.9605V70.074C49.9605 70.662 50.0538 71.082 50.2405 71.334C50.4271 71.586 50.7445 71.712 51.1925 71.712C51.5005 71.712 51.7711 71.6793 52.0045 71.614C52.2471 71.5487 52.4385 71.488 52.5785 71.432L52.8585 72.776C52.6625 72.86 52.4058 72.944 52.0885 73.028C51.7711 73.1213 51.3978 73.168 50.9685 73.168C50.4458 73.168 50.0071 73.098 49.6525 72.958C49.3071 72.818 49.0318 72.6173 48.8265 72.356C48.6211 72.0853 48.4765 71.7633 48.3925 71.39C48.3085 71.0073 48.2665 70.5733 48.2665 70.088V63.746ZM60.94 69.332C60.94 69.9107 60.856 70.438 60.688 70.914C60.52 71.39 60.282 71.796 59.974 72.132C59.666 72.468 59.2926 72.7293 58.854 72.916C58.4246 73.1027 57.9486 73.196 57.426 73.196C56.9033 73.196 56.4273 73.1027 55.998 72.916C55.5686 72.7293 55.2 72.468 54.892 72.132C54.584 71.796 54.3413 71.39 54.164 70.914C53.996 70.438 53.912 69.9107 53.912 69.332C53.912 68.7533 53.996 68.2307 54.164 67.764C54.3413 67.288 54.584 66.882 54.892 66.546C55.2093 66.21 55.5826 65.9533 56.012 65.776C56.4413 65.5893 56.9126 65.496 57.426 65.496C57.9393 65.496 58.4106 65.5893 58.84 65.776C59.2786 65.9533 59.652 66.21 59.96 66.546C60.268 66.882 60.506 67.288 60.674 67.764C60.8513 68.2307 60.94 68.7533 60.94 69.332ZM59.204 69.332C59.204 68.604 59.0453 68.03 58.728 67.61C58.42 67.1807 57.986 66.966 57.426 66.966C56.866 66.966 56.4273 67.1807 56.11 67.61C55.802 68.03 55.648 68.604 55.648 69.332C55.648 70.0693 55.802 70.6527 56.11 71.082C56.4273 71.5113 56.866 71.726 57.426 71.726C57.986 71.726 58.42 71.5113 58.728 71.082C59.0453 70.6527 59.204 70.0693 59.204 69.332ZM66.4287 63.746L68.1227 63.466V65.678H70.7267V67.092H68.1227V70.074C68.1227 70.662 68.2161 71.082 68.4027 71.334C68.5894 71.586 68.9067 71.712 69.3547 71.712C69.6627 71.712 69.9334 71.6793 70.1667 71.614C70.4094 71.5487 70.6007 71.488 70.7407 71.432L71.0207 72.776C70.8247 72.86 70.5681 72.944 70.2507 73.028C69.9334 73.1213 69.5601 73.168 69.1307 73.168C68.6081 73.168 68.1694 73.098 67.8147 72.958C67.4694 72.818 67.1941 72.6173 66.9887 72.356C66.7834 72.0853 66.6387 71.7633 66.5547 71.39C66.4707 71.0073 66.4287 70.5733 66.4287 70.088V63.746ZM79.1022 69.332C79.1022 69.9107 79.0182 70.438 78.8502 70.914C78.6822 71.39 78.4442 71.796 78.1362 72.132C77.8282 72.468 77.4549 72.7293 77.0162 72.916C76.5869 73.1027 76.1109 73.196 75.5882 73.196C75.0656 73.196 74.5896 73.1027 74.1602 72.916C73.7309 72.7293 73.3622 72.468 73.0542 72.132C72.7462 71.796 72.5036 71.39 72.3262 70.914C72.1582 70.438 72.0742 69.9107 72.0742 69.332C72.0742 68.7533 72.1582 68.2307 72.3262 67.764C72.5036 67.288 72.7462 66.882 73.0542 66.546C73.3716 66.21 73.7449 65.9533 74.1742 65.776C74.6036 65.5893 75.0749 65.496 75.5882 65.496C76.1016 65.496 76.5729 65.5893 77.0022 65.776C77.4409 65.9533 77.8142 66.21 78.1222 66.546C78.4302 66.882 78.6682 67.288 78.8362 67.764C79.0136 68.2307 79.1022 68.7533 79.1022 69.332ZM77.3662 69.332C77.3662 68.604 77.2076 68.03 76.8902 67.61C76.5822 67.1807 76.1482 66.966 75.5882 66.966C75.0282 66.966 74.5896 67.1807 74.2722 67.61C73.9642 68.03 73.8102 68.604 73.8102 69.332C73.8102 70.0693 73.9642 70.6527 74.2722 71.082C74.5896 71.5113 75.0282 71.726 75.5882 71.726C76.1482 71.726 76.5822 71.5113 76.8902 71.082C77.2076 70.6527 77.3662 70.0693 77.3662 69.332ZM85.9854 69.374C85.9854 68.618 85.8127 68.03 85.4674 67.61C85.1314 67.19 84.5854 66.98 83.8294 66.98C83.6707 66.98 83.5027 66.9893 83.3254 67.008C83.1574 67.0173 82.9894 67.0453 82.8214 67.092V71.278C82.9707 71.3807 83.1667 71.4787 83.4094 71.572C83.6614 71.656 83.9274 71.698 84.2074 71.698C84.8234 71.698 85.2714 71.488 85.5514 71.068C85.8407 70.648 85.9854 70.0833 85.9854 69.374ZM87.7214 69.346C87.7214 69.906 87.6467 70.4193 87.4974 70.886C87.3574 71.3527 87.1521 71.754 86.8814 72.09C86.6107 72.426 86.2701 72.6873 85.8594 72.874C85.4581 73.0607 85.0007 73.154 84.4874 73.154C84.1421 73.154 83.8247 73.112 83.5354 73.028C83.2461 72.944 83.0081 72.8507 82.8214 72.748V75.59H81.1274V65.916C81.4727 65.8227 81.8974 65.734 82.4014 65.65C82.9054 65.566 83.4374 65.524 83.9974 65.524C84.5761 65.524 85.0941 65.6127 85.5514 65.79C86.0087 65.9673 86.3961 66.224 86.7134 66.56C87.0401 66.8867 87.2874 67.288 87.4554 67.764C87.6327 68.2307 87.7214 68.758 87.7214 69.346Z" fill="#2220FF"/>
</svg>
