<svg width="52" height="52" viewBox="0 0 52 52" fill="none" xmlns="http://www.w3.org/2000/svg">
<path d="M31.2562 21.6374C31.1628 21.2526 31.2887 20.6071 31.2278 20.1519C31.1872 19.8374 30.8825 19.6801 30.6225 19.6429C30.3626 19.6057 30.0782 19.7381 29.9361 19.9822C29.7939 20.2264 29.6801 20.5202 29.8792 21.4761C28.0675 21.3933 26.2518 21.7409 24.4929 22.1547C24.2979 20.1726 24.5416 17.9959 25.9471 16.4855C26.6336 15.7366 27.4866 15.2607 28.4737 15.0827C29.3795 14.9131 30.4519 15.0248 31.2197 15.5545C31.5771 17.6649 31.9062 19.7753 32.2636 21.8857C31.9346 21.7864 31.5771 21.7078 31.2481 21.6374H31.2562ZM18.7857 24.8651C18.3957 23.8761 18.2576 23.2389 18.3185 22.1299C18.3998 21.1616 18.7572 20.1726 19.3341 19.4112C19.9393 18.658 20.7639 18.0828 21.6129 17.7352C22.1085 17.5366 22.6568 17.3794 23.2336 17.2842C23.0427 17.7394 22.9046 18.207 22.7949 18.6911C22.5756 19.7215 22.4415 21.6085 22.7137 22.6347C21.4057 23.0361 19.7078 23.7934 18.7857 24.8651ZM14.8292 29.4336C14.0046 28.246 13.9518 26.4624 13.9234 25.0555C13.9234 23.5741 14.1143 21.9064 15.1583 20.7767C15.6823 20.1933 16.4216 19.7836 17.1893 19.5808C16.8318 20.3546 16.6125 21.1864 16.5312 22.0595C16.45 22.7216 16.5028 23.3879 16.6125 24.0334C16.7425 24.6831 17.0796 26.0031 17.7661 26.268C17.3558 27.0749 17.1324 27.977 17.2421 28.9039C17.2705 29.2929 17.3518 29.6777 17.4899 30.0419C16.8196 30.4474 15.7066 30.7454 14.8252 29.4294L14.8292 29.4336ZM39.0879 13.4192C38.8401 11.8054 38.5111 10.1998 38.1536 8.60664C37.8246 7.22039 37.4956 5.78033 36.8091 4.52236C36.1754 3.38853 35.1883 2.43677 33.925 2.12227C32.7429 1.83261 31.4268 2.03951 30.5738 2.93748C29.3633 4.17062 29.668 5.99551 29.9157 7.54316C30.2448 9.48391 30.5494 11.4288 30.8785 13.3696C30.9069 13.6054 30.9597 13.8454 30.9881 14.0813C30.2732 13.5599 29.4202 13.2578 28.49 13.2578C27.0885 13.2578 25.7684 13.9282 24.7813 14.9213C24.4523 15.2524 24.176 15.6248 23.9039 16.0138C22.9696 15.8028 22.0638 15.8193 21.0726 16.1421C19.9474 16.5062 18.9563 17.1725 18.1886 18.0663C17.7783 17.8925 17.364 17.8139 16.8684 17.8635C16.1535 17.938 15.467 18.2028 14.8617 18.6042C13.4887 19.5063 12.6357 20.9257 12.2539 22.5189C11.8964 24.1948 11.9533 25.9576 12.197 27.6418C12.4164 29.1729 12.9932 30.8116 14.3418 31.664C14.5327 31.7923 14.752 31.8999 14.9755 31.9868C14.6018 34.9827 16.0357 43.0768 18.0951 44.7072C19.2 45.5804 20.0287 44.4383 19.5859 43.6768C17.6077 40.2671 16.8481 36.1166 16.7871 32.1937C17.3355 32.1109 17.9976 31.8419 18.2698 31.3371C18.6801 31.8213 19.2325 32.1937 19.8337 32.4006C20.6014 32.6447 21.4017 32.6116 22.1978 32.5413C22.8315 32.4833 23.6805 32.2682 24.2857 32.562C24.8625 32.8392 24.891 33.5758 24.891 34.1469C24.891 36.8945 25.0331 40.6188 27.2388 42.5389C29.0708 44.132 32.2108 44.2231 32.4748 42.783C32.6048 42.063 31.6949 42.2244 30.72 42.1209C29.4852 41.9844 27.2876 40.9043 26.8733 36.758C26.727 35.2766 27.1495 33.6213 26.5442 32.2144C25.9674 30.8902 24.6757 30.3729 23.3311 30.406C22.2872 30.435 20.8045 30.9192 19.9231 30.1246C18.9888 29.297 19.0985 27.8984 19.7037 26.9218C20.4999 25.6597 21.9013 24.9976 23.2458 24.5796C24.8138 24.0955 26.4589 23.7065 28.0797 23.5492C29.5623 23.4085 31.24 23.5534 32.6414 24.1575C33.2994 24.4348 33.9047 24.8196 34.4003 25.3121C34.9771 25.9079 35.4158 26.6693 35.6108 27.6335C35.8585 28.9163 37.7799 28.3742 37.5077 27.0914C37.1218 25.1507 35.9154 23.7065 34.319 22.763C33.6203 18.5132 32.9501 14.2468 32.288 9.98876C32.0686 8.50733 31.6543 6.94727 31.6827 5.43687C31.6827 4.37339 32.3977 3.8851 33.3847 4.11683C34.4856 4.37339 35.0868 5.47826 35.4442 6.47553C36.4069 9.21908 36.8741 12.2357 37.2559 15.1158C38.1699 21.7202 38.0927 28.3867 37.6824 35.0407C37.6621 35.3924 36.6303 49.6483 36.61 50C37.2965 49.9172 37.983 49.8303 38.6695 49.7352C38.6898 49.3669 39.7175 35.0903 39.7378 34.722C40.1278 27.5052 40.205 20.6526 39.1001 13.4109L39.0879 13.4192Z" fill="#2220FF"/>
</svg>
