<svg width="28" height="28" viewBox="0 0 28 28" fill="none" xmlns="http://www.w3.org/2000/svg">
<g clip-path="url(#clip0_34_1123)">
<path fill-rule="evenodd" clip-rule="evenodd" d="M14 0C21.732 0 28 6.26801 28 14C28 21.732 21.732 28 14 28C6.26801 28 0 21.732 0 14C0 6.26801 6.26801 0 14 0ZM13.9977 7C12.3359 7.00091 10.7286 7.60782 9.4631 8.71221C8.19769 9.8166 7.35663 11.3465 7.09043 13.0283C6.82422 14.7101 7.15018 16.4342 8.00997 17.8922C8.86981 19.3502 10.2074 20.4472 11.7837 20.9868C12.1314 21.0533 12.2624 20.8312 12.2624 20.6422C12.2624 20.5607 12.2611 20.4125 12.2595 20.2223C12.2573 19.9714 12.2545 19.6468 12.2531 19.3063C10.3057 19.7401 9.89425 18.459 9.89425 18.459C9.57668 17.6271 9.11765 17.4084 9.11765 17.4084C8.48239 16.9639 9.16514 16.9723 9.16514 16.9723C9.86878 17.0233 10.2385 17.7126 10.2385 17.7126C10.8622 18.8096 11.8764 18.4923 12.2752 18.3069C12.3378 17.8422 12.5197 17.5261 12.7203 17.3466C11.1647 17.166 9.53031 16.5504 9.53031 13.8003C9.52063 13.0871 9.77879 12.3973 10.2513 11.8738C10.1794 11.6932 9.93945 10.9635 10.3197 9.97228C10.3197 9.97228 10.9074 9.7798 12.245 10.7079C13.3924 10.3863 14.603 10.3863 15.7503 10.7079C17.0869 9.7798 17.6734 9.97228 17.6734 9.97228C18.0547 10.9611 17.8148 11.6908 17.7429 11.8738C18.2169 12.3974 18.4756 13.0884 18.4651 13.8027C18.4651 16.5587 16.8272 17.166 15.2693 17.3431C15.5197 17.5665 15.7434 18.0026 15.7434 18.6729C15.7434 19.3147 15.7398 19.8726 15.7373 20.2427C15.7361 20.426 15.7352 20.5638 15.7352 20.6422C15.7352 20.8335 15.8616 21.0569 16.2163 20.9868C17.7928 20.4471 19.1305 19.35 19.9903 17.8917C20.8501 16.4334 21.1759 14.7091 20.9094 13.0271C20.6429 11.3452 19.8014 9.81527 18.5356 8.71106C17.2697 7.60685 15.662 7.0003 14 7H13.9977ZM9.64835 17.3051C9.63332 17.3407 9.57767 17.3514 9.53247 17.3265C9.48722 17.3016 9.45364 17.2552 9.46984 17.2183C9.4861 17.1815 9.54057 17.172 9.58577 17.197C9.63097 17.2219 9.66578 17.2694 9.64835 17.3051ZM9.9324 17.6295C9.90839 17.6419 9.88092 17.6454 9.85468 17.6392C9.8285 17.6332 9.80514 17.618 9.78864 17.5962C9.74344 17.5463 9.73417 17.4773 9.76892 17.4465C9.80373 17.4155 9.86631 17.4298 9.9115 17.4798C9.9567 17.5296 9.96715 17.5986 9.9324 17.6295ZM10.2082 18.0418C10.1653 18.0727 10.0923 18.0418 10.0517 17.98C10.0405 17.9689 10.0316 17.9556 10.0255 17.9409C10.0194 17.9262 10.0162 17.9104 10.0162 17.8944C10.0162 17.8784 10.0194 17.8626 10.0255 17.8479C10.0316 17.8332 10.0405 17.82 10.0517 17.8089C10.0946 17.7792 10.1676 17.8089 10.2082 17.8695C10.2488 17.9301 10.2499 18.0109 10.2082 18.0418ZM10.5826 18.4411C10.5444 18.4851 10.4668 18.4732 10.403 18.4138C10.3392 18.3543 10.3242 18.2735 10.3624 18.2307C10.4007 18.1879 10.4783 18.1999 10.5444 18.2581C10.6105 18.3163 10.6232 18.3983 10.5826 18.4411Z" fill="currentColor"/>
</g>
<defs>
<clipPath id="clip0_34_1123">
<rect width="28" height="28" fill="white"/>
</clipPath>
</defs>
</svg>
