<svg width="28" height="28" viewBox="0 0 28 28" fill="none" xmlns="http://www.w3.org/2000/svg">
  <path
    d="M14 0C6.2685 0 0 6.2685 0 14C0 21.7315 6.2685 28 14 28C21.7315 28 28 21.7315 28 14C28 6.2685 21.7315 0 14 0ZM11.6667 18.6667H9.33333V11.6667H11.6667V18.6667ZM10.5 10.6272C9.79183 10.6272 9.21667 10.0485 9.21667 9.33333C9.21667 8.61933 9.79067 8.0395 10.5 8.0395C11.2093 8.0395 11.7833 8.61933 11.7833 9.33333C11.7833 10.0485 11.2082 10.6272 10.5 10.6272ZM19.8333 18.6667H17.5023V15.3288C17.5023 13.1343 15.1667 13.3198 15.1667 15.3288V18.6667H12.8333V11.6667H15.1667V12.9418C16.184 11.0565 19.8333 10.9165 19.8333 14.7478V18.6667Z"
    fill="currentColor" />
</svg>