<svg width="12" height="12" viewBox="0 0 12 12" fill="none" xmlns="http://www.w3.org/2000/svg">
<path d="M1.86545 5.80917C1.96719 4.65861 2.05141 3.48384 1.98875 2.32204C4.09154 3.80565 6.23609 5.1889 8.41771 6.46489C7.48726 6.66213 6.5696 6.95107 5.66071 7.34814C4.23505 7.97878 2.86463 8.79888 1.49556 9.60946C1.5973 8.34298 1.75496 7.07564 1.86545 5.80917ZM0.95656 11.9218C4.25391 10.0238 7.48726 7.8793 11.2003 7.99609C11.5507 8.01252 11.8774 7.82134 11.9751 7.34901C12.0641 6.9182 11.9105 6.44587 11.579 6.27372C8.31799 4.5176 5.13316 2.54782 2.04265 0.336678C1.91464 0.24498 1.7718 0.236329 1.6357 0.277853C1.44099 0.0226545 1.10546 -0.0699091 0.854823 0.0555276C0.470109 0.252766 0.346139 0.758834 0.450571 1.23117C0.768582 2.70613 0.573867 4.37919 0.435074 5.86799C0.281458 7.55749 0.0476661 9.23834 0.000503411 10.9443C-0.0170142 11.5723 0.424968 12.2281 0.957234 11.9227L0.95656 11.9218Z" fill="#2220FF"/>
</svg>
