<svg width="32" height="32" viewBox="0 0 32 32" fill="none" xmlns="http://www.w3.org/2000/svg">
<g clip-path="url(#clip0_36_807)">
<path d="M16.0004 0C20.4189 0 24.4184 1.79104 27.3141 4.6867C30.2097 7.58236 32.0008 11.5826 32.0008 16.0004C32.0008 20.4189 30.2097 24.4184 27.3141 27.3141C24.4184 30.2097 20.4181 32.0008 16.0004 32.0008C11.5819 32.0008 7.58236 30.2097 4.6867 27.3141C1.79104 24.4184 0 20.4181 0 16.0004C0 11.5819 1.79104 7.58236 4.6867 4.6867C7.58236 1.79104 11.5826 0 16.0004 0ZM25.7056 15.6799C25.5109 15.667 25.3169 15.545 25.2669 15.3094C25.0722 14.5033 24.9207 13.6972 24.6199 12.9161C24.3411 12.16 23.9547 11.4379 23.5123 10.7644C22.6342 9.44613 21.4508 8.31574 20.0969 7.50508C20.0848 7.49674 20.0598 7.4869 20.0476 7.4778C20.0461 7.58766 20.0332 7.6907 20.0226 7.78086C19.9863 8.28619 19.9097 8.7832 19.8188 9.28248C19.6279 10.3113 19.3309 11.3152 18.9301 12.2827C18.5278 13.2555 18.0376 14.1874 17.4497 15.0594C17.2005 15.4314 16.9323 15.792 16.6466 16.1368C16.6269 16.3951 16.6095 16.6535 16.586 16.9103C16.5747 17.1111 16.5633 17.3126 16.5512 17.5149C16.5315 17.6952 16.5194 17.896 16.4595 18.0679C16.3845 18.296 16.1989 18.4612 15.9466 18.449C15.6814 18.4369 15.5367 18.2354 15.4064 18.0354C15.3253 17.9119 15.2511 17.7899 15.1738 17.6679C15.0708 17.6687 14.9685 17.6232 14.9086 17.5172C14.6154 17.0255 14.0184 16.6648 13.4585 16.6413C12.2857 16.5807 11.4273 17.6732 11.5932 18.7953C11.6683 19.3612 11.9789 19.8916 12.4229 20.2416C12.6804 20.4424 12.9805 20.5909 13.282 20.6795C13.5972 20.7719 13.9692 20.7568 14.2472 20.9325C14.4533 21.0606 14.4397 21.325 14.2503 21.4508C14.0593 21.5826 13.8123 21.6068 13.551 21.578C13.2896 21.5508 13.0274 21.4712 12.8206 21.397C12.7691 21.3773 12.7304 21.3636 12.6797 21.3424C11.963 22.6978 11.6039 24.1941 11.275 25.6874C10.9758 27.0118 10.675 28.3384 9.99162 29.521C11.7478 30.3029 13.6851 30.7522 15.7223 30.7893C15.861 30.4961 16.064 30.2128 16.2042 29.9536C16.4375 29.5574 16.6716 29.1589 16.8921 28.7589C17.1262 28.3603 17.3474 27.958 17.5929 27.5686C17.6755 27.4186 17.7604 27.2588 17.846 27.0989C17.8066 27.0883 17.755 27.0686 17.7172 27.0527C17.4747 26.9542 17.3126 26.7671 17.3437 26.4913C17.3664 26.2496 17.5959 26.0246 17.8475 26.0382C18.3498 26.0655 18.8301 26.1746 19.3453 26.1549C19.8461 26.1344 20.3242 26.0405 20.7886 25.892C21.1288 25.7867 21.4614 25.6533 21.7864 25.4958C22.0985 25.3344 22.4031 25.1488 22.6857 24.9404C22.9107 24.7866 23.1122 24.6154 23.3153 24.4396C24.157 23.6744 24.7904 22.7387 25.2882 21.7265C25.3874 21.5136 25.4867 21.3023 25.5867 21.0871L25.5215 21.0674C25.3245 21.0091 25.1442 20.9447 24.9525 20.8674C24.7351 20.7795 24.5328 20.6894 24.3214 20.5803C24.2343 20.5348 24.1472 20.4901 24.0631 20.434C24.0275 20.409 23.9919 20.3818 23.9699 20.359C23.8956 20.3189 23.8525 20.2704 23.8123 20.206C23.7797 20.1704 23.7805 20.1658 23.8025 20.1893C23.6949 20.0613 23.6676 19.8999 23.7502 19.7491C23.8176 19.6037 24.0032 19.5431 24.1494 19.5787C24.0934 19.5771 24.1207 19.5817 24.2305 19.5915C24.2858 19.5961 24.3381 19.6135 24.3866 19.6438C24.4245 19.6597 24.4631 19.6756 24.501 19.6931C24.5896 19.7332 24.6752 19.7825 24.7624 19.8256C24.8503 19.8666 24.926 19.9022 25.0147 19.9401C25.0275 19.9461 25.0783 19.9666 25.0783 19.9673C25.1298 19.987 25.1813 20.006 25.22 20.0204C25.4003 20.0855 25.5836 20.1431 25.7685 20.1916C25.8147 20.2037 25.8647 20.2151 25.9147 20.2264L25.9435 20.1181C26.0806 19.7128 26.1784 19.2946 26.3413 18.8991C26.2746 18.7241 26.3163 18.518 26.4511 18.3824C26.6072 18.2217 26.7504 18.0581 26.8966 17.8831C26.9436 17.8141 26.9815 17.7763 27.0345 17.6838C27.0587 17.6452 27.0837 17.6043 27.1095 17.5626C27.1133 17.5497 27.1383 17.5081 27.1413 17.4952C27.1542 17.4475 27.18 17.4043 27.1921 17.3596C27.1928 17.3565 27.2027 17.2671 27.2057 17.2565C27.2148 17.2217 27.2118 17.1815 27.208 17.1414C27.2125 17.1232 27.2125 17.1232 27.2125 17.1255C27.2133 17.1232 27.2019 17.1111 27.2065 17.0959C27.1891 17.0542 27.1845 17.0194 27.1663 16.9808C27.1678 16.9754 27.1421 16.9126 27.1315 16.8982C27.1125 16.8626 27.0936 16.8285 27.0739 16.7951C27.0633 16.7815 27.0406 16.761 27.0299 16.7466C26.9246 16.6118 26.7868 16.4928 26.6473 16.3769C26.6367 16.3648 26.6246 16.3565 26.6125 16.3504C26.6133 16.3481 26.6004 16.3421 26.6011 16.339C26.5526 16.3087 26.5178 16.2799 26.4822 16.2542C26.3988 16.1951 26.3147 16.1383 26.2314 16.0799C26.0776 15.9655 25.8723 15.8345 25.7026 15.6769L25.7056 15.6799ZM1.24024 16.98C2.63958 14.6616 3.59874 12.0706 5.20795 9.87494C6.18832 8.54152 7.34522 7.39219 8.77562 6.54592C10.106 5.7542 11.6061 5.2284 13.1381 5.00263C16.3042 4.54275 19.4559 5.35341 21.9652 7.34825C23.1433 8.28619 24.1457 9.45749 24.8995 10.7652C25.6041 11.9925 26.2041 13.4502 26.2867 14.8851C26.3223 14.9117 26.3579 14.9382 26.3928 14.9639C26.4049 14.9723 26.4761 15.023 26.4761 15.023C26.6542 15.1518 26.8496 15.2662 27.0299 15.3852C27.4148 15.6405 27.7974 15.9534 28.027 16.3671C28.2929 16.855 28.2891 17.3967 28.0679 17.9058C27.9035 18.3089 27.6035 18.6339 27.2724 18.9195C27.2709 19.4006 27.1413 19.884 26.9913 20.3386C26.8284 20.8939 26.6261 21.4386 26.3852 21.9682C25.6586 23.6244 24.4775 25.126 22.9304 26.0928C23.0774 26.9974 23.2342 27.9005 23.4418 28.7884C24.5472 28.1437 25.5617 27.3603 26.461 26.461C29.1377 23.7843 30.7939 20.0855 30.7939 16.0011C30.7939 11.916 29.1384 8.21801 26.461 5.5413C23.7843 2.8646 20.0855 1.20842 16.0011 1.20842C11.916 1.20842 8.21801 2.86384 5.5413 5.5413C2.8646 8.21801 1.20842 11.9168 1.20842 16.0011C1.20842 16.3307 1.21903 16.6572 1.24024 16.9815V16.98ZM26.6413 17.63C26.6004 17.5702 26.5436 17.5194 26.4769 17.505C26.4102 17.4906 26.3254 17.4891 26.2716 17.5315C26.1625 17.6225 26.0397 17.7111 25.917 17.799C25.8458 17.8528 25.7753 17.9066 25.7033 17.9626C25.6692 17.9854 25.6473 18.0126 25.6132 18.0361C25.5745 18.0748 25.5488 18.1187 25.5215 18.1672C25.4882 18.2392 25.4821 18.3134 25.5329 18.3884C25.5602 18.4468 25.6435 18.5051 25.717 18.4945C25.7761 18.4839 25.848 18.4809 25.8996 18.4475C25.9321 18.4301 25.9662 18.4089 25.9996 18.3899C26.0662 18.3513 26.1223 18.3036 26.1897 18.2619C26.2988 18.1717 26.4216 18.0846 26.5436 17.9975C26.5981 17.9535 26.6519 17.9096 26.6716 17.8361C26.6883 17.7725 26.6822 17.6899 26.6413 17.6323V17.63ZM25.7056 15.6799C25.7049 15.6822 25.7049 15.6822 25.7056 15.6799V15.6799ZM23.6933 12.9426C23.7365 12.8358 23.7077 12.6789 23.5941 12.6267C23.3926 12.5342 23.1698 12.4653 22.9463 12.4554C22.7372 12.4433 22.513 12.488 22.3266 12.5501C22.1258 12.6115 21.9326 12.6986 21.772 12.8221C21.5637 12.9653 21.2295 13.2085 21.322 13.4979C21.3705 13.6335 21.4667 13.6964 21.6046 13.7116C21.7561 13.7282 21.8728 13.6093 21.9682 13.5176C22.0031 13.4926 22.0251 13.4631 22.0599 13.4388C22.0607 13.4366 22.0622 13.4313 22.0766 13.4297C22.0788 13.4214 22.097 13.407 22.1114 13.4063C22.1819 13.3555 22.2508 13.3078 22.3326 13.2684C22.366 13.2494 22.3993 13.2312 22.4319 13.2138C22.4319 13.2131 22.4319 13.2131 22.4327 13.2115C22.4463 13.2138 22.4463 13.2131 22.447 13.2115C22.4637 13.204 22.4796 13.1956 22.5092 13.1918C22.5872 13.1638 22.6645 13.1411 22.7403 13.1229C22.769 13.1221 22.7842 13.1168 22.7993 13.1123C22.8122 13.1161 22.8122 13.1161 22.8122 13.1161C22.8122 13.1168 22.8122 13.1161 22.813 13.1131C22.8547 13.1153 22.9281 13.1047 22.9297 13.1009C23.016 13.0941 23.1039 13.085 23.1888 13.0843C23.2312 13.085 23.26 13.0827 23.3017 13.0843C23.3289 13.0865 23.3433 13.0865 23.3714 13.0888C23.385 13.0903 23.4532 13.0994 23.3986 13.0918C23.5214 13.1085 23.6449 13.0691 23.6933 12.9418V12.9426ZM22.8115 13.1161C22.7986 13.1123 22.7978 13.1131 22.7978 13.1131L22.8115 13.1161ZM22.8115 13.1161C22.8562 13.1077 22.8403 13.1146 22.8122 13.1131L22.8115 13.1161ZM24.0388 15.1397C24.0456 15.1147 24.0388 15.0874 24.0313 15.0617C24.0244 15.0336 24.0313 15.0094 24.0237 14.9836C24.0093 14.9314 23.9812 14.8783 23.9669 14.8268C23.9365 14.7283 23.8934 14.6253 23.8631 14.5268C23.8525 14.4616 23.8115 14.401 23.7684 14.3525C23.7403 14.298 23.682 14.251 23.6335 14.2215C23.5729 14.1828 23.5077 14.1624 23.438 14.1593C23.3714 14.1449 23.3001 14.1465 23.2373 14.1684C23.1138 14.2078 22.9804 14.2813 22.9206 14.401C22.8592 14.5245 22.8365 14.6609 22.8713 14.7973C22.9001 14.9003 22.9297 15.0033 22.9584 15.1064C22.9728 15.1594 22.9865 15.2147 23.0009 15.2662C23.0471 15.4094 23.1266 15.5367 23.2615 15.6147C23.3842 15.6852 23.5214 15.7026 23.6577 15.667C23.7941 15.6344 23.9032 15.5435 23.9759 15.4306C24.0131 15.3458 24.0426 15.2359 24.0396 15.1405L24.0388 15.1397ZM15.3693 18.7036C15.3428 18.6437 15.3003 18.5922 15.2564 18.5453C15.2344 18.5218 15.2117 18.5013 15.2018 18.4839C15.1897 18.4771 15.1435 18.4384 15.1533 18.4543C15.1094 18.4081 15.0783 18.3634 15.0177 18.3255C14.9935 18.3096 14.9692 18.296 14.9314 18.2778C14.8829 18.2483 14.8207 18.2157 14.7723 18.1861C14.551 18.0619 14.3131 17.946 14.0866 17.8407C13.8464 17.7316 13.3396 17.4588 13.2214 17.8475C13.1456 18.0763 13.3752 18.2255 13.5328 18.3218C13.6669 18.4028 13.8154 18.4824 13.9646 18.5589C14.101 18.6301 14.2396 18.696 14.3783 18.7582L14.5935 18.8521C14.6442 18.8741 14.695 18.8968 14.7457 18.918C14.7965 18.9385 14.8382 18.943 14.8806 18.9423C15.0011 18.9695 15.1215 18.9938 15.242 18.9673C15.364 18.9354 15.4344 18.8301 15.3693 18.7021V18.7036Z" fill="#161616"/>
</g>
<defs>
<clipPath id="clip0_36_807">
<rect width="32" height="32" fill="white"/>
</clipPath>
</defs>
</svg>
