<svg width="28" height="28" viewBox="0 0 28 28" fill="none" xmlns="http://www.w3.org/2000/svg">
  <g clip-path="url(#clip0_34_1184)">
    <path d="M18.8 11.5L14 14.625L9.2 11.5V10.25L14 13.375L18.8 10.25V11.5Z" fill="currentColor" />
    <path fill-rule="evenodd" clip-rule="evenodd"
      d="M14 0C21.732 0 28 6.26801 28 14C28 21.732 21.732 28 14 28C6.26801 28 0 21.732 0 14C0 6.26801 6.26801 0 14 0ZM8.3528 18.6331C8.5876 18.8777 8.87 19 9.2 19H18.8C19.13 19 19.4126 18.8777 19.6478 18.6331C19.8826 18.3881 20 18.0938 20 17.75V10.25C20 9.90625 19.8826 9.61208 19.6478 9.3675C19.4126 9.1225 19.13 9 18.8 9H9.2C8.87 9 8.5876 9.1225 8.3528 9.3675C8.1176 9.61208 8 9.90625 8 10.25V17.75C8 18.0938 8.1176 18.3881 8.3528 18.6331Z"
      fill="currentColor" />
  </g>
  <defs>
    <clipPath id="clip0_34_1184">
      <rect width="28" height="28" fill="white" />
    </clipPath>
  </defs>
</svg>