<svg width="28" height="28" viewBox="0 0 28 28" fill="none" xmlns="http://www.w3.org/2000/svg">
<path fill-rule="evenodd" clip-rule="evenodd" d="M14 0C21.732 0 28 6.26801 28 14C28 21.732 21.732 28 14 28C6.26801 28 0 21.732 0 14C0 6.26801 6.26801 0 14 0ZM14.897 10.5161C13.6432 11.0406 11.1372 12.126 7.37911 13.7724C6.76887 14.0164 6.44921 14.2552 6.42006 14.4886C6.37087 14.8831 6.86225 15.0385 7.53132 15.25C7.62229 15.2788 7.71655 15.3086 7.81318 15.3402C8.47136 15.5553 9.35678 15.8071 9.81709 15.817C10.2346 15.8261 10.7006 15.653 11.2151 15.2977C14.7264 12.9144 16.5389 11.7097 16.6527 11.6837C16.733 11.6654 16.8442 11.6423 16.9196 11.7097C16.995 11.7771 16.9876 11.9047 16.9796 11.9389C16.931 12.1475 15.0036 13.9493 14.0054 14.8825C13.6937 15.1739 13.4727 15.3805 13.4275 15.4277C13.3264 15.5333 13.2235 15.6331 13.1245 15.729C12.5129 16.3218 12.0544 16.7663 13.1498 17.4923C13.6763 17.8411 14.0976 18.1296 14.5179 18.4174C14.9768 18.7317 15.4345 19.0451 16.0267 19.4355C16.1776 19.5349 16.3218 19.6383 16.4621 19.7389C16.9962 20.1218 17.4761 20.4657 18.0689 20.4109C18.4134 20.379 18.7692 20.0533 18.9499 19.0819C19.377 16.7861 20.2164 11.8119 20.4105 9.76219C20.4274 9.58255 20.406 9.35276 20.3889 9.25184C20.3717 9.15093 20.3358 9.00718 20.2054 8.90079C20.051 8.77477 19.8125 8.7482 19.7059 8.75009C19.221 8.75868 18.4771 9.01876 14.897 10.5161Z" fill="currentColor"/>
</svg>
